<svg xmlns="http://www.w3.org/2000/svg" xmlns:xlink="http://www.w3.org/1999/xlink" width="600" zoomAndPan="magnify" viewBox="0 0 450 74.999997" height="100" preserveAspectRatio="xMidYMid meet" version="1.0"><defs><g/></defs><g fill="#071c29" fill-opacity="1"><g transform="translate(39.715025, 45.928042)"><g><path d="M 1.875 0.046875 C 1.769531 0.046875 1.707031 0.0195312 1.6875 -0.03125 C 1.675781 -0.09375 1.671875 -0.207031 1.671875 -0.375 C 1.648438 -0.5625 1.640625 -0.875 1.640625 -1.3125 C 1.640625 -1.445312 1.628906 -1.59375 1.609375 -1.75 C 1.597656 -1.914062 1.59375 -2.132812 1.59375 -2.40625 L 1.59375 -5.859375 C 1.59375 -6.203125 1.601562 -6.53125 1.625 -6.84375 C 1.65625 -7.164062 1.671875 -7.40625 1.671875 -7.5625 C 1.734375 -8.332031 1.765625 -9.070312 1.765625 -9.78125 C 1.765625 -10.65625 1.738281 -11.347656 1.6875 -11.859375 C 1.65625 -12.429688 1.640625 -12.953125 1.640625 -13.421875 C 1.640625 -14.484375 1.664062 -15.722656 1.71875 -17.140625 C 1.71875 -17.359375 1.757812 -17.503906 1.84375 -17.578125 C 1.925781 -17.660156 2.046875 -17.703125 2.203125 -17.703125 L 2.578125 -17.671875 C 2.734375 -17.671875 2.976562 -17.65625 3.3125 -17.625 C 3.644531 -17.601562 4.054688 -17.59375 4.546875 -17.59375 C 5.109375 -17.59375 5.765625 -17.632812 6.515625 -17.71875 C 7.429688 -17.789062 8.039062 -17.828125 8.34375 -17.828125 C 9.03125 -17.828125 9.660156 -17.800781 10.234375 -17.75 L 11.15625 -17.71875 C 11.375 -17.71875 11.515625 -17.664062 11.578125 -17.5625 C 11.648438 -17.46875 11.6875 -17.285156 11.6875 -17.015625 C 11.6875 -16.859375 11.703125 -16.597656 11.734375 -16.234375 C 11.765625 -15.796875 11.78125 -15.414062 11.78125 -15.09375 C 11.78125 -14.757812 11.753906 -14.445312 11.703125 -14.15625 C 11.691406 -13.90625 11.570312 -13.78125 11.34375 -13.78125 C 11.28125 -13.78125 11.1875 -13.796875 11.0625 -13.828125 C 10.945312 -13.859375 10.859375 -13.882812 10.796875 -13.90625 C 10.546875 -13.957031 9.8125 -13.984375 8.59375 -13.984375 L 7.640625 -14 C 7.421875 -14.019531 7.097656 -14.03125 6.671875 -14.03125 C 6.367188 -14.03125 6.140625 -14.019531 5.984375 -14 C 5.484375 -13.96875 5.039062 -13.953125 4.65625 -13.953125 L 3.3125 -13.984375 C 3.175781 -13.984375 3.097656 -13.953125 3.078125 -13.890625 C 3.066406 -13.828125 3.0625 -13.6875 3.0625 -13.46875 C 3.0625 -13.164062 3.050781 -12.90625 3.03125 -12.6875 C 3 -12.019531 2.984375 -11.472656 2.984375 -11.046875 L 2.984375 -9.5625 C 2.984375 -9.207031 2.992188 -8.9375 3.015625 -8.75 C 3.140625 -8.726562 3.363281 -8.71875 3.6875 -8.71875 C 3.976562 -8.707031 4.566406 -8.703125 5.453125 -8.703125 C 5.828125 -8.703125 6.367188 -8.71875 7.078125 -8.75 C 7.617188 -8.78125 7.972656 -8.796875 8.140625 -8.796875 C 8.378906 -8.796875 8.613281 -8.78125 8.84375 -8.75 C 9.082031 -8.726562 9.257812 -8.71875 9.375 -8.71875 C 9.59375 -8.71875 9.703125 -8.617188 9.703125 -8.421875 C 9.703125 -8.347656 9.691406 -8.25 9.671875 -8.125 C 9.660156 -8 9.65625 -7.835938 9.65625 -7.640625 L 9.6875 -6.296875 C 9.6875 -6.140625 9.664062 -6.03125 9.625 -5.96875 C 9.59375 -5.914062 9.535156 -5.890625 9.453125 -5.890625 C 9.398438 -5.890625 9.328125 -5.898438 9.234375 -5.921875 C 9.140625 -5.953125 9.0625 -5.96875 9 -5.96875 C 8.84375 -5.96875 8.554688 -5.972656 8.140625 -5.984375 C 7.734375 -6.003906 7.175781 -6.015625 6.46875 -6.015625 C 5.707031 -6.015625 5.050781 -5.976562 4.5 -5.90625 C 3.945312 -5.84375 3.609375 -5.8125 3.484375 -5.8125 C 3.296875 -5.8125 3.1875 -5.820312 3.15625 -5.84375 C 3.070312 -5.84375 3.023438 -5.847656 3.015625 -5.859375 L 3.015625 -3.34375 C 3.128906 -3.34375 3.21875 -3.347656 3.28125 -3.359375 L 4 -3.390625 L 6.984375 -3.40625 C 7.585938 -3.40625 8.066406 -3.398438 8.421875 -3.390625 L 10.15625 -3.359375 L 11.21875 -3.390625 C 11.425781 -3.390625 11.5625 -3.34375 11.625 -3.25 C 11.695312 -3.15625 11.734375 -3.023438 11.734375 -2.859375 L 11.703125 -2.34375 L 11.6875 -0.578125 C 11.6875 -0.304688 11.625 -0.140625 11.5 -0.078125 C 11.382812 -0.0234375 11.21875 -0.00390625 11 -0.015625 C 10.78125 -0.0234375 10.601562 -0.03125 10.46875 -0.03125 C 9.738281 -0.03125 9.113281 -0.0351562 8.59375 -0.046875 L 6.015625 -0.078125 C 5.816406 -0.078125 4.804688 -0.0507812 2.984375 0 L 2.015625 0.03125 Z M 1.875 0.046875 "/></g></g></g><g fill="#071c29" fill-opacity="1"><g transform="translate(52.711169, 45.928042)"><g><path d="M 2.28125 0.203125 C 1.90625 0.203125 1.71875 0.0351562 1.71875 -0.296875 L 1.71875 -2.28125 L 1.8125 -10.75 C 1.8125 -11.382812 1.769531 -12.546875 1.6875 -14.234375 L 1.59375 -17.34375 C 1.59375 -17.625 1.703125 -17.765625 1.921875 -17.765625 C 2.003906 -17.765625 2.144531 -17.738281 2.34375 -17.6875 C 2.550781 -17.644531 2.710938 -17.625 2.828125 -17.625 C 3.304688 -17.550781 3.875 -17.515625 4.53125 -17.515625 C 4.976562 -17.515625 5.40625 -17.539062 5.8125 -17.59375 C 6.0625 -17.625 6.238281 -17.601562 6.34375 -17.53125 C 6.445312 -17.46875 6.5 -17.363281 6.5 -17.21875 C 6.5 -17.101562 6.484375 -16.976562 6.453125 -16.84375 C 6.429688 -16.71875 6.421875 -16.582031 6.421875 -16.4375 L 6.375 -15.0625 C 6.300781 -13.6875 6.265625 -12.648438 6.265625 -11.953125 L 6.3125 -8.140625 C 6.332031 -7.535156 6.34375 -6.910156 6.34375 -6.265625 L 6.296875 -3.515625 L 6.265625 -3.015625 L 6.296875 -2.296875 L 6.34375 -1.421875 L 9.953125 -1.296875 L 12.96875 -1.265625 L 13.015625 -1.265625 C 13.117188 -1.265625 13.175781 -1.242188 13.1875 -1.203125 C 13.207031 -1.171875 13.210938 -1.125 13.203125 -1.0625 C 13.203125 -1.007812 13.203125 -0.96875 13.203125 -0.9375 C 13.179688 -0.863281 13.179688 -0.734375 13.203125 -0.546875 C 13.234375 -0.367188 13.25 -0.203125 13.25 -0.046875 C 13.25 0.0664062 13.207031 0.140625 13.125 0.171875 C 13.039062 0.210938 12.929688 0.226562 12.796875 0.21875 C 12.671875 0.207031 12.578125 0.203125 12.515625 0.203125 L 11.171875 0.125 C 9.992188 0.0195312 9.160156 -0.03125 8.671875 -0.03125 C 8.128906 -0.03125 6.765625 0.0195312 4.578125 0.125 Z M 2.28125 0.203125 "/></g></g></g><g fill="#071c29" fill-opacity="1"><g transform="translate(65.960145, 45.928042)"><g><path d="M 1.75 0.171875 C 1.675781 0.171875 1.566406 0.171875 1.421875 0.171875 C 1.285156 0.171875 1.195312 0.15625 1.15625 0.125 C 1.125 0.09375 1.109375 0.0234375 1.109375 -0.078125 L 1.140625 -0.890625 L 1.1875 -4.203125 L 1.234375 -9.5 C 1.234375 -10.007812 1.269531 -11.15625 1.34375 -12.9375 C 1.351562 -13.363281 1.375 -14.050781 1.40625 -15 C 1.445312 -15.957031 1.453125 -16.519531 1.421875 -16.6875 L 1.390625 -17.21875 C 1.390625 -17.65625 1.523438 -17.875 1.796875 -17.875 L 2.734375 -17.84375 C 2.898438 -17.84375 2.984375 -17.726562 2.984375 -17.5 C 2.984375 -17.414062 2.972656 -17.316406 2.953125 -17.203125 C 2.941406 -17.097656 2.9375 -16.992188 2.9375 -16.890625 C 2.882812 -16.515625 2.84375 -15.5625 2.8125 -14.03125 C 2.8125 -13.5625 2.773438 -12.363281 2.703125 -10.4375 C 2.640625 -8.582031 2.609375 -7.453125 2.609375 -7.046875 C 2.609375 -6.078125 2.625 -4.84375 2.65625 -3.34375 C 2.6875 -1.851562 2.71875 -0.96875 2.75 -0.6875 C 2.769531 -0.582031 2.78125 -0.460938 2.78125 -0.328125 C 2.78125 -0.210938 2.757812 -0.128906 2.71875 -0.078125 C 2.675781 -0.0234375 2.613281 0.0234375 2.53125 0.078125 C 2.425781 0.140625 2.164062 0.171875 1.75 0.171875 Z M 1.75 0.171875 "/></g></g></g><g fill="#071c29" fill-opacity="1"><g transform="translate(69.828647, 45.928042)"><g><path d="M 7.984375 0.359375 C 7.210938 0.359375 6.289062 0.113281 5.21875 -0.375 C 4.144531 -0.863281 3.175781 -1.773438 2.3125 -3.109375 C 1.457031 -4.441406 1.03125 -6.253906 1.03125 -8.546875 C 1.03125 -11.210938 1.4375 -13.253906 2.25 -14.671875 C 3.0625 -16.097656 3.972656 -17.035156 4.984375 -17.484375 C 5.992188 -17.941406 6.953125 -18.171875 7.859375 -18.171875 C 9.441406 -18.171875 10.632812 -17.773438 11.4375 -16.984375 C 12.238281 -16.191406 12.816406 -15.441406 13.171875 -14.734375 C 13.234375 -14.566406 13.296875 -14.390625 13.359375 -14.203125 C 13.429688 -14.023438 13.492188 -13.867188 13.546875 -13.734375 C 13.566406 -13.691406 13.578125 -13.644531 13.578125 -13.59375 C 13.578125 -13.550781 13.554688 -13.507812 13.515625 -13.46875 C 13.472656 -13.4375 13.414062 -13.40625 13.34375 -13.375 C 13.28125 -13.351562 13.207031 -13.316406 13.125 -13.265625 L 12.546875 -12.96875 C 11.953125 -12.644531 11.535156 -12.4375 11.296875 -12.34375 C 10.929688 -12.125 10.628906 -11.925781 10.390625 -11.75 L 9.90625 -11.421875 C 9.8125 -11.335938 9.65625 -11.226562 9.4375 -11.09375 C 9.363281 -11.039062 9.296875 -11.015625 9.234375 -11.015625 C 9.128906 -10.984375 9.0625 -10.96875 9.03125 -10.96875 C 8.945312 -10.96875 8.875 -11.023438 8.8125 -11.140625 C 8.75 -11.265625 8.691406 -11.359375 8.640625 -11.421875 C 8.609375 -11.472656 8.539062 -11.570312 8.4375 -11.71875 C 8.34375 -11.875 8.222656 -12.003906 8.078125 -12.109375 C 7.929688 -12.222656 7.765625 -12.28125 7.578125 -12.28125 C 7.078125 -12.28125 6.679688 -11.890625 6.390625 -11.109375 C 6.109375 -10.328125 5.96875 -9.503906 5.96875 -8.640625 C 5.96875 -7.847656 5.988281 -7.210938 6.03125 -6.734375 C 6.070312 -6.253906 6.207031 -5.8125 6.4375 -5.40625 C 6.664062 -5 7.039062 -4.796875 7.5625 -4.796875 C 8.238281 -4.796875 8.707031 -5.21875 8.96875 -6.0625 C 9.09375 -6.414062 9.15625 -6.835938 9.15625 -7.328125 L 8.640625 -7.4375 C 8.242188 -7.5 7.953125 -7.539062 7.765625 -7.5625 C 7.441406 -7.59375 7.28125 -7.707031 7.28125 -7.90625 C 7.28125 -8.03125 7.347656 -8.363281 7.484375 -8.90625 C 7.566406 -9.164062 7.648438 -9.320312 7.734375 -9.375 C 7.816406 -9.425781 7.941406 -9.445312 8.109375 -9.4375 C 8.191406 -9.414062 8.390625 -9.382812 8.703125 -9.34375 C 9.015625 -9.300781 9.507812 -9.242188 10.1875 -9.171875 L 11.578125 -8.96875 C 12.523438 -8.832031 13.15625 -8.757812 13.46875 -8.75 C 13.757812 -8.726562 13.957031 -8.578125 14.0625 -8.296875 C 14.09375 -8.128906 14.097656 -7.984375 14.078125 -7.859375 C 13.960938 -5.773438 13.570312 -4.117188 12.90625 -2.890625 C 12.238281 -1.671875 11.46875 -0.820312 10.59375 -0.34375 C 9.71875 0.125 8.847656 0.359375 7.984375 0.359375 Z M 7.984375 0.359375 "/></g></g></g><g fill="#071c29" fill-opacity="1"><g transform="translate(84.796964, 45.928042)"><g><path d="M 1.875 0.046875 C 1.769531 0.046875 1.707031 0.0195312 1.6875 -0.03125 C 1.675781 -0.09375 1.671875 -0.207031 1.671875 -0.375 C 1.648438 -0.5625 1.640625 -0.875 1.640625 -1.3125 C 1.640625 -1.445312 1.628906 -1.59375 1.609375 -1.75 C 1.597656 -1.914062 1.59375 -2.132812 1.59375 -2.40625 L 1.59375 -5.859375 C 1.59375 -6.203125 1.601562 -6.53125 1.625 -6.84375 C 1.65625 -7.164062 1.671875 -7.40625 1.671875 -7.5625 C 1.734375 -8.332031 1.765625 -9.070312 1.765625 -9.78125 C 1.765625 -10.65625 1.738281 -11.347656 1.6875 -11.859375 C 1.65625 -12.429688 1.640625 -12.953125 1.640625 -13.421875 C 1.640625 -14.484375 1.664062 -15.722656 1.71875 -17.140625 C 1.71875 -17.359375 1.757812 -17.503906 1.84375 -17.578125 C 1.925781 -17.660156 2.046875 -17.703125 2.203125 -17.703125 L 2.578125 -17.671875 C 2.734375 -17.671875 2.976562 -17.65625 3.3125 -17.625 C 3.644531 -17.601562 4.054688 -17.59375 4.546875 -17.59375 C 5.109375 -17.59375 5.765625 -17.632812 6.515625 -17.71875 C 7.429688 -17.789062 8.039062 -17.828125 8.34375 -17.828125 C 9.03125 -17.828125 9.660156 -17.800781 10.234375 -17.75 L 11.15625 -17.71875 C 11.375 -17.71875 11.515625 -17.664062 11.578125 -17.5625 C 11.648438 -17.46875 11.6875 -17.285156 11.6875 -17.015625 C 11.6875 -16.859375 11.703125 -16.597656 11.734375 -16.234375 C 11.765625 -15.796875 11.78125 -15.414062 11.78125 -15.09375 C 11.78125 -14.757812 11.753906 -14.445312 11.703125 -14.15625 C 11.691406 -13.90625 11.570312 -13.78125 11.34375 -13.78125 C 11.28125 -13.78125 11.1875 -13.796875 11.0625 -13.828125 C 10.945312 -13.859375 10.859375 -13.882812 10.796875 -13.90625 C 10.546875 -13.957031 9.8125 -13.984375 8.59375 -13.984375 L 7.640625 -14 C 7.421875 -14.019531 7.097656 -14.03125 6.671875 -14.03125 C 6.367188 -14.03125 6.140625 -14.019531 5.984375 -14 C 5.484375 -13.96875 5.039062 -13.953125 4.65625 -13.953125 L 3.3125 -13.984375 C 3.175781 -13.984375 3.097656 -13.953125 3.078125 -13.890625 C 3.066406 -13.828125 3.0625 -13.6875 3.0625 -13.46875 C 3.0625 -13.164062 3.050781 -12.90625 3.03125 -12.6875 C 3 -12.019531 2.984375 -11.472656 2.984375 -11.046875 L 2.984375 -9.5625 C 2.984375 -9.207031 2.992188 -8.9375 3.015625 -8.75 C 3.140625 -8.726562 3.363281 -8.71875 3.6875 -8.71875 C 3.976562 -8.707031 4.566406 -8.703125 5.453125 -8.703125 C 5.828125 -8.703125 6.367188 -8.71875 7.078125 -8.75 C 7.617188 -8.78125 7.972656 -8.796875 8.140625 -8.796875 C 8.378906 -8.796875 8.613281 -8.78125 8.84375 -8.75 C 9.082031 -8.726562 9.257812 -8.71875 9.375 -8.71875 C 9.59375 -8.71875 9.703125 -8.617188 9.703125 -8.421875 C 9.703125 -8.347656 9.691406 -8.25 9.671875 -8.125 C 9.660156 -8 9.65625 -7.835938 9.65625 -7.640625 L 9.6875 -6.296875 C 9.6875 -6.140625 9.664062 -6.03125 9.625 -5.96875 C 9.59375 -5.914062 9.535156 -5.890625 9.453125 -5.890625 C 9.398438 -5.890625 9.328125 -5.898438 9.234375 -5.921875 C 9.140625 -5.953125 9.0625 -5.96875 9 -5.96875 C 8.84375 -5.96875 8.554688 -5.972656 8.140625 -5.984375 C 7.734375 -6.003906 7.175781 -6.015625 6.46875 -6.015625 C 5.707031 -6.015625 5.050781 -5.976562 4.5 -5.90625 C 3.945312 -5.84375 3.609375 -5.8125 3.484375 -5.8125 C 3.296875 -5.8125 3.1875 -5.820312 3.15625 -5.84375 C 3.070312 -5.84375 3.023438 -5.847656 3.015625 -5.859375 L 3.015625 -3.34375 C 3.128906 -3.34375 3.21875 -3.347656 3.28125 -3.359375 L 4 -3.390625 L 6.984375 -3.40625 C 7.585938 -3.40625 8.066406 -3.398438 8.421875 -3.390625 L 10.15625 -3.359375 L 11.21875 -3.390625 C 11.425781 -3.390625 11.5625 -3.34375 11.625 -3.25 C 11.695312 -3.15625 11.734375 -3.023438 11.734375 -2.859375 L 11.703125 -2.34375 L 11.6875 -0.578125 C 11.6875 -0.304688 11.625 -0.140625 11.5 -0.078125 C 11.382812 -0.0234375 11.21875 -0.00390625 11 -0.015625 C 10.78125 -0.0234375 10.601562 -0.03125 10.46875 -0.03125 C 9.738281 -0.03125 9.113281 -0.0351562 8.59375 -0.046875 L 6.015625 -0.078125 C 5.816406 -0.078125 4.804688 -0.0507812 2.984375 0 L 2.015625 0.03125 Z M 1.875 0.046875 "/></g></g></g><g fill="#071c29" fill-opacity="1"><g transform="translate(97.793108, 45.928042)"><g/></g></g><g fill="#071c29" fill-opacity="1"><g transform="translate(104.367039, 45.928042)"><g><path d="M 10.796875 -14.984375 C 10.773438 -14.816406 10.785156 -14.113281 10.828125 -12.875 C 10.910156 -10.8125 10.953125 -9.113281 10.953125 -7.78125 L 10.953125 -6.25 C 10.910156 -4.070312 10.390625 -2.5 9.390625 -1.53125 C 8.390625 -0.5625 7.179688 -0.078125 5.765625 -0.078125 C 4.679688 -0.078125 3.8125 -0.429688 3.15625 -1.140625 C 2.5 -1.859375 2.035156 -2.660156 1.765625 -3.546875 C 1.648438 -3.929688 1.5625 -4.53125 1.5 -5.34375 C 1.445312 -6.164062 1.421875 -7.003906 1.421875 -7.859375 C 1.421875 -8.816406 1.441406 -9.457031 1.484375 -9.78125 C 1.523438 -10.019531 1.546875 -10.804688 1.546875 -12.140625 C 1.546875 -14.265625 1.507812 -15.796875 1.4375 -16.734375 C 1.425781 -16.835938 1.421875 -16.972656 1.421875 -17.140625 C 1.421875 -17.660156 1.578125 -17.851562 1.890625 -17.71875 L 2.171875 -17.703125 C 2.242188 -17.703125 2.316406 -17.707031 2.390625 -17.71875 C 2.460938 -17.738281 2.539062 -17.75 2.625 -17.75 C 2.695312 -17.75 2.738281 -17.695312 2.75 -17.59375 C 2.738281 -16.53125 2.722656 -15.007812 2.703125 -13.03125 C 2.691406 -11.050781 2.6875 -9.132812 2.6875 -7.28125 C 2.6875 -6.300781 2.804688 -5.421875 3.046875 -4.640625 C 3.285156 -3.867188 3.625 -3.265625 4.0625 -2.828125 C 4.507812 -2.390625 5 -2.171875 5.53125 -2.171875 C 6.28125 -2.171875 6.816406 -2.382812 7.140625 -2.8125 C 7.472656 -3.25 7.640625 -3.703125 7.640625 -4.171875 L 7.6875 -5.71875 C 7.738281 -8.238281 7.765625 -9.632812 7.765625 -9.90625 C 7.765625 -10.289062 7.78125 -11.054688 7.8125 -12.203125 C 7.863281 -13.171875 7.890625 -14.117188 7.890625 -15.046875 C 7.890625 -15.867188 7.851562 -16.445312 7.78125 -16.78125 C 7.726562 -16.988281 7.703125 -17.148438 7.703125 -17.265625 C 7.703125 -17.503906 7.757812 -17.648438 7.875 -17.703125 C 7.988281 -17.765625 8.097656 -17.789062 8.203125 -17.78125 C 8.316406 -17.769531 8.390625 -17.765625 8.421875 -17.765625 C 8.585938 -17.753906 8.773438 -17.75 8.984375 -17.75 C 9.191406 -17.757812 9.382812 -17.765625 9.5625 -17.765625 L 10.21875 -17.765625 C 10.488281 -17.765625 10.644531 -17.726562 10.6875 -17.65625 C 10.726562 -17.582031 10.753906 -17.421875 10.765625 -17.171875 C 10.804688 -16.796875 10.828125 -16.335938 10.828125 -15.796875 C 10.828125 -15.429688 10.816406 -15.160156 10.796875 -14.984375 Z M 2.75 -17.46875 L 2.75 -17.59375 Z M 2.75 -17.46875 "/></g></g></g><g fill="#071c29" fill-opacity="1"><g transform="translate(116.705803, 45.928042)"><g><path d="M 2.296875 0.296875 C 2.046875 0.296875 1.878906 0.25 1.796875 0.15625 C 1.710938 0.0703125 1.660156 -0.0234375 1.640625 -0.140625 C 1.628906 -0.265625 1.613281 -0.351562 1.59375 -0.40625 C 1.519531 -0.707031 1.484375 -1.078125 1.484375 -1.515625 C 1.484375 -1.921875 1.492188 -2.265625 1.515625 -2.546875 C 1.515625 -3.429688 1.53125 -4.457031 1.5625 -5.625 C 1.601562 -6.789062 1.644531 -7.628906 1.6875 -8.140625 L 1.8125 -9.9375 C 2.019531 -12.726562 2.125 -14.300781 2.125 -14.65625 C 2.125 -15.988281 2.148438 -16.984375 2.203125 -17.640625 C 2.234375 -18.097656 2.46875 -18.328125 2.90625 -18.328125 C 3.039062 -18.328125 3.164062 -18.316406 3.28125 -18.296875 C 3.40625 -18.285156 3.5 -18.28125 3.5625 -18.28125 L 5.71875 -18.296875 C 6.082031 -18.296875 6.351562 -18.257812 6.53125 -18.1875 C 6.707031 -18.113281 6.847656 -17.984375 6.953125 -17.796875 C 7.117188 -17.441406 7.328125 -16.988281 7.578125 -16.4375 L 8.515625 -14.40625 L 9.703125 -11.8125 C 9.921875 -11.332031 10.207031 -10.703125 10.5625 -9.921875 C 10.914062 -9.148438 11.171875 -8.613281 11.328125 -8.3125 C 11.609375 -7.726562 11.789062 -7.367188 11.875 -7.234375 L 12.59375 -5.84375 L 13.375 -4.296875 L 13.328125 -5.765625 L 13.21875 -8.234375 L 13.21875 -9 C 13.21875 -9.925781 13.234375 -10.863281 13.265625 -11.8125 C 13.265625 -12.519531 13.257812 -13.09375 13.25 -13.53125 L 13.21875 -15.453125 L 13.328125 -17.875 C 13.328125 -18.125 13.453125 -18.25 13.703125 -18.25 C 13.785156 -18.25 13.953125 -18.222656 14.203125 -18.171875 C 14.359375 -18.140625 14.519531 -18.125 14.6875 -18.125 C 14.851562 -18.125 14.988281 -18.125 15.09375 -18.125 C 15.226562 -18.125 15.316406 -18.109375 15.359375 -18.078125 C 15.398438 -18.046875 15.421875 -17.988281 15.421875 -17.90625 C 15.421875 -17.832031 15.410156 -17.753906 15.390625 -17.671875 C 15.378906 -17.585938 15.375 -17.492188 15.375 -17.390625 L 15.34375 -15.21875 L 15.296875 -10.109375 L 15.265625 -9.375 C 15.265625 -8.800781 15.273438 -8.28125 15.296875 -7.8125 C 15.316406 -7.34375 15.332031 -6.957031 15.34375 -6.65625 C 15.394531 -5.925781 15.421875 -5.316406 15.421875 -4.828125 C 15.421875 -4.898438 15.445312 -3.894531 15.5 -1.8125 L 15.546875 -0.40625 L 15.546875 -0.359375 C 15.546875 -0.015625 15.382812 0.132812 15.0625 0.09375 C 15.007812 0.0820312 14.910156 0.078125 14.765625 0.078125 L 14.03125 0.09375 L 13.875 0.09375 C 13.757812 0.09375 13.671875 0.0664062 13.609375 0.015625 C 13.554688 -0.0234375 13.460938 -0.164062 13.328125 -0.40625 C 13.273438 -0.519531 13.207031 -0.6875 13.125 -0.90625 C 13.039062 -1.125 12.9375 -1.367188 12.8125 -1.640625 C 12.09375 -3.460938 11.570312 -4.703125 11.25 -5.359375 C 10.875 -6.066406 9.9375 -8.097656 8.4375 -11.453125 C 8.101562 -12.140625 7.726562 -12.875 7.3125 -13.65625 L 6.578125 -14.96875 L 6.65625 -12.5625 L 6.671875 -11.078125 C 6.703125 -9.960938 6.71875 -9.226562 6.71875 -8.875 C 6.71875 -7.488281 6.742188 -6.097656 6.796875 -4.703125 L 6.828125 -2.734375 C 6.828125 -2.378906 6.84375 -1.863281 6.875 -1.1875 L 6.921875 -0.296875 L 6.921875 -0.25 C 6.921875 -0.0820312 6.878906 0.0234375 6.796875 0.078125 C 6.710938 0.128906 6.597656 0.15625 6.453125 0.15625 L 5.890625 0.171875 C 5.535156 0.222656 5.15625 0.25 4.75 0.25 C 4.28125 0.25 3.894531 0.257812 3.59375 0.28125 Z M 2.296875 0.296875 "/></g></g></g><g fill="#071c29" fill-opacity="1"><g transform="translate(133.798011, 45.928042)"><g><path d="M 0.28125 0 C 0.125 0 0.0820312 -0.109375 0.15625 -0.328125 C 0.15625 -0.378906 0.160156 -0.421875 0.171875 -0.453125 C 0.171875 -0.484375 0.179688 -0.523438 0.203125 -0.578125 C 0.222656 -0.628906 0.25 -0.707031 0.28125 -0.8125 L 0.5 -1.75 C 0.539062 -1.84375 0.601562 -2.015625 0.6875 -2.265625 C 0.769531 -2.523438 0.828125 -2.765625 0.859375 -2.984375 C 0.941406 -3.390625 1.101562 -4.003906 1.34375 -4.828125 L 1.546875 -5.53125 C 1.859375 -6.582031 2.0625 -7.316406 2.15625 -7.734375 L 2.5 -9.078125 C 2.664062 -9.628906 2.769531 -9.984375 2.8125 -10.140625 C 2.925781 -10.640625 3.09375 -11.269531 3.3125 -12.03125 L 3.484375 -12.734375 L 3.640625 -13.265625 C 3.804688 -13.835938 3.945312 -14.253906 4.0625 -14.515625 C 4.101562 -14.609375 4.226562 -14.953125 4.4375 -15.546875 C 4.644531 -16.148438 4.785156 -16.628906 4.859375 -16.984375 C 4.972656 -17.390625 5.09375 -17.691406 5.21875 -17.890625 C 5.34375 -18.097656 5.515625 -18.203125 5.734375 -18.203125 C 5.816406 -18.203125 5.898438 -18.125 5.984375 -17.96875 C 6.078125 -17.820312 6.164062 -17.640625 6.25 -17.421875 C 6.332031 -17.203125 6.390625 -17.039062 6.421875 -16.9375 C 6.554688 -16.613281 6.789062 -15.8125 7.125 -14.53125 L 7.328125 -13.828125 C 7.347656 -13.691406 7.628906 -12.863281 8.171875 -11.34375 L 8.640625 -9.953125 L 9.09375 -8.765625 C 9.570312 -7.441406 9.878906 -6.632812 10.015625 -6.34375 C 10.597656 -4.5625 10.941406 -3.484375 11.046875 -3.109375 C 11.160156 -2.671875 11.347656 -2.125 11.609375 -1.46875 C 11.878906 -0.8125 12.03125 -0.441406 12.0625 -0.359375 C 12.113281 -0.234375 12.140625 -0.144531 12.140625 -0.09375 C 12.140625 -0.03125 12.046875 0 11.859375 0 L 10.4375 0 C 10.375 0 10.320312 -0.0078125 10.28125 -0.03125 C 10.238281 -0.0625 10.195312 -0.128906 10.15625 -0.234375 C 10.09375 -0.410156 10.003906 -0.710938 9.890625 -1.140625 C 9.734375 -1.554688 9.628906 -1.9375 9.578125 -2.28125 C 9.523438 -2.53125 9.441406 -2.832031 9.328125 -3.1875 C 9.222656 -3.539062 9.128906 -3.8125 9.046875 -4 C 8.898438 -4.3125 8.765625 -4.671875 8.640625 -5.078125 L 8.421875 -5.8125 C 8.335938 -6 8.273438 -6.113281 8.234375 -6.15625 C 8.191406 -6.195312 8.117188 -6.21875 8.015625 -6.21875 C 7.660156 -6.21875 7.398438 -6.207031 7.234375 -6.1875 L 6.140625 -6.140625 C 6.003906 -6.128906 5.378906 -6.125 4.265625 -6.125 L 2.6875 -6.125 C 2.582031 -6.125 2.503906 -6.03125 2.453125 -5.84375 L 2.40625 -5.59375 L 2.296875 -5.109375 C 2.265625 -5.003906 2.15625 -4.515625 1.96875 -3.640625 C 1.914062 -3.347656 1.832031 -2.976562 1.71875 -2.53125 C 1.6875 -2.1875 1.609375 -1.90625 1.484375 -1.6875 C 1.453125 -1.644531 1.410156 -1.53125 1.359375 -1.34375 C 1.316406 -1.15625 1.273438 -1.003906 1.234375 -0.890625 C 1.179688 -0.753906 1.125 -0.535156 1.0625 -0.234375 C 1.039062 -0.210938 1.019531 -0.171875 1 -0.109375 C 0.988281 -0.0546875 0.96875 -0.0234375 0.9375 -0.015625 C 0.90625 -0.00390625 0.851562 0 0.78125 0 Z M 5.109375 -7.84375 C 5.304688 -7.875 5.59375 -7.890625 5.96875 -7.890625 L 7.328125 -7.859375 C 7.546875 -7.859375 7.65625 -7.921875 7.65625 -8.046875 C 7.65625 -8.128906 7.597656 -8.3125 7.484375 -8.59375 C 7.378906 -8.84375 7.226562 -9.316406 7.03125 -10.015625 C 6.875 -10.566406 6.722656 -11.046875 6.578125 -11.453125 C 6.398438 -11.953125 6.210938 -12.546875 6.015625 -13.234375 C 5.828125 -13.929688 5.71875 -14.382812 5.6875 -14.59375 C 5.4375 -15.476562 5.269531 -15.921875 5.1875 -15.921875 C 5.132812 -15.921875 5.050781 -15.695312 4.9375 -15.25 L 4.78125 -14.6875 C 4.65625 -14.226562 4.5 -13.65625 4.3125 -12.96875 C 4.132812 -12.289062 3.96875 -11.71875 3.8125 -11.25 C 3.71875 -10.8125 3.582031 -10.257812 3.40625 -9.59375 C 3.226562 -8.925781 3.085938 -8.46875 2.984375 -8.21875 C 2.953125 -8.113281 2.9375 -8.054688 2.9375 -8.046875 C 2.9375 -7.921875 2.988281 -7.84375 3.09375 -7.8125 C 3.207031 -7.78125 3.316406 -7.765625 3.421875 -7.765625 C 3.535156 -7.773438 3.609375 -7.78125 3.640625 -7.78125 Z M 5.109375 -7.84375 "/></g></g></g><g fill="#071c29" fill-opacity="1"><g transform="translate(145.808068, 45.928042)"><g/></g></g><g fill="#071c29" fill-opacity="1"><g transform="translate(152.381999, 45.928042)"><g><path d="M 1.75 0.171875 C 1.675781 0.171875 1.566406 0.171875 1.421875 0.171875 C 1.285156 0.171875 1.195312 0.15625 1.15625 0.125 C 1.125 0.09375 1.109375 0.0234375 1.109375 -0.078125 L 1.140625 -0.890625 L 1.1875 -4.203125 L 1.234375 -9.5 C 1.234375 -10.007812 1.269531 -11.15625 1.34375 -12.9375 C 1.351562 -13.363281 1.375 -14.050781 1.40625 -15 C 1.445312 -15.957031 1.453125 -16.519531 1.421875 -16.6875 L 1.390625 -17.21875 C 1.390625 -17.65625 1.523438 -17.875 1.796875 -17.875 L 2.734375 -17.84375 C 2.898438 -17.84375 2.984375 -17.726562 2.984375 -17.5 C 2.984375 -17.414062 2.972656 -17.316406 2.953125 -17.203125 C 2.941406 -17.097656 2.9375 -16.992188 2.9375 -16.890625 C 2.882812 -16.515625 2.84375 -15.5625 2.8125 -14.03125 C 2.8125 -13.5625 2.773438 -12.363281 2.703125 -10.4375 C 2.640625 -8.582031 2.609375 -7.453125 2.609375 -7.046875 C 2.609375 -6.078125 2.625 -4.84375 2.65625 -3.34375 C 2.6875 -1.851562 2.71875 -0.96875 2.75 -0.6875 C 2.769531 -0.582031 2.78125 -0.460938 2.78125 -0.328125 C 2.78125 -0.210938 2.757812 -0.128906 2.71875 -0.078125 C 2.675781 -0.0234375 2.613281 0.0234375 2.53125 0.078125 C 2.425781 0.140625 2.164062 0.171875 1.75 0.171875 Z M 1.75 0.171875 "/></g></g></g><g fill="#071c29" fill-opacity="1"><g transform="translate(156.250502, 45.928042)"><g><path d="M 2.125 0 C 1.875 0 1.726562 -0.0507812 1.6875 -0.15625 C 1.644531 -0.269531 1.628906 -0.503906 1.640625 -0.859375 C 1.640625 -1.410156 1.632812 -1.941406 1.625 -2.453125 L 1.5625 -5.5625 C 1.5625 -6.03125 1.578125 -6.519531 1.609375 -7.03125 C 1.648438 -7.550781 1.675781 -8.015625 1.6875 -8.421875 C 1.769531 -9.628906 1.8125 -10.476562 1.8125 -10.96875 L 1.875 -15.71875 L 1.84375 -17.09375 C 1.84375 -17.675781 1.882812 -18.007812 1.96875 -18.09375 C 2.019531 -18.144531 2.082031 -18.171875 2.15625 -18.171875 C 2.1875 -18.171875 2.242188 -18.15625 2.328125 -18.125 C 2.410156 -18.101562 2.503906 -18.09375 2.609375 -18.09375 L 3.390625 -18.125 C 3.710938 -18.125 3.945312 -18.109375 4.09375 -18.078125 C 4.25 -18.023438 4.359375 -17.898438 4.421875 -17.703125 C 4.492188 -17.515625 4.550781 -17.296875 4.59375 -17.046875 C 4.644531 -16.804688 4.691406 -16.617188 4.734375 -16.484375 C 4.816406 -16.023438 5.015625 -15.390625 5.328125 -14.578125 C 5.640625 -13.773438 5.9375 -13.070312 6.21875 -12.46875 C 6.457031 -12.0625 6.773438 -11.40625 7.171875 -10.5 C 7.566406 -9.601562 7.847656 -8.894531 8.015625 -8.375 C 8.117188 -8.101562 8.257812 -7.765625 8.4375 -7.359375 L 8.828125 -6.453125 L 9.359375 -5.265625 C 9.847656 -6.222656 10.203125 -6.921875 10.421875 -7.359375 L 13.203125 -12.921875 C 13.785156 -14.128906 14.179688 -14.910156 14.390625 -15.265625 C 14.703125 -15.921875 15.035156 -16.53125 15.390625 -17.09375 C 15.742188 -17.664062 16 -17.953125 16.15625 -17.953125 C 16.289062 -17.953125 16.359375 -17.84375 16.359375 -17.625 C 16.359375 -17.414062 16.316406 -17.144531 16.234375 -16.8125 L 16.125 -16.1875 C 16.0625 -15.726562 16.03125 -13.703125 16.03125 -10.109375 C 16.03125 -9.316406 16.007812 -8.351562 15.96875 -7.21875 C 15.925781 -6.09375 15.882812 -5.347656 15.84375 -4.984375 C 15.8125 -4.546875 15.796875 -3.894531 15.796875 -3.03125 L 15.828125 -0.578125 L 15.828125 -0.453125 C 15.828125 -0.253906 15.773438 -0.171875 15.671875 -0.203125 L 15.625 -0.203125 C 15.539062 -0.203125 15.441406 -0.191406 15.328125 -0.171875 C 15.222656 -0.160156 15.109375 -0.15625 14.984375 -0.15625 C 14.921875 -0.164062 14.875 -0.203125 14.84375 -0.265625 C 14.820312 -0.335938 14.8125 -0.457031 14.8125 -0.625 L 14.8125 -2.125 C 14.8125 -3.84375 14.828125 -4.851562 14.859375 -5.15625 C 14.898438 -5.507812 14.941406 -6.164062 14.984375 -7.125 C 15.023438 -8.09375 15.046875 -8.867188 15.046875 -9.453125 C 15.023438 -9.609375 15.03125 -10.082031 15.0625 -10.875 L 15.09375 -11.78125 L 15.140625 -13.59375 C 15.023438 -13.425781 14.925781 -13.253906 14.84375 -13.078125 C 14.675781 -12.785156 14.515625 -12.472656 14.359375 -12.140625 L 14.109375 -11.625 C 13.816406 -11.070312 13.484375 -10.421875 13.109375 -9.671875 C 12.742188 -8.921875 12.425781 -8.285156 12.15625 -7.765625 C 11.851562 -7.148438 11.46875 -6.367188 11 -5.421875 C 10.539062 -4.472656 10.1875 -3.71875 9.9375 -3.15625 C 9.5 -2.132812 9.242188 -1.625 9.171875 -1.625 C 9.117188 -1.625 9.039062 -1.707031 8.9375 -1.875 C 8.84375 -2.039062 8.78125 -2.148438 8.75 -2.203125 C 8.632812 -2.390625 8.445312 -2.78125 8.1875 -3.375 C 7.9375 -3.96875 7.734375 -4.492188 7.578125 -4.953125 C 7.484375 -5.253906 7.046875 -6.109375 6.265625 -7.515625 C 5.660156 -8.671875 5.347656 -9.273438 5.328125 -9.328125 C 5.160156 -9.660156 4.9375 -10.222656 4.65625 -11.015625 C 4.46875 -11.441406 4.320312 -11.816406 4.21875 -12.140625 L 4.171875 -11.015625 L 4.125 -9.296875 L 4.0625 -4.328125 L 4.046875 -0.375 C 4.046875 -0.226562 4.003906 -0.132812 3.921875 -0.09375 C 3.835938 -0.0625 3.734375 -0.0507812 3.609375 -0.0625 C 3.492188 -0.0703125 3.40625 -0.078125 3.34375 -0.078125 L 2.78125 -0.046875 C 2.476562 -0.015625 2.257812 0 2.125 0 Z M 2.125 0 "/></g></g></g><g fill="#071c29" fill-opacity="1"><g transform="translate(174.050663, 45.928042)"><g><path d="M 0.28125 0 C 0.125 0 0.0820312 -0.109375 0.15625 -0.328125 C 0.15625 -0.378906 0.160156 -0.421875 0.171875 -0.453125 C 0.171875 -0.484375 0.179688 -0.523438 0.203125 -0.578125 C 0.222656 -0.628906 0.25 -0.707031 0.28125 -0.8125 L 0.5 -1.75 C 0.539062 -1.84375 0.601562 -2.015625 0.6875 -2.265625 C 0.769531 -2.523438 0.828125 -2.765625 0.859375 -2.984375 C 0.941406 -3.390625 1.101562 -4.003906 1.34375 -4.828125 L 1.546875 -5.53125 C 1.859375 -6.582031 2.0625 -7.316406 2.15625 -7.734375 L 2.5 -9.078125 C 2.664062 -9.628906 2.769531 -9.984375 2.8125 -10.140625 C 2.925781 -10.640625 3.09375 -11.269531 3.3125 -12.03125 L 3.484375 -12.734375 L 3.640625 -13.265625 C 3.804688 -13.835938 3.945312 -14.253906 4.0625 -14.515625 C 4.101562 -14.609375 4.226562 -14.953125 4.4375 -15.546875 C 4.644531 -16.148438 4.785156 -16.628906 4.859375 -16.984375 C 4.972656 -17.390625 5.09375 -17.691406 5.21875 -17.890625 C 5.34375 -18.097656 5.515625 -18.203125 5.734375 -18.203125 C 5.816406 -18.203125 5.898438 -18.125 5.984375 -17.96875 C 6.078125 -17.820312 6.164062 -17.640625 6.25 -17.421875 C 6.332031 -17.203125 6.390625 -17.039062 6.421875 -16.9375 C 6.554688 -16.613281 6.789062 -15.8125 7.125 -14.53125 L 7.328125 -13.828125 C 7.347656 -13.691406 7.628906 -12.863281 8.171875 -11.34375 L 8.640625 -9.953125 L 9.09375 -8.765625 C 9.570312 -7.441406 9.878906 -6.632812 10.015625 -6.34375 C 10.597656 -4.5625 10.941406 -3.484375 11.046875 -3.109375 C 11.160156 -2.671875 11.347656 -2.125 11.609375 -1.46875 C 11.878906 -0.8125 12.03125 -0.441406 12.0625 -0.359375 C 12.113281 -0.234375 12.140625 -0.144531 12.140625 -0.09375 C 12.140625 -0.03125 12.046875 0 11.859375 0 L 10.4375 0 C 10.375 0 10.320312 -0.0078125 10.28125 -0.03125 C 10.238281 -0.0625 10.195312 -0.128906 10.15625 -0.234375 C 10.09375 -0.410156 10.003906 -0.710938 9.890625 -1.140625 C 9.734375 -1.554688 9.628906 -1.9375 9.578125 -2.28125 C 9.523438 -2.53125 9.441406 -2.832031 9.328125 -3.1875 C 9.222656 -3.539062 9.128906 -3.8125 9.046875 -4 C 8.898438 -4.3125 8.765625 -4.671875 8.640625 -5.078125 L 8.421875 -5.8125 C 8.335938 -6 8.273438 -6.113281 8.234375 -6.15625 C 8.191406 -6.195312 8.117188 -6.21875 8.015625 -6.21875 C 7.660156 -6.21875 7.398438 -6.207031 7.234375 -6.1875 L 6.140625 -6.140625 C 6.003906 -6.128906 5.378906 -6.125 4.265625 -6.125 L 2.6875 -6.125 C 2.582031 -6.125 2.503906 -6.03125 2.453125 -5.84375 L 2.40625 -5.59375 L 2.296875 -5.109375 C 2.265625 -5.003906 2.15625 -4.515625 1.96875 -3.640625 C 1.914062 -3.347656 1.832031 -2.976562 1.71875 -2.53125 C 1.6875 -2.1875 1.609375 -1.90625 1.484375 -1.6875 C 1.453125 -1.644531 1.410156 -1.53125 1.359375 -1.34375 C 1.316406 -1.15625 1.273438 -1.003906 1.234375 -0.890625 C 1.179688 -0.753906 1.125 -0.535156 1.0625 -0.234375 C 1.039062 -0.210938 1.019531 -0.171875 1 -0.109375 C 0.988281 -0.0546875 0.96875 -0.0234375 0.9375 -0.015625 C 0.90625 -0.00390625 0.851562 0 0.78125 0 Z M 5.109375 -7.84375 C 5.304688 -7.875 5.59375 -7.890625 5.96875 -7.890625 L 7.328125 -7.859375 C 7.546875 -7.859375 7.65625 -7.921875 7.65625 -8.046875 C 7.65625 -8.128906 7.597656 -8.3125 7.484375 -8.59375 C 7.378906 -8.84375 7.226562 -9.316406 7.03125 -10.015625 C 6.875 -10.566406 6.722656 -11.046875 6.578125 -11.453125 C 6.398438 -11.953125 6.210938 -12.546875 6.015625 -13.234375 C 5.828125 -13.929688 5.71875 -14.382812 5.6875 -14.59375 C 5.4375 -15.476562 5.269531 -15.921875 5.1875 -15.921875 C 5.132812 -15.921875 5.050781 -15.695312 4.9375 -15.25 L 4.78125 -14.6875 C 4.65625 -14.226562 4.5 -13.65625 4.3125 -12.96875 C 4.132812 -12.289062 3.96875 -11.71875 3.8125 -11.25 C 3.71875 -10.8125 3.582031 -10.257812 3.40625 -9.59375 C 3.226562 -8.925781 3.085938 -8.46875 2.984375 -8.21875 C 2.953125 -8.113281 2.9375 -8.054688 2.9375 -8.046875 C 2.9375 -7.921875 2.988281 -7.84375 3.09375 -7.8125 C 3.207031 -7.78125 3.316406 -7.765625 3.421875 -7.765625 C 3.535156 -7.773438 3.609375 -7.78125 3.640625 -7.78125 Z M 5.109375 -7.84375 "/></g></g></g><g fill="#071c29" fill-opacity="1"><g transform="translate(186.06072, 45.928042)"><g><path d="M 7.984375 0.359375 C 7.210938 0.359375 6.289062 0.113281 5.21875 -0.375 C 4.144531 -0.863281 3.175781 -1.773438 2.3125 -3.109375 C 1.457031 -4.441406 1.03125 -6.253906 1.03125 -8.546875 C 1.03125 -11.210938 1.4375 -13.253906 2.25 -14.671875 C 3.0625 -16.097656 3.972656 -17.035156 4.984375 -17.484375 C 5.992188 -17.941406 6.953125 -18.171875 7.859375 -18.171875 C 9.441406 -18.171875 10.632812 -17.773438 11.4375 -16.984375 C 12.238281 -16.191406 12.816406 -15.441406 13.171875 -14.734375 C 13.234375 -14.566406 13.296875 -14.390625 13.359375 -14.203125 C 13.429688 -14.023438 13.492188 -13.867188 13.546875 -13.734375 C 13.566406 -13.691406 13.578125 -13.644531 13.578125 -13.59375 C 13.578125 -13.550781 13.554688 -13.507812 13.515625 -13.46875 C 13.472656 -13.4375 13.414062 -13.40625 13.34375 -13.375 C 13.28125 -13.351562 13.207031 -13.316406 13.125 -13.265625 L 12.546875 -12.96875 C 11.953125 -12.644531 11.535156 -12.4375 11.296875 -12.34375 C 10.929688 -12.125 10.628906 -11.925781 10.390625 -11.75 L 9.90625 -11.421875 C 9.8125 -11.335938 9.65625 -11.226562 9.4375 -11.09375 C 9.363281 -11.039062 9.296875 -11.015625 9.234375 -11.015625 C 9.128906 -10.984375 9.0625 -10.96875 9.03125 -10.96875 C 8.945312 -10.96875 8.875 -11.023438 8.8125 -11.140625 C 8.75 -11.265625 8.691406 -11.359375 8.640625 -11.421875 C 8.609375 -11.472656 8.539062 -11.570312 8.4375 -11.71875 C 8.34375 -11.875 8.222656 -12.003906 8.078125 -12.109375 C 7.929688 -12.222656 7.765625 -12.28125 7.578125 -12.28125 C 7.078125 -12.28125 6.679688 -11.890625 6.390625 -11.109375 C 6.109375 -10.328125 5.96875 -9.503906 5.96875 -8.640625 C 5.96875 -7.847656 5.988281 -7.210938 6.03125 -6.734375 C 6.070312 -6.253906 6.207031 -5.8125 6.4375 -5.40625 C 6.664062 -5 7.039062 -4.796875 7.5625 -4.796875 C 8.238281 -4.796875 8.707031 -5.21875 8.96875 -6.0625 C 9.09375 -6.414062 9.15625 -6.835938 9.15625 -7.328125 L 8.640625 -7.4375 C 8.242188 -7.5 7.953125 -7.539062 7.765625 -7.5625 C 7.441406 -7.59375 7.28125 -7.707031 7.28125 -7.90625 C 7.28125 -8.03125 7.347656 -8.363281 7.484375 -8.90625 C 7.566406 -9.164062 7.648438 -9.320312 7.734375 -9.375 C 7.816406 -9.425781 7.941406 -9.445312 8.109375 -9.4375 C 8.191406 -9.414062 8.390625 -9.382812 8.703125 -9.34375 C 9.015625 -9.300781 9.507812 -9.242188 10.1875 -9.171875 L 11.578125 -8.96875 C 12.523438 -8.832031 13.15625 -8.757812 13.46875 -8.75 C 13.757812 -8.726562 13.957031 -8.578125 14.0625 -8.296875 C 14.09375 -8.128906 14.097656 -7.984375 14.078125 -7.859375 C 13.960938 -5.773438 13.570312 -4.117188 12.90625 -2.890625 C 12.238281 -1.671875 11.46875 -0.820312 10.59375 -0.34375 C 9.71875 0.125 8.847656 0.359375 7.984375 0.359375 Z M 7.984375 0.359375 "/></g></g></g><g fill="#071c29" fill-opacity="1"><g transform="translate(201.029037, 45.928042)"><g><path d="M 1.875 0.046875 C 1.769531 0.046875 1.707031 0.0195312 1.6875 -0.03125 C 1.675781 -0.09375 1.671875 -0.207031 1.671875 -0.375 C 1.648438 -0.5625 1.640625 -0.875 1.640625 -1.3125 C 1.640625 -1.445312 1.628906 -1.59375 1.609375 -1.75 C 1.597656 -1.914062 1.59375 -2.132812 1.59375 -2.40625 L 1.59375 -5.859375 C 1.59375 -6.203125 1.601562 -6.53125 1.625 -6.84375 C 1.65625 -7.164062 1.671875 -7.40625 1.671875 -7.5625 C 1.734375 -8.332031 1.765625 -9.070312 1.765625 -9.78125 C 1.765625 -10.65625 1.738281 -11.347656 1.6875 -11.859375 C 1.65625 -12.429688 1.640625 -12.953125 1.640625 -13.421875 C 1.640625 -14.484375 1.664062 -15.722656 1.71875 -17.140625 C 1.71875 -17.359375 1.757812 -17.503906 1.84375 -17.578125 C 1.925781 -17.660156 2.046875 -17.703125 2.203125 -17.703125 L 2.578125 -17.671875 C 2.734375 -17.671875 2.976562 -17.65625 3.3125 -17.625 C 3.644531 -17.601562 4.054688 -17.59375 4.546875 -17.59375 C 5.109375 -17.59375 5.765625 -17.632812 6.515625 -17.71875 C 7.429688 -17.789062 8.039062 -17.828125 8.34375 -17.828125 C 9.03125 -17.828125 9.660156 -17.800781 10.234375 -17.75 L 11.15625 -17.71875 C 11.375 -17.71875 11.515625 -17.664062 11.578125 -17.5625 C 11.648438 -17.46875 11.6875 -17.285156 11.6875 -17.015625 C 11.6875 -16.859375 11.703125 -16.597656 11.734375 -16.234375 C 11.765625 -15.796875 11.78125 -15.414062 11.78125 -15.09375 C 11.78125 -14.757812 11.753906 -14.445312 11.703125 -14.15625 C 11.691406 -13.90625 11.570312 -13.78125 11.34375 -13.78125 C 11.28125 -13.78125 11.1875 -13.796875 11.0625 -13.828125 C 10.945312 -13.859375 10.859375 -13.882812 10.796875 -13.90625 C 10.546875 -13.957031 9.8125 -13.984375 8.59375 -13.984375 L 7.640625 -14 C 7.421875 -14.019531 7.097656 -14.03125 6.671875 -14.03125 C 6.367188 -14.03125 6.140625 -14.019531 5.984375 -14 C 5.484375 -13.96875 5.039062 -13.953125 4.65625 -13.953125 L 3.3125 -13.984375 C 3.175781 -13.984375 3.097656 -13.953125 3.078125 -13.890625 C 3.066406 -13.828125 3.0625 -13.6875 3.0625 -13.46875 C 3.0625 -13.164062 3.050781 -12.90625 3.03125 -12.6875 C 3 -12.019531 2.984375 -11.472656 2.984375 -11.046875 L 2.984375 -9.5625 C 2.984375 -9.207031 2.992188 -8.9375 3.015625 -8.75 C 3.140625 -8.726562 3.363281 -8.71875 3.6875 -8.71875 C 3.976562 -8.707031 4.566406 -8.703125 5.453125 -8.703125 C 5.828125 -8.703125 6.367188 -8.71875 7.078125 -8.75 C 7.617188 -8.78125 7.972656 -8.796875 8.140625 -8.796875 C 8.378906 -8.796875 8.613281 -8.78125 8.84375 -8.75 C 9.082031 -8.726562 9.257812 -8.71875 9.375 -8.71875 C 9.59375 -8.71875 9.703125 -8.617188 9.703125 -8.421875 C 9.703125 -8.347656 9.691406 -8.25 9.671875 -8.125 C 9.660156 -8 9.65625 -7.835938 9.65625 -7.640625 L 9.6875 -6.296875 C 9.6875 -6.140625 9.664062 -6.03125 9.625 -5.96875 C 9.59375 -5.914062 9.535156 -5.890625 9.453125 -5.890625 C 9.398438 -5.890625 9.328125 -5.898438 9.234375 -5.921875 C 9.140625 -5.953125 9.0625 -5.96875 9 -5.96875 C 8.84375 -5.96875 8.554688 -5.972656 8.140625 -5.984375 C 7.734375 -6.003906 7.175781 -6.015625 6.46875 -6.015625 C 5.707031 -6.015625 5.050781 -5.976562 4.5 -5.90625 C 3.945312 -5.84375 3.609375 -5.8125 3.484375 -5.8125 C 3.296875 -5.8125 3.1875 -5.820312 3.15625 -5.84375 C 3.070312 -5.84375 3.023438 -5.847656 3.015625 -5.859375 L 3.015625 -3.34375 C 3.128906 -3.34375 3.21875 -3.347656 3.28125 -3.359375 L 4 -3.390625 L 6.984375 -3.40625 C 7.585938 -3.40625 8.066406 -3.398438 8.421875 -3.390625 L 10.15625 -3.359375 L 11.21875 -3.390625 C 11.425781 -3.390625 11.5625 -3.34375 11.625 -3.25 C 11.695312 -3.15625 11.734375 -3.023438 11.734375 -2.859375 L 11.703125 -2.34375 L 11.6875 -0.578125 C 11.6875 -0.304688 11.625 -0.140625 11.5 -0.078125 C 11.382812 -0.0234375 11.21875 -0.00390625 11 -0.015625 C 10.78125 -0.0234375 10.601562 -0.03125 10.46875 -0.03125 C 9.738281 -0.03125 9.113281 -0.0351562 8.59375 -0.046875 L 6.015625 -0.078125 C 5.816406 -0.078125 4.804688 -0.0507812 2.984375 0 L 2.015625 0.03125 Z M 1.875 0.046875 "/></g></g></g><g fill="#071c29" fill-opacity="1"><g transform="translate(214.025181, 45.928042)"><g><path d="M 2.296875 0.296875 C 2.046875 0.296875 1.878906 0.25 1.796875 0.15625 C 1.710938 0.0703125 1.660156 -0.0234375 1.640625 -0.140625 C 1.628906 -0.265625 1.613281 -0.351562 1.59375 -0.40625 C 1.519531 -0.707031 1.484375 -1.078125 1.484375 -1.515625 C 1.484375 -1.921875 1.492188 -2.265625 1.515625 -2.546875 C 1.515625 -3.429688 1.53125 -4.457031 1.5625 -5.625 C 1.601562 -6.789062 1.644531 -7.628906 1.6875 -8.140625 L 1.8125 -9.9375 C 2.019531 -12.726562 2.125 -14.300781 2.125 -14.65625 C 2.125 -15.988281 2.148438 -16.984375 2.203125 -17.640625 C 2.234375 -18.097656 2.46875 -18.328125 2.90625 -18.328125 C 3.039062 -18.328125 3.164062 -18.316406 3.28125 -18.296875 C 3.40625 -18.285156 3.5 -18.28125 3.5625 -18.28125 L 5.71875 -18.296875 C 6.082031 -18.296875 6.351562 -18.257812 6.53125 -18.1875 C 6.707031 -18.113281 6.847656 -17.984375 6.953125 -17.796875 C 7.117188 -17.441406 7.328125 -16.988281 7.578125 -16.4375 L 8.515625 -14.40625 L 9.703125 -11.8125 C 9.921875 -11.332031 10.207031 -10.703125 10.5625 -9.921875 C 10.914062 -9.148438 11.171875 -8.613281 11.328125 -8.3125 C 11.609375 -7.726562 11.789062 -7.367188 11.875 -7.234375 L 12.59375 -5.84375 L 13.375 -4.296875 L 13.328125 -5.765625 L 13.21875 -8.234375 L 13.21875 -9 C 13.21875 -9.925781 13.234375 -10.863281 13.265625 -11.8125 C 13.265625 -12.519531 13.257812 -13.09375 13.25 -13.53125 L 13.21875 -15.453125 L 13.328125 -17.875 C 13.328125 -18.125 13.453125 -18.25 13.703125 -18.25 C 13.785156 -18.25 13.953125 -18.222656 14.203125 -18.171875 C 14.359375 -18.140625 14.519531 -18.125 14.6875 -18.125 C 14.851562 -18.125 14.988281 -18.125 15.09375 -18.125 C 15.226562 -18.125 15.316406 -18.109375 15.359375 -18.078125 C 15.398438 -18.046875 15.421875 -17.988281 15.421875 -17.90625 C 15.421875 -17.832031 15.410156 -17.753906 15.390625 -17.671875 C 15.378906 -17.585938 15.375 -17.492188 15.375 -17.390625 L 15.34375 -15.21875 L 15.296875 -10.109375 L 15.265625 -9.375 C 15.265625 -8.800781 15.273438 -8.28125 15.296875 -7.8125 C 15.316406 -7.34375 15.332031 -6.957031 15.34375 -6.65625 C 15.394531 -5.925781 15.421875 -5.316406 15.421875 -4.828125 C 15.421875 -4.898438 15.445312 -3.894531 15.5 -1.8125 L 15.546875 -0.40625 L 15.546875 -0.359375 C 15.546875 -0.015625 15.382812 0.132812 15.0625 0.09375 C 15.007812 0.0820312 14.910156 0.078125 14.765625 0.078125 L 14.03125 0.09375 L 13.875 0.09375 C 13.757812 0.09375 13.671875 0.0664062 13.609375 0.015625 C 13.554688 -0.0234375 13.460938 -0.164062 13.328125 -0.40625 C 13.273438 -0.519531 13.207031 -0.6875 13.125 -0.90625 C 13.039062 -1.125 12.9375 -1.367188 12.8125 -1.640625 C 12.09375 -3.460938 11.570312 -4.703125 11.25 -5.359375 C 10.875 -6.066406 9.9375 -8.097656 8.4375 -11.453125 C 8.101562 -12.140625 7.726562 -12.875 7.3125 -13.65625 L 6.578125 -14.96875 L 6.65625 -12.5625 L 6.671875 -11.078125 C 6.703125 -9.960938 6.71875 -9.226562 6.71875 -8.875 C 6.71875 -7.488281 6.742188 -6.097656 6.796875 -4.703125 L 6.828125 -2.734375 C 6.828125 -2.378906 6.84375 -1.863281 6.875 -1.1875 L 6.921875 -0.296875 L 6.921875 -0.25 C 6.921875 -0.0820312 6.878906 0.0234375 6.796875 0.078125 C 6.710938 0.128906 6.597656 0.15625 6.453125 0.15625 L 5.890625 0.171875 C 5.535156 0.222656 5.15625 0.25 4.75 0.25 C 4.28125 0.25 3.894531 0.257812 3.59375 0.28125 Z M 2.296875 0.296875 "/></g></g></g><g fill="#071c29" fill-opacity="1"><g transform="translate(231.117389, 45.928042)"><g/></g></g><g fill="#071c29" fill-opacity="1"><g transform="translate(237.69132, 45.928042)"><g><path d="M 2.21875 -0.078125 C 1.945312 -0.046875 1.769531 -0.0976562 1.6875 -0.234375 C 1.601562 -0.378906 1.5625 -0.601562 1.5625 -0.90625 C 1.5625 -1.28125 1.570312 -1.617188 1.59375 -1.921875 L 1.625 -4.046875 L 1.671875 -7.03125 C 1.765625 -10.601562 1.8125 -13.390625 1.8125 -15.390625 C 1.8125 -16.003906 1.804688 -16.367188 1.796875 -16.484375 C 1.765625 -16.859375 1.75 -17.078125 1.75 -17.140625 C 1.75 -17.578125 1.835938 -17.796875 2.015625 -17.796875 C 2.109375 -17.796875 2.285156 -17.785156 2.546875 -17.765625 C 2.804688 -17.753906 3.171875 -17.75 3.640625 -17.75 C 3.773438 -17.75 4.117188 -17.753906 4.671875 -17.765625 C 5.234375 -17.785156 5.816406 -17.796875 6.421875 -17.796875 C 7.316406 -17.796875 8.164062 -17.769531 8.96875 -17.71875 C 10.132812 -17.65625 11.097656 -17.179688 11.859375 -16.296875 C 12.628906 -15.421875 13.015625 -14.109375 13.015625 -12.359375 C 13.015625 -11.210938 12.769531 -10.300781 12.28125 -9.625 C 11.789062 -8.957031 11.222656 -8.492188 10.578125 -8.234375 C 9.941406 -7.972656 9.382812 -7.84375 8.90625 -7.84375 C 8.445312 -7.84375 7.675781 -7.789062 6.59375 -7.6875 C 5.96875 -7.613281 5.460938 -7.570312 5.078125 -7.5625 C 5.046875 -6.007812 5.03125 -4.957031 5.03125 -4.40625 C 5.03125 -2.207031 5.054688 -1.015625 5.109375 -0.828125 C 5.140625 -0.660156 5.109375 -0.515625 5.015625 -0.390625 C 4.921875 -0.265625 4.800781 -0.179688 4.65625 -0.140625 C 4.519531 -0.0976562 4.390625 -0.101562 4.265625 -0.15625 C 4.222656 -0.164062 4.082031 -0.171875 3.84375 -0.171875 C 3.332031 -0.171875 2.789062 -0.140625 2.21875 -0.078125 Z M 8.1875 -9.65625 C 8.8125 -9.65625 9.394531 -9.835938 9.9375 -10.203125 C 10.476562 -10.578125 10.75 -11.242188 10.75 -12.203125 C 10.75 -13.234375 10.535156 -14.015625 10.109375 -14.546875 C 9.691406 -15.078125 9.078125 -15.421875 8.265625 -15.578125 C 7.003906 -15.828125 6.007812 -15.925781 5.28125 -15.875 C 5.28125 -15.40625 5.273438 -15.050781 5.265625 -14.8125 C 5.222656 -13.875 5.175781 -13.203125 5.125 -12.796875 C 5.0625 -12.203125 5.046875 -11.535156 5.078125 -10.796875 L 5.125 -9.8125 L 6.3125 -9.734375 C 6.769531 -9.679688 7.394531 -9.65625 8.1875 -9.65625 Z M 8.1875 -9.65625 "/></g></g></g><g fill="#071c29" fill-opacity="1"><g transform="translate(250.839182, 45.928042)"><g><path d="M 0.28125 0 C 0.125 0 0.0820312 -0.109375 0.15625 -0.328125 C 0.15625 -0.378906 0.160156 -0.421875 0.171875 -0.453125 C 0.171875 -0.484375 0.179688 -0.523438 0.203125 -0.578125 C 0.222656 -0.628906 0.25 -0.707031 0.28125 -0.8125 L 0.5 -1.75 C 0.539062 -1.84375 0.601562 -2.015625 0.6875 -2.265625 C 0.769531 -2.523438 0.828125 -2.765625 0.859375 -2.984375 C 0.941406 -3.390625 1.101562 -4.003906 1.34375 -4.828125 L 1.546875 -5.53125 C 1.859375 -6.582031 2.0625 -7.316406 2.15625 -7.734375 L 2.5 -9.078125 C 2.664062 -9.628906 2.769531 -9.984375 2.8125 -10.140625 C 2.925781 -10.640625 3.09375 -11.269531 3.3125 -12.03125 L 3.484375 -12.734375 L 3.640625 -13.265625 C 3.804688 -13.835938 3.945312 -14.253906 4.0625 -14.515625 C 4.101562 -14.609375 4.226562 -14.953125 4.4375 -15.546875 C 4.644531 -16.148438 4.785156 -16.628906 4.859375 -16.984375 C 4.972656 -17.390625 5.09375 -17.691406 5.21875 -17.890625 C 5.34375 -18.097656 5.515625 -18.203125 5.734375 -18.203125 C 5.816406 -18.203125 5.898438 -18.125 5.984375 -17.96875 C 6.078125 -17.820312 6.164062 -17.640625 6.25 -17.421875 C 6.332031 -17.203125 6.390625 -17.039062 6.421875 -16.9375 C 6.554688 -16.613281 6.789062 -15.8125 7.125 -14.53125 L 7.328125 -13.828125 C 7.347656 -13.691406 7.628906 -12.863281 8.171875 -11.34375 L 8.640625 -9.953125 L 9.09375 -8.765625 C 9.570312 -7.441406 9.878906 -6.632812 10.015625 -6.34375 C 10.597656 -4.5625 10.941406 -3.484375 11.046875 -3.109375 C 11.160156 -2.671875 11.347656 -2.125 11.609375 -1.46875 C 11.878906 -0.8125 12.03125 -0.441406 12.0625 -0.359375 C 12.113281 -0.234375 12.140625 -0.144531 12.140625 -0.09375 C 12.140625 -0.03125 12.046875 0 11.859375 0 L 10.4375 0 C 10.375 0 10.320312 -0.0078125 10.28125 -0.03125 C 10.238281 -0.0625 10.195312 -0.128906 10.15625 -0.234375 C 10.09375 -0.410156 10.003906 -0.710938 9.890625 -1.140625 C 9.734375 -1.554688 9.628906 -1.9375 9.578125 -2.28125 C 9.523438 -2.53125 9.441406 -2.832031 9.328125 -3.1875 C 9.222656 -3.539062 9.128906 -3.8125 9.046875 -4 C 8.898438 -4.3125 8.765625 -4.671875 8.640625 -5.078125 L 8.421875 -5.8125 C 8.335938 -6 8.273438 -6.113281 8.234375 -6.15625 C 8.191406 -6.195312 8.117188 -6.21875 8.015625 -6.21875 C 7.660156 -6.21875 7.398438 -6.207031 7.234375 -6.1875 L 6.140625 -6.140625 C 6.003906 -6.128906 5.378906 -6.125 4.265625 -6.125 L 2.6875 -6.125 C 2.582031 -6.125 2.503906 -6.03125 2.453125 -5.84375 L 2.40625 -5.59375 L 2.296875 -5.109375 C 2.265625 -5.003906 2.15625 -4.515625 1.96875 -3.640625 C 1.914062 -3.347656 1.832031 -2.976562 1.71875 -2.53125 C 1.6875 -2.1875 1.609375 -1.90625 1.484375 -1.6875 C 1.453125 -1.644531 1.410156 -1.53125 1.359375 -1.34375 C 1.316406 -1.15625 1.273438 -1.003906 1.234375 -0.890625 C 1.179688 -0.753906 1.125 -0.535156 1.0625 -0.234375 C 1.039062 -0.210938 1.019531 -0.171875 1 -0.109375 C 0.988281 -0.0546875 0.96875 -0.0234375 0.9375 -0.015625 C 0.90625 -0.00390625 0.851562 0 0.78125 0 Z M 5.109375 -7.84375 C 5.304688 -7.875 5.59375 -7.890625 5.96875 -7.890625 L 7.328125 -7.859375 C 7.546875 -7.859375 7.65625 -7.921875 7.65625 -8.046875 C 7.65625 -8.128906 7.597656 -8.3125 7.484375 -8.59375 C 7.378906 -8.84375 7.226562 -9.316406 7.03125 -10.015625 C 6.875 -10.566406 6.722656 -11.046875 6.578125 -11.453125 C 6.398438 -11.953125 6.210938 -12.546875 6.015625 -13.234375 C 5.828125 -13.929688 5.71875 -14.382812 5.6875 -14.59375 C 5.4375 -15.476562 5.269531 -15.921875 5.1875 -15.921875 C 5.132812 -15.921875 5.050781 -15.695312 4.9375 -15.25 L 4.78125 -14.6875 C 4.65625 -14.226562 4.5 -13.65625 4.3125 -12.96875 C 4.132812 -12.289062 3.96875 -11.71875 3.8125 -11.25 C 3.71875 -10.8125 3.582031 -10.257812 3.40625 -9.59375 C 3.226562 -8.925781 3.085938 -8.46875 2.984375 -8.21875 C 2.953125 -8.113281 2.9375 -8.054688 2.9375 -8.046875 C 2.9375 -7.921875 2.988281 -7.84375 3.09375 -7.8125 C 3.207031 -7.78125 3.316406 -7.765625 3.421875 -7.765625 C 3.535156 -7.773438 3.609375 -7.78125 3.640625 -7.78125 Z M 5.109375 -7.84375 "/></g></g></g><g fill="#071c29" fill-opacity="1"><g transform="translate(262.84924, 45.928042)"><g><path d="M 2.28125 0.40625 C 2.0625 0.40625 1.910156 0.363281 1.828125 0.28125 C 1.753906 0.195312 1.71875 0.0507812 1.71875 -0.15625 L 1.75 -0.734375 L 1.6875 -2.203125 C 1.59375 -3.953125 1.546875 -5.476562 1.546875 -6.78125 C 1.546875 -7.445312 1.570312 -7.910156 1.625 -8.171875 C 1.707031 -8.585938 1.75 -9.773438 1.75 -11.734375 C 1.75 -13.773438 1.710938 -15.316406 1.640625 -16.359375 C 1.628906 -16.492188 1.625 -16.675781 1.625 -16.90625 C 1.625 -17.175781 1.644531 -17.367188 1.6875 -17.484375 C 1.738281 -17.609375 1.796875 -17.675781 1.859375 -17.6875 C 1.921875 -17.695312 2.023438 -17.703125 2.171875 -17.703125 L 2.734375 -17.75 C 3.890625 -17.882812 4.816406 -17.953125 5.515625 -17.953125 C 7.398438 -17.953125 8.816406 -17.46875 9.765625 -16.5 C 10.722656 -15.53125 11.203125 -14.269531 11.203125 -12.71875 C 11.203125 -11.488281 10.804688 -10.304688 10.015625 -9.171875 C 9.671875 -8.679688 9.28125 -8.242188 8.84375 -7.859375 L 10.625 -4.65625 C 11.914062 -2.320312 12.671875 -1.003906 12.890625 -0.703125 C 13.128906 -0.335938 13.25 -0.09375 13.25 0.03125 C 13.25 0.09375 13.207031 0.128906 13.125 0.140625 C 13.039062 0.160156 12.96875 0.171875 12.90625 0.171875 C 12.84375 0.171875 12.796875 0.171875 12.765625 0.171875 L 9.90625 0.25 C 9.769531 0.25 9.664062 0.191406 9.59375 0.078125 C 9.519531 -0.0351562 9.414062 -0.25 9.28125 -0.5625 C 9.195312 -0.8125 9.046875 -1.144531 8.828125 -1.5625 C 8.484375 -2.175781 7.898438 -3.316406 7.078125 -4.984375 L 5.796875 -7.484375 L 5.859375 -6.140625 L 5.984375 -4.21875 C 6.085938 -1.957031 6.175781 -0.710938 6.25 -0.484375 C 6.257812 -0.410156 6.265625 -0.328125 6.265625 -0.234375 C 6.265625 0.078125 6.109375 0.234375 5.796875 0.234375 C 5.691406 0.234375 5.601562 0.222656 5.53125 0.203125 C 5.257812 0.171875 4.601562 0.203125 3.5625 0.296875 C 2.851562 0.367188 2.425781 0.40625 2.28125 0.40625 Z M 5.640625 -10.84375 C 5.890625 -10.84375 6.113281 -10.894531 6.3125 -11 C 6.789062 -11.21875 7.03125 -11.664062 7.03125 -12.34375 C 7.03125 -12.832031 6.953125 -13.191406 6.796875 -13.421875 C 6.648438 -13.660156 6.457031 -13.78125 6.21875 -13.78125 C 6.03125 -13.78125 5.867188 -13.710938 5.734375 -13.578125 C 5.722656 -13.554688 5.722656 -13.4375 5.734375 -13.21875 C 5.753906 -13 5.765625 -12.78125 5.765625 -12.5625 C 5.765625 -12.375 5.753906 -12.238281 5.734375 -12.15625 C 5.671875 -11.875 5.640625 -11.582031 5.640625 -11.28125 L 5.609375 -11.046875 Z M 5.640625 -10.84375 "/></g></g></g><g fill="#071c29" fill-opacity="1"><g transform="translate(276.17409, 45.928042)"><g><path d="M 0.28125 0 C 0.125 0 0.0820312 -0.109375 0.15625 -0.328125 C 0.15625 -0.378906 0.160156 -0.421875 0.171875 -0.453125 C 0.171875 -0.484375 0.179688 -0.523438 0.203125 -0.578125 C 0.222656 -0.628906 0.25 -0.707031 0.28125 -0.8125 L 0.5 -1.75 C 0.539062 -1.84375 0.601562 -2.015625 0.6875 -2.265625 C 0.769531 -2.523438 0.828125 -2.765625 0.859375 -2.984375 C 0.941406 -3.390625 1.101562 -4.003906 1.34375 -4.828125 L 1.546875 -5.53125 C 1.859375 -6.582031 2.0625 -7.316406 2.15625 -7.734375 L 2.5 -9.078125 C 2.664062 -9.628906 2.769531 -9.984375 2.8125 -10.140625 C 2.925781 -10.640625 3.09375 -11.269531 3.3125 -12.03125 L 3.484375 -12.734375 L 3.640625 -13.265625 C 3.804688 -13.835938 3.945312 -14.253906 4.0625 -14.515625 C 4.101562 -14.609375 4.226562 -14.953125 4.4375 -15.546875 C 4.644531 -16.148438 4.785156 -16.628906 4.859375 -16.984375 C 4.972656 -17.390625 5.09375 -17.691406 5.21875 -17.890625 C 5.34375 -18.097656 5.515625 -18.203125 5.734375 -18.203125 C 5.816406 -18.203125 5.898438 -18.125 5.984375 -17.96875 C 6.078125 -17.820312 6.164062 -17.640625 6.25 -17.421875 C 6.332031 -17.203125 6.390625 -17.039062 6.421875 -16.9375 C 6.554688 -16.613281 6.789062 -15.8125 7.125 -14.53125 L 7.328125 -13.828125 C 7.347656 -13.691406 7.628906 -12.863281 8.171875 -11.34375 L 8.640625 -9.953125 L 9.09375 -8.765625 C 9.570312 -7.441406 9.878906 -6.632812 10.015625 -6.34375 C 10.597656 -4.5625 10.941406 -3.484375 11.046875 -3.109375 C 11.160156 -2.671875 11.347656 -2.125 11.609375 -1.46875 C 11.878906 -0.8125 12.03125 -0.441406 12.0625 -0.359375 C 12.113281 -0.234375 12.140625 -0.144531 12.140625 -0.09375 C 12.140625 -0.03125 12.046875 0 11.859375 0 L 10.4375 0 C 10.375 0 10.320312 -0.0078125 10.28125 -0.03125 C 10.238281 -0.0625 10.195312 -0.128906 10.15625 -0.234375 C 10.09375 -0.410156 10.003906 -0.710938 9.890625 -1.140625 C 9.734375 -1.554688 9.628906 -1.9375 9.578125 -2.28125 C 9.523438 -2.53125 9.441406 -2.832031 9.328125 -3.1875 C 9.222656 -3.539062 9.128906 -3.8125 9.046875 -4 C 8.898438 -4.3125 8.765625 -4.671875 8.640625 -5.078125 L 8.421875 -5.8125 C 8.335938 -6 8.273438 -6.113281 8.234375 -6.15625 C 8.191406 -6.195312 8.117188 -6.21875 8.015625 -6.21875 C 7.660156 -6.21875 7.398438 -6.207031 7.234375 -6.1875 L 6.140625 -6.140625 C 6.003906 -6.128906 5.378906 -6.125 4.265625 -6.125 L 2.6875 -6.125 C 2.582031 -6.125 2.503906 -6.03125 2.453125 -5.84375 L 2.40625 -5.59375 L 2.296875 -5.109375 C 2.265625 -5.003906 2.15625 -4.515625 1.96875 -3.640625 C 1.914062 -3.347656 1.832031 -2.976562 1.71875 -2.53125 C 1.6875 -2.1875 1.609375 -1.90625 1.484375 -1.6875 C 1.453125 -1.644531 1.410156 -1.53125 1.359375 -1.34375 C 1.316406 -1.15625 1.273438 -1.003906 1.234375 -0.890625 C 1.179688 -0.753906 1.125 -0.535156 1.0625 -0.234375 C 1.039062 -0.210938 1.019531 -0.171875 1 -0.109375 C 0.988281 -0.0546875 0.96875 -0.0234375 0.9375 -0.015625 C 0.90625 -0.00390625 0.851562 0 0.78125 0 Z M 5.109375 -7.84375 C 5.304688 -7.875 5.59375 -7.890625 5.96875 -7.890625 L 7.328125 -7.859375 C 7.546875 -7.859375 7.65625 -7.921875 7.65625 -8.046875 C 7.65625 -8.128906 7.597656 -8.3125 7.484375 -8.59375 C 7.378906 -8.84375 7.226562 -9.316406 7.03125 -10.015625 C 6.875 -10.566406 6.722656 -11.046875 6.578125 -11.453125 C 6.398438 -11.953125 6.210938 -12.546875 6.015625 -13.234375 C 5.828125 -13.929688 5.71875 -14.382812 5.6875 -14.59375 C 5.4375 -15.476562 5.269531 -15.921875 5.1875 -15.921875 C 5.132812 -15.921875 5.050781 -15.695312 4.9375 -15.25 L 4.78125 -14.6875 C 4.65625 -14.226562 4.5 -13.65625 4.3125 -12.96875 C 4.132812 -12.289062 3.96875 -11.71875 3.8125 -11.25 C 3.71875 -10.8125 3.582031 -10.257812 3.40625 -9.59375 C 3.226562 -8.925781 3.085938 -8.46875 2.984375 -8.21875 C 2.953125 -8.113281 2.9375 -8.054688 2.9375 -8.046875 C 2.9375 -7.921875 2.988281 -7.84375 3.09375 -7.8125 C 3.207031 -7.78125 3.316406 -7.765625 3.421875 -7.765625 C 3.535156 -7.773438 3.609375 -7.78125 3.640625 -7.78125 Z M 5.109375 -7.84375 "/></g></g></g><g fill="#071c29" fill-opacity="1"><g transform="translate(288.184147, 45.928042)"><g/></g></g><g fill="#071c29" fill-opacity="1"><g transform="translate(294.758078, 45.928042)"><g><path d="M 5.640625 0 C 5.429688 0 5.3125 -0.03125 5.28125 -0.09375 C 5.25 -0.164062 5.234375 -0.289062 5.234375 -0.46875 C 5.234375 -0.644531 5.234375 -0.773438 5.234375 -0.859375 L 5.328125 -4 C 5.429688 -6.726562 5.484375 -8.476562 5.484375 -9.25 C 5.484375 -9.6875 5.46875 -10.34375 5.4375 -11.21875 L 5.40625 -12.5625 C 4.195312 -12.5625 2.96875 -12.546875 1.71875 -12.515625 L 0.9375 -12.484375 C 0.71875 -12.484375 0.566406 -12.539062 0.484375 -12.65625 C 0.398438 -12.78125 0.382812 -12.921875 0.4375 -13.078125 L 0.453125 -13.703125 C 0.484375 -14.679688 0.5 -15.582031 0.5 -16.40625 C 0.5 -16.8125 0.492188 -17.054688 0.484375 -17.140625 L 0.484375 -17.3125 C 0.484375 -17.5 0.519531 -17.609375 0.59375 -17.640625 C 0.664062 -17.679688 0.78125 -17.703125 0.9375 -17.703125 L 3.4375 -17.703125 L 4.859375 -17.71875 C 5.734375 -17.75 6.347656 -17.765625 6.703125 -17.765625 L 8.21875 -17.75 C 9.425781 -17.71875 10.378906 -17.703125 11.078125 -17.703125 C 11.578125 -17.703125 11.90625 -17.707031 12.0625 -17.71875 C 12.425781 -17.738281 12.6875 -17.6875 12.84375 -17.5625 C 13 -17.4375 13.078125 -17.296875 13.078125 -17.140625 C 13.078125 -17.054688 13.0625 -16.835938 13.03125 -16.484375 C 13.007812 -16.128906 13 -15.691406 13 -15.171875 C 13 -14.691406 13.023438 -14.050781 13.078125 -13.25 C 13.078125 -12.789062 12.78125 -12.5625 12.1875 -12.5625 L 7.734375 -12.5625 L 7.6875 -9.953125 C 7.664062 -9.671875 7.65625 -8.957031 7.65625 -7.8125 C 7.65625 -6.632812 7.660156 -5.488281 7.671875 -4.375 C 7.691406 -3.257812 7.703125 -2.296875 7.703125 -1.484375 L 7.734375 -0.453125 L 7.734375 -0.328125 C 7.734375 -0.171875 7.710938 -0.078125 7.671875 -0.046875 C 7.628906 -0.015625 7.570312 0 7.5 0 C 7.4375 0 7.390625 0 7.359375 0 Z M 5.640625 0 "/></g></g></g><g fill="#071c29" fill-opacity="1"><g transform="translate(308.133469, 45.928042)"><g><path d="M 10.796875 -14.984375 C 10.773438 -14.816406 10.785156 -14.113281 10.828125 -12.875 C 10.910156 -10.8125 10.953125 -9.113281 10.953125 -7.78125 L 10.953125 -6.25 C 10.910156 -4.070312 10.390625 -2.5 9.390625 -1.53125 C 8.390625 -0.5625 7.179688 -0.078125 5.765625 -0.078125 C 4.679688 -0.078125 3.8125 -0.429688 3.15625 -1.140625 C 2.5 -1.859375 2.035156 -2.660156 1.765625 -3.546875 C 1.648438 -3.929688 1.5625 -4.53125 1.5 -5.34375 C 1.445312 -6.164062 1.421875 -7.003906 1.421875 -7.859375 C 1.421875 -8.816406 1.441406 -9.457031 1.484375 -9.78125 C 1.523438 -10.019531 1.546875 -10.804688 1.546875 -12.140625 C 1.546875 -14.265625 1.507812 -15.796875 1.4375 -16.734375 C 1.425781 -16.835938 1.421875 -16.972656 1.421875 -17.140625 C 1.421875 -17.660156 1.578125 -17.851562 1.890625 -17.71875 L 2.171875 -17.703125 C 2.242188 -17.703125 2.316406 -17.707031 2.390625 -17.71875 C 2.460938 -17.738281 2.539062 -17.75 2.625 -17.75 C 2.695312 -17.75 2.738281 -17.695312 2.75 -17.59375 C 2.738281 -16.53125 2.722656 -15.007812 2.703125 -13.03125 C 2.691406 -11.050781 2.6875 -9.132812 2.6875 -7.28125 C 2.6875 -6.300781 2.804688 -5.421875 3.046875 -4.640625 C 3.285156 -3.867188 3.625 -3.265625 4.0625 -2.828125 C 4.507812 -2.390625 5 -2.171875 5.53125 -2.171875 C 6.28125 -2.171875 6.816406 -2.382812 7.140625 -2.8125 C 7.472656 -3.25 7.640625 -3.703125 7.640625 -4.171875 L 7.6875 -5.71875 C 7.738281 -8.238281 7.765625 -9.632812 7.765625 -9.90625 C 7.765625 -10.289062 7.78125 -11.054688 7.8125 -12.203125 C 7.863281 -13.171875 7.890625 -14.117188 7.890625 -15.046875 C 7.890625 -15.867188 7.851562 -16.445312 7.78125 -16.78125 C 7.726562 -16.988281 7.703125 -17.148438 7.703125 -17.265625 C 7.703125 -17.503906 7.757812 -17.648438 7.875 -17.703125 C 7.988281 -17.765625 8.097656 -17.789062 8.203125 -17.78125 C 8.316406 -17.769531 8.390625 -17.765625 8.421875 -17.765625 C 8.585938 -17.753906 8.773438 -17.75 8.984375 -17.75 C 9.191406 -17.757812 9.382812 -17.765625 9.5625 -17.765625 L 10.21875 -17.765625 C 10.488281 -17.765625 10.644531 -17.726562 10.6875 -17.65625 C 10.726562 -17.582031 10.753906 -17.421875 10.765625 -17.171875 C 10.804688 -16.796875 10.828125 -16.335938 10.828125 -15.796875 C 10.828125 -15.429688 10.816406 -15.160156 10.796875 -14.984375 Z M 2.75 -17.46875 L 2.75 -17.59375 Z M 2.75 -17.46875 "/></g></g></g><g fill="#071c29" fill-opacity="1"><g transform="translate(320.472233, 45.928042)"><g/></g></g><g fill="#071c29" fill-opacity="1"><g transform="translate(327.046164, 45.928042)"><g><path d="M 2.28125 0.40625 C 2.0625 0.40625 1.910156 0.363281 1.828125 0.28125 C 1.753906 0.195312 1.71875 0.0507812 1.71875 -0.15625 L 1.75 -0.734375 L 1.6875 -2.203125 C 1.59375 -3.953125 1.546875 -5.476562 1.546875 -6.78125 C 1.546875 -7.445312 1.570312 -7.910156 1.625 -8.171875 C 1.707031 -8.585938 1.75 -9.773438 1.75 -11.734375 C 1.75 -13.773438 1.710938 -15.316406 1.640625 -16.359375 C 1.628906 -16.492188 1.625 -16.675781 1.625 -16.90625 C 1.625 -17.175781 1.644531 -17.367188 1.6875 -17.484375 C 1.738281 -17.609375 1.796875 -17.675781 1.859375 -17.6875 C 1.921875 -17.695312 2.023438 -17.703125 2.171875 -17.703125 L 2.734375 -17.75 C 3.890625 -17.882812 4.816406 -17.953125 5.515625 -17.953125 C 7.398438 -17.953125 8.816406 -17.46875 9.765625 -16.5 C 10.722656 -15.53125 11.203125 -14.269531 11.203125 -12.71875 C 11.203125 -11.488281 10.804688 -10.304688 10.015625 -9.171875 C 9.671875 -8.679688 9.28125 -8.242188 8.84375 -7.859375 L 10.625 -4.65625 C 11.914062 -2.320312 12.671875 -1.003906 12.890625 -0.703125 C 13.128906 -0.335938 13.25 -0.09375 13.25 0.03125 C 13.25 0.09375 13.207031 0.128906 13.125 0.140625 C 13.039062 0.160156 12.96875 0.171875 12.90625 0.171875 C 12.84375 0.171875 12.796875 0.171875 12.765625 0.171875 L 9.90625 0.25 C 9.769531 0.25 9.664062 0.191406 9.59375 0.078125 C 9.519531 -0.0351562 9.414062 -0.25 9.28125 -0.5625 C 9.195312 -0.8125 9.046875 -1.144531 8.828125 -1.5625 C 8.484375 -2.175781 7.898438 -3.316406 7.078125 -4.984375 L 5.796875 -7.484375 L 5.859375 -6.140625 L 5.984375 -4.21875 C 6.085938 -1.957031 6.175781 -0.710938 6.25 -0.484375 C 6.257812 -0.410156 6.265625 -0.328125 6.265625 -0.234375 C 6.265625 0.078125 6.109375 0.234375 5.796875 0.234375 C 5.691406 0.234375 5.601562 0.222656 5.53125 0.203125 C 5.257812 0.171875 4.601562 0.203125 3.5625 0.296875 C 2.851562 0.367188 2.425781 0.40625 2.28125 0.40625 Z M 5.640625 -10.84375 C 5.890625 -10.84375 6.113281 -10.894531 6.3125 -11 C 6.789062 -11.21875 7.03125 -11.664062 7.03125 -12.34375 C 7.03125 -12.832031 6.953125 -13.191406 6.796875 -13.421875 C 6.648438 -13.660156 6.457031 -13.78125 6.21875 -13.78125 C 6.03125 -13.78125 5.867188 -13.710938 5.734375 -13.578125 C 5.722656 -13.554688 5.722656 -13.4375 5.734375 -13.21875 C 5.753906 -13 5.765625 -12.78125 5.765625 -12.5625 C 5.765625 -12.375 5.753906 -12.238281 5.734375 -12.15625 C 5.671875 -11.875 5.640625 -11.582031 5.640625 -11.28125 L 5.609375 -11.046875 Z M 5.640625 -10.84375 "/></g></g></g><g fill="#071c29" fill-opacity="1"><g transform="translate(340.371014, 45.928042)"><g><path d="M 1.875 0.046875 C 1.769531 0.046875 1.707031 0.0195312 1.6875 -0.03125 C 1.675781 -0.09375 1.671875 -0.207031 1.671875 -0.375 C 1.648438 -0.5625 1.640625 -0.875 1.640625 -1.3125 C 1.640625 -1.445312 1.628906 -1.59375 1.609375 -1.75 C 1.597656 -1.914062 1.59375 -2.132812 1.59375 -2.40625 L 1.59375 -5.859375 C 1.59375 -6.203125 1.601562 -6.53125 1.625 -6.84375 C 1.65625 -7.164062 1.671875 -7.40625 1.671875 -7.5625 C 1.734375 -8.332031 1.765625 -9.070312 1.765625 -9.78125 C 1.765625 -10.65625 1.738281 -11.347656 1.6875 -11.859375 C 1.65625 -12.429688 1.640625 -12.953125 1.640625 -13.421875 C 1.640625 -14.484375 1.664062 -15.722656 1.71875 -17.140625 C 1.71875 -17.359375 1.757812 -17.503906 1.84375 -17.578125 C 1.925781 -17.660156 2.046875 -17.703125 2.203125 -17.703125 L 2.578125 -17.671875 C 2.734375 -17.671875 2.976562 -17.65625 3.3125 -17.625 C 3.644531 -17.601562 4.054688 -17.59375 4.546875 -17.59375 C 5.109375 -17.59375 5.765625 -17.632812 6.515625 -17.71875 C 7.429688 -17.789062 8.039062 -17.828125 8.34375 -17.828125 C 9.03125 -17.828125 9.660156 -17.800781 10.234375 -17.75 L 11.15625 -17.71875 C 11.375 -17.71875 11.515625 -17.664062 11.578125 -17.5625 C 11.648438 -17.46875 11.6875 -17.285156 11.6875 -17.015625 C 11.6875 -16.859375 11.703125 -16.597656 11.734375 -16.234375 C 11.765625 -15.796875 11.78125 -15.414062 11.78125 -15.09375 C 11.78125 -14.757812 11.753906 -14.445312 11.703125 -14.15625 C 11.691406 -13.90625 11.570312 -13.78125 11.34375 -13.78125 C 11.28125 -13.78125 11.1875 -13.796875 11.0625 -13.828125 C 10.945312 -13.859375 10.859375 -13.882812 10.796875 -13.90625 C 10.546875 -13.957031 9.8125 -13.984375 8.59375 -13.984375 L 7.640625 -14 C 7.421875 -14.019531 7.097656 -14.03125 6.671875 -14.03125 C 6.367188 -14.03125 6.140625 -14.019531 5.984375 -14 C 5.484375 -13.96875 5.039062 -13.953125 4.65625 -13.953125 L 3.3125 -13.984375 C 3.175781 -13.984375 3.097656 -13.953125 3.078125 -13.890625 C 3.066406 -13.828125 3.0625 -13.6875 3.0625 -13.46875 C 3.0625 -13.164062 3.050781 -12.90625 3.03125 -12.6875 C 3 -12.019531 2.984375 -11.472656 2.984375 -11.046875 L 2.984375 -9.5625 C 2.984375 -9.207031 2.992188 -8.9375 3.015625 -8.75 C 3.140625 -8.726562 3.363281 -8.71875 3.6875 -8.71875 C 3.976562 -8.707031 4.566406 -8.703125 5.453125 -8.703125 C 5.828125 -8.703125 6.367188 -8.71875 7.078125 -8.75 C 7.617188 -8.78125 7.972656 -8.796875 8.140625 -8.796875 C 8.378906 -8.796875 8.613281 -8.78125 8.84375 -8.75 C 9.082031 -8.726562 9.257812 -8.71875 9.375 -8.71875 C 9.59375 -8.71875 9.703125 -8.617188 9.703125 -8.421875 C 9.703125 -8.347656 9.691406 -8.25 9.671875 -8.125 C 9.660156 -8 9.65625 -7.835938 9.65625 -7.640625 L 9.6875 -6.296875 C 9.6875 -6.140625 9.664062 -6.03125 9.625 -5.96875 C 9.59375 -5.914062 9.535156 -5.890625 9.453125 -5.890625 C 9.398438 -5.890625 9.328125 -5.898438 9.234375 -5.921875 C 9.140625 -5.953125 9.0625 -5.96875 9 -5.96875 C 8.84375 -5.96875 8.554688 -5.972656 8.140625 -5.984375 C 7.734375 -6.003906 7.175781 -6.015625 6.46875 -6.015625 C 5.707031 -6.015625 5.050781 -5.976562 4.5 -5.90625 C 3.945312 -5.84375 3.609375 -5.8125 3.484375 -5.8125 C 3.296875 -5.8125 3.1875 -5.820312 3.15625 -5.84375 C 3.070312 -5.84375 3.023438 -5.847656 3.015625 -5.859375 L 3.015625 -3.34375 C 3.128906 -3.34375 3.21875 -3.347656 3.28125 -3.359375 L 4 -3.390625 L 6.984375 -3.40625 C 7.585938 -3.40625 8.066406 -3.398438 8.421875 -3.390625 L 10.15625 -3.359375 L 11.21875 -3.390625 C 11.425781 -3.390625 11.5625 -3.34375 11.625 -3.25 C 11.695312 -3.15625 11.734375 -3.023438 11.734375 -2.859375 L 11.703125 -2.34375 L 11.6875 -0.578125 C 11.6875 -0.304688 11.625 -0.140625 11.5 -0.078125 C 11.382812 -0.0234375 11.21875 -0.00390625 11 -0.015625 C 10.78125 -0.0234375 10.601562 -0.03125 10.46875 -0.03125 C 9.738281 -0.03125 9.113281 -0.0351562 8.59375 -0.046875 L 6.015625 -0.078125 C 5.816406 -0.078125 4.804688 -0.0507812 2.984375 0 L 2.015625 0.03125 Z M 1.875 0.046875 "/></g></g></g><g fill="#071c29" fill-opacity="1"><g transform="translate(353.367158, 45.928042)"><g><path d="M 2.28125 0.203125 C 1.90625 0.203125 1.71875 0.0351562 1.71875 -0.296875 L 1.71875 -2.28125 L 1.8125 -10.75 C 1.8125 -11.382812 1.769531 -12.546875 1.6875 -14.234375 L 1.59375 -17.34375 C 1.59375 -17.625 1.703125 -17.765625 1.921875 -17.765625 C 2.003906 -17.765625 2.144531 -17.738281 2.34375 -17.6875 C 2.550781 -17.644531 2.710938 -17.625 2.828125 -17.625 C 3.304688 -17.550781 3.875 -17.515625 4.53125 -17.515625 C 4.976562 -17.515625 5.40625 -17.539062 5.8125 -17.59375 C 6.0625 -17.625 6.238281 -17.601562 6.34375 -17.53125 C 6.445312 -17.46875 6.5 -17.363281 6.5 -17.21875 C 6.5 -17.101562 6.484375 -16.976562 6.453125 -16.84375 C 6.429688 -16.71875 6.421875 -16.582031 6.421875 -16.4375 L 6.375 -15.0625 C 6.300781 -13.6875 6.265625 -12.648438 6.265625 -11.953125 L 6.3125 -8.140625 C 6.332031 -7.535156 6.34375 -6.910156 6.34375 -6.265625 L 6.296875 -3.515625 L 6.265625 -3.015625 L 6.296875 -2.296875 L 6.34375 -1.421875 L 9.953125 -1.296875 L 12.96875 -1.265625 L 13.015625 -1.265625 C 13.117188 -1.265625 13.175781 -1.242188 13.1875 -1.203125 C 13.207031 -1.171875 13.210938 -1.125 13.203125 -1.0625 C 13.203125 -1.007812 13.203125 -0.96875 13.203125 -0.9375 C 13.179688 -0.863281 13.179688 -0.734375 13.203125 -0.546875 C 13.234375 -0.367188 13.25 -0.203125 13.25 -0.046875 C 13.25 0.0664062 13.207031 0.140625 13.125 0.171875 C 13.039062 0.210938 12.929688 0.226562 12.796875 0.21875 C 12.671875 0.207031 12.578125 0.203125 12.515625 0.203125 L 11.171875 0.125 C 9.992188 0.0195312 9.160156 -0.03125 8.671875 -0.03125 C 8.128906 -0.03125 6.765625 0.0195312 4.578125 0.125 Z M 2.28125 0.203125 "/></g></g></g><g fill="#071c29" fill-opacity="1"><g transform="translate(366.616133, 45.928042)"><g><path d="M 0.28125 0 C 0.125 0 0.0820312 -0.109375 0.15625 -0.328125 C 0.15625 -0.378906 0.160156 -0.421875 0.171875 -0.453125 C 0.171875 -0.484375 0.179688 -0.523438 0.203125 -0.578125 C 0.222656 -0.628906 0.25 -0.707031 0.28125 -0.8125 L 0.5 -1.75 C 0.539062 -1.84375 0.601562 -2.015625 0.6875 -2.265625 C 0.769531 -2.523438 0.828125 -2.765625 0.859375 -2.984375 C 0.941406 -3.390625 1.101562 -4.003906 1.34375 -4.828125 L 1.546875 -5.53125 C 1.859375 -6.582031 2.0625 -7.316406 2.15625 -7.734375 L 2.5 -9.078125 C 2.664062 -9.628906 2.769531 -9.984375 2.8125 -10.140625 C 2.925781 -10.640625 3.09375 -11.269531 3.3125 -12.03125 L 3.484375 -12.734375 L 3.640625 -13.265625 C 3.804688 -13.835938 3.945312 -14.253906 4.0625 -14.515625 C 4.101562 -14.609375 4.226562 -14.953125 4.4375 -15.546875 C 4.644531 -16.148438 4.785156 -16.628906 4.859375 -16.984375 C 4.972656 -17.390625 5.09375 -17.691406 5.21875 -17.890625 C 5.34375 -18.097656 5.515625 -18.203125 5.734375 -18.203125 C 5.816406 -18.203125 5.898438 -18.125 5.984375 -17.96875 C 6.078125 -17.820312 6.164062 -17.640625 6.25 -17.421875 C 6.332031 -17.203125 6.390625 -17.039062 6.421875 -16.9375 C 6.554688 -16.613281 6.789062 -15.8125 7.125 -14.53125 L 7.328125 -13.828125 C 7.347656 -13.691406 7.628906 -12.863281 8.171875 -11.34375 L 8.640625 -9.953125 L 9.09375 -8.765625 C 9.570312 -7.441406 9.878906 -6.632812 10.015625 -6.34375 C 10.597656 -4.5625 10.941406 -3.484375 11.046875 -3.109375 C 11.160156 -2.671875 11.347656 -2.125 11.609375 -1.46875 C 11.878906 -0.8125 12.03125 -0.441406 12.0625 -0.359375 C 12.113281 -0.234375 12.140625 -0.144531 12.140625 -0.09375 C 12.140625 -0.03125 12.046875 0 11.859375 0 L 10.4375 0 C 10.375 0 10.320312 -0.0078125 10.28125 -0.03125 C 10.238281 -0.0625 10.195312 -0.128906 10.15625 -0.234375 C 10.09375 -0.410156 10.003906 -0.710938 9.890625 -1.140625 C 9.734375 -1.554688 9.628906 -1.9375 9.578125 -2.28125 C 9.523438 -2.53125 9.441406 -2.832031 9.328125 -3.1875 C 9.222656 -3.539062 9.128906 -3.8125 9.046875 -4 C 8.898438 -4.3125 8.765625 -4.671875 8.640625 -5.078125 L 8.421875 -5.8125 C 8.335938 -6 8.273438 -6.113281 8.234375 -6.15625 C 8.191406 -6.195312 8.117188 -6.21875 8.015625 -6.21875 C 7.660156 -6.21875 7.398438 -6.207031 7.234375 -6.1875 L 6.140625 -6.140625 C 6.003906 -6.128906 5.378906 -6.125 4.265625 -6.125 L 2.6875 -6.125 C 2.582031 -6.125 2.503906 -6.03125 2.453125 -5.84375 L 2.40625 -5.59375 L 2.296875 -5.109375 C 2.265625 -5.003906 2.15625 -4.515625 1.96875 -3.640625 C 1.914062 -3.347656 1.832031 -2.976562 1.71875 -2.53125 C 1.6875 -2.1875 1.609375 -1.90625 1.484375 -1.6875 C 1.453125 -1.644531 1.410156 -1.53125 1.359375 -1.34375 C 1.316406 -1.15625 1.273438 -1.003906 1.234375 -0.890625 C 1.179688 -0.753906 1.125 -0.535156 1.0625 -0.234375 C 1.039062 -0.210938 1.019531 -0.171875 1 -0.109375 C 0.988281 -0.0546875 0.96875 -0.0234375 0.9375 -0.015625 C 0.90625 -0.00390625 0.851562 0 0.78125 0 Z M 5.109375 -7.84375 C 5.304688 -7.875 5.59375 -7.890625 5.96875 -7.890625 L 7.328125 -7.859375 C 7.546875 -7.859375 7.65625 -7.921875 7.65625 -8.046875 C 7.65625 -8.128906 7.597656 -8.3125 7.484375 -8.59375 C 7.378906 -8.84375 7.226562 -9.316406 7.03125 -10.015625 C 6.875 -10.566406 6.722656 -11.046875 6.578125 -11.453125 C 6.398438 -11.953125 6.210938 -12.546875 6.015625 -13.234375 C 5.828125 -13.929688 5.71875 -14.382812 5.6875 -14.59375 C 5.4375 -15.476562 5.269531 -15.921875 5.1875 -15.921875 C 5.132812 -15.921875 5.050781 -15.695312 4.9375 -15.25 L 4.78125 -14.6875 C 4.65625 -14.226562 4.5 -13.65625 4.3125 -12.96875 C 4.132812 -12.289062 3.96875 -11.71875 3.8125 -11.25 C 3.71875 -10.8125 3.582031 -10.257812 3.40625 -9.59375 C 3.226562 -8.925781 3.085938 -8.46875 2.984375 -8.21875 C 2.953125 -8.113281 2.9375 -8.054688 2.9375 -8.046875 C 2.9375 -7.921875 2.988281 -7.84375 3.09375 -7.8125 C 3.207031 -7.78125 3.316406 -7.765625 3.421875 -7.765625 C 3.535156 -7.773438 3.609375 -7.78125 3.640625 -7.78125 Z M 5.109375 -7.84375 "/></g></g></g><g fill="#071c29" fill-opacity="1"><g transform="translate(378.626191, 45.928042)"><g><path d="M 5.640625 0 C 5.429688 0 5.3125 -0.03125 5.28125 -0.09375 C 5.25 -0.164062 5.234375 -0.289062 5.234375 -0.46875 C 5.234375 -0.644531 5.234375 -0.773438 5.234375 -0.859375 L 5.328125 -4 C 5.429688 -6.726562 5.484375 -8.476562 5.484375 -9.25 C 5.484375 -9.6875 5.46875 -10.34375 5.4375 -11.21875 L 5.40625 -12.5625 C 4.195312 -12.5625 2.96875 -12.546875 1.71875 -12.515625 L 0.9375 -12.484375 C 0.71875 -12.484375 0.566406 -12.539062 0.484375 -12.65625 C 0.398438 -12.78125 0.382812 -12.921875 0.4375 -13.078125 L 0.453125 -13.703125 C 0.484375 -14.679688 0.5 -15.582031 0.5 -16.40625 C 0.5 -16.8125 0.492188 -17.054688 0.484375 -17.140625 L 0.484375 -17.3125 C 0.484375 -17.5 0.519531 -17.609375 0.59375 -17.640625 C 0.664062 -17.679688 0.78125 -17.703125 0.9375 -17.703125 L 3.4375 -17.703125 L 4.859375 -17.71875 C 5.734375 -17.75 6.347656 -17.765625 6.703125 -17.765625 L 8.21875 -17.75 C 9.425781 -17.71875 10.378906 -17.703125 11.078125 -17.703125 C 11.578125 -17.703125 11.90625 -17.707031 12.0625 -17.71875 C 12.425781 -17.738281 12.6875 -17.6875 12.84375 -17.5625 C 13 -17.4375 13.078125 -17.296875 13.078125 -17.140625 C 13.078125 -17.054688 13.0625 -16.835938 13.03125 -16.484375 C 13.007812 -16.128906 13 -15.691406 13 -15.171875 C 13 -14.691406 13.023438 -14.050781 13.078125 -13.25 C 13.078125 -12.789062 12.78125 -12.5625 12.1875 -12.5625 L 7.734375 -12.5625 L 7.6875 -9.953125 C 7.664062 -9.671875 7.65625 -8.957031 7.65625 -7.8125 C 7.65625 -6.632812 7.660156 -5.488281 7.671875 -4.375 C 7.691406 -3.257812 7.703125 -2.296875 7.703125 -1.484375 L 7.734375 -0.453125 L 7.734375 -0.328125 C 7.734375 -0.171875 7.710938 -0.078125 7.671875 -0.046875 C 7.628906 -0.015625 7.570312 0 7.5 0 C 7.4375 0 7.390625 0 7.359375 0 Z M 5.640625 0 "/></g></g></g><g fill="#071c29" fill-opacity="1"><g transform="translate(392.001582, 45.928042)"><g><path d="M 7.078125 0.5625 C 4.671875 0.5625 3.070312 -0.453125 2.28125 -2.484375 C 1.488281 -4.515625 1.09375 -6.695312 1.09375 -9.03125 C 1.09375 -11.269531 1.398438 -13.0625 2.015625 -14.40625 C 2.628906 -15.757812 3.378906 -16.703125 4.265625 -17.234375 C 5.148438 -17.773438 6.03125 -18.046875 6.90625 -18.046875 C 8.59375 -18.046875 9.851562 -17.5625 10.6875 -16.59375 C 11.53125 -15.625 12.070312 -14.476562 12.3125 -13.15625 C 12.550781 -11.832031 12.671875 -10.335938 12.671875 -8.671875 C 12.671875 -7.328125 12.46875 -5.941406 12.0625 -4.515625 C 11.65625 -3.085938 11.03125 -1.882812 10.1875 -0.90625 C 9.34375 0.0703125 8.304688 0.5625 7.078125 0.5625 Z M 6.875 -5.859375 C 7.332031 -5.859375 7.671875 -6.109375 7.890625 -6.609375 C 8.109375 -7.117188 8.21875 -7.726562 8.21875 -8.4375 C 8.21875 -9.113281 8.109375 -9.703125 7.890625 -10.203125 C 7.679688 -10.710938 7.398438 -10.96875 7.046875 -10.96875 C 6.628906 -10.96875 6.316406 -10.675781 6.109375 -10.09375 C 5.898438 -9.519531 5.796875 -8.894531 5.796875 -8.21875 C 5.796875 -7.53125 5.859375 -6.960938 5.984375 -6.515625 C 6.117188 -6.078125 6.414062 -5.859375 6.875 -5.859375 Z M 6.875 -5.859375 "/></g></g></g></svg>