<svg xmlns="http://www.w3.org/2000/svg" xmlns:xlink="http://www.w3.org/1999/xlink" width="600" zoomAndPan="magnify" viewBox="0 0 450 74.999997" height="100" preserveAspectRatio="xMidYMid meet" version="1.0"><defs><g/></defs><g fill="#071c29" fill-opacity="1"><g transform="translate(158.26737, 45.928042)"><g><path d="M 5.640625 0 C 5.429688 0 5.3125 -0.03125 5.28125 -0.09375 C 5.25 -0.164062 5.234375 -0.289062 5.234375 -0.46875 C 5.234375 -0.644531 5.234375 -0.773438 5.234375 -0.859375 L 5.328125 -4 C 5.429688 -6.726562 5.484375 -8.476562 5.484375 -9.25 C 5.484375 -9.6875 5.46875 -10.34375 5.4375 -11.21875 L 5.40625 -12.5625 C 4.195312 -12.5625 2.96875 -12.546875 1.71875 -12.515625 L 0.9375 -12.484375 C 0.71875 -12.484375 0.566406 -12.539062 0.484375 -12.65625 C 0.398438 -12.78125 0.382812 -12.921875 0.4375 -13.078125 L 0.453125 -13.703125 C 0.484375 -14.679688 0.5 -15.582031 0.5 -16.40625 C 0.5 -16.8125 0.492188 -17.054688 0.484375 -17.140625 L 0.484375 -17.3125 C 0.484375 -17.5 0.519531 -17.609375 0.59375 -17.640625 C 0.664062 -17.679688 0.78125 -17.703125 0.9375 -17.703125 L 3.4375 -17.703125 L 4.859375 -17.71875 C 5.734375 -17.75 6.347656 -17.765625 6.703125 -17.765625 L 8.21875 -17.75 C 9.425781 -17.71875 10.378906 -17.703125 11.078125 -17.703125 C 11.578125 -17.703125 11.90625 -17.707031 12.0625 -17.71875 C 12.425781 -17.738281 12.6875 -17.6875 12.84375 -17.5625 C 13 -17.4375 13.078125 -17.296875 13.078125 -17.140625 C 13.078125 -17.054688 13.0625 -16.835938 13.03125 -16.484375 C 13.007812 -16.128906 13 -15.691406 13 -15.171875 C 13 -14.691406 13.023438 -14.050781 13.078125 -13.25 C 13.078125 -12.789062 12.78125 -12.5625 12.1875 -12.5625 L 7.734375 -12.5625 L 7.6875 -9.953125 C 7.664062 -9.671875 7.65625 -8.957031 7.65625 -7.8125 C 7.65625 -6.632812 7.660156 -5.488281 7.671875 -4.375 C 7.691406 -3.257812 7.703125 -2.296875 7.703125 -1.484375 L 7.734375 -0.453125 L 7.734375 -0.328125 C 7.734375 -0.171875 7.710938 -0.078125 7.671875 -0.046875 C 7.628906 -0.015625 7.570312 0 7.5 0 C 7.4375 0 7.390625 0 7.359375 0 Z M 5.640625 0 "/></g></g></g><g fill="#071c29" fill-opacity="1"><g transform="translate(171.64276, 45.928042)"><g><path d="M 10.796875 -14.984375 C 10.773438 -14.816406 10.785156 -14.113281 10.828125 -12.875 C 10.910156 -10.8125 10.953125 -9.113281 10.953125 -7.78125 L 10.953125 -6.25 C 10.910156 -4.070312 10.390625 -2.5 9.390625 -1.53125 C 8.390625 -0.5625 7.179688 -0.078125 5.765625 -0.078125 C 4.679688 -0.078125 3.8125 -0.429688 3.15625 -1.140625 C 2.5 -1.859375 2.035156 -2.660156 1.765625 -3.546875 C 1.648438 -3.929688 1.5625 -4.53125 1.5 -5.34375 C 1.445312 -6.164062 1.421875 -7.003906 1.421875 -7.859375 C 1.421875 -8.816406 1.441406 -9.457031 1.484375 -9.78125 C 1.523438 -10.019531 1.546875 -10.804688 1.546875 -12.140625 C 1.546875 -14.265625 1.507812 -15.796875 1.4375 -16.734375 C 1.425781 -16.835938 1.421875 -16.972656 1.421875 -17.140625 C 1.421875 -17.660156 1.578125 -17.851562 1.890625 -17.71875 L 2.171875 -17.703125 C 2.242188 -17.703125 2.316406 -17.707031 2.390625 -17.71875 C 2.460938 -17.738281 2.539062 -17.75 2.625 -17.75 C 2.695312 -17.75 2.738281 -17.695312 2.75 -17.59375 C 2.738281 -16.53125 2.722656 -15.007812 2.703125 -13.03125 C 2.691406 -11.050781 2.6875 -9.132812 2.6875 -7.28125 C 2.6875 -6.300781 2.804688 -5.421875 3.046875 -4.640625 C 3.285156 -3.867188 3.625 -3.265625 4.0625 -2.828125 C 4.507812 -2.390625 5 -2.171875 5.53125 -2.171875 C 6.28125 -2.171875 6.816406 -2.382812 7.140625 -2.8125 C 7.472656 -3.25 7.640625 -3.703125 7.640625 -4.171875 L 7.6875 -5.71875 C 7.738281 -8.238281 7.765625 -9.632812 7.765625 -9.90625 C 7.765625 -10.289062 7.78125 -11.054688 7.8125 -12.203125 C 7.863281 -13.171875 7.890625 -14.117188 7.890625 -15.046875 C 7.890625 -15.867188 7.851562 -16.445312 7.78125 -16.78125 C 7.726562 -16.988281 7.703125 -17.148438 7.703125 -17.265625 C 7.703125 -17.503906 7.757812 -17.648438 7.875 -17.703125 C 7.988281 -17.765625 8.097656 -17.789062 8.203125 -17.78125 C 8.316406 -17.769531 8.390625 -17.765625 8.421875 -17.765625 C 8.585938 -17.753906 8.773438 -17.75 8.984375 -17.75 C 9.191406 -17.757812 9.382812 -17.765625 9.5625 -17.765625 L 10.21875 -17.765625 C 10.488281 -17.765625 10.644531 -17.726562 10.6875 -17.65625 C 10.726562 -17.582031 10.753906 -17.421875 10.765625 -17.171875 C 10.804688 -16.796875 10.828125 -16.335938 10.828125 -15.796875 C 10.828125 -15.429688 10.816406 -15.160156 10.796875 -14.984375 Z M 2.75 -17.46875 L 2.75 -17.59375 Z M 2.75 -17.46875 "/></g></g></g><g fill="#071c29" fill-opacity="1"><g transform="translate(183.981524, 45.928042)"><g><path d="M 6.703125 0.53125 C 4.273438 0.53125 2.734375 0.0625 2.078125 -0.875 C 1.421875 -1.8125 1.070312 -2.296875 1.03125 -2.328125 C 0.96875 -2.410156 0.9375 -2.492188 0.9375 -2.578125 C 0.9375 -2.628906 1.003906 -2.738281 1.140625 -2.90625 C 1.359375 -3.207031 1.675781 -3.570312 2.09375 -4 C 2.164062 -4.0625 2.234375 -4.09375 2.296875 -4.09375 C 2.378906 -4.09375 2.472656 -4.03125 2.578125 -3.90625 C 2.679688 -3.78125 2.765625 -3.679688 2.828125 -3.609375 C 3.828125 -2.617188 4.957031 -2.125 6.21875 -2.125 C 6.863281 -2.125 7.421875 -2.242188 7.890625 -2.484375 C 8.359375 -2.734375 8.59375 -3.195312 8.59375 -3.875 C 8.59375 -5.03125 7.675781 -6.265625 5.84375 -7.578125 C 5.539062 -7.785156 5.253906 -7.957031 4.984375 -8.09375 C 4.273438 -8.476562 3.664062 -8.851562 3.15625 -9.21875 C 2.65625 -9.59375 2.207031 -10.082031 1.8125 -10.6875 C 1.425781 -11.300781 1.234375 -12.007812 1.234375 -12.8125 C 1.234375 -13.820312 1.550781 -14.734375 2.1875 -15.546875 C 2.820312 -16.359375 3.582031 -16.988281 4.46875 -17.4375 C 5.351562 -17.894531 6.125 -18.125 6.78125 -18.125 C 8.375 -18.125 9.6875 -17.804688 10.71875 -17.171875 C 11.757812 -16.546875 12.566406 -15.945312 13.140625 -15.375 C 13.210938 -15.300781 13.25 -15.222656 13.25 -15.140625 C 13.25 -15.085938 13.226562 -15.023438 13.1875 -14.953125 C 13.144531 -14.878906 13.113281 -14.828125 13.09375 -14.796875 C 13.007812 -14.671875 12.867188 -14.460938 12.671875 -14.171875 C 12.484375 -13.878906 12.328125 -13.664062 12.203125 -13.53125 C 12.160156 -13.457031 12.109375 -13.382812 12.046875 -13.3125 C 11.984375 -13.238281 11.929688 -13.179688 11.890625 -13.140625 C 11.847656 -13.109375 11.785156 -13.09375 11.703125 -13.09375 C 11.671875 -13.09375 11.59375 -13.144531 11.46875 -13.25 C 11.34375 -13.363281 11.21875 -13.460938 11.09375 -13.546875 C 10.425781 -14.140625 9.769531 -14.644531 9.125 -15.0625 C 8.488281 -15.488281 7.875 -15.703125 7.28125 -15.703125 C 6.8125 -15.703125 6.421875 -15.59375 6.109375 -15.375 C 5.804688 -15.164062 5.65625 -14.691406 5.65625 -13.953125 C 5.65625 -13.234375 5.925781 -12.671875 6.46875 -12.265625 C 7.007812 -11.859375 7.726562 -11.46875 8.625 -11.09375 C 8.707031 -11.0625 9.195312 -10.851562 10.09375 -10.46875 C 11 -10.082031 11.800781 -9.335938 12.5 -8.234375 C 13.195312 -7.140625 13.546875 -5.835938 13.546875 -4.328125 C 13.546875 -2.703125 12.9375 -1.484375 11.71875 -0.671875 C 10.507812 0.128906 8.835938 0.53125 6.703125 0.53125 Z M 6.703125 0.53125 "/></g></g></g><g fill="#071c29" fill-opacity="1"><g transform="translate(198.545292, 45.928042)"><g/></g></g><g fill="#071c29" fill-opacity="1"><g transform="translate(205.119223, 45.928042)"><g><path d="M 7.984375 0.359375 C 7.210938 0.359375 6.289062 0.113281 5.21875 -0.375 C 4.144531 -0.863281 3.175781 -1.773438 2.3125 -3.109375 C 1.457031 -4.441406 1.03125 -6.253906 1.03125 -8.546875 C 1.03125 -11.210938 1.4375 -13.253906 2.25 -14.671875 C 3.0625 -16.097656 3.972656 -17.035156 4.984375 -17.484375 C 5.992188 -17.941406 6.953125 -18.171875 7.859375 -18.171875 C 9.441406 -18.171875 10.632812 -17.773438 11.4375 -16.984375 C 12.238281 -16.191406 12.816406 -15.441406 13.171875 -14.734375 C 13.234375 -14.566406 13.296875 -14.390625 13.359375 -14.203125 C 13.429688 -14.023438 13.492188 -13.867188 13.546875 -13.734375 C 13.566406 -13.691406 13.578125 -13.644531 13.578125 -13.59375 C 13.578125 -13.550781 13.554688 -13.507812 13.515625 -13.46875 C 13.472656 -13.4375 13.414062 -13.40625 13.34375 -13.375 C 13.28125 -13.351562 13.207031 -13.316406 13.125 -13.265625 L 12.546875 -12.96875 C 11.953125 -12.644531 11.535156 -12.4375 11.296875 -12.34375 C 10.929688 -12.125 10.628906 -11.925781 10.390625 -11.75 L 9.90625 -11.421875 C 9.8125 -11.335938 9.65625 -11.226562 9.4375 -11.09375 C 9.363281 -11.039062 9.296875 -11.015625 9.234375 -11.015625 C 9.128906 -10.984375 9.0625 -10.96875 9.03125 -10.96875 C 8.945312 -10.96875 8.875 -11.023438 8.8125 -11.140625 C 8.75 -11.265625 8.691406 -11.359375 8.640625 -11.421875 C 8.609375 -11.472656 8.539062 -11.570312 8.4375 -11.71875 C 8.34375 -11.875 8.222656 -12.003906 8.078125 -12.109375 C 7.929688 -12.222656 7.765625 -12.28125 7.578125 -12.28125 C 7.078125 -12.28125 6.679688 -11.890625 6.390625 -11.109375 C 6.109375 -10.328125 5.96875 -9.503906 5.96875 -8.640625 C 5.96875 -7.847656 5.988281 -7.210938 6.03125 -6.734375 C 6.070312 -6.253906 6.207031 -5.8125 6.4375 -5.40625 C 6.664062 -5 7.039062 -4.796875 7.5625 -4.796875 C 8.238281 -4.796875 8.707031 -5.21875 8.96875 -6.0625 C 9.09375 -6.414062 9.15625 -6.835938 9.15625 -7.328125 L 8.640625 -7.4375 C 8.242188 -7.5 7.953125 -7.539062 7.765625 -7.5625 C 7.441406 -7.59375 7.28125 -7.707031 7.28125 -7.90625 C 7.28125 -8.03125 7.347656 -8.363281 7.484375 -8.90625 C 7.566406 -9.164062 7.648438 -9.320312 7.734375 -9.375 C 7.816406 -9.425781 7.941406 -9.445312 8.109375 -9.4375 C 8.191406 -9.414062 8.390625 -9.382812 8.703125 -9.34375 C 9.015625 -9.300781 9.507812 -9.242188 10.1875 -9.171875 L 11.578125 -8.96875 C 12.523438 -8.832031 13.15625 -8.757812 13.46875 -8.75 C 13.757812 -8.726562 13.957031 -8.578125 14.0625 -8.296875 C 14.09375 -8.128906 14.097656 -7.984375 14.078125 -7.859375 C 13.960938 -5.773438 13.570312 -4.117188 12.90625 -2.890625 C 12.238281 -1.671875 11.46875 -0.820312 10.59375 -0.34375 C 9.71875 0.125 8.847656 0.359375 7.984375 0.359375 Z M 7.984375 0.359375 "/></g></g></g><g fill="#071c29" fill-opacity="1"><g transform="translate(220.08754, 45.928042)"><g><path d="M 2.28125 0.40625 C 2.0625 0.40625 1.910156 0.363281 1.828125 0.28125 C 1.753906 0.195312 1.71875 0.0507812 1.71875 -0.15625 L 1.75 -0.734375 L 1.6875 -2.203125 C 1.59375 -3.953125 1.546875 -5.476562 1.546875 -6.78125 C 1.546875 -7.445312 1.570312 -7.910156 1.625 -8.171875 C 1.707031 -8.585938 1.75 -9.773438 1.75 -11.734375 C 1.75 -13.773438 1.710938 -15.316406 1.640625 -16.359375 C 1.628906 -16.492188 1.625 -16.675781 1.625 -16.90625 C 1.625 -17.175781 1.644531 -17.367188 1.6875 -17.484375 C 1.738281 -17.609375 1.796875 -17.675781 1.859375 -17.6875 C 1.921875 -17.695312 2.023438 -17.703125 2.171875 -17.703125 L 2.734375 -17.75 C 3.890625 -17.882812 4.816406 -17.953125 5.515625 -17.953125 C 7.398438 -17.953125 8.816406 -17.46875 9.765625 -16.5 C 10.722656 -15.53125 11.203125 -14.269531 11.203125 -12.71875 C 11.203125 -11.488281 10.804688 -10.304688 10.015625 -9.171875 C 9.671875 -8.679688 9.28125 -8.242188 8.84375 -7.859375 L 10.625 -4.65625 C 11.914062 -2.320312 12.671875 -1.003906 12.890625 -0.703125 C 13.128906 -0.335938 13.25 -0.09375 13.25 0.03125 C 13.25 0.09375 13.207031 0.128906 13.125 0.140625 C 13.039062 0.160156 12.96875 0.171875 12.90625 0.171875 C 12.84375 0.171875 12.796875 0.171875 12.765625 0.171875 L 9.90625 0.25 C 9.769531 0.25 9.664062 0.191406 9.59375 0.078125 C 9.519531 -0.0351562 9.414062 -0.25 9.28125 -0.5625 C 9.195312 -0.8125 9.046875 -1.144531 8.828125 -1.5625 C 8.484375 -2.175781 7.898438 -3.316406 7.078125 -4.984375 L 5.796875 -7.484375 L 5.859375 -6.140625 L 5.984375 -4.21875 C 6.085938 -1.957031 6.175781 -0.710938 6.25 -0.484375 C 6.257812 -0.410156 6.265625 -0.328125 6.265625 -0.234375 C 6.265625 0.078125 6.109375 0.234375 5.796875 0.234375 C 5.691406 0.234375 5.601562 0.222656 5.53125 0.203125 C 5.257812 0.171875 4.601562 0.203125 3.5625 0.296875 C 2.851562 0.367188 2.425781 0.40625 2.28125 0.40625 Z M 5.640625 -10.84375 C 5.890625 -10.84375 6.113281 -10.894531 6.3125 -11 C 6.789062 -11.21875 7.03125 -11.664062 7.03125 -12.34375 C 7.03125 -12.832031 6.953125 -13.191406 6.796875 -13.421875 C 6.648438 -13.660156 6.457031 -13.78125 6.21875 -13.78125 C 6.03125 -13.78125 5.867188 -13.710938 5.734375 -13.578125 C 5.722656 -13.554688 5.722656 -13.4375 5.734375 -13.21875 C 5.753906 -13 5.765625 -12.78125 5.765625 -12.5625 C 5.765625 -12.375 5.753906 -12.238281 5.734375 -12.15625 C 5.671875 -11.875 5.640625 -11.582031 5.640625 -11.28125 L 5.609375 -11.046875 Z M 5.640625 -10.84375 "/></g></g></g><g fill="#071c29" fill-opacity="1"><g transform="translate(233.41239, 45.928042)"><g><path d="M 10.796875 -14.984375 C 10.773438 -14.816406 10.785156 -14.113281 10.828125 -12.875 C 10.910156 -10.8125 10.953125 -9.113281 10.953125 -7.78125 L 10.953125 -6.25 C 10.910156 -4.070312 10.390625 -2.5 9.390625 -1.53125 C 8.390625 -0.5625 7.179688 -0.078125 5.765625 -0.078125 C 4.679688 -0.078125 3.8125 -0.429688 3.15625 -1.140625 C 2.5 -1.859375 2.035156 -2.660156 1.765625 -3.546875 C 1.648438 -3.929688 1.5625 -4.53125 1.5 -5.34375 C 1.445312 -6.164062 1.421875 -7.003906 1.421875 -7.859375 C 1.421875 -8.816406 1.441406 -9.457031 1.484375 -9.78125 C 1.523438 -10.019531 1.546875 -10.804688 1.546875 -12.140625 C 1.546875 -14.265625 1.507812 -15.796875 1.4375 -16.734375 C 1.425781 -16.835938 1.421875 -16.972656 1.421875 -17.140625 C 1.421875 -17.660156 1.578125 -17.851562 1.890625 -17.71875 L 2.171875 -17.703125 C 2.242188 -17.703125 2.316406 -17.707031 2.390625 -17.71875 C 2.460938 -17.738281 2.539062 -17.75 2.625 -17.75 C 2.695312 -17.75 2.738281 -17.695312 2.75 -17.59375 C 2.738281 -16.53125 2.722656 -15.007812 2.703125 -13.03125 C 2.691406 -11.050781 2.6875 -9.132812 2.6875 -7.28125 C 2.6875 -6.300781 2.804688 -5.421875 3.046875 -4.640625 C 3.285156 -3.867188 3.625 -3.265625 4.0625 -2.828125 C 4.507812 -2.390625 5 -2.171875 5.53125 -2.171875 C 6.28125 -2.171875 6.816406 -2.382812 7.140625 -2.8125 C 7.472656 -3.25 7.640625 -3.703125 7.640625 -4.171875 L 7.6875 -5.71875 C 7.738281 -8.238281 7.765625 -9.632812 7.765625 -9.90625 C 7.765625 -10.289062 7.78125 -11.054688 7.8125 -12.203125 C 7.863281 -13.171875 7.890625 -14.117188 7.890625 -15.046875 C 7.890625 -15.867188 7.851562 -16.445312 7.78125 -16.78125 C 7.726562 -16.988281 7.703125 -17.148438 7.703125 -17.265625 C 7.703125 -17.503906 7.757812 -17.648438 7.875 -17.703125 C 7.988281 -17.765625 8.097656 -17.789062 8.203125 -17.78125 C 8.316406 -17.769531 8.390625 -17.765625 8.421875 -17.765625 C 8.585938 -17.753906 8.773438 -17.75 8.984375 -17.75 C 9.191406 -17.757812 9.382812 -17.765625 9.5625 -17.765625 L 10.21875 -17.765625 C 10.488281 -17.765625 10.644531 -17.726562 10.6875 -17.65625 C 10.726562 -17.582031 10.753906 -17.421875 10.765625 -17.171875 C 10.804688 -16.796875 10.828125 -16.335938 10.828125 -15.796875 C 10.828125 -15.429688 10.816406 -15.160156 10.796875 -14.984375 Z M 2.75 -17.46875 L 2.75 -17.59375 Z M 2.75 -17.46875 "/></g></g></g><g fill="#071c29" fill-opacity="1"><g transform="translate(245.751154, 45.928042)"><g><path d="M 2.21875 -0.078125 C 1.945312 -0.046875 1.769531 -0.0976562 1.6875 -0.234375 C 1.601562 -0.378906 1.5625 -0.601562 1.5625 -0.90625 C 1.5625 -1.28125 1.570312 -1.617188 1.59375 -1.921875 L 1.625 -4.046875 L 1.671875 -7.03125 C 1.765625 -10.601562 1.8125 -13.390625 1.8125 -15.390625 C 1.8125 -16.003906 1.804688 -16.367188 1.796875 -16.484375 C 1.765625 -16.859375 1.75 -17.078125 1.75 -17.140625 C 1.75 -17.578125 1.835938 -17.796875 2.015625 -17.796875 C 2.109375 -17.796875 2.285156 -17.785156 2.546875 -17.765625 C 2.804688 -17.753906 3.171875 -17.75 3.640625 -17.75 C 3.773438 -17.75 4.117188 -17.753906 4.671875 -17.765625 C 5.234375 -17.785156 5.816406 -17.796875 6.421875 -17.796875 C 7.316406 -17.796875 8.164062 -17.769531 8.96875 -17.71875 C 10.132812 -17.65625 11.097656 -17.179688 11.859375 -16.296875 C 12.628906 -15.421875 13.015625 -14.109375 13.015625 -12.359375 C 13.015625 -11.210938 12.769531 -10.300781 12.28125 -9.625 C 11.789062 -8.957031 11.222656 -8.492188 10.578125 -8.234375 C 9.941406 -7.972656 9.382812 -7.84375 8.90625 -7.84375 C 8.445312 -7.84375 7.675781 -7.789062 6.59375 -7.6875 C 5.96875 -7.613281 5.460938 -7.570312 5.078125 -7.5625 C 5.046875 -6.007812 5.03125 -4.957031 5.03125 -4.40625 C 5.03125 -2.207031 5.054688 -1.015625 5.109375 -0.828125 C 5.140625 -0.660156 5.109375 -0.515625 5.015625 -0.390625 C 4.921875 -0.265625 4.800781 -0.179688 4.65625 -0.140625 C 4.519531 -0.0976562 4.390625 -0.101562 4.265625 -0.15625 C 4.222656 -0.164062 4.082031 -0.171875 3.84375 -0.171875 C 3.332031 -0.171875 2.789062 -0.140625 2.21875 -0.078125 Z M 8.1875 -9.65625 C 8.8125 -9.65625 9.394531 -9.835938 9.9375 -10.203125 C 10.476562 -10.578125 10.75 -11.242188 10.75 -12.203125 C 10.75 -13.234375 10.535156 -14.015625 10.109375 -14.546875 C 9.691406 -15.078125 9.078125 -15.421875 8.265625 -15.578125 C 7.003906 -15.828125 6.007812 -15.925781 5.28125 -15.875 C 5.28125 -15.40625 5.273438 -15.050781 5.265625 -14.8125 C 5.222656 -13.875 5.175781 -13.203125 5.125 -12.796875 C 5.0625 -12.203125 5.046875 -11.535156 5.078125 -10.796875 L 5.125 -9.8125 L 6.3125 -9.734375 C 6.769531 -9.679688 7.394531 -9.65625 8.1875 -9.65625 Z M 8.1875 -9.65625 "/></g></g></g><g fill="#071c29" fill-opacity="1"><g transform="translate(258.899016, 45.928042)"><g><path d="M 7.078125 0.5625 C 4.671875 0.5625 3.070312 -0.453125 2.28125 -2.484375 C 1.488281 -4.515625 1.09375 -6.695312 1.09375 -9.03125 C 1.09375 -11.269531 1.398438 -13.0625 2.015625 -14.40625 C 2.628906 -15.757812 3.378906 -16.703125 4.265625 -17.234375 C 5.148438 -17.773438 6.03125 -18.046875 6.90625 -18.046875 C 8.59375 -18.046875 9.851562 -17.5625 10.6875 -16.59375 C 11.53125 -15.625 12.070312 -14.476562 12.3125 -13.15625 C 12.550781 -11.832031 12.671875 -10.335938 12.671875 -8.671875 C 12.671875 -7.328125 12.46875 -5.941406 12.0625 -4.515625 C 11.65625 -3.085938 11.03125 -1.882812 10.1875 -0.90625 C 9.34375 0.0703125 8.304688 0.5625 7.078125 0.5625 Z M 6.875 -5.859375 C 7.332031 -5.859375 7.671875 -6.109375 7.890625 -6.609375 C 8.109375 -7.117188 8.21875 -7.726562 8.21875 -8.4375 C 8.21875 -9.113281 8.109375 -9.703125 7.890625 -10.203125 C 7.679688 -10.710938 7.398438 -10.96875 7.046875 -10.96875 C 6.628906 -10.96875 6.316406 -10.675781 6.109375 -10.09375 C 5.898438 -9.519531 5.796875 -8.894531 5.796875 -8.21875 C 5.796875 -7.53125 5.859375 -6.960938 5.984375 -6.515625 C 6.117188 -6.078125 6.414062 -5.859375 6.875 -5.859375 Z M 6.875 -5.859375 "/></g></g></g><g fill="#071c29" fill-opacity="1"><g transform="translate(272.653686, 45.928042)"><g><path d="M 6.703125 0.53125 C 4.273438 0.53125 2.734375 0.0625 2.078125 -0.875 C 1.421875 -1.8125 1.070312 -2.296875 1.03125 -2.328125 C 0.96875 -2.410156 0.9375 -2.492188 0.9375 -2.578125 C 0.9375 -2.628906 1.003906 -2.738281 1.140625 -2.90625 C 1.359375 -3.207031 1.675781 -3.570312 2.09375 -4 C 2.164062 -4.0625 2.234375 -4.09375 2.296875 -4.09375 C 2.378906 -4.09375 2.472656 -4.03125 2.578125 -3.90625 C 2.679688 -3.78125 2.765625 -3.679688 2.828125 -3.609375 C 3.828125 -2.617188 4.957031 -2.125 6.21875 -2.125 C 6.863281 -2.125 7.421875 -2.242188 7.890625 -2.484375 C 8.359375 -2.734375 8.59375 -3.195312 8.59375 -3.875 C 8.59375 -5.03125 7.675781 -6.265625 5.84375 -7.578125 C 5.539062 -7.785156 5.253906 -7.957031 4.984375 -8.09375 C 4.273438 -8.476562 3.664062 -8.851562 3.15625 -9.21875 C 2.65625 -9.59375 2.207031 -10.082031 1.8125 -10.6875 C 1.425781 -11.300781 1.234375 -12.007812 1.234375 -12.8125 C 1.234375 -13.820312 1.550781 -14.734375 2.1875 -15.546875 C 2.820312 -16.359375 3.582031 -16.988281 4.46875 -17.4375 C 5.351562 -17.894531 6.125 -18.125 6.78125 -18.125 C 8.375 -18.125 9.6875 -17.804688 10.71875 -17.171875 C 11.757812 -16.546875 12.566406 -15.945312 13.140625 -15.375 C 13.210938 -15.300781 13.25 -15.222656 13.25 -15.140625 C 13.25 -15.085938 13.226562 -15.023438 13.1875 -14.953125 C 13.144531 -14.878906 13.113281 -14.828125 13.09375 -14.796875 C 13.007812 -14.671875 12.867188 -14.460938 12.671875 -14.171875 C 12.484375 -13.878906 12.328125 -13.664062 12.203125 -13.53125 C 12.160156 -13.457031 12.109375 -13.382812 12.046875 -13.3125 C 11.984375 -13.238281 11.929688 -13.179688 11.890625 -13.140625 C 11.847656 -13.109375 11.785156 -13.09375 11.703125 -13.09375 C 11.671875 -13.09375 11.59375 -13.144531 11.46875 -13.25 C 11.34375 -13.363281 11.21875 -13.460938 11.09375 -13.546875 C 10.425781 -14.140625 9.769531 -14.644531 9.125 -15.0625 C 8.488281 -15.488281 7.875 -15.703125 7.28125 -15.703125 C 6.8125 -15.703125 6.421875 -15.59375 6.109375 -15.375 C 5.804688 -15.164062 5.65625 -14.691406 5.65625 -13.953125 C 5.65625 -13.234375 5.925781 -12.671875 6.46875 -12.265625 C 7.007812 -11.859375 7.726562 -11.46875 8.625 -11.09375 C 8.707031 -11.0625 9.195312 -10.851562 10.09375 -10.46875 C 11 -10.082031 11.800781 -9.335938 12.5 -8.234375 C 13.195312 -7.140625 13.546875 -5.835938 13.546875 -4.328125 C 13.546875 -2.703125 12.9375 -1.484375 11.71875 -0.671875 C 10.507812 0.128906 8.835938 0.53125 6.703125 0.53125 Z M 6.703125 0.53125 "/></g></g></g></svg>