<svg xmlns="http://www.w3.org/2000/svg" xmlns:xlink="http://www.w3.org/1999/xlink" width="300" zoomAndPan="magnify" viewBox="0 0 224.87999 225" height="300" preserveAspectRatio="xMidYMid meet" version="1.0"><defs><clipPath id="9ad3f1971d"><path d="M 35.910156 58.820312 L 41.53125 58.820312 L 41.53125 64.441406 L 35.910156 64.441406 Z M 35.910156 58.820312 " clip-rule="nonzero"/></clipPath><clipPath id="91e8965a03"><path d="M 38.71875 58.820312 C 37.167969 58.820312 35.910156 60.078125 35.910156 61.628906 C 35.910156 63.183594 37.167969 64.441406 38.71875 64.441406 C 40.273438 64.441406 41.53125 63.183594 41.53125 61.628906 C 41.53125 60.078125 40.273438 58.820312 38.71875 58.820312 Z M 38.71875 58.820312 " clip-rule="nonzero"/></clipPath><clipPath id="1715053b9d"><path d="M 45.726562 58.820312 L 51.347656 58.820312 L 51.347656 64.441406 L 45.726562 64.441406 Z M 45.726562 58.820312 " clip-rule="nonzero"/></clipPath><clipPath id="a9b031d63a"><path d="M 48.535156 58.820312 C 46.984375 58.820312 45.726562 60.078125 45.726562 61.628906 C 45.726562 63.183594 46.984375 64.441406 48.535156 64.441406 C 50.089844 64.441406 51.347656 63.183594 51.347656 61.628906 C 51.347656 60.078125 50.089844 58.820312 48.535156 58.820312 Z M 48.535156 58.820312 " clip-rule="nonzero"/></clipPath><clipPath id="1bb905d188"><path d="M 55.84375 58.820312 L 61.46875 58.820312 L 61.46875 64.441406 L 55.84375 64.441406 Z M 55.84375 58.820312 " clip-rule="nonzero"/></clipPath><clipPath id="004a87306b"><path d="M 58.65625 58.820312 C 57.105469 58.820312 55.84375 60.078125 55.84375 61.628906 C 55.84375 63.183594 57.105469 64.441406 58.65625 64.441406 C 60.207031 64.441406 61.46875 63.183594 61.46875 61.628906 C 61.46875 60.078125 60.207031 58.820312 58.65625 58.820312 Z M 58.65625 58.820312 " clip-rule="nonzero"/></clipPath><clipPath id="aa8d344a6e"><path d="M 86.324219 151.855469 L 138.554688 151.855469 L 138.554688 154.753906 L 86.324219 154.753906 Z M 86.324219 151.855469 " clip-rule="nonzero"/></clipPath><clipPath id="4673307db7"><path d="M 125.496094 151.855469 C 132.710938 151.855469 138.554688 152.503906 138.554688 153.304688 C 138.554688 154.105469 132.710938 154.753906 125.496094 154.753906 L 99.382812 154.753906 C 92.171875 154.753906 86.324219 154.105469 86.324219 153.304688 C 86.324219 152.503906 92.171875 151.855469 99.382812 151.855469 Z M 125.496094 151.855469 " clip-rule="nonzero"/></clipPath><clipPath id="6450457717"><path d="M 29.5625 150.945312 L 194.59375 150.945312 L 194.59375 157.113281 L 29.5625 157.113281 Z M 29.5625 150.945312 " clip-rule="nonzero"/></clipPath><clipPath id="3b9e299345"><path d="M 26.113281 49.882812 L 198.523438 49.882812 L 198.523438 160.074219 L 26.113281 160.074219 Z M 26.113281 49.882812 " clip-rule="nonzero"/></clipPath><clipPath id="0f5fd265a4"><path d="M 36.609375 49.882812 L 188.261719 49.882812 C 194.058594 49.882812 198.757812 54.582031 198.757812 60.378906 L 198.757812 149.882812 C 198.757812 155.675781 194.058594 160.375 188.261719 160.375 L 36.609375 160.375 C 30.8125 160.375 26.113281 155.675781 26.113281 149.882812 L 26.113281 60.378906 C 26.113281 54.582031 30.8125 49.882812 36.609375 49.882812 Z M 36.609375 49.882812 " clip-rule="nonzero"/></clipPath><clipPath id="7d89336ee2"><path d="M 85.460938 75.359375 L 139.433594 75.359375 L 139.433594 122.585938 L 85.460938 122.585938 Z M 85.460938 75.359375 " clip-rule="nonzero"/></clipPath><clipPath id="1996b44594"><path d="M 38.527344 99 L 79 99 L 79 134.207031 L 38.527344 134.207031 Z M 38.527344 99 " clip-rule="nonzero"/></clipPath><clipPath id="d5a427c9f1"><path d="M 38.527344 98.976562 L 79 98.976562 L 79 134.207031 L 38.527344 134.207031 Z M 38.527344 98.976562 " clip-rule="nonzero"/></clipPath><clipPath id="f318455878"><path d="M 146.164062 99.21875 L 186.644531 99.21875 L 186.644531 134.449219 L 146.164062 134.449219 Z M 146.164062 99.21875 " clip-rule="nonzero"/></clipPath><clipPath id="453093fc3e"><path d="M 146.164062 99.21875 L 186 99.21875 L 186 133 L 146.164062 133 Z M 146.164062 99.21875 " clip-rule="nonzero"/></clipPath><clipPath id="5beb100752"><path d="M 146.164062 114 L 186 114 L 186 134 L 146.164062 134 Z M 146.164062 114 " clip-rule="nonzero"/></clipPath><clipPath id="49dc3de37f"><path d="M 41.53125 17.203125 L 61.46875 17.203125 L 61.46875 37.136719 L 41.53125 37.136719 Z M 41.53125 17.203125 " clip-rule="nonzero"/></clipPath><clipPath id="dfd53be667"><path d="M 51.5 17.203125 C 45.992188 17.203125 41.53125 21.664062 41.53125 27.171875 C 41.53125 32.675781 45.992188 37.136719 51.5 37.136719 C 57.003906 37.136719 61.46875 32.675781 61.46875 27.171875 C 61.46875 21.664062 57.003906 17.203125 51.5 17.203125 Z M 51.5 17.203125 " clip-rule="nonzero"/></clipPath><clipPath id="38002b3f6e"><path d="M 112.441406 32.878906 L 122.046875 32.878906 L 122.046875 42.484375 L 112.441406 42.484375 Z M 112.441406 32.878906 " clip-rule="nonzero"/></clipPath><clipPath id="397fd0c50d"><path d="M 117.242188 32.878906 C 114.589844 32.878906 112.441406 35.03125 112.441406 37.683594 C 112.441406 40.335938 114.589844 42.484375 117.242188 42.484375 C 119.894531 42.484375 122.046875 40.335938 122.046875 37.683594 C 122.046875 35.03125 119.894531 32.878906 117.242188 32.878906 Z M 117.242188 32.878906 " clip-rule="nonzero"/></clipPath><clipPath id="f7accdb849"><path d="M 197.890625 192.078125 L 212.359375 192.078125 L 212.359375 206.546875 L 197.890625 206.546875 Z M 197.890625 192.078125 " clip-rule="nonzero"/></clipPath><clipPath id="24e0ac5fc3"><path d="M 205.125 192.078125 C 201.128906 192.078125 197.890625 195.316406 197.890625 199.3125 C 197.890625 203.308594 201.128906 206.546875 205.125 206.546875 C 209.121094 206.546875 212.359375 203.308594 212.359375 199.3125 C 212.359375 195.316406 209.121094 192.078125 205.125 192.078125 Z M 205.125 192.078125 " clip-rule="nonzero"/></clipPath><clipPath id="c3caaa5a30"><path d="M 122.046875 188.351562 L 129.5 188.351562 L 129.5 195.804688 L 122.046875 195.804688 Z M 122.046875 188.351562 " clip-rule="nonzero"/></clipPath><clipPath id="6df842869d"><path d="M 125.773438 188.351562 C 123.714844 188.351562 122.046875 190.019531 122.046875 192.078125 C 122.046875 194.136719 123.714844 195.804688 125.773438 195.804688 C 127.832031 195.804688 129.5 194.136719 129.5 192.078125 C 129.5 190.019531 127.832031 188.351562 125.773438 188.351562 Z M 125.773438 188.351562 " clip-rule="nonzero"/></clipPath><clipPath id="d7944a603d"><path d="M 22.488281 186.609375 L 45.726562 186.609375 L 45.726562 209.847656 L 22.488281 209.847656 Z M 22.488281 186.609375 " clip-rule="nonzero"/></clipPath><clipPath id="7c29365df9"><path d="M 34.105469 186.609375 C 27.691406 186.609375 22.488281 191.8125 22.488281 198.230469 C 22.488281 204.648438 27.691406 209.847656 34.105469 209.847656 C 40.523438 209.847656 45.726562 204.648438 45.726562 198.230469 C 45.726562 191.8125 40.523438 186.609375 34.105469 186.609375 Z M 34.105469 186.609375 " clip-rule="nonzero"/></clipPath><clipPath id="b38d0b2c0e"><path d="M 149.386719 22.546875 L 159.355469 22.546875 L 159.355469 32.515625 L 149.386719 32.515625 Z M 149.386719 22.546875 " clip-rule="nonzero"/></clipPath><clipPath id="6513f144e4"><path d="M 154.371094 22.546875 C 151.621094 22.546875 149.386719 24.78125 149.386719 27.53125 C 149.386719 30.285156 151.621094 32.515625 154.371094 32.515625 C 157.125 32.515625 159.355469 30.285156 159.355469 27.53125 C 159.355469 24.78125 157.125 22.546875 154.371094 22.546875 Z M 154.371094 22.546875 " clip-rule="nonzero"/></clipPath><clipPath id="b7942c3bc2"><path d="M 92.992188 198.074219 L 103.203125 198.074219 L 103.203125 208.289062 L 92.992188 208.289062 Z M 92.992188 198.074219 " clip-rule="nonzero"/></clipPath><clipPath id="2a27fd80d1"><path d="M 98.097656 198.074219 C 95.277344 198.074219 92.992188 200.363281 92.992188 203.183594 C 92.992188 206 95.277344 208.289062 98.097656 208.289062 C 100.917969 208.289062 103.203125 206 103.203125 203.183594 C 103.203125 200.363281 100.917969 198.074219 98.097656 198.074219 Z M 98.097656 198.074219 " clip-rule="nonzero"/></clipPath></defs><path stroke-linecap="butt" transform="matrix(0.7496, -0.000000000000000093, 0.000000000000000093, 0.7496, 13.526409, 173.338503)" fill="none" stroke-linejoin="miter" d="M 0.00124671 3.998713 L 263.912856 3.998713 " stroke="#000000" stroke-width="8" stroke-opacity="1" stroke-miterlimit="4"/><g clip-path="url(#9ad3f1971d)"><g clip-path="url(#91e8965a03)"><path fill="#071c29" d="M 35.910156 58.820312 L 41.53125 58.820312 L 41.53125 64.441406 L 35.910156 64.441406 Z M 35.910156 58.820312 " fill-opacity="1" fill-rule="nonzero"/></g></g><g clip-path="url(#1715053b9d)"><g clip-path="url(#a9b031d63a)"><path fill="#071c29" d="M 45.726562 58.820312 L 51.347656 58.820312 L 51.347656 64.441406 L 45.726562 64.441406 Z M 45.726562 58.820312 " fill-opacity="1" fill-rule="nonzero"/></g></g><g clip-path="url(#1bb905d188)"><g clip-path="url(#004a87306b)"><path fill="#071c29" d="M 55.84375 58.820312 L 61.46875 58.820312 L 61.46875 64.441406 L 55.84375 64.441406 Z M 55.84375 58.820312 " fill-opacity="1" fill-rule="nonzero"/></g></g><g clip-path="url(#aa8d344a6e)"><g clip-path="url(#4673307db7)"><path fill="#222222" d="M 86.324219 151.855469 L 138.554688 151.855469 L 138.554688 154.753906 L 86.324219 154.753906 Z M 86.324219 151.855469 " fill-opacity="1" fill-rule="nonzero"/></g></g><g clip-path="url(#6450457717)"><path fill="#d2e4e6" d="M 29.5625 150.945312 L 194.597656 150.945312 L 194.597656 157.113281 L 29.5625 157.113281 Z M 29.5625 150.945312 " fill-opacity="1" fill-rule="nonzero"/></g><g clip-path="url(#3b9e299345)"><g clip-path="url(#0f5fd265a4)"><path stroke-linecap="butt" transform="matrix(0.7496, 0, 0, 0.7496, 26.115096, 49.884155)" fill="none" stroke-linejoin="miter" d="M 13.999839 -0.00179075 L 216.310868 -0.00179075 C 224.044159 -0.00179075 230.313128 6.267178 230.313128 14.000469 L 230.313128 133.402695 C 230.313128 141.130775 224.044159 147.399743 216.310868 147.399743 L 13.999839 147.399743 C 6.266548 147.399743 -0.00242035 141.130775 -0.00242035 133.402695 L -0.00242035 14.000469 C -0.00242035 6.267178 6.266548 -0.00179075 13.999839 -0.00179075 Z M 13.999839 -0.00179075 " stroke="#071c29" stroke-width="8" stroke-opacity="1" stroke-miterlimit="4"/></g></g><g clip-path="url(#7d89336ee2)"><path stroke-linecap="butt" transform="matrix(0.134533, 0, 0, 0.134533, 85.460579, 75.361617)" fill-opacity="1" fill="#ffffff" fill-rule="nonzero" stroke-linejoin="miter" d="M 0.496271 0.505973 L 400.490794 0.505973 L 400.490794 350.501181 L 0.496271 350.501181 Z M 0.496271 0.505973 " stroke="#cbcbcb" stroke-width="1" stroke-opacity="1" stroke-miterlimit="10"/></g><path fill="#d2e4e6" d="M 98.679688 95.707031 C 106.292969 95.707031 107.480469 112.015625 110.554688 112.015625 C 113.632812 112.015625 114.988281 102.265625 119.339844 102.265625 C 125.320312 102.265625 128.3125 119.898438 138.367188 119.898438 C 138.382812 119.898438 138.394531 119.898438 138.40625 119.898438 L 138.40625 76.261719 L 86.398438 76.261719 L 86.398438 116.703125 C 88.191406 110.132812 92.800781 95.707031 98.679688 95.707031 Z M 126.925781 82.417969 C 131.015625 82.417969 134.328125 85.734375 134.328125 89.824219 C 134.328125 93.914062 131.015625 97.226562 126.925781 97.226562 C 122.835938 97.226562 119.519531 93.914062 119.519531 89.824219 C 119.519531 85.734375 122.835938 82.417969 126.925781 82.417969 Z M 126.925781 82.417969 " fill-opacity="1" fill-rule="nonzero"/><path fill="#ffae62" d="M 138.40625 121.546875 L 138.40625 119.898438 C 138.394531 119.898438 138.382812 119.898438 138.367188 119.898438 C 128.308594 119.898438 125.320312 102.265625 119.339844 102.265625 C 114.988281 102.265625 113.632812 112.015625 110.554688 112.015625 C 107.480469 112.015625 106.292969 95.707031 98.679688 95.707031 C 92.800781 95.707031 88.191406 110.132812 86.398438 116.703125 L 86.398438 121.546875 Z M 138.40625 121.546875 " fill-opacity="1" fill-rule="nonzero"/><path fill="#ffae62" d="M 134.328125 89.824219 C 134.328125 90.308594 134.28125 90.789062 134.1875 91.265625 C 134.09375 91.746094 133.953125 92.207031 133.765625 92.65625 C 133.578125 93.105469 133.351562 93.53125 133.082031 93.9375 C 132.8125 94.339844 132.503906 94.714844 132.160156 95.058594 C 131.816406 95.402344 131.441406 95.710938 131.039062 95.980469 C 130.632812 96.25 130.207031 96.476562 129.757812 96.664062 C 129.308594 96.851562 128.847656 96.992188 128.371094 97.085938 C 127.894531 97.179688 127.410156 97.226562 126.925781 97.226562 C 126.4375 97.226562 125.957031 97.179688 125.480469 97.085938 C 125.003906 96.992188 124.539062 96.851562 124.089844 96.664062 C 123.640625 96.476562 123.214844 96.25 122.8125 95.980469 C 122.40625 95.710938 122.03125 95.402344 121.6875 95.058594 C 121.34375 94.714844 121.039062 94.339844 120.769531 93.9375 C 120.5 93.53125 120.269531 93.105469 120.085938 92.65625 C 119.898438 92.207031 119.757812 91.746094 119.664062 91.265625 C 119.566406 90.789062 119.519531 90.308594 119.519531 89.824219 C 119.519531 89.335938 119.566406 88.855469 119.664062 88.378906 C 119.757812 87.902344 119.898438 87.4375 120.085938 86.988281 C 120.269531 86.539062 120.5 86.113281 120.769531 85.710938 C 121.039062 85.304688 121.34375 84.929688 121.6875 84.585938 C 122.03125 84.242188 122.40625 83.9375 122.8125 83.667969 C 123.214844 83.394531 123.640625 83.167969 124.089844 82.980469 C 124.539062 82.796875 125.003906 82.65625 125.480469 82.5625 C 125.957031 82.464844 126.4375 82.417969 126.925781 82.417969 C 127.410156 82.417969 127.894531 82.464844 128.371094 82.5625 C 128.847656 82.65625 129.308594 82.796875 129.757812 82.980469 C 130.207031 83.167969 130.632812 83.394531 131.039062 83.667969 C 131.441406 83.9375 131.816406 84.242188 132.160156 84.585938 C 132.503906 84.929688 132.8125 85.304688 133.082031 85.710938 C 133.351562 86.113281 133.578125 86.539062 133.765625 86.988281 C 133.953125 87.4375 134.09375 87.902344 134.1875 88.378906 C 134.28125 88.855469 134.328125 89.335938 134.328125 89.824219 Z M 134.328125 89.824219 " fill-opacity="1" fill-rule="nonzero"/><g clip-path="url(#1996b44594)"><path fill="#ffffff" d="M 38.582031 99.023438 L 78.730469 99.023438 L 78.730469 134.15625 L 38.582031 134.15625 Z M 38.582031 99.023438 " fill-opacity="1" fill-rule="nonzero"/></g><g clip-path="url(#d5a427c9f1)"><path stroke-linecap="butt" transform="matrix(0.100374, 0, 0, 0.100374, 38.530813, 98.975181)" fill="none" stroke-linejoin="miter" d="M 0.510277 0.480766 L 400.499573 0.480766 L 400.499573 350.500588 L 0.510277 350.500588 Z M 0.510277 0.480766 " stroke="#cbcbcb" stroke-width="1" stroke-opacity="1" stroke-miterlimit="10"/></g><path fill="#d2e4e6" d="M 48.394531 114.152344 C 54.074219 114.152344 54.957031 126.324219 57.253906 126.324219 C 59.550781 126.324219 60.5625 119.050781 63.808594 119.050781 C 68.269531 119.050781 70.5 132.203125 78.003906 132.203125 C 78.015625 132.203125 78.023438 132.203125 78.035156 132.203125 L 78.035156 99.648438 L 39.230469 99.648438 L 39.230469 129.820312 C 40.570312 124.917969 44.007812 114.152344 48.394531 114.152344 Z M 69.46875 104.242188 C 72.519531 104.242188 74.992188 106.714844 74.992188 109.765625 C 74.992188 112.816406 72.519531 115.289062 69.46875 115.289062 C 66.417969 115.289062 63.941406 112.816406 63.941406 109.765625 C 63.941406 106.714844 66.417969 104.242188 69.46875 104.242188 Z M 69.46875 104.242188 " fill-opacity="1" fill-rule="nonzero"/><path fill="#ffae62" d="M 78.035156 133.433594 L 78.035156 132.203125 C 78.023438 132.203125 78.015625 132.203125 78.003906 132.203125 C 70.5 132.203125 68.269531 119.050781 63.808594 119.050781 C 60.5625 119.050781 59.550781 126.324219 57.253906 126.324219 C 54.957031 126.324219 54.074219 114.152344 48.394531 114.152344 C 44.007812 114.152344 40.570312 124.917969 39.230469 129.820312 L 39.230469 133.433594 Z M 78.035156 133.433594 " fill-opacity="1" fill-rule="nonzero"/><path fill="#ffae62" d="M 74.992188 109.765625 C 74.992188 110.128906 74.957031 110.488281 74.886719 110.84375 C 74.816406 111.199219 74.710938 111.542969 74.570312 111.878906 C 74.433594 112.214844 74.261719 112.53125 74.058594 112.832031 C 73.859375 113.136719 73.628906 113.414062 73.375 113.671875 C 73.117188 113.925781 72.839844 114.15625 72.535156 114.359375 C 72.234375 114.558594 71.917969 114.730469 71.582031 114.867188 C 71.246094 115.007812 70.902344 115.113281 70.542969 115.183594 C 70.1875 115.253906 69.828125 115.289062 69.46875 115.289062 C 69.105469 115.289062 68.746094 115.253906 68.390625 115.183594 C 68.035156 115.113281 67.6875 115.007812 67.351562 114.867188 C 67.019531 114.730469 66.699219 114.558594 66.398438 114.359375 C 66.097656 114.15625 65.816406 113.925781 65.5625 113.671875 C 65.304688 113.414062 65.074219 113.136719 64.875 112.832031 C 64.671875 112.53125 64.503906 112.214844 64.363281 111.878906 C 64.222656 111.542969 64.121094 111.199219 64.046875 110.84375 C 63.976562 110.488281 63.941406 110.128906 63.941406 109.765625 C 63.941406 109.402344 63.976562 109.042969 64.046875 108.6875 C 64.121094 108.332031 64.222656 107.984375 64.363281 107.652344 C 64.503906 107.316406 64.671875 106.996094 64.875 106.695312 C 65.074219 106.394531 65.304688 106.113281 65.5625 105.859375 C 65.816406 105.601562 66.097656 105.371094 66.398438 105.171875 C 66.699219 104.96875 67.019531 104.800781 67.351562 104.660156 C 67.6875 104.523438 68.035156 104.417969 68.390625 104.347656 C 68.746094 104.277344 69.105469 104.238281 69.46875 104.238281 C 69.828125 104.238281 70.1875 104.277344 70.542969 104.347656 C 70.902344 104.417969 71.246094 104.523438 71.582031 104.660156 C 71.917969 104.800781 72.234375 104.96875 72.535156 105.171875 C 72.839844 105.371094 73.117188 105.601562 73.375 105.859375 C 73.628906 106.113281 73.859375 106.394531 74.058594 106.695312 C 74.261719 106.996094 74.433594 107.316406 74.570312 107.652344 C 74.710938 107.984375 74.816406 108.332031 74.886719 108.6875 C 74.957031 109.042969 74.992188 109.402344 74.992188 109.765625 Z M 74.992188 109.765625 " fill-opacity="1" fill-rule="nonzero"/><g clip-path="url(#f318455878)"><path stroke-linecap="butt" transform="matrix(0.100374, 0, 0, 0.100374, 146.16878, 99.218829)" fill-opacity="1" fill="#ffffff" fill-rule="nonzero" stroke-linejoin="miter" d="M 0.497836 0.505137 L 400.487132 0.505137 L 400.487132 350.486042 L 0.497836 350.486042 Z M 0.497836 0.505137 " stroke="#cbcbcb" stroke-width="1" stroke-opacity="1" stroke-miterlimit="10"/></g><g clip-path="url(#453093fc3e)"><path fill="#d2e4e6" d="M 156.03125 114.398438 C 161.710938 114.398438 162.597656 126.566406 164.890625 126.566406 C 167.1875 126.566406 168.199219 119.292969 171.445312 119.292969 C 175.90625 119.292969 178.140625 132.449219 185.644531 132.449219 C 185.652344 132.449219 185.664062 132.449219 185.671875 132.449219 L 185.671875 99.890625 L 146.867188 99.890625 L 146.867188 130.0625 C 148.207031 125.160156 151.644531 114.398438 156.03125 114.398438 Z M 177.105469 104.484375 C 180.15625 104.484375 182.628906 106.957031 182.628906 110.007812 C 182.628906 113.058594 180.15625 115.53125 177.105469 115.53125 C 174.054688 115.53125 171.582031 113.058594 171.582031 110.007812 C 171.582031 106.957031 174.054688 104.484375 177.105469 104.484375 Z M 177.105469 104.484375 " fill-opacity="1" fill-rule="nonzero"/></g><g clip-path="url(#5beb100752)"><path fill="#ffae62" d="M 185.671875 133.675781 L 185.671875 132.449219 C 185.660156 132.449219 185.652344 132.449219 185.640625 132.449219 C 178.136719 132.449219 175.90625 119.292969 171.445312 119.292969 C 168.199219 119.292969 167.1875 126.566406 164.890625 126.566406 C 162.597656 126.566406 161.710938 114.398438 156.03125 114.398438 C 151.644531 114.398438 148.207031 125.160156 146.867188 130.0625 L 146.867188 133.675781 Z M 185.671875 133.675781 " fill-opacity="1" fill-rule="nonzero"/></g><path fill="#ffae62" d="M 182.628906 110.007812 C 182.628906 110.371094 182.59375 110.730469 182.523438 111.085938 C 182.453125 111.441406 182.347656 111.789062 182.210938 112.121094 C 182.070312 112.457031 181.898438 112.777344 181.699219 113.078125 C 181.496094 113.378906 181.269531 113.65625 181.011719 113.914062 C 180.753906 114.171875 180.476562 114.398438 180.175781 114.601562 C 179.871094 114.804688 179.554688 114.972656 179.21875 115.113281 C 178.882812 115.25 178.539062 115.355469 178.183594 115.425781 C 177.828125 115.496094 177.46875 115.53125 177.105469 115.53125 C 176.742188 115.53125 176.382812 115.496094 176.027344 115.425781 C 175.671875 115.355469 175.324219 115.25 174.992188 115.113281 C 174.65625 114.972656 174.335938 114.804688 174.035156 114.601562 C 173.734375 114.398438 173.457031 114.171875 173.199219 113.914062 C 172.941406 113.65625 172.714844 113.378906 172.511719 113.078125 C 172.308594 112.777344 172.140625 112.457031 172 112.121094 C 171.863281 111.789062 171.757812 111.441406 171.6875 111.085938 C 171.617188 110.730469 171.582031 110.371094 171.582031 110.007812 C 171.582031 109.644531 171.617188 109.285156 171.6875 108.929688 C 171.757812 108.574219 171.863281 108.230469 172 107.894531 C 172.140625 107.558594 172.308594 107.242188 172.511719 106.9375 C 172.714844 106.636719 172.941406 106.359375 173.199219 106.101562 C 173.457031 105.84375 173.734375 105.617188 174.035156 105.414062 C 174.335938 105.214844 174.65625 105.042969 174.992188 104.90625 C 175.324219 104.765625 175.671875 104.660156 176.027344 104.589844 C 176.382812 104.519531 176.742188 104.484375 177.105469 104.484375 C 177.46875 104.484375 177.828125 104.519531 178.183594 104.589844 C 178.539062 104.660156 178.882812 104.765625 179.21875 104.90625 C 179.554688 105.042969 179.871094 105.214844 180.175781 105.414062 C 180.476562 105.617188 180.753906 105.84375 181.011719 106.101562 C 181.269531 106.359375 181.496094 106.636719 181.699219 106.9375 C 181.898438 107.242188 182.070312 107.558594 182.210938 107.894531 C 182.347656 108.230469 182.453125 108.574219 182.523438 108.929688 C 182.59375 109.285156 182.628906 109.644531 182.628906 110.007812 Z M 182.628906 110.007812 " fill-opacity="1" fill-rule="nonzero"/><g clip-path="url(#49dc3de37f)"><g clip-path="url(#dfd53be667)"><path fill="#1b7895" d="M 41.53125 17.203125 L 61.46875 17.203125 L 61.46875 37.136719 L 41.53125 37.136719 Z M 41.53125 17.203125 " fill-opacity="1" fill-rule="nonzero"/></g></g><g clip-path="url(#38002b3f6e)"><g clip-path="url(#397fd0c50d)"><path fill="#ffae62" d="M 112.441406 32.878906 L 122.046875 32.878906 L 122.046875 42.484375 L 112.441406 42.484375 Z M 112.441406 32.878906 " fill-opacity="1" fill-rule="nonzero"/></g></g><g clip-path="url(#f7accdb849)"><g clip-path="url(#24e0ac5fc3)"><path fill="#d2e4e6" d="M 197.890625 192.078125 L 212.359375 192.078125 L 212.359375 206.546875 L 197.890625 206.546875 Z M 197.890625 192.078125 " fill-opacity="1" fill-rule="nonzero"/></g></g><g clip-path="url(#c3caaa5a30)"><g clip-path="url(#6df842869d)"><path fill="#ffae62" d="M 122.046875 188.351562 L 129.5 188.351562 L 129.5 195.804688 L 122.046875 195.804688 Z M 122.046875 188.351562 " fill-opacity="1" fill-rule="nonzero"/></g></g><g clip-path="url(#d7944a603d)"><g clip-path="url(#7c29365df9)"><path fill="#ffae62" d="M 22.488281 186.609375 L 45.726562 186.609375 L 45.726562 209.847656 L 22.488281 209.847656 Z M 22.488281 186.609375 " fill-opacity="1" fill-rule="nonzero"/></g></g><g clip-path="url(#b38d0b2c0e)"><g clip-path="url(#6513f144e4)"><path fill="#004369" d="M 149.386719 22.546875 L 159.355469 22.546875 L 159.355469 32.515625 L 149.386719 32.515625 Z M 149.386719 22.546875 " fill-opacity="1" fill-rule="nonzero"/></g></g><g clip-path="url(#b7942c3bc2)"><g clip-path="url(#2a27fd80d1)"><path fill="#1b7895" d="M 92.992188 198.074219 L 103.203125 198.074219 L 103.203125 208.289062 L 92.992188 208.289062 Z M 92.992188 198.074219 " fill-opacity="1" fill-rule="nonzero"/></g></g></svg>