<svg xmlns="http://www.w3.org/2000/svg" xmlns:xlink="http://www.w3.org/1999/xlink" width="300" zoomAndPan="magnify" viewBox="0 0 224.87999 225" height="300" preserveAspectRatio="xMidYMid meet" version="1.0"><defs><clipPath id="9c93b1f60a"><path d="M 35.910156 58.820312 L 41.53125 58.820312 L 41.53125 64.441406 L 35.910156 64.441406 Z M 35.910156 58.820312 " clip-rule="nonzero"/></clipPath><clipPath id="c9fdc091a7"><path d="M 38.71875 58.820312 C 37.167969 58.820312 35.910156 60.078125 35.910156 61.628906 C 35.910156 63.183594 37.167969 64.441406 38.71875 64.441406 C 40.273438 64.441406 41.53125 63.183594 41.53125 61.628906 C 41.53125 60.078125 40.273438 58.820312 38.71875 58.820312 Z M 38.71875 58.820312 " clip-rule="nonzero"/></clipPath><clipPath id="1efa67971c"><path d="M 45.726562 58.820312 L 51.347656 58.820312 L 51.347656 64.441406 L 45.726562 64.441406 Z M 45.726562 58.820312 " clip-rule="nonzero"/></clipPath><clipPath id="b88e53fb90"><path d="M 48.535156 58.820312 C 46.984375 58.820312 45.726562 60.078125 45.726562 61.628906 C 45.726562 63.183594 46.984375 64.441406 48.535156 64.441406 C 50.089844 64.441406 51.347656 63.183594 51.347656 61.628906 C 51.347656 60.078125 50.089844 58.820312 48.535156 58.820312 Z M 48.535156 58.820312 " clip-rule="nonzero"/></clipPath><clipPath id="92c22c44c8"><path d="M 55.84375 58.820312 L 61.46875 58.820312 L 61.46875 64.441406 L 55.84375 64.441406 Z M 55.84375 58.820312 " clip-rule="nonzero"/></clipPath><clipPath id="a718b38e40"><path d="M 58.65625 58.820312 C 57.105469 58.820312 55.84375 60.078125 55.84375 61.628906 C 55.84375 63.183594 57.105469 64.441406 58.65625 64.441406 C 60.207031 64.441406 61.46875 63.183594 61.46875 61.628906 C 61.46875 60.078125 60.207031 58.820312 58.65625 58.820312 Z M 58.65625 58.820312 " clip-rule="nonzero"/></clipPath><clipPath id="5473522a2b"><path d="M 86.324219 151.855469 L 138.554688 151.855469 L 138.554688 154.753906 L 86.324219 154.753906 Z M 86.324219 151.855469 " clip-rule="nonzero"/></clipPath><clipPath id="1fdda39755"><path d="M 125.496094 151.855469 C 132.710938 151.855469 138.554688 152.503906 138.554688 153.304688 C 138.554688 154.105469 132.710938 154.753906 125.496094 154.753906 L 99.382812 154.753906 C 92.171875 154.753906 86.324219 154.105469 86.324219 153.304688 C 86.324219 152.503906 92.171875 151.855469 99.382812 151.855469 Z M 125.496094 151.855469 " clip-rule="nonzero"/></clipPath><clipPath id="0283caedc6"><path d="M 29.5625 150.945312 L 194.59375 150.945312 L 194.59375 157.113281 L 29.5625 157.113281 Z M 29.5625 150.945312 " clip-rule="nonzero"/></clipPath><clipPath id="5f6e0f13d4"><path d="M 26.113281 49.882812 L 198.523438 49.882812 L 198.523438 160.074219 L 26.113281 160.074219 Z M 26.113281 49.882812 " clip-rule="nonzero"/></clipPath><clipPath id="1aa3df0290"><path d="M 36.609375 49.882812 L 188.261719 49.882812 C 194.058594 49.882812 198.757812 54.582031 198.757812 60.378906 L 198.757812 149.882812 C 198.757812 155.675781 194.058594 160.375 188.261719 160.375 L 36.609375 160.375 C 30.8125 160.375 26.113281 155.675781 26.113281 149.882812 L 26.113281 60.378906 C 26.113281 54.582031 30.8125 49.882812 36.609375 49.882812 Z M 36.609375 49.882812 " clip-rule="nonzero"/></clipPath><clipPath id="008086a6ad"><path d="M 41.53125 17.203125 L 61.46875 17.203125 L 61.46875 37.136719 L 41.53125 37.136719 Z M 41.53125 17.203125 " clip-rule="nonzero"/></clipPath><clipPath id="d644b4243f"><path d="M 51.5 17.203125 C 45.992188 17.203125 41.53125 21.664062 41.53125 27.171875 C 41.53125 32.675781 45.992188 37.136719 51.5 37.136719 C 57.003906 37.136719 61.46875 32.675781 61.46875 27.171875 C 61.46875 21.664062 57.003906 17.203125 51.5 17.203125 Z M 51.5 17.203125 " clip-rule="nonzero"/></clipPath><clipPath id="6865e8c593"><path d="M 112.441406 32.878906 L 122.046875 32.878906 L 122.046875 42.484375 L 112.441406 42.484375 Z M 112.441406 32.878906 " clip-rule="nonzero"/></clipPath><clipPath id="e55128fc53"><path d="M 117.242188 32.878906 C 114.589844 32.878906 112.441406 35.03125 112.441406 37.683594 C 112.441406 40.335938 114.589844 42.484375 117.242188 42.484375 C 119.894531 42.484375 122.046875 40.335938 122.046875 37.683594 C 122.046875 35.03125 119.894531 32.878906 117.242188 32.878906 Z M 117.242188 32.878906 " clip-rule="nonzero"/></clipPath><clipPath id="277771b473"><path d="M 197.890625 192.078125 L 212.359375 192.078125 L 212.359375 206.546875 L 197.890625 206.546875 Z M 197.890625 192.078125 " clip-rule="nonzero"/></clipPath><clipPath id="fcfb27148a"><path d="M 205.125 192.078125 C 201.128906 192.078125 197.890625 195.316406 197.890625 199.3125 C 197.890625 203.308594 201.128906 206.546875 205.125 206.546875 C 209.121094 206.546875 212.359375 203.308594 212.359375 199.3125 C 212.359375 195.316406 209.121094 192.078125 205.125 192.078125 Z M 205.125 192.078125 " clip-rule="nonzero"/></clipPath><clipPath id="a216fffc44"><path d="M 122.046875 188.351562 L 129.5 188.351562 L 129.5 195.804688 L 122.046875 195.804688 Z M 122.046875 188.351562 " clip-rule="nonzero"/></clipPath><clipPath id="73042ab695"><path d="M 125.773438 188.351562 C 123.714844 188.351562 122.046875 190.019531 122.046875 192.078125 C 122.046875 194.136719 123.714844 195.804688 125.773438 195.804688 C 127.832031 195.804688 129.5 194.136719 129.5 192.078125 C 129.5 190.019531 127.832031 188.351562 125.773438 188.351562 Z M 125.773438 188.351562 " clip-rule="nonzero"/></clipPath><clipPath id="6695ce3509"><path d="M 22.488281 186.609375 L 45.726562 186.609375 L 45.726562 209.847656 L 22.488281 209.847656 Z M 22.488281 186.609375 " clip-rule="nonzero"/></clipPath><clipPath id="31d9e7054e"><path d="M 34.105469 186.609375 C 27.691406 186.609375 22.488281 191.8125 22.488281 198.230469 C 22.488281 204.648438 27.691406 209.847656 34.105469 209.847656 C 40.523438 209.847656 45.726562 204.648438 45.726562 198.230469 C 45.726562 191.8125 40.523438 186.609375 34.105469 186.609375 Z M 34.105469 186.609375 " clip-rule="nonzero"/></clipPath><clipPath id="a7447f550e"><path d="M 149.386719 22.546875 L 159.355469 22.546875 L 159.355469 32.515625 L 149.386719 32.515625 Z M 149.386719 22.546875 " clip-rule="nonzero"/></clipPath><clipPath id="3417c9330f"><path d="M 154.371094 22.546875 C 151.621094 22.546875 149.386719 24.78125 149.386719 27.53125 C 149.386719 30.285156 151.621094 32.515625 154.371094 32.515625 C 157.125 32.515625 159.355469 30.285156 159.355469 27.53125 C 159.355469 24.78125 157.125 22.546875 154.371094 22.546875 Z M 154.371094 22.546875 " clip-rule="nonzero"/></clipPath><clipPath id="6d43a8cd62"><path d="M 92.992188 198.074219 L 103.203125 198.074219 L 103.203125 208.289062 L 92.992188 208.289062 Z M 92.992188 198.074219 " clip-rule="nonzero"/></clipPath><clipPath id="6065978ada"><path d="M 98.097656 198.074219 C 95.277344 198.074219 92.992188 200.363281 92.992188 203.183594 C 92.992188 206 95.277344 208.289062 98.097656 208.289062 C 100.917969 208.289062 103.203125 206 103.203125 203.183594 C 103.203125 200.363281 100.917969 198.074219 98.097656 198.074219 Z M 98.097656 198.074219 " clip-rule="nonzero"/></clipPath><clipPath id="6294be3aaa"><path d="M 93 72.277344 L 182.941406 72.277344 L 182.941406 77 L 93 77 Z M 93 72.277344 " clip-rule="nonzero"/></clipPath><clipPath id="73472903ce"><path d="M 93 94 L 182.941406 94 L 182.941406 99 L 93 99 Z M 93 94 " clip-rule="nonzero"/></clipPath><clipPath id="f0cf2aad61"><path d="M 93 117 L 182.941406 117 L 182.941406 121 L 93 121 Z M 93 117 " clip-rule="nonzero"/></clipPath><clipPath id="fdc6d6337d"><path d="M 93 128 L 157 128 L 157 132.246094 L 93 132.246094 Z M 93 128 " clip-rule="nonzero"/></clipPath><clipPath id="c4b995a084"><path d="M 19 75 L 88 75 L 88 138 L 19 138 Z M 19 75 " clip-rule="nonzero"/></clipPath><clipPath id="bad8378cbe"><path d="M 9.675781 100.664062 L 70.472656 69.734375 L 93.246094 114.5 L 32.449219 145.429688 Z M 9.675781 100.664062 " clip-rule="nonzero"/></clipPath><clipPath id="6a8f68d445"><path d="M 9.675781 100.664062 L 70.472656 69.734375 L 93.246094 114.5 L 32.449219 145.429688 Z M 9.675781 100.664062 " clip-rule="nonzero"/></clipPath><clipPath id="b449c8cd34"><path d="M 16 75 L 85 75 L 85 138 L 16 138 Z M 16 75 " clip-rule="nonzero"/></clipPath><clipPath id="d3d1c233e1"><path d="M 9.675781 100.664062 L 70.472656 69.734375 L 93.246094 114.5 L 32.449219 145.429688 Z M 9.675781 100.664062 " clip-rule="nonzero"/></clipPath><clipPath id="4edc0b043f"><path d="M 9.675781 100.664062 L 70.472656 69.734375 L 93.246094 114.5 L 32.449219 145.429688 Z M 9.675781 100.664062 " clip-rule="nonzero"/></clipPath><clipPath id="9ef5b6a4c5"><path d="M 15 74 L 86 74 L 86 139 L 15 139 Z M 15 74 " clip-rule="nonzero"/></clipPath><clipPath id="d5049fab64"><path d="M 9.675781 100.664062 L 70.472656 69.734375 L 93.246094 114.5 L 32.449219 145.429688 Z M 9.675781 100.664062 " clip-rule="nonzero"/></clipPath><clipPath id="ab98560b82"><path d="M 9.675781 100.664062 L 70.472656 69.734375 L 93.246094 114.5 L 32.449219 145.429688 Z M 9.675781 100.664062 " clip-rule="nonzero"/></clipPath><clipPath id="571ff4f425"><path d="M 40 99 L 60 99 L 60 120 L 40 120 Z M 40 99 " clip-rule="nonzero"/></clipPath><clipPath id="8384ef8b00"><path d="M 30.933594 99.585938 L 53.105469 85.5625 L 72.335938 115.972656 L 50.164062 129.996094 Z M 30.933594 99.585938 " clip-rule="nonzero"/></clipPath><clipPath id="f3cbca6154"><path d="M 30.933594 99.585938 L 53.105469 85.5625 L 72.335938 115.972656 L 50.164062 129.996094 Z M 30.933594 99.585938 " clip-rule="nonzero"/></clipPath><clipPath id="89b611dd7c"><path d="M 38 95 L 63 95 L 63 126 L 38 126 Z M 38 95 " clip-rule="nonzero"/></clipPath><clipPath id="2c68e3501b"><path d="M 30.933594 99.585938 L 53.105469 85.5625 L 72.335938 115.972656 L 50.164062 129.996094 Z M 30.933594 99.585938 " clip-rule="nonzero"/></clipPath><clipPath id="6ebd7d4f4b"><path d="M 30.933594 99.585938 L 53.105469 85.5625 L 72.335938 115.972656 L 50.164062 129.996094 Z M 30.933594 99.585938 " clip-rule="nonzero"/></clipPath><clipPath id="964d81b6ac"><path d="M 33.402344 103.492188 L 53.917969 90.519531 L 70.601562 116.894531 L 50.085938 129.871094 Z M 33.402344 103.492188 " clip-rule="nonzero"/></clipPath><clipPath id="bf4929ec6a"><path d="M 33.402344 103.492188 L 53.917969 90.519531 L 70.34375 116.488281 L 49.828125 129.460938 Z M 33.402344 103.492188 " clip-rule="nonzero"/></clipPath><clipPath id="a28f8821cc"><path d="M 46 106 L 57 106 L 57 119 L 46 119 Z M 46 106 " clip-rule="nonzero"/></clipPath><clipPath id="19c5207bcb"><path d="M 30.933594 99.585938 L 53.105469 85.5625 L 72.335938 115.972656 L 50.164062 129.996094 Z M 30.933594 99.585938 " clip-rule="nonzero"/></clipPath><clipPath id="663802a850"><path d="M 30.933594 99.585938 L 53.105469 85.5625 L 72.335938 115.972656 L 50.164062 129.996094 Z M 30.933594 99.585938 " clip-rule="nonzero"/></clipPath><clipPath id="6dd01b422d"><path d="M 42 92 L 45 92 L 45 96 L 42 96 Z M 42 92 " clip-rule="nonzero"/></clipPath><clipPath id="01c01c6e48"><path d="M 30.933594 99.585938 L 53.105469 85.5625 L 72.335938 115.972656 L 50.164062 129.996094 Z M 30.933594 99.585938 " clip-rule="nonzero"/></clipPath><clipPath id="2fae270aec"><path d="M 30.933594 99.585938 L 53.105469 85.5625 L 72.335938 115.972656 L 50.164062 129.996094 Z M 30.933594 99.585938 " clip-rule="nonzero"/></clipPath><clipPath id="769e31cc79"><path d="M 50 90 L 52 90 L 52 95 L 50 95 Z M 50 90 " clip-rule="nonzero"/></clipPath><clipPath id="d3832e0935"><path d="M 30.933594 99.585938 L 53.105469 85.5625 L 72.335938 115.972656 L 50.164062 129.996094 Z M 30.933594 99.585938 " clip-rule="nonzero"/></clipPath><clipPath id="c6f12fdf0b"><path d="M 30.933594 99.585938 L 53.105469 85.5625 L 72.335938 115.972656 L 50.164062 129.996094 Z M 30.933594 99.585938 " clip-rule="nonzero"/></clipPath><clipPath id="c0ca7f3571"><path d="M 55 92 L 58 92 L 58 96 L 55 96 Z M 55 92 " clip-rule="nonzero"/></clipPath><clipPath id="fcf5abd173"><path d="M 30.933594 99.585938 L 53.105469 85.5625 L 72.335938 115.972656 L 50.164062 129.996094 Z M 30.933594 99.585938 " clip-rule="nonzero"/></clipPath><clipPath id="afa8a91aa9"><path d="M 30.933594 99.585938 L 53.105469 85.5625 L 72.335938 115.972656 L 50.164062 129.996094 Z M 30.933594 99.585938 " clip-rule="nonzero"/></clipPath><clipPath id="4918959a33"><path d="M 54.308594 94.375 L 57.972656 92.058594 L 59.363281 94.257812 L 55.699219 96.574219 Z M 54.308594 94.375 " clip-rule="nonzero"/></clipPath><clipPath id="875e5715a2"><path d="M 54.308594 94.375 L 57.277344 92.5 L 58.664062 94.695312 L 55.699219 96.574219 Z M 54.308594 94.375 " clip-rule="nonzero"/></clipPath><clipPath id="ec8595eff2"><path d="M 36 97 L 40 97 L 40 100 L 36 100 Z M 36 97 " clip-rule="nonzero"/></clipPath><clipPath id="f2413eea9c"><path d="M 30.933594 99.585938 L 53.105469 85.5625 L 72.335938 115.972656 L 50.164062 129.996094 Z M 30.933594 99.585938 " clip-rule="nonzero"/></clipPath><clipPath id="ed94624bf6"><path d="M 30.933594 99.585938 L 53.105469 85.5625 L 72.335938 115.972656 L 50.164062 129.996094 Z M 30.933594 99.585938 " clip-rule="nonzero"/></clipPath><clipPath id="36cf87b950"><path d="M 34 103 L 38 103 L 38 105 L 34 105 Z M 34 103 " clip-rule="nonzero"/></clipPath><clipPath id="f8c5bb0526"><path d="M 30.933594 99.585938 L 53.105469 85.5625 L 72.335938 115.972656 L 50.164062 129.996094 Z M 30.933594 99.585938 " clip-rule="nonzero"/></clipPath><clipPath id="a1d9a31e57"><path d="M 30.933594 99.585938 L 53.105469 85.5625 L 72.335938 115.972656 L 50.164062 129.996094 Z M 30.933594 99.585938 " clip-rule="nonzero"/></clipPath></defs><path stroke-linecap="butt" transform="matrix(0.7496, -0.000000000000000093, 0.000000000000000093, 0.7496, 13.526409, 173.338503)" fill="none" stroke-linejoin="miter" d="M 0.00124671 3.998713 L 263.912856 3.998713 " stroke="#000000" stroke-width="8" stroke-opacity="1" stroke-miterlimit="4"/><g clip-path="url(#9c93b1f60a)"><g clip-path="url(#c9fdc091a7)"><path fill="#071c29" d="M 35.910156 58.820312 L 41.53125 58.820312 L 41.53125 64.441406 L 35.910156 64.441406 Z M 35.910156 58.820312 " fill-opacity="1" fill-rule="nonzero"/></g></g><g clip-path="url(#1efa67971c)"><g clip-path="url(#b88e53fb90)"><path fill="#071c29" d="M 45.726562 58.820312 L 51.347656 58.820312 L 51.347656 64.441406 L 45.726562 64.441406 Z M 45.726562 58.820312 " fill-opacity="1" fill-rule="nonzero"/></g></g><g clip-path="url(#92c22c44c8)"><g clip-path="url(#a718b38e40)"><path fill="#071c29" d="M 55.84375 58.820312 L 61.46875 58.820312 L 61.46875 64.441406 L 55.84375 64.441406 Z M 55.84375 58.820312 " fill-opacity="1" fill-rule="nonzero"/></g></g><g clip-path="url(#5473522a2b)"><g clip-path="url(#1fdda39755)"><path fill="#222222" d="M 86.324219 151.855469 L 138.554688 151.855469 L 138.554688 154.753906 L 86.324219 154.753906 Z M 86.324219 151.855469 " fill-opacity="1" fill-rule="nonzero"/></g></g><g clip-path="url(#0283caedc6)"><path fill="#d2e4e6" d="M 29.5625 150.945312 L 194.597656 150.945312 L 194.597656 157.113281 L 29.5625 157.113281 Z M 29.5625 150.945312 " fill-opacity="1" fill-rule="nonzero"/></g><g clip-path="url(#5f6e0f13d4)"><g clip-path="url(#1aa3df0290)"><path stroke-linecap="butt" transform="matrix(0.7496, 0, 0, 0.7496, 26.115096, 49.884155)" fill="none" stroke-linejoin="miter" d="M 13.999839 -0.00179075 L 216.310868 -0.00179075 C 224.044159 -0.00179075 230.313128 6.267178 230.313128 14.000469 L 230.313128 133.402695 C 230.313128 141.130775 224.044159 147.399743 216.310868 147.399743 L 13.999839 147.399743 C 6.266548 147.399743 -0.00242035 141.130775 -0.00242035 133.402695 L -0.00242035 14.000469 C -0.00242035 6.267178 6.266548 -0.00179075 13.999839 -0.00179075 Z M 13.999839 -0.00179075 " stroke="#071c29" stroke-width="8" stroke-opacity="1" stroke-miterlimit="4"/></g></g><g clip-path="url(#008086a6ad)"><g clip-path="url(#d644b4243f)"><path fill="#1b7895" d="M 41.53125 17.203125 L 61.46875 17.203125 L 61.46875 37.136719 L 41.53125 37.136719 Z M 41.53125 17.203125 " fill-opacity="1" fill-rule="nonzero"/></g></g><g clip-path="url(#6865e8c593)"><g clip-path="url(#e55128fc53)"><path fill="#ffae62" d="M 112.441406 32.878906 L 122.046875 32.878906 L 122.046875 42.484375 L 112.441406 42.484375 Z M 112.441406 32.878906 " fill-opacity="1" fill-rule="nonzero"/></g></g><g clip-path="url(#277771b473)"><g clip-path="url(#fcfb27148a)"><path fill="#d2e4e6" d="M 197.890625 192.078125 L 212.359375 192.078125 L 212.359375 206.546875 L 197.890625 206.546875 Z M 197.890625 192.078125 " fill-opacity="1" fill-rule="nonzero"/></g></g><g clip-path="url(#a216fffc44)"><g clip-path="url(#73042ab695)"><path fill="#ffae62" d="M 122.046875 188.351562 L 129.5 188.351562 L 129.5 195.804688 L 122.046875 195.804688 Z M 122.046875 188.351562 " fill-opacity="1" fill-rule="nonzero"/></g></g><g clip-path="url(#6695ce3509)"><g clip-path="url(#31d9e7054e)"><path fill="#ffae62" d="M 22.488281 186.609375 L 45.726562 186.609375 L 45.726562 209.847656 L 22.488281 209.847656 Z M 22.488281 186.609375 " fill-opacity="1" fill-rule="nonzero"/></g></g><g clip-path="url(#a7447f550e)"><g clip-path="url(#3417c9330f)"><path fill="#004369" d="M 149.386719 22.546875 L 159.355469 22.546875 L 159.355469 32.515625 L 149.386719 32.515625 Z M 149.386719 22.546875 " fill-opacity="1" fill-rule="nonzero"/></g></g><g clip-path="url(#6d43a8cd62)"><g clip-path="url(#6065978ada)"><path fill="#1b7895" d="M 92.992188 198.074219 L 103.203125 198.074219 L 103.203125 208.289062 L 92.992188 208.289062 Z M 92.992188 198.074219 " fill-opacity="1" fill-rule="nonzero"/></g></g><g clip-path="url(#6294be3aaa)"><path fill="#455a64" d="M 181.035156 76.023438 L 94.898438 76.023438 C 94.648438 76.023438 94.410156 75.976562 94.179688 75.882812 C 93.953125 75.785156 93.75 75.652344 93.574219 75.476562 C 93.398438 75.300781 93.261719 75.097656 93.167969 74.867188 C 93.074219 74.636719 93.027344 74.398438 93.027344 74.152344 C 93.027344 73.902344 93.074219 73.664062 93.167969 73.433594 C 93.261719 73.203125 93.398438 73 93.574219 72.824219 C 93.75 72.648438 93.953125 72.515625 94.179688 72.417969 C 94.410156 72.324219 94.648438 72.277344 94.898438 72.277344 L 181.035156 72.277344 C 181.28125 72.277344 181.523438 72.324219 181.75 72.417969 C 181.980469 72.515625 182.183594 72.648438 182.359375 72.824219 C 182.535156 73 182.667969 73.203125 182.765625 73.433594 C 182.859375 73.664062 182.90625 73.902344 182.90625 74.152344 C 182.90625 74.398438 182.859375 74.636719 182.765625 74.867188 C 182.667969 75.097656 182.535156 75.300781 182.359375 75.476562 C 182.183594 75.652344 181.980469 75.785156 181.75 75.882812 C 181.523438 75.976562 181.28125 76.023438 181.035156 76.023438 Z M 181.035156 76.023438 " fill-opacity="1" fill-rule="nonzero"/></g><path fill="#607d8b" d="M 154.820312 87.269531 L 94.898438 87.269531 C 94.648438 87.269531 94.410156 87.222656 94.179688 87.125 C 93.953125 87.03125 93.75 86.894531 93.574219 86.71875 C 93.398438 86.542969 93.261719 86.339844 93.167969 86.113281 C 93.074219 85.882812 93.027344 85.644531 93.027344 85.394531 C 93.027344 85.144531 93.074219 84.90625 93.167969 84.675781 C 93.261719 84.449219 93.398438 84.246094 93.574219 84.070312 C 93.75 83.894531 93.953125 83.757812 94.179688 83.664062 C 94.410156 83.566406 94.648438 83.519531 94.898438 83.519531 L 154.820312 83.519531 C 155.066406 83.519531 155.304688 83.566406 155.535156 83.664062 C 155.765625 83.757812 155.96875 83.894531 156.144531 84.070312 C 156.320312 84.246094 156.453125 84.449219 156.550781 84.675781 C 156.644531 84.90625 156.691406 85.144531 156.691406 85.394531 C 156.691406 85.644531 156.644531 85.882812 156.550781 86.113281 C 156.453125 86.339844 156.320312 86.542969 156.144531 86.71875 C 155.96875 86.894531 155.765625 87.03125 155.535156 87.125 C 155.304688 87.222656 155.066406 87.269531 154.820312 87.269531 Z M 154.820312 87.269531 " fill-opacity="1" fill-rule="nonzero"/><g clip-path="url(#73472903ce)"><path fill="#455a64" d="M 181.035156 98.511719 L 94.898438 98.511719 C 94.648438 98.511719 94.410156 98.464844 94.179688 98.371094 C 93.953125 98.273438 93.75 98.140625 93.574219 97.964844 C 93.398438 97.789062 93.261719 97.585938 93.167969 97.355469 C 93.074219 97.125 93.027344 96.886719 93.027344 96.640625 C 93.027344 96.390625 93.074219 96.152344 93.167969 95.921875 C 93.261719 95.691406 93.398438 95.488281 93.574219 95.3125 C 93.75 95.136719 93.953125 95.003906 94.179688 94.90625 C 94.410156 94.8125 94.648438 94.765625 94.898438 94.765625 L 181.035156 94.765625 C 181.28125 94.765625 181.523438 94.8125 181.75 94.90625 C 181.980469 95.003906 182.183594 95.136719 182.359375 95.3125 C 182.535156 95.488281 182.667969 95.691406 182.765625 95.921875 C 182.859375 96.152344 182.90625 96.390625 182.90625 96.640625 C 182.90625 96.886719 182.859375 97.125 182.765625 97.355469 C 182.667969 97.585938 182.535156 97.789062 182.359375 97.964844 C 182.183594 98.140625 181.980469 98.273438 181.75 98.371094 C 181.523438 98.464844 181.28125 98.511719 181.035156 98.511719 Z M 181.035156 98.511719 " fill-opacity="1" fill-rule="nonzero"/></g><path fill="#607d8b" d="M 154.820312 109.757812 L 94.898438 109.757812 C 94.648438 109.757812 94.410156 109.710938 94.179688 109.613281 C 93.953125 109.519531 93.75 109.382812 93.574219 109.207031 C 93.398438 109.03125 93.261719 108.828125 93.167969 108.601562 C 93.074219 108.371094 93.027344 108.132812 93.027344 107.882812 C 93.027344 107.632812 93.074219 107.394531 93.167969 107.164062 C 93.261719 106.9375 93.398438 106.734375 93.574219 106.558594 C 93.75 106.382812 93.953125 106.246094 94.179688 106.152344 C 94.410156 106.054688 94.648438 106.007812 94.898438 106.007812 L 154.820312 106.007812 C 155.066406 106.007812 155.304688 106.054688 155.535156 106.152344 C 155.765625 106.246094 155.96875 106.382812 156.144531 106.558594 C 156.320312 106.734375 156.453125 106.9375 156.550781 107.164062 C 156.644531 107.394531 156.691406 107.632812 156.691406 107.882812 C 156.691406 108.132812 156.644531 108.371094 156.550781 108.601562 C 156.453125 108.828125 156.320312 109.03125 156.144531 109.207031 C 155.96875 109.382812 155.765625 109.519531 155.535156 109.613281 C 155.304688 109.710938 155.066406 109.757812 154.820312 109.757812 Z M 154.820312 109.757812 " fill-opacity="1" fill-rule="nonzero"/><g clip-path="url(#f0cf2aad61)"><path fill="#455a64" d="M 181.035156 121 L 94.898438 121 C 94.648438 121 94.410156 120.953125 94.179688 120.859375 C 93.953125 120.761719 93.75 120.628906 93.574219 120.453125 C 93.398438 120.277344 93.261719 120.074219 93.167969 119.84375 C 93.074219 119.613281 93.027344 119.375 93.027344 119.125 C 93.027344 118.878906 93.074219 118.640625 93.167969 118.410156 C 93.261719 118.179688 93.398438 117.976562 93.574219 117.800781 C 93.75 117.625 93.953125 117.492188 94.179688 117.394531 C 94.410156 117.300781 94.648438 117.253906 94.898438 117.253906 L 181.035156 117.253906 C 181.28125 117.253906 181.523438 117.300781 181.75 117.394531 C 181.980469 117.492188 182.183594 117.625 182.359375 117.800781 C 182.535156 117.976562 182.667969 118.179688 182.765625 118.410156 C 182.859375 118.640625 182.90625 118.878906 182.90625 119.125 C 182.90625 119.375 182.859375 119.613281 182.765625 119.84375 C 182.667969 120.074219 182.535156 120.277344 182.359375 120.453125 C 182.183594 120.628906 181.980469 120.761719 181.75 120.859375 C 181.523438 120.953125 181.28125 121 181.035156 121 Z M 181.035156 121 " fill-opacity="1" fill-rule="nonzero"/></g><g clip-path="url(#fdc6d6337d)"><path fill="#607d8b" d="M 154.820312 132.246094 L 94.898438 132.246094 C 94.648438 132.246094 94.410156 132.195312 94.179688 132.101562 C 93.953125 132.007812 93.75 131.871094 93.574219 131.695312 C 93.398438 131.519531 93.261719 131.316406 93.167969 131.085938 C 93.074219 130.859375 93.027344 130.621094 93.027344 130.371094 C 93.027344 130.121094 93.074219 129.882812 93.167969 129.652344 C 93.261719 129.425781 93.398438 129.222656 93.574219 129.046875 C 93.75 128.871094 93.953125 128.734375 94.179688 128.640625 C 94.410156 128.542969 94.648438 128.496094 94.898438 128.496094 L 154.820312 128.496094 C 155.066406 128.496094 155.304688 128.542969 155.535156 128.640625 C 155.765625 128.734375 155.96875 128.871094 156.144531 129.046875 C 156.320312 129.222656 156.453125 129.425781 156.550781 129.652344 C 156.644531 129.882812 156.691406 130.121094 156.691406 130.371094 C 156.691406 130.621094 156.644531 130.859375 156.550781 131.085938 C 156.453125 131.316406 156.320312 131.519531 156.144531 131.695312 C 155.96875 131.871094 155.765625 132.007812 155.535156 132.101562 C 155.304688 132.195312 155.066406 132.246094 154.820312 132.246094 Z M 154.820312 132.246094 " fill-opacity="1" fill-rule="nonzero"/></g><g clip-path="url(#c4b995a084)"><g clip-path="url(#bad8378cbe)"><g clip-path="url(#6a8f68d445)"><path fill="#000000" d="M 34.527344 96.40625 C 34.972656 96.179688 37.484375 91.144531 43.902344 87.503906 C 52.328125 81.902344 59.019531 85.828125 59.019531 85.828125 C 59.101562 86.726562 62.785156 78.085938 66.746094 76.636719 C 71.078125 75.183594 73.632812 76.136719 75.082031 80.097656 C 76 82.636719 73.992188 84.972656 74.003906 86.472656 C 74.605469 86.917969 78.878906 87.1875 81.535156 92.410156 C 84.195312 97.636719 82.351562 102.140625 82.5 102.066406 C 82.652344 101.988281 88.441406 105.621094 87.648438 109.96875 C 86.855469 114.320312 78.621094 114.75 77.273438 114.683594 C 76.378906 115.515625 78.621094 121.4375 65.746094 128.738281 C 54.875 134.269531 48.183594 132.488281 46.386719 132.652344 C 45.203125 134.757812 38.726562 140.121094 34.058594 136.855469 C 29.234375 132.171875 31.535156 129.308594 31.601562 127.960938 C 30.320312 126.921875 27.242188 125.667969 25.414062 121.339844 C 22.679688 115.964844 22.65625 112.59375 23.394531 111.089844 C 22.191406 110.199219 17.371094 106.640625 21.078125 100.996094 C 28.59375 94.351562 34.453125 96.632812 34.527344 96.40625 Z M 34.527344 96.40625 " fill-opacity="0.5" fill-rule="evenodd"/></g></g></g><g clip-path="url(#b449c8cd34)"><g clip-path="url(#d3d1c233e1)"><g clip-path="url(#4edc0b043f)"><path fill="#d2e4e6" d="M 31.238281 95.964844 C 31.6875 95.738281 34.199219 90.703125 40.613281 87.0625 C 49.039062 81.460938 55.734375 85.382812 55.734375 85.382812 C 55.8125 86.28125 59.5 77.644531 63.457031 76.191406 C 67.792969 74.738281 70.34375 75.695312 71.796875 79.65625 C 72.710938 82.195312 70.707031 84.53125 70.71875 86.027344 C 71.320312 86.472656 75.589844 86.742188 78.25 91.96875 C 80.90625 97.191406 79.066406 101.699219 79.214844 101.621094 C 79.363281 101.546875 85.15625 105.175781 84.363281 109.527344 C 83.570312 113.875 75.332031 114.308594 73.984375 114.242188 C 73.089844 115.074219 75.332031 120.996094 62.460938 128.296875 C 51.585938 133.828125 44.898438 132.046875 43.101562 132.207031 C 41.917969 134.3125 35.4375 139.675781 30.773438 136.414062 C 25.945312 131.730469 28.25 128.867188 28.3125 127.519531 C 27.03125 126.476562 23.953125 125.226562 22.125 120.894531 C 19.390625 115.519531 19.367188 112.152344 20.105469 110.648438 C 18.902344 109.757812 14.085938 106.195312 17.789062 100.554688 C 25.308594 93.910156 31.167969 96.191406 31.238281 95.964844 Z M 31.238281 95.964844 " fill-opacity="1" fill-rule="evenodd"/></g></g></g><g clip-path="url(#9ef5b6a4c5)"><g clip-path="url(#d5049fab64)"><g clip-path="url(#ab98560b82)"><path stroke-linecap="butt" transform="matrix(0.124479, -0.0633269, 0.0633269, 0.124479, 7.893476, 98.829718)" fill="none" stroke-linejoin="round" d="M 158.283031 57.509238 C 161.885422 57.521815 194.262062 33.543129 247.01512 31.133581 C 318.973025 22.741063 348.968215 69.506972 348.968215 69.506972 C 346.549886 75.494261 398.123117 32.348479 428.093866 35.922004 C 460.482718 40.725703 473.654145 55.114762 470.067938 85.11044 C 467.657866 104.281857 447.285385 112.683364 442.502887 122.269177 C 444.896165 127.06413 471.268374 142.645874 471.27616 184.637315 C 471.2717 226.591145 444.894927 249.385769 446.095869 249.369115 C 447.284129 249.37739 472.471909 291.344042 453.283368 316.540342 C 434.107508 341.711713 380.124747 317.73205 371.739876 312.932898 C 363.32985 315.338527 358.412813 360.410316 252.569067 365.214553 C 165.209026 365.206608 128.313846 332.127097 116.326584 327.315368 C 101.937421 336.909333 43.167719 350.096926 23.992261 314.138748 C 8.386113 268.573799 32.390216 257.783421 37.164439 249.385868 C 32.373911 238.57009 16.788248 220.599267 19.186091 187.017852 C 19.18658 143.838151 29.969067 122.273352 39.563276 115.072664 C 34.77672 105.482758 15.605565 67.110448 57.55126 43.135856 C 127.11181 25.145053 157.098743 58.726834 158.283031 57.509238 Z M 158.283031 57.509238 " stroke="#000000" stroke-width="10" stroke-opacity="1" stroke-miterlimit="4"/></g></g></g><g clip-path="url(#571ff4f425)"><g clip-path="url(#8384ef8b00)"><g clip-path="url(#f3cbca6154)"><path fill="#ffbc36" d="M 51.875 119.628906 C 51.875 119.628906 50.527344 118.089844 49.347656 117.9375 C 46.5 117.578125 42.222656 116.023438 40.796875 109.265625 C 39.496094 103.101562 51.574219 95.433594 57.605469 101.921875 C 60.828125 105.390625 60.234375 108.402344 58.851562 113.464844 C 58.203125 115.832031 58.757812 115.378906 58.558594 116.351562 L 51.875 119.628906 " fill-opacity="1" fill-rule="evenodd"/></g></g></g><g clip-path="url(#89b611dd7c)"><g clip-path="url(#2c68e3501b)"><g clip-path="url(#6ebd7d4f4b)"><g clip-path="url(#964d81b6ac)"><g clip-path="url(#bf4929ec6a)"><path fill="#011e31" d="M 50.578125 119.828125 C 50.574219 119.832031 50.570312 119.839844 50.570312 119.847656 C 50.476562 120.125 50.492188 120.429688 50.621094 120.691406 C 50.75 120.957031 50.980469 121.160156 51.257812 121.253906 C 51.390625 121.300781 51.53125 121.320312 51.671875 121.316406 C 51.582031 121.421875 51.507812 121.542969 51.464844 121.675781 C 51.367188 121.953125 51.386719 122.253906 51.515625 122.523438 C 51.644531 122.785156 51.875 122.984375 52.152344 123.082031 C 52.351562 123.148438 52.5625 123.160156 52.761719 123.113281 C 52.601562 123.242188 52.480469 123.417969 52.410156 123.617188 C 52.316406 123.890625 52.335938 124.195312 52.464844 124.460938 C 52.589844 124.722656 52.824219 124.925781 53.101562 125.023438 C 53.289062 125.085938 53.488281 125.097656 53.675781 125.058594 C 53.792969 125.136719 53.921875 125.203125 54.054688 125.246094 C 54.476562 125.394531 54.941406 125.367188 55.339844 125.167969 C 56.8125 124.449219 59.394531 123.183594 60.859375 122.472656 C 61.417969 122.199219 61.753906 121.65625 61.796875 121.078125 C 61.929688 120.953125 62.03125 120.800781 62.089844 120.625 C 62.1875 120.347656 62.167969 120.042969 62.039062 119.78125 C 61.90625 119.515625 61.679688 119.3125 61.402344 119.214844 C 61.207031 119.148438 60.996094 119.140625 60.796875 119.183594 C 60.953125 119.054688 61.074219 118.882812 61.144531 118.6875 C 61.238281 118.40625 61.21875 118.101562 61.089844 117.839844 C 60.960938 117.574219 60.734375 117.371094 60.453125 117.277344 C 60.320312 117.230469 60.179688 117.210938 60.042969 117.21875 C 60.132812 117.113281 60.203125 116.988281 60.246094 116.855469 C 60.34375 116.578125 60.324219 116.277344 60.195312 116.011719 C 60.066406 115.746094 59.835938 115.546875 59.558594 115.449219 C 59.550781 115.445312 59.546875 115.445312 59.539062 115.441406 C 62.378906 111.9375 63.105469 106.945312 60.984375 102.609375 C 58.082031 96.667969 50.917969 94.1875 45.007812 97.082031 C 39.09375 99.96875 36.652344 107.144531 39.5625 113.089844 C 41.679688 117.429688 46.066406 119.917969 50.578125 119.828125 Z M 61.21875 120.179688 C 61.242188 120.226562 61.242188 120.277344 61.226562 120.328125 C 61.210938 120.378906 61.175781 120.417969 61.128906 120.4375 C 59.535156 121.21875 55.136719 123.371094 53.546875 124.148438 C 53.5 124.171875 53.445312 124.175781 53.398438 124.160156 C 53.347656 124.140625 53.308594 124.105469 53.285156 124.058594 C 53.261719 124.011719 53.257812 123.957031 53.277344 123.910156 C 53.292969 123.859375 53.328125 123.820312 53.371094 123.796875 C 54.964844 123.015625 59.367188 120.867188 60.957031 120.089844 C 61.003906 120.066406 61.054688 120.0625 61.105469 120.078125 C 61.15625 120.097656 61.195312 120.132812 61.21875 120.179688 Z M 60.269531 118.242188 C 60.292969 118.285156 60.296875 118.339844 60.28125 118.390625 C 60.261719 118.4375 60.226562 118.476562 60.179688 118.5 C 58.585938 119.28125 54.191406 121.433594 52.597656 122.210938 C 52.550781 122.234375 52.496094 122.234375 52.449219 122.21875 C 52.398438 122.203125 52.359375 122.164062 52.335938 122.121094 C 52.316406 122.074219 52.3125 122.019531 52.328125 121.96875 C 52.34375 121.921875 52.378906 121.878906 52.425781 121.859375 C 54.019531 121.082031 58.414062 118.929688 60.007812 118.152344 C 60.054688 118.128906 60.109375 118.121094 60.15625 118.140625 C 60.207031 118.15625 60.246094 118.195312 60.269531 118.242188 Z M 59.375 116.410156 C 59.398438 116.460938 59.402344 116.511719 59.386719 116.558594 C 59.371094 116.609375 59.332031 116.652344 59.285156 116.671875 C 57.695312 117.453125 53.296875 119.601562 51.703125 120.378906 C 51.65625 120.40625 51.605469 120.40625 51.554688 120.390625 C 51.503906 120.375 51.464844 120.339844 51.445312 120.292969 C 51.441406 120.289062 51.441406 120.289062 51.441406 120.289062 C 51.417969 120.246094 51.414062 120.191406 51.433594 120.144531 C 51.449219 120.09375 51.484375 120.054688 51.53125 120.03125 C 53.125 119.25 57.519531 117.101562 59.117188 116.324219 C 59.160156 116.296875 59.214844 116.296875 59.265625 116.3125 C 59.3125 116.332031 59.351562 116.367188 59.375 116.410156 Z M 51.234375 118.886719 L 58.445312 115.359375 C 58.464844 115.308594 58.492188 115.261719 58.53125 115.222656 C 61.402344 111.96875 62.199219 107.167969 60.167969 103.011719 C 57.484375 97.519531 50.867188 95.230469 45.40625 97.902344 C 39.945312 100.570312 37.695312 107.199219 40.378906 112.691406 C 42.429688 116.886719 46.777344 119.210938 51.148438 118.882812 C 51.179688 118.878906 51.207031 118.882812 51.234375 118.886719 " fill-opacity="1" fill-rule="evenodd"/></g></g></g></g></g><g clip-path="url(#a28f8821cc)"><g clip-path="url(#19c5207bcb)"><g clip-path="url(#663802a850)"><path fill="#011e31" d="M 52.054688 110.382812 C 51.800781 110.710938 51.433594 110.96875 50.964844 110.996094 C 51 110.707031 50.988281 110.402344 50.910156 110.078125 C 50.824219 109.710938 50.554688 109.285156 50.210938 109.042969 C 49.785156 108.75 49.269531 108.679688 48.785156 109.097656 C 48.535156 109.3125 48.417969 109.667969 48.503906 110.09375 C 48.613281 110.621094 49.066406 111.285156 49.796875 111.648438 C 49.761719 111.703125 49.730469 111.757812 49.695312 111.804688 C 49.671875 111.839844 49.648438 111.871094 49.625 111.90625 C 49.46875 111.78125 49.320312 111.675781 49.183594 111.589844 C 48.765625 111.335938 48.292969 111.054688 47.851562 110.953125 C 47.457031 110.863281 47.082031 110.90625 46.753906 111.132812 C 46.464844 111.335938 46.320312 111.675781 46.34375 112.058594 C 46.363281 112.523438 46.632812 113.039062 47.054688 113.308594 C 47.429688 113.546875 48.046875 113.726562 48.582031 113.703125 C 49.023438 113.683594 49.40625 113.527344 49.640625 113.238281 C 49.65625 113.222656 49.679688 113.195312 49.714844 113.164062 C 51.550781 114.84375 54.046875 118 54.046875 118 C 54.203125 118.199219 54.488281 118.234375 54.6875 118.078125 C 54.882812 117.921875 54.917969 117.632812 54.761719 117.4375 C 54.761719 117.4375 52.234375 114.261719 50.324219 112.5 C 50.363281 112.441406 50.410156 112.378906 50.453125 112.316406 C 50.539062 112.183594 50.621094 112.046875 50.691406 111.902344 C 51.699219 111.988281 52.445312 111.449219 52.902344 110.761719 C 53.023438 110.785156 53.144531 110.804688 53.269531 110.8125 C 53.410156 110.820312 53.554688 110.816406 53.691406 110.804688 C 54.011719 113.5625 55.160156 117.324219 55.160156 117.324219 C 55.234375 117.566406 55.492188 117.699219 55.730469 117.628906 C 55.972656 117.554688 56.105469 117.296875 56.035156 117.058594 C 56.035156 117.058594 54.855469 113.285156 54.574219 110.652344 C 54.960938 110.546875 55.25 110.425781 55.324219 110.394531 C 56.132812 110.046875 56.804688 109.207031 56.597656 108.375 C 56.359375 107.417969 55.707031 106.855469 54.976562 107.011719 C 54.039062 107.214844 53.769531 108.140625 53.65625 108.859375 C 53.613281 109.152344 53.601562 109.503906 53.617188 109.898438 C 53.519531 109.902344 53.421875 109.90625 53.324219 109.898438 L 53.308594 109.898438 C 53.46875 109.367188 53.5 108.820312 53.410156 108.394531 C 53.320312 107.964844 53.113281 107.648438 52.847656 107.492188 C 52.628906 107.367188 52.371094 107.320312 52.0625 107.417969 C 51.496094 107.59375 51.273438 108.019531 51.257812 108.523438 C 51.246094 108.898438 51.367188 109.324219 51.511719 109.652344 C 51.648438 109.964844 51.835938 110.203125 52.054688 110.382812 Z M 49.011719 112.582031 C 48.902344 112.5 48.800781 112.429688 48.703125 112.367188 C 48.417969 112.191406 48.105469 111.992188 47.800781 111.886719 C 47.613281 111.820312 47.429688 111.777344 47.273438 111.882812 C 47.257812 111.898438 47.257812 111.921875 47.253906 111.945312 C 47.246094 111.996094 47.253906 112.050781 47.265625 112.109375 C 47.300781 112.273438 47.398438 112.445312 47.546875 112.535156 C 47.789062 112.695312 48.195312 112.808594 48.542969 112.789062 C 48.699219 112.785156 48.847656 112.765625 48.929688 112.664062 C 48.949219 112.640625 48.976562 112.613281 49.011719 112.582031 Z M 54.515625 109.722656 C 54.746094 109.648438 54.914062 109.578125 54.960938 109.558594 C 55.199219 109.457031 55.421875 109.296875 55.570312 109.09375 C 55.683594 108.945312 55.753906 108.773438 55.707031 108.59375 C 55.648438 108.34375 55.554688 108.136719 55.421875 107.996094 C 55.347656 107.925781 55.265625 107.882812 55.167969 107.902344 C 54.960938 107.949219 54.839844 108.085938 54.757812 108.246094 C 54.640625 108.480469 54.59375 108.761719 54.558594 109 C 54.527344 109.210938 54.511719 109.453125 54.515625 109.722656 Z M 50.070312 110.757812 C 50.074219 110.609375 50.0625 110.453125 50.023438 110.289062 C 49.980469 110.109375 49.851562 109.910156 49.683594 109.792969 C 49.597656 109.730469 49.496094 109.703125 49.394531 109.777344 C 49.394531 109.808594 49.398438 109.914062 49.421875 109.984375 C 49.484375 110.195312 49.644531 110.425781 49.871094 110.617188 C 49.933594 110.667969 49.996094 110.714844 50.070312 110.757812 Z M 52.472656 109.5 C 52.558594 109.171875 52.574219 108.839844 52.515625 108.578125 C 52.5 108.488281 52.472656 108.410156 52.4375 108.347656 C 52.414062 108.304688 52.382812 108.273438 52.332031 108.289062 C 52.203125 108.328125 52.175781 108.4375 52.171875 108.554688 C 52.164062 108.796875 52.253906 109.070312 52.347656 109.285156 C 52.382812 109.363281 52.425781 109.4375 52.472656 109.5 " fill-opacity="1" fill-rule="evenodd"/></g></g></g><g clip-path="url(#6dd01b422d)"><g clip-path="url(#01c01c6e48)"><g clip-path="url(#2fae270aec)"><path fill="#011e31" d="M 44.355469 95.160156 L 43.191406 92.777344 C 43.082031 92.550781 42.808594 92.457031 42.582031 92.566406 C 42.355469 92.679688 42.257812 92.953125 42.371094 93.179688 L 43.539062 95.5625 C 43.648438 95.789062 43.917969 95.878906 44.144531 95.769531 C 44.375 95.660156 44.46875 95.386719 44.355469 95.160156 " fill-opacity="1" fill-rule="evenodd"/></g></g></g><g clip-path="url(#769e31cc79)"><g clip-path="url(#d3832e0935)"><g clip-path="url(#c6f12fdf0b)"><path fill="#011e31" d="M 51.082031 93.835938 L 51.5 91.246094 C 51.539062 91 51.371094 90.765625 51.121094 90.726562 C 50.875 90.679688 50.636719 90.855469 50.597656 91.101562 L 50.179688 93.6875 C 50.140625 93.9375 50.308594 94.175781 50.558594 94.214844 C 50.808594 94.253906 51.042969 94.085938 51.082031 93.835938 " fill-opacity="1" fill-rule="evenodd"/></g></g></g><g clip-path="url(#c0ca7f3571)"><g clip-path="url(#fcf5abd173)"><g clip-path="url(#afa8a91aa9)"><g clip-path="url(#4918959a33)"><g clip-path="url(#875e5715a2)"><path fill="#011e31" d="M 56.140625 95.609375 L 57.535156 93.390625 C 57.667969 93.175781 57.605469 92.890625 57.390625 92.757812 C 57.179688 92.625 56.894531 92.6875 56.761719 92.902344 L 55.367188 95.125 C 55.234375 95.335938 55.296875 95.617188 55.511719 95.753906 C 55.726562 95.886719 56.007812 95.820312 56.140625 95.609375 " fill-opacity="1" fill-rule="evenodd"/></g></g></g></g></g><g clip-path="url(#ec8595eff2)"><g clip-path="url(#f2413eea9c)"><g clip-path="url(#ed94624bf6)"><path fill="#011e31" d="M 39.796875 98.828125 L 37.640625 97.335938 C 37.433594 97.1875 37.148438 97.242188 37.003906 97.449219 C 36.863281 97.65625 36.914062 97.9375 37.121094 98.082031 L 39.277344 99.578125 C 39.480469 99.722656 39.769531 99.667969 39.910156 99.464844 C 40.054688 99.257812 40.003906 98.96875 39.796875 98.828125 " fill-opacity="1" fill-rule="evenodd"/></g></g></g><g clip-path="url(#36cf87b950)"><g clip-path="url(#f8c5bb0526)"><g clip-path="url(#a1d9a31e57)"><path fill="#011e31" d="M 37.363281 103.65625 L 34.753906 103.390625 C 34.503906 103.367188 34.28125 103.546875 34.253906 103.796875 C 34.226562 104.050781 34.410156 104.273438 34.660156 104.296875 L 37.269531 104.566406 C 37.519531 104.59375 37.746094 104.410156 37.769531 104.15625 C 37.796875 103.90625 37.613281 103.683594 37.363281 103.65625 " fill-opacity="1" fill-rule="evenodd"/></g></g></g></svg>