<svg xmlns="http://www.w3.org/2000/svg" xmlns:xlink="http://www.w3.org/1999/xlink" width="1080" zoomAndPan="magnify" viewBox="0 0 810 809.999993" height="1080" preserveAspectRatio="xMidYMid meet" version="1.0"><defs><g/><clipPath id="5de884a192"><path d="M 415 285 L 517 285 L 517 325 L 415 325 Z M 415 285 " clip-rule="nonzero"/></clipPath><clipPath id="71bd2c8060"><path d="M 290.671875 367.28125 L 515.183594 280.363281 L 519.515625 291.554688 L 295.003906 378.472656 Z M 290.671875 367.28125 " clip-rule="nonzero"/></clipPath><clipPath id="4e7cb1dbfd"><path d="M 290.671875 367.28125 L 515.183594 280.363281 L 519.515625 291.554688 L 295.003906 378.472656 Z M 290.671875 367.28125 " clip-rule="nonzero"/></clipPath><clipPath id="782271a8f0"><path d="M 292 332 L 396 332 L 396 373 L 292 373 Z M 292 332 " clip-rule="nonzero"/></clipPath><clipPath id="f96ef50403"><path d="M 290.671875 367.28125 L 515.183594 280.363281 L 519.515625 291.554688 L 295.003906 378.472656 Z M 290.671875 367.28125 " clip-rule="nonzero"/></clipPath><clipPath id="8d4e776460"><path d="M 290.671875 367.28125 L 515.183594 280.363281 L 519.515625 291.554688 L 295.003906 378.472656 Z M 290.671875 367.28125 " clip-rule="nonzero"/></clipPath><clipPath id="b58da05e71"><path d="M 416 287 L 518 287 L 518 327 L 416 327 Z M 416 287 " clip-rule="nonzero"/></clipPath><clipPath id="d63821a8e6"><path d="M 290.671875 367.28125 L 515.183594 280.363281 L 519.515625 291.554688 L 295.003906 378.472656 Z M 290.671875 367.28125 " clip-rule="nonzero"/></clipPath><clipPath id="4eec37a34d"><path d="M 290.671875 367.28125 L 515.183594 280.363281 L 519.515625 291.554688 L 295.003906 378.472656 Z M 290.671875 367.28125 " clip-rule="nonzero"/></clipPath><clipPath id="3483b73460"><path d="M 293 334 L 396 334 L 396 374 L 293 374 Z M 293 334 " clip-rule="nonzero"/></clipPath><clipPath id="f2a95ea3ee"><path d="M 290.671875 367.28125 L 515.183594 280.363281 L 519.515625 291.554688 L 295.003906 378.472656 Z M 290.671875 367.28125 " clip-rule="nonzero"/></clipPath><clipPath id="49d24c3c24"><path d="M 290.671875 367.28125 L 515.183594 280.363281 L 519.515625 291.554688 L 295.003906 378.472656 Z M 290.671875 367.28125 " clip-rule="nonzero"/></clipPath><clipPath id="0726c1e29b"><path d="M 397 329 L 400 329 L 400 335 L 397 335 Z M 397 329 " clip-rule="nonzero"/></clipPath><clipPath id="36556ab554"><path d="M 290.671875 367.28125 L 515.183594 280.363281 L 519.515625 291.554688 L 295.003906 378.472656 Z M 290.671875 367.28125 " clip-rule="nonzero"/></clipPath><clipPath id="2b91dd8f25"><path d="M 290.671875 367.28125 L 515.183594 280.363281 L 519.515625 291.554688 L 295.003906 378.472656 Z M 290.671875 367.28125 " clip-rule="nonzero"/></clipPath><clipPath id="840e2ca634"><path d="M 411 324 L 414 324 L 414 329 L 411 329 Z M 411 324 " clip-rule="nonzero"/></clipPath><clipPath id="2f894bb384"><path d="M 290.671875 367.28125 L 515.183594 280.363281 L 519.515625 291.554688 L 295.003906 378.472656 Z M 290.671875 367.28125 " clip-rule="nonzero"/></clipPath><clipPath id="0d252abca6"><path d="M 290.671875 367.28125 L 515.183594 280.363281 L 519.515625 291.554688 L 295.003906 378.472656 Z M 290.671875 367.28125 " clip-rule="nonzero"/></clipPath><clipPath id="d0e70413ae"><path d="M 401 323 L 410 323 L 410 335 L 401 335 Z M 401 323 " clip-rule="nonzero"/></clipPath><clipPath id="41d560f1f3"><path d="M 290.671875 367.28125 L 515.183594 280.363281 L 519.515625 291.554688 L 295.003906 378.472656 Z M 290.671875 367.28125 " clip-rule="nonzero"/></clipPath><clipPath id="5f0c6b007a"><path d="M 290.671875 367.28125 L 515.183594 280.363281 L 519.515625 291.554688 L 295.003906 378.472656 Z M 290.671875 367.28125 " clip-rule="nonzero"/></clipPath></defs><path fill="#ffffff" d="M 660.828125 533.300781 C 583.25 567.117188 495.28125 603.804688 415.382812 635.742188 C 403.890625 640.273438 392.726562 645.578125 380.792969 648.894531 C 377.699219 649.777344 374.273438 650.441406 371.511719 648.894531 C 369.1875 647.566406 367.863281 645.136719 366.867188 642.707031 C 353.9375 613.75 355.707031 578.609375 371.398438 551.089844 L 376.042969 549.324219 C 468.097656 514.734375 537.277344 486 637.953125 445.664062 C 619.054688 500.144531 637.839844 508.765625 660.828125 533.300781 Z M 660.828125 533.300781 " fill-opacity="1" fill-rule="nonzero"/><path fill="#a6a6a6" d="M 618.390625 519.925781 C 557.058594 546.671875 495.171875 571.867188 433.066406 596.289062 C 432.511719 590.875 432.070312 585.570312 431.628906 580.488281 C 454.394531 571.535156 477.160156 562.472656 499.925781 553.414062 C 518.601562 546.007812 537.054688 538.160156 555.621094 530.425781 C 573.746094 522.910156 593.417969 516.832031 610.433594 507.109375 C 612.976562 505.671875 611.320312 501.695312 608.445312 502.46875 C 589.328125 507.550781 570.761719 517.277344 552.527344 524.789062 C 534.183594 532.414062 515.726562 539.820312 497.382812 547.554688 C 475.28125 556.949219 453.289062 566.453125 431.1875 575.957031 C 430.742188 570.429688 430.414062 565.347656 430.300781 560.925781 C 454.28125 551.421875 478.042969 541.367188 501.800781 531.53125 C 519.484375 524.238281 537.054688 516.613281 554.625 508.988281 C 573.082031 500.917969 592.089844 493.738281 610.214844 484.785156 C 611.539062 484.121094 610.65625 481.910156 609.21875 482.355469 C 590.433594 488.210938 571.976562 495.726562 553.742188 503.128906 C 532.746094 511.75 514.070312 519.707031 495.394531 527.554688 C 459.035156 542.804688 424.222656 555.292969 388.972656 572.75 C 387.09375 573.636719 388.417969 576.953125 390.40625 576.179688 C 393.390625 575.074219 396.375 573.96875 399.359375 572.863281 C 399.800781 578.277344 400.242188 583.691406 400.796875 589.109375 C 395.710938 591.316406 390.628906 593.527344 385.546875 595.738281 C 384.109375 596.289062 385.101562 598.722656 386.539062 598.167969 C 391.402344 596.289062 396.265625 594.300781 401.128906 592.421875 C 401.679688 597.617188 402.230469 602.8125 402.894531 608.117188 C 399.136719 609.550781 395.378906 611.097656 391.625 612.535156 C 389.191406 613.421875 390.1875 617.289062 392.726562 616.402344 C 396.375 615.078125 399.910156 613.863281 403.558594 612.535156 C 403.667969 613.421875 403.78125 614.304688 403.890625 615.296875 C 404.332031 614.195312 404.882812 613.089844 405.328125 611.871094 C 413.835938 608.777344 422.234375 605.683594 430.632812 602.589844 C 431.738281 603.804688 432.84375 605.019531 434.058594 606.347656 C 433.949219 604.691406 433.726562 603.03125 433.617188 601.484375 C 496.941406 577.835938 559.488281 551.976562 621.265625 524.457031 C 624.25 523.242188 621.484375 518.601562 618.390625 519.925781 Z M 407.867188 606.125 C 411.292969 599.054688 414.832031 592.535156 416.597656 589.109375 C 419.25 591.539062 422.34375 594.191406 426.765625 598.722656 C 420.464844 601.265625 414.167969 603.695312 407.867188 606.125 Z M 669.449219 523.023438 C 665.136719 522.25 660.9375 523.023438 656.847656 524.347656 C 653.644531 522.359375 650.550781 520.148438 647.675781 517.164062 C 641.710938 510.753906 636.847656 502.796875 634.636719 494.289062 C 630.878906 480.035156 633.53125 465.113281 639.167969 451.632812 C 640.050781 451.191406 640.9375 450.859375 641.820312 450.527344 C 650.21875 446.878906 665.691406 442.238281 658.839844 430.304688 C 652.539062 419.363281 644.363281 409.085938 637.066406 398.695312 C 606.234375 354.933594 574.960938 311.613281 543.574219 268.292969 C 515.285156 229.394531 487.878906 189.609375 457.488281 152.367188 C 455.609375 150.046875 453.507812 147.394531 451.519531 144.964844 C 450.304688 143.417969 447.652344 142.976562 445.773438 143.417969 C 385.765625 160.988281 326.199219 180.328125 267.519531 201.878906 C 244.3125 210.386719 220.996094 219.117188 198.449219 229.285156 C 191.707031 232.269531 184.96875 235.472656 178.558594 239.339844 C 172.921875 242.65625 166.402344 243.539062 160.765625 246.746094 C 154.136719 250.503906 150.15625 257.574219 146.839844 264.207031 C 132.253906 293.710938 130.816406 326.3125 134.023438 358.472656 C 134.132812 359.246094 134.464844 359.90625 135.015625 360.238281 C 135.128906 360.460938 135.128906 360.570312 135.238281 360.792969 C 152.367188 394.609375 175.574219 425.332031 197.785156 455.832031 C 235.027344 506.996094 273.265625 557.390625 311.0625 608.226562 C 320.234375 620.601562 329.40625 632.871094 339.019531 644.914062 C 342.335938 649.113281 345.320312 653.644531 348.746094 657.734375 C 350.511719 659.835938 352.28125 661.824219 354.382812 663.59375 C 356.148438 665.140625 358.25 666.90625 360.570312 666.90625 C 363.554688 667.019531 366.425781 665.691406 369.1875 664.808594 C 384.328125 659.722656 399.359375 653.867188 414.277344 648.230469 C 422.011719 645.246094 429.75 642.261719 437.484375 639.28125 C 452.847656 633.3125 468.207031 627.234375 483.457031 621.046875 C 498.707031 614.855469 513.957031 608.558594 529.210938 602.257812 C 544.460938 595.847656 559.601562 589.4375 574.738281 582.917969 C 589.769531 576.398438 604.796875 569.878906 619.828125 563.246094 C 628.335938 559.492188 636.847656 555.734375 645.246094 551.753906 C 649.886719 549.542969 654.417969 547.445312 658.949219 545.125 C 663.589844 542.691406 670.109375 540.371094 673.980469 536.726562 C 679.171875 531.53125 675.96875 524.238281 669.449219 523.023438 Z M 644.472656 529.761719 C 601.703125 548.882812 558.382812 567.117188 515.394531 585.683594 C 470.527344 605.132812 425.660156 624.472656 380.683594 643.808594 C 378.691406 642.59375 378.691406 642.59375 378.691406 642.59375 C 372.945312 638.285156 370.292969 632.207031 367.972656 626.679688 C 364.214844 617.507812 362.226562 607.34375 362.226562 597.394531 C 362.226562 586.125 365.761719 575.515625 369.964844 565.125 C 373.277344 557.058594 382.339844 555.070312 389.855469 552.085938 C 419.25 540.261719 448.757812 528.65625 478.152344 516.945312 C 529.761719 496.5 581.703125 476.609375 632.535156 454.503906 C 627.34375 467.878906 626.238281 482.464844 629.554688 496.832031 C 631.652344 506.003906 635.410156 514.734375 641.15625 522.136719 C 642.703125 524.238281 644.691406 526.449219 646.792969 528.65625 C 646.019531 528.988281 645.246094 529.320312 644.472656 529.761719 Z M 644.472656 529.761719 " fill-opacity="1" fill-rule="nonzero"/><path fill="#545454" d="M 619.605469 416.378906 C 620.710938 416.929688 621.816406 417.375 622.921875 417.816406 C 626.347656 419.140625 627.894531 413.617188 624.46875 412.289062 C 622.8125 411.625 621.15625 410.851562 619.605469 409.96875 C 618.722656 404.886719 617.066406 399.691406 614.523438 395.269531 C 612.425781 391.734375 609.328125 387.09375 605.019531 386.097656 C 599.605469 384.882812 597.945312 390.628906 599.273438 394.941406 C 600.820312 399.914062 604.355469 404.222656 607.894531 407.980469 C 610.214844 410.410156 612.867188 412.621094 615.851562 414.277344 C 615.738281 415.054688 615.519531 415.714844 615.1875 416.378906 C 614.746094 417.152344 614.082031 417.59375 613.308594 417.816406 C 610.324219 413.285156 606.789062 409.085938 602.699219 405.550781 C 598.832031 402.234375 594.632812 399.472656 589.878906 397.480469 C 586.011719 395.933594 579.933594 394.496094 576.398438 397.703125 C 572.199219 401.460938 575.734375 406.984375 578.496094 410.410156 C 581.371094 413.835938 585.128906 416.378906 589.214844 418.148438 C 593.304688 419.914062 597.617188 421.132812 602.035156 421.90625 C 604.46875 422.347656 607.230469 422.898438 609.882812 422.898438 C 609.992188 423.230469 610.214844 423.5625 610.324219 423.78125 C 611.207031 425.660156 611.429688 427.097656 609.773438 428.425781 C 609.109375 428.867188 608.554688 429.308594 607.78125 429.75 C 606.347656 428.535156 604.6875 427.320312 603.03125 426.214844 C 599.382812 423.894531 595.183594 421.351562 590.875 420.800781 C 587.339844 420.355469 583.800781 421.90625 583.136719 425.660156 C 582.253906 430.414062 585.902344 434.390625 589.992188 436.160156 C 595.957031 438.8125 603.140625 438.261719 609 435.386719 C 609.992188 436.382812 610.988281 437.375 611.980469 438.371094 C 613.085938 439.476562 615.078125 438.039062 614.082031 436.714844 C 613.308594 435.71875 612.535156 434.722656 611.761719 433.730469 C 612.3125 433.398438 612.867188 432.957031 613.308594 432.625 C 617.066406 429.53125 616.953125 425.660156 615.40625 421.90625 C 617.730469 420.800781 619.054688 418.699219 619.605469 416.378906 Z M 607.007812 398.917969 C 605.902344 397.59375 605.019531 396.15625 604.246094 394.609375 C 603.695312 393.503906 602.589844 391.292969 603.03125 389.96875 C 604.136719 387.09375 609.109375 393.722656 609.773438 394.71875 C 611.871094 397.8125 613.417969 401.238281 614.300781 404.886719 C 614.414062 405.4375 614.632812 405.992188 614.746094 406.652344 C 611.871094 404.445312 609.21875 401.792969 607.007812 398.917969 Z M 596.621094 415.714844 C 590.433594 414.058594 584.242188 411.183594 580.375 405.878906 C 579.601562 404.773438 577.390625 402.011719 578.9375 400.90625 C 580.265625 399.914062 583.027344 400.6875 584.464844 401.019531 C 588.113281 402.011719 591.207031 404.222656 594.300781 406.433594 C 598.71875 409.527344 603.03125 413.285156 606.347656 417.703125 C 603.03125 417.152344 599.824219 416.601562 596.621094 415.714844 Z M 597.285156 433.285156 C 593.746094 433.507812 590.652344 432.511719 588.441406 429.640625 C 587.558594 428.535156 586.121094 426.214844 587.558594 425 C 588.441406 424.226562 589.992188 424.445312 590.984375 424.667969 C 594.742188 425.332031 598.609375 427.539062 601.703125 429.640625 C 602.589844 430.191406 603.472656 430.855469 604.246094 431.519531 C 602.035156 432.402344 599.714844 433.175781 597.285156 433.285156 Z M 398.585938 520.371094 C 399.136719 520.257812 399.578125 520.148438 400.132812 520.039062 C 400.132812 521.144531 400.132812 522.136719 400.242188 523.242188 C 400.464844 526.117188 404.773438 526.226562 404.773438 523.242188 C 404.773438 521.476562 404.996094 519.816406 405.105469 518.050781 C 407.980469 516.5 410.632812 514.292969 412.953125 511.972656 C 416.597656 508.214844 419.804688 504.125 421.570312 499.261719 C 423.007812 495.394531 423.230469 489.09375 417.703125 488.984375 C 413.171875 488.875 408.863281 493.292969 406.542969 496.71875 C 403.117188 501.582031 401.457031 507.882812 400.574219 513.628906 C 400.574219 513.738281 400.574219 513.738281 400.574219 513.851562 C 397.703125 514.84375 394.605469 515.285156 392.398438 512.746094 C 391.953125 512.300781 391.625 511.859375 391.402344 511.308594 C 398.695312 503.019531 402.453125 492.519531 402.675781 481.359375 C 402.785156 476.609375 401.679688 469.535156 395.824219 468.761719 C 390.074219 467.988281 386.097656 474.066406 384.21875 478.707031 C 380.242188 488.652344 380.683594 501.363281 384.769531 511.308594 C 383.777344 512.191406 382.78125 513.074219 381.789062 513.628906 C 378.140625 515.726562 374.382812 513.074219 371.730469 510.421875 C 374.605469 505.121094 375.597656 498.820312 375.710938 492.742188 C 375.710938 487.988281 375.265625 482.023438 371.511719 478.597656 C 368.085938 475.503906 362.226562 474.730469 359.242188 478.707031 C 356.480469 482.464844 356.921875 488.320312 357.585938 492.632812 C 358.46875 497.9375 360.570312 503.019531 363.554688 507.441406 C 364.546875 508.875 365.652344 510.3125 366.867188 511.75 C 365.761719 513.519531 364.4375 515.285156 362.890625 516.832031 C 362.007812 517.71875 363.222656 519.484375 364.328125 518.710938 C 366.207031 517.386719 367.863281 515.839844 369.300781 514.179688 C 371.289062 515.949219 373.390625 517.496094 375.820312 518.378906 C 380.242188 520.039062 383.996094 518.269531 387.203125 515.507812 C 389.746094 519.265625 393.832031 521.03125 398.585938 520.371094 Z M 406.875 508.765625 C 408.089844 504.566406 409.636719 500.257812 412.730469 497.050781 C 413.613281 496.167969 418.808594 491.746094 419.03125 494.839844 C 419.140625 496.609375 417.703125 499.042969 416.820312 500.476562 C 415.824219 502.246094 414.5 504.015625 413.171875 505.5625 C 411.183594 507.773438 408.863281 509.648438 406.210938 511.199219 C 406.429688 510.421875 406.652344 509.539062 406.875 508.765625 Z M 388.417969 487.105469 C 389.082031 483.789062 389.964844 480.144531 392.066406 477.492188 C 392.726562 476.71875 394.273438 474.839844 395.160156 475.390625 C 396.375 476.054688 396.484375 478.816406 396.484375 479.921875 C 397.039062 488.652344 394.9375 497.164062 390.1875 504.457031 C 389.855469 505.007812 389.523438 505.5625 389.082031 506.113281 C 388.75 504.566406 388.417969 503.019531 388.195312 501.695312 C 387.421875 496.832031 387.535156 491.859375 388.417969 487.105469 Z M 368.746094 507.441406 C 363.996094 501.695312 361.011719 494.398438 360.902344 486.886719 C 360.902344 485.007812 360.789062 482.683594 361.894531 481.027344 C 363.332031 478.816406 366.207031 479.371094 367.972656 480.808594 C 371.179688 483.460938 370.847656 488.984375 370.957031 492.742188 C 371.179688 497.9375 370.515625 502.910156 368.746094 507.441406 Z M 456.160156 164.523438 C 455.71875 163.75 456.824219 163.085938 457.378906 163.863281 C 472.074219 186.40625 488.429688 208.066406 504.234375 229.945312 C 519.816406 251.386719 535.175781 272.9375 550.980469 294.265625 C 567.113281 316.144531 583.46875 337.804688 599.824219 359.578125 C 616.511719 381.679688 633.863281 403.226562 650.21875 425.441406 C 651.433594 427.097656 647.125 428.535156 645.910156 426.988281 C 628.117188 404.664062 612.753906 382.011719 595.183594 359.464844 C 579.269531 338.910156 560.152344 312.609375 544.347656 291.945312 C 528.214844 270.945312 516.058594 254.371094 501.027344 232.488281 C 485.226562 209.832031 470.308594 187.953125 456.160156 164.523438 Z M 634.527344 443.011719 C 615.40625 451.300781 598.277344 457.597656 579.050781 465.335938 C 567.667969 469.867188 556.285156 474.507812 544.902344 479.148438 C 532.414062 484.234375 519.816406 489.316406 507.328125 494.398438 C 494.839844 499.484375 482.242188 504.566406 469.644531 509.539062 C 458.152344 514.070312 446.769531 518.601562 435.273438 523.132812 C 425.992188 526.667969 416.710938 530.207031 407.425781 533.519531 C 401.457031 535.621094 395.492188 537.832031 389.414062 539.265625 C 388.972656 539.378906 383.222656 540.8125 384.660156 538.824219 C 383.554688 539.265625 383.003906 537.386719 384.109375 536.945312 C 388.859375 535.066406 393.722656 533.078125 398.476562 531.199219 C 414.058594 525.011719 429.640625 518.824219 445.332031 512.746094 C 462.128906 506.113281 478.925781 499.59375 495.613281 492.964844 C 512.191406 486.441406 528.878906 479.921875 545.453125 473.292969 C 560.59375 467.324219 577.28125 461.355469 592.3125 455.277344 C 601.59375 451.519531 609.773438 448.316406 618.945312 444.449219 C 628.335938 440.46875 637.730469 436.269531 647.015625 431.960938 C 649.886719 430.636719 651.988281 435.609375 649.113281 437.042969 C 645.355469 439.035156 638.613281 441.242188 634.527344 443.011719 Z M 661.378906 536.171875 C 650.882812 542.363281 639.277344 546.671875 628.007812 551.535156 C 616.734375 556.394531 605.460938 561.148438 594.191406 566.011719 C 572.308594 575.292969 550.316406 584.578125 528.324219 593.636719 C 483.015625 612.316406 437.484375 630.4375 391.625 647.679688 C 390.1875 648.230469 389.632812 646.019531 390.960938 645.46875 C 436.160156 626.570312 481.46875 607.894531 526.558594 588.777344 C 548.992188 579.273438 571.535156 569.878906 593.96875 560.265625 C 615.628906 550.980469 637.289062 539.488281 659.832031 532.636719 C 662.042969 531.972656 663.257812 535.066406 661.378906 536.171875 Z M 162.421875 263.542969 C 142.972656 291.171875 141.757812 323.882812 143.195312 356.480469 C 143.304688 358.25 140.652344 358.25 140.433594 356.480469 C 137.449219 324.324219 138.996094 288.40625 159.441406 261.773438 C 160.765625 260.007812 163.640625 261.664062 162.421875 263.542969 Z M 437.925781 171.929688 C 437.042969 171.375 436.160156 170.824219 435.273438 170.492188 C 433.839844 169.828125 432.292969 169.496094 430.742188 169.386719 C 431.074219 168.28125 431.296875 167.175781 431.628906 166.070312 C 431.960938 164.523438 429.640625 163.863281 429.308594 165.410156 C 428.976562 166.734375 428.535156 168.0625 428.203125 169.277344 C 425.882812 169.496094 423.5625 170.160156 421.570312 171.375 C 414.832031 175.574219 407.757812 180.546875 403.890625 187.730469 C 402.453125 190.382812 399.800781 195.246094 402.34375 197.898438 C 405.878906 201.65625 410.851562 198.78125 414.058594 196.019531 C 421.238281 189.832031 426.765625 182.425781 429.75 173.367188 C 429.859375 173.035156 429.96875 172.8125 429.96875 172.480469 C 431.738281 172.703125 433.394531 173.367188 434.945312 174.800781 C 434.390625 175.464844 433.949219 176.015625 433.394531 176.679688 C 431.847656 178.667969 430.191406 180.660156 428.867188 182.757812 C 426.214844 187.070312 424.554688 192.042969 423.890625 197.015625 C 423.230469 201.765625 423.5625 207.070312 427.539062 210.386719 C 430.964844 213.261719 436.046875 212.042969 438.8125 208.839844 C 442.015625 205.191406 443.121094 200.441406 443.453125 195.6875 C 443.785156 190.496094 443.453125 185.078125 442.457031 179.996094 C 442.125 178.449219 441.90625 176.570312 441.132812 175.132812 C 441.464844 174.914062 441.90625 174.691406 442.347656 174.691406 C 444.117188 174.25 445.550781 174.914062 446.988281 176.128906 C 445.332031 185.191406 444.449219 194.804688 447.542969 203.753906 C 448.425781 206.1875 450.195312 210.277344 452.734375 211.933594 C 455.828125 213.921875 459.808594 212.375 461.796875 209.503906 C 463.011719 207.734375 463.566406 205.523438 463.785156 203.3125 C 464.117188 200.109375 463.675781 196.792969 462.792969 193.699219 C 462.351562 192.042969 461.6875 190.496094 460.914062 188.949219 C 459.476562 185.964844 457.707031 183.089844 455.71875 180.4375 C 455.054688 179.445312 452.957031 177.675781 452.734375 176.570312 C 452.515625 175.464844 454.171875 173.035156 454.613281 171.929688 C 455.277344 170.492188 455.054688 168.835938 453.621094 167.949219 C 452.402344 167.175781 450.304688 167.507812 449.640625 168.945312 C 449.199219 170.050781 448.757812 171.15625 448.316406 172.261719 C 445.550781 170.492188 442.457031 169.71875 439.03125 171.488281 C 438.589844 171.488281 438.257812 171.707031 437.925781 171.929688 Z M 420.136719 185.632812 C 417.8125 188.617188 415.160156 191.488281 412.179688 193.921875 C 410.742188 195.136719 408.753906 196.351562 406.984375 196.574219 C 405.105469 196.792969 404.332031 195.46875 404.664062 193.921875 C 405.878906 187.953125 410.078125 183.53125 414.609375 179.773438 C 417.925781 177.011719 422.457031 173.476562 426.988281 172.589844 C 425.328125 177.234375 423.230469 181.652344 420.136719 185.632812 Z M 437.59375 195.6875 C 437.265625 198.78125 436.710938 202.429688 434.945312 205.082031 C 434.28125 206.078125 433.726562 206.628906 432.621094 206.960938 C 430.632812 207.402344 429.417969 206.519531 428.644531 204.640625 C 427.207031 201.214844 428.203125 197.015625 429.195312 193.589844 C 430.191406 189.832031 431.738281 186.625 433.949219 183.53125 C 435.054688 182.09375 436.046875 180.546875 437.152344 179.113281 C 437.265625 180.660156 437.265625 182.316406 437.375 183.753906 C 437.816406 187.730469 438.039062 191.710938 437.59375 195.6875 Z M 450.082031 186.183594 C 450.304688 184.746094 450.636719 183.3125 451.078125 181.875 C 452.074219 183.644531 458.480469 194.03125 458.8125 199.003906 C 458.925781 201.324219 459.253906 205.632812 456.933594 206.519531 C 455.71875 206.960938 454.613281 206.628906 453.730469 205.855469 C 453.289062 205.191406 452.847656 204.53125 452.515625 203.753906 C 451.960938 202.652344 451.519531 201.546875 451.1875 200.441406 C 450.527344 197.457031 449.640625 191.378906 450.082031 186.183594 Z M 199.664062 260.449219 C 200.109375 260.78125 200.550781 261.109375 200.992188 261.332031 C 197.457031 269.953125 204.96875 280.890625 211.488281 285.976562 C 217.238281 290.394531 237.460938 298.023438 235.027344 283.214844 C 234.367188 278.902344 230.71875 275.257812 226.960938 272.050781 C 231.492188 273.378906 236.246094 274.261719 240.996094 274.152344 C 245.417969 274.152344 252.820312 273.929688 256.027344 270.171875 C 263.761719 261.109375 243.539062 255.804688 238.566406 254.589844 C 231.160156 252.824219 218.34375 250.613281 209.390625 253.707031 C 209.390625 253.375 209.390625 253.042969 209.5 252.710938 C 209.832031 250.832031 211.046875 249.285156 212.59375 247.960938 C 222.097656 251.164062 233.371094 252.269531 242.324219 248.511719 C 249.285156 245.527344 246.082031 236.6875 239.339844 235.695312 C 231.382812 234.589844 218.453125 237.792969 211.160156 244.09375 C 209.832031 243.648438 208.617188 243.207031 207.289062 242.65625 C 205.632812 241.882812 204.085938 244.3125 205.742188 245.199219 C 206.628906 245.640625 207.621094 246.082031 208.617188 246.523438 C 207.84375 247.40625 207.289062 248.402344 206.738281 249.398438 C 205.632812 251.71875 205.191406 253.816406 205.410156 255.695312 C 205.082031 255.917969 204.859375 256.136719 204.636719 256.25 C 203.753906 255.804688 202.761719 255.363281 201.765625 254.921875 C 198.558594 253.816406 197.234375 258.679688 199.664062 260.449219 Z M 222.984375 242.988281 C 227.070312 241.660156 234.035156 239.230469 238.234375 240.554688 C 245.96875 242.988281 239.117188 245.199219 236.132812 245.75 C 229.722656 247.074219 222.984375 246.964844 216.574219 245.640625 C 218.785156 244.425781 221.105469 243.648438 222.984375 242.988281 Z M 222.984375 257.464844 C 226.960938 257.464844 255.253906 259.675781 252.160156 267.632812 C 251.273438 269.953125 240.996094 269.289062 238.675781 269.066406 C 233.8125 268.734375 228.949219 267.742188 224.421875 265.972656 C 220.882812 264.648438 214.140625 262.4375 211.046875 258.457031 C 214.804688 257.355469 219.558594 257.464844 222.984375 257.464844 Z M 205.410156 264.425781 C 211.269531 268.292969 217.125 271.941406 222.542969 276.691406 C 223.867188 277.910156 226.078125 279.234375 226.960938 280.78125 C 228.839844 284.207031 226.410156 286.308594 223.316406 285.976562 C 219.003906 285.535156 214.03125 281.554688 211.160156 278.460938 C 208.175781 275.257812 204.417969 269.289062 205.410156 264.425781 Z M 359.464844 560.265625 C 348.855469 589.21875 347.527344 621.375 358.691406 650.332031 C 359.023438 651.214844 357.476562 651.878906 357.03125 650.992188 C 344.101562 621.597656 342.226562 588.664062 354.710938 558.9375 C 355.929688 556.175781 360.570312 557.28125 359.464844 560.265625 Z M 372.945312 540.261719 C 374.273438 542.03125 371.289062 543.6875 370.074219 541.917969 C 352.832031 518.378906 334.710938 495.394531 317.46875 471.855469 C 300.453125 448.648438 283.652344 425.441406 266.964844 402.121094 C 233.371094 355.15625 200.769531 307.304688 169.386719 258.789062 C 167.285156 255.585938 172.371094 252.710938 174.46875 255.804688 C 208.175781 302.882812 241.4375 350.183594 274.261719 397.8125 C 290.503906 421.351562 306.859375 444.890625 323.214844 468.429688 C 339.902344 492.410156 355.929688 516.722656 372.945312 540.261719 Z M 248.953125 217.015625 C 280.117188 205.191406 311.171875 193.148438 342.777344 182.539062 C 358.800781 177.234375 374.824219 171.929688 390.847656 166.84375 C 406.210938 161.984375 422.125 155.460938 438.039062 153.140625 C 439.585938 152.921875 440.910156 155.132812 439.253906 155.90625 C 424.554688 162.976562 407.757812 166.625 392.175781 171.597656 C 376.59375 176.570312 361.011719 181.765625 345.429688 186.957031 C 313.492188 197.675781 281.332031 207.84375 249.507812 219.117188 C 248.179688 219.667969 247.628906 217.570312 248.953125 217.015625 Z M 248.953125 217.015625 " fill-opacity="1" fill-rule="nonzero"/><g clip-path="url(#5de884a192)"><g clip-path="url(#71bd2c8060)"><g clip-path="url(#4e7cb1dbfd)"><path fill="#545454" d="M 516.210938 285.90625 L 416.078125 324.671875 C 415.859375 324.753906 415.613281 324.644531 415.53125 324.429688 C 415.445312 324.210938 415.554688 323.964844 415.773438 323.878906 L 515.902344 285.113281 C 516.121094 285.03125 516.367188 285.136719 516.453125 285.355469 C 516.535156 285.574219 516.429688 285.820312 516.210938 285.90625 Z M 516.210938 285.90625 " fill-opacity="1" fill-rule="nonzero"/></g></g></g><g clip-path="url(#782271a8f0)"><g clip-path="url(#f96ef50403)"><g clip-path="url(#8d4e776460)"><path fill="#545454" d="M 394.753906 332.953125 C 394.707031 332.972656 394.660156 332.980469 394.609375 332.980469 L 293.550781 372.105469 C 293.332031 372.191406 293.085938 372.082031 293 371.863281 C 292.917969 371.648438 293.027344 371.402344 293.242188 371.316406 L 394.375 332.164062 C 394.421875 332.144531 394.472656 332.136719 394.523438 332.136719 L 394.59375 332.136719 C 394.828125 332.132812 395.019531 332.320312 395.023438 332.554688 C 395.023438 332.734375 394.910156 332.890625 394.753906 332.953125 Z M 394.753906 332.953125 " fill-opacity="1" fill-rule="nonzero"/></g></g></g><g clip-path="url(#b58da05e71)"><g clip-path="url(#d63821a8e6)"><g clip-path="url(#4eec37a34d)"><path fill="#545454" d="M 516.886719 287.652344 L 416.753906 326.417969 C 416.625 326.46875 416.476562 326.40625 416.425781 326.273438 C 416.375 326.140625 416.441406 325.996094 416.570312 325.945312 L 516.703125 287.179688 C 516.835938 287.128906 516.980469 287.191406 517.03125 287.324219 C 517.082031 287.457031 517.019531 287.601562 516.886719 287.652344 Z M 516.886719 287.652344 " fill-opacity="1" fill-rule="nonzero"/></g></g></g><g clip-path="url(#3483b73460)"><g clip-path="url(#f2a95ea3ee)"><g clip-path="url(#49d24c3c24)"><path fill="#545454" d="M 395.429688 334.703125 C 395.402344 334.714844 395.371094 334.71875 395.339844 334.71875 L 395.3125 334.71875 L 294.226562 373.855469 C 294.09375 373.90625 293.949219 373.839844 293.898438 373.710938 C 293.847656 373.578125 293.910156 373.433594 294.042969 373.382812 L 395.171875 334.230469 C 395.203125 334.21875 395.230469 334.210938 395.261719 334.210938 L 395.335938 334.210938 C 395.476562 334.210938 395.589844 334.324219 395.59375 334.460938 C 395.59375 334.570312 395.527344 334.664062 395.429688 334.703125 Z M 395.429688 334.703125 " fill-opacity="1" fill-rule="nonzero"/></g></g></g><g clip-path="url(#0726c1e29b)"><g clip-path="url(#36556ab554)"><g clip-path="url(#2b91dd8f25)"><path fill="#545454" d="M 399.164062 331.574219 L 398.976562 334.132812 L 397.113281 332.367188 L 397.300781 329.808594 Z M 399.164062 331.574219 " fill-opacity="1" fill-rule="nonzero"/></g></g></g><g clip-path="url(#840e2ca634)"><g clip-path="url(#2f894bb384)"><g clip-path="url(#0d252abca6)"><path fill="#545454" d="M 413.371094 326.074219 L 413.183594 328.632812 L 411.320312 326.867188 L 411.507812 324.308594 Z M 413.371094 326.074219 " fill-opacity="1" fill-rule="nonzero"/></g></g></g><g clip-path="url(#d0e70413ae)"><g clip-path="url(#41d560f1f3)"><g clip-path="url(#5f0c6b007a)"><path fill="#545454" d="M 409.050781 327.746094 L 407.359375 334.691406 L 401.433594 330.695312 L 403.125 323.746094 Z M 409.050781 327.746094 " fill-opacity="1" fill-rule="nonzero"/></g></g></g><g fill="#545454" fill-opacity="1"><g transform="translate(356.542352, 414.41984)"><g><path d="M 2.734375 -31.390625 C 2.960938 -30.828125 2.984375 -30.257812 2.796875 -29.6875 C 2.609375 -29.125 2.320312 -28.601562 1.9375 -28.125 C 1.601562 -27.675781 1.257812 -27.203125 0.90625 -26.703125 C 0.5625 -26.203125 0.265625 -25.679688 0.015625 -25.140625 C -0.222656 -24.597656 -0.367188 -24.039062 -0.421875 -23.46875 C -0.472656 -22.90625 -0.378906 -22.328125 -0.140625 -21.734375 C 0.0664062 -21.210938 0.378906 -20.789062 0.796875 -20.46875 C 1.210938 -20.144531 1.679688 -19.851562 2.203125 -19.59375 C 2.734375 -19.332031 3.300781 -19.070312 3.90625 -18.8125 C 4.507812 -18.550781 5.097656 -18.226562 5.671875 -17.84375 C 6.242188 -17.457031 6.789062 -16.976562 7.3125 -16.40625 C 7.832031 -15.84375 8.269531 -15.117188 8.625 -14.234375 C 8.875 -13.609375 9.023438 -12.851562 9.078125 -11.96875 C 9.140625 -11.082031 9.109375 -10.15625 8.984375 -9.1875 C 8.859375 -8.21875 8.640625 -7.238281 8.328125 -6.25 C 8.015625 -5.269531 7.632812 -4.347656 7.1875 -3.484375 C 6.75 -2.628906 6.226562 -1.867188 5.625 -1.203125 C 5.03125 -0.546875 4.382812 -0.078125 3.6875 0.203125 C 2.925781 0.503906 2.164062 0.5625 1.40625 0.375 C 0.644531 0.195312 0.09375 -0.3125 -0.25 -1.15625 C -0.476562 -1.71875 -0.550781 -2.296875 -0.46875 -2.890625 C -0.394531 -3.484375 -0.25 -4.082031 -0.03125 -4.6875 C 0.175781 -5.289062 0.4375 -5.898438 0.75 -6.515625 C 1.070312 -7.128906 1.34375 -7.726562 1.5625 -8.3125 C 1.789062 -8.894531 1.945312 -9.46875 2.03125 -10.03125 C 2.125 -10.601562 2.0625 -11.148438 1.84375 -11.671875 C 1.5625 -12.378906 1.007812 -13.003906 0.1875 -13.546875 C -0.625 -14.097656 -1.5 -14.648438 -2.4375 -15.203125 C -3.375 -15.765625 -4.265625 -16.363281 -5.109375 -17 C -5.960938 -17.632812 -6.566406 -18.382812 -6.921875 -19.25 C -7.347656 -20.320312 -7.507812 -21.554688 -7.40625 -22.953125 C -7.3125 -24.359375 -7.019531 -25.726562 -6.53125 -27.0625 C -6.039062 -28.394531 -5.363281 -29.609375 -4.5 -30.703125 C -3.644531 -31.804688 -2.679688 -32.578125 -1.609375 -33.015625 C -0.734375 -33.359375 0.113281 -33.394531 0.9375 -33.125 C 1.769531 -32.863281 2.367188 -32.285156 2.734375 -31.390625 Z M 2.734375 -31.390625 "/></g></g></g><g fill="#545454" fill-opacity="1"><g transform="translate(369.972543, 408.997379)"><g><path d="M -3.21875 -28.8125 C -3.082031 -28.46875 -3.050781 -28.125 -3.125 -27.78125 C -3.207031 -27.4375 -3.351562 -27.097656 -3.5625 -26.765625 C -3.769531 -26.429688 -4.023438 -26.140625 -4.328125 -25.890625 C -4.628906 -25.648438 -4.929688 -25.46875 -5.234375 -25.34375 C -5.722656 -25.144531 -6.203125 -25.09375 -6.671875 -25.1875 C -7.140625 -25.28125 -7.476562 -25.582031 -7.6875 -26.09375 C -7.832031 -26.46875 -7.867188 -26.832031 -7.796875 -27.1875 C -7.734375 -27.550781 -7.601562 -27.878906 -7.40625 -28.171875 C -7.207031 -28.472656 -6.957031 -28.742188 -6.65625 -28.984375 C -6.351562 -29.222656 -6.039062 -29.410156 -5.71875 -29.546875 C -5.25 -29.734375 -4.769531 -29.796875 -4.28125 -29.734375 C -3.789062 -29.671875 -3.4375 -29.363281 -3.21875 -28.8125 Z M 2.171875 -16.328125 C 2.304688 -15.984375 2.453125 -15.617188 2.609375 -15.234375 C 2.765625 -14.847656 2.894531 -14.476562 3 -14.125 C 3.164062 -13.6875 3.390625 -13.113281 3.671875 -12.40625 C 3.953125 -11.707031 4.226562 -10.9375 4.5 -10.09375 C 4.78125 -9.257812 5.035156 -8.398438 5.265625 -7.515625 C 5.492188 -6.628906 5.625 -5.789062 5.65625 -5 C 5.6875 -4.207031 5.585938 -3.515625 5.359375 -2.921875 C 5.128906 -2.328125 4.707031 -1.890625 4.09375 -1.609375 C 3.632812 -1.390625 3.160156 -1.410156 2.671875 -1.671875 C 2.191406 -1.941406 1.722656 -2.347656 1.265625 -2.890625 C 0.804688 -3.441406 0.367188 -4.085938 -0.046875 -4.828125 C -0.460938 -5.566406 -0.84375 -6.289062 -1.1875 -7 C -1.539062 -7.707031 -1.84375 -8.367188 -2.09375 -8.984375 C -2.34375 -9.609375 -2.523438 -10.070312 -2.640625 -10.375 C -2.804688 -10.769531 -3.035156 -11.332031 -3.328125 -12.0625 C -3.617188 -12.789062 -3.90625 -13.582031 -4.1875 -14.4375 C -4.476562 -15.300781 -4.726562 -16.191406 -4.9375 -17.109375 C -5.15625 -18.035156 -5.28125 -18.90625 -5.3125 -19.71875 C -5.34375 -20.539062 -5.238281 -21.257812 -5 -21.875 C -4.757812 -22.488281 -4.316406 -22.929688 -3.671875 -23.203125 C -3.003906 -23.460938 -2.359375 -23.328125 -1.734375 -22.796875 C -1.117188 -22.273438 -0.546875 -21.601562 -0.015625 -20.78125 C 0.515625 -19.96875 0.96875 -19.125 1.34375 -18.25 C 1.726562 -17.382812 2.003906 -16.742188 2.171875 -16.328125 Z M 2.171875 -16.328125 "/></g></g></g><g fill="#545454" fill-opacity="1"><g transform="translate(379.024936, 405.34246)"><g><path d="M 12.078125 -3.65625 C 11.648438 -3.488281 11.234375 -3.546875 10.828125 -3.828125 C 10.421875 -4.109375 10.054688 -4.472656 9.734375 -4.921875 C 9.421875 -5.367188 9.144531 -5.835938 8.90625 -6.328125 C 8.664062 -6.816406 8.488281 -7.195312 8.375 -7.46875 C 8.070312 -8.21875 7.816406 -8.984375 7.609375 -9.765625 C 7.398438 -10.546875 7.195312 -11.320312 7 -12.09375 C 6.8125 -12.875 6.613281 -13.65625 6.40625 -14.4375 C 6.195312 -15.21875 5.941406 -15.984375 5.640625 -16.734375 C 5.515625 -17.023438 5.367188 -17.335938 5.203125 -17.671875 C 5.046875 -18.003906 4.859375 -18.3125 4.640625 -18.59375 C 4.429688 -18.875 4.1875 -19.070312 3.90625 -19.1875 C 3.625 -19.300781 3.328125 -19.296875 3.015625 -19.171875 C 2.785156 -19.078125 2.601562 -18.796875 2.46875 -18.328125 C 2.34375 -17.859375 2.257812 -17.347656 2.21875 -16.796875 C 2.175781 -16.242188 2.160156 -15.703125 2.171875 -15.171875 C 2.191406 -14.648438 2.25 -14.273438 2.34375 -14.046875 C 2.5625 -13.503906 2.789062 -12.957031 3.03125 -12.40625 C 3.269531 -11.863281 3.503906 -11.304688 3.734375 -10.734375 L 4.609375 -8.578125 C 4.753906 -8.117188 4.894531 -7.644531 5.03125 -7.15625 C 5.175781 -6.664062 5.289062 -6.1875 5.375 -5.71875 C 5.476562 -5.238281 5.535156 -4.757812 5.546875 -4.28125 C 5.566406 -3.8125 5.519531 -3.375 5.40625 -2.96875 C 5.300781 -2.570312 5.128906 -2.207031 4.890625 -1.875 C 4.648438 -1.550781 4.304688 -1.300781 3.859375 -1.125 C 3.367188 -0.925781 2.894531 -0.921875 2.4375 -1.109375 C 1.988281 -1.304688 1.5625 -1.613281 1.15625 -2.03125 C 0.75 -2.457031 0.375 -2.972656 0.03125 -3.578125 C -0.3125 -4.179688 -0.617188 -4.773438 -0.890625 -5.359375 C -1.160156 -5.953125 -1.394531 -6.503906 -1.59375 -7.015625 C -1.789062 -7.523438 -1.945312 -7.929688 -2.0625 -8.234375 L -2.765625 -9.96875 C -3.148438 -10.90625 -3.546875 -11.820312 -3.953125 -12.71875 C -4.359375 -13.625 -4.742188 -14.535156 -5.109375 -15.453125 C -5.304688 -15.953125 -5.554688 -16.585938 -5.859375 -17.359375 C -6.160156 -18.128906 -6.367188 -18.910156 -6.484375 -19.703125 C -6.609375 -20.503906 -6.578125 -21.242188 -6.390625 -21.921875 C -6.210938 -22.597656 -5.738281 -23.09375 -4.96875 -23.40625 C -4.625 -23.539062 -4.269531 -23.550781 -3.90625 -23.4375 C -3.539062 -23.332031 -3.1875 -23.160156 -2.84375 -22.921875 C -2.5 -22.679688 -2.1875 -22.40625 -1.90625 -22.09375 C -1.625 -21.78125 -1.390625 -21.503906 -1.203125 -21.265625 C -1.097656 -21.703125 -0.941406 -22.148438 -0.734375 -22.609375 C -0.535156 -23.078125 -0.273438 -23.515625 0.046875 -23.921875 C 0.367188 -24.335938 0.757812 -24.722656 1.21875 -25.078125 C 1.675781 -25.441406 2.238281 -25.757812 2.90625 -26.03125 C 4.175781 -26.539062 5.285156 -26.632812 6.234375 -26.3125 C 7.179688 -25.988281 8.003906 -25.441406 8.703125 -24.671875 C 9.398438 -23.898438 9.992188 -23.007812 10.484375 -22 C 10.972656 -20.988281 11.390625 -20.0625 11.734375 -19.21875 C 11.898438 -18.8125 12.113281 -18.175781 12.375 -17.3125 C 12.644531 -16.457031 12.898438 -15.492188 13.140625 -14.421875 C 13.378906 -13.359375 13.570312 -12.242188 13.71875 -11.078125 C 13.875 -9.921875 13.941406 -8.832031 13.921875 -7.8125 C 13.910156 -6.800781 13.757812 -5.921875 13.46875 -5.171875 C 13.1875 -4.421875 12.722656 -3.914062 12.078125 -3.65625 Z M 12.078125 -3.65625 "/></g></g></g><g fill="#545454" fill-opacity="1"><g transform="translate(396.758724, 398.182415)"><g/></g></g><g fill="#545454" fill-opacity="1"><g transform="translate(405.699818, 394.572435)"><g><path d="M 3.78125 -30.84375 C 3.96875 -30.363281 4.03125 -29.894531 3.96875 -29.4375 C 3.90625 -28.976562 3.753906 -28.546875 3.515625 -28.140625 C 3.273438 -27.742188 2.976562 -27.375 2.625 -27.03125 C 2.269531 -26.695312 1.914062 -26.414062 1.5625 -26.1875 C 2.632812 -23.363281 3.613281 -20.617188 4.5 -17.953125 C 5.382812 -15.296875 6.21875 -12.507812 7 -9.59375 L 7.234375 -9.6875 C 7.628906 -9.851562 8.03125 -9.96875 8.4375 -10.03125 C 8.851562 -10.09375 9.257812 -10.082031 9.65625 -10 C 10.050781 -9.914062 10.398438 -9.757812 10.703125 -9.53125 C 11.015625 -9.300781 11.265625 -8.957031 11.453125 -8.5 C 11.679688 -7.9375 11.703125 -7.367188 11.515625 -6.796875 C 11.328125 -6.234375 11 -5.6875 10.53125 -5.15625 C 10.070312 -4.625 9.523438 -4.113281 8.890625 -3.625 C 8.253906 -3.132812 7.597656 -2.691406 6.921875 -2.296875 C 6.242188 -1.898438 5.59375 -1.546875 4.96875 -1.234375 C 4.351562 -0.929688 3.847656 -0.703125 3.453125 -0.546875 C 3.148438 -0.421875 2.773438 -0.28125 2.328125 -0.125 C 1.890625 0.03125 1.453125 0.117188 1.015625 0.140625 C 0.585938 0.171875 0.191406 0.117188 -0.171875 -0.015625 C -0.546875 -0.160156 -0.816406 -0.441406 -0.984375 -0.859375 C -1.191406 -1.378906 -1.273438 -1.882812 -1.234375 -2.375 C -1.191406 -2.875 -1.0625 -3.351562 -0.84375 -3.8125 C -0.625 -4.269531 -0.34375 -4.679688 0 -5.046875 C 0.351562 -5.421875 0.738281 -5.75 1.15625 -6.03125 C 0.769531 -7.457031 0.378906 -8.875 -0.015625 -10.28125 C -0.410156 -11.6875 -0.863281 -13.097656 -1.375 -14.515625 C -1.894531 -15.929688 -2.40625 -17.335938 -2.90625 -18.734375 C -3.414062 -20.140625 -3.921875 -21.535156 -4.421875 -22.921875 C -4.585938 -22.835938 -4.738281 -22.757812 -4.875 -22.6875 C -5.019531 -22.613281 -5.15625 -22.550781 -5.28125 -22.5 C -5.632812 -22.363281 -6.019531 -22.25 -6.4375 -22.15625 C -6.863281 -22.070312 -7.289062 -22.050781 -7.71875 -22.09375 C -8.144531 -22.144531 -8.53125 -22.257812 -8.875 -22.4375 C -9.21875 -22.613281 -9.472656 -22.910156 -9.640625 -23.328125 C -9.984375 -24.171875 -9.910156 -25.003906 -9.421875 -25.828125 C -8.929688 -26.660156 -8.257812 -27.421875 -7.40625 -28.109375 C -6.550781 -28.796875 -5.640625 -29.398438 -4.671875 -29.921875 C -3.703125 -30.453125 -2.90625 -30.84375 -2.28125 -31.09375 C -1.9375 -31.226562 -1.46875 -31.390625 -0.875 -31.578125 C -0.289062 -31.765625 0.3125 -31.878906 0.9375 -31.921875 C 1.5625 -31.972656 2.140625 -31.929688 2.671875 -31.796875 C 3.203125 -31.671875 3.570312 -31.351562 3.78125 -30.84375 Z M 3.78125 -30.84375 "/></g></g></g><g fill="#545454" fill-opacity="1"><g transform="translate(419.055809, 389.179932)"><g><path d="M 18.6875 -21.796875 C 18.875 -21.316406 19.128906 -20.675781 19.453125 -19.875 C 19.773438 -19.070312 20.109375 -18.191406 20.453125 -17.234375 C 20.796875 -16.273438 21.097656 -15.296875 21.359375 -14.296875 C 21.628906 -13.296875 21.785156 -12.359375 21.828125 -11.484375 C 21.878906 -10.609375 21.804688 -9.84375 21.609375 -9.1875 C 21.421875 -8.539062 21.015625 -8.09375 20.390625 -7.84375 C 19.847656 -7.625 19.34375 -7.6875 18.875 -8.03125 C 18.40625 -8.375 17.984375 -8.828125 17.609375 -9.390625 C 17.234375 -9.960938 16.910156 -10.566406 16.640625 -11.203125 C 16.367188 -11.847656 16.160156 -12.351562 16.015625 -12.71875 C 15.566406 -13.84375 15.160156 -14.945312 14.796875 -16.03125 C 14.441406 -17.125 14.039062 -18.222656 13.59375 -19.328125 C 13.539062 -19.453125 13.453125 -19.671875 13.328125 -19.984375 C 13.203125 -20.304688 13.046875 -20.625 12.859375 -20.9375 C 12.679688 -21.25 12.488281 -21.503906 12.28125 -21.703125 C 12.070312 -21.898438 11.859375 -21.953125 11.640625 -21.859375 C 11.191406 -21.679688 10.921875 -21.304688 10.828125 -20.734375 C 10.734375 -20.171875 10.722656 -19.539062 10.796875 -18.84375 C 10.878906 -18.15625 11.003906 -17.492188 11.171875 -16.859375 C 11.347656 -16.234375 11.484375 -15.765625 11.578125 -15.453125 C 11.648438 -15.117188 11.800781 -14.625 12.03125 -13.96875 C 12.257812 -13.3125 12.492188 -12.582031 12.734375 -11.78125 C 12.984375 -10.988281 13.203125 -10.164062 13.390625 -9.3125 C 13.578125 -8.457031 13.695312 -7.65625 13.75 -6.90625 C 13.800781 -6.164062 13.753906 -5.519531 13.609375 -4.96875 C 13.460938 -4.425781 13.15625 -4.054688 12.6875 -3.859375 C 12.09375 -3.628906 11.53125 -3.707031 11 -4.09375 C 10.46875 -4.476562 9.984375 -4.988281 9.546875 -5.625 C 9.117188 -6.257812 8.742188 -6.925781 8.421875 -7.625 C 8.097656 -8.320312 7.859375 -8.867188 7.703125 -9.265625 C 7.535156 -9.691406 7.375 -10.101562 7.21875 -10.5 C 7.0625 -10.90625 6.898438 -11.316406 6.734375 -11.734375 C 6.660156 -11.910156 6.539062 -12.195312 6.375 -12.59375 C 6.21875 -12.988281 6.039062 -13.425781 5.84375 -13.90625 C 5.644531 -14.382812 5.421875 -14.875 5.171875 -15.375 C 4.921875 -15.875 4.671875 -16.328125 4.421875 -16.734375 C 4.171875 -17.140625 3.914062 -17.445312 3.65625 -17.65625 C 3.40625 -17.863281 3.175781 -17.925781 2.96875 -17.84375 C 2.644531 -17.71875 2.429688 -17.394531 2.328125 -16.875 C 2.234375 -16.363281 2.195312 -15.789062 2.21875 -15.15625 C 2.25 -14.519531 2.316406 -13.90625 2.421875 -13.3125 C 2.523438 -12.726562 2.628906 -12.3125 2.734375 -12.0625 L 2.8125 -11.84375 C 3.289062 -10.65625 3.832031 -9.519531 4.4375 -8.4375 C 5.039062 -7.363281 5.582031 -6.234375 6.0625 -5.046875 C 6.34375 -4.347656 6.378906 -3.617188 6.171875 -2.859375 C 5.960938 -2.109375 5.460938 -1.570312 4.671875 -1.25 C 4.097656 -1.019531 3.539062 -1.039062 3 -1.3125 C 2.457031 -1.59375 1.921875 -2.03125 1.390625 -2.625 C 0.859375 -3.226562 0.359375 -3.910156 -0.109375 -4.671875 C -0.578125 -5.441406 -1 -6.222656 -1.375 -7.015625 C -1.75 -7.804688 -2.070312 -8.523438 -2.34375 -9.171875 C -2.625 -9.816406 -2.832031 -10.304688 -2.96875 -10.640625 C -3.113281 -11.003906 -3.335938 -11.539062 -3.640625 -12.25 C -3.941406 -12.96875 -4.242188 -13.753906 -4.546875 -14.609375 C -4.847656 -15.460938 -5.125 -16.347656 -5.375 -17.265625 C -5.632812 -18.179688 -5.796875 -19.046875 -5.859375 -19.859375 C -5.929688 -20.671875 -5.878906 -21.375 -5.703125 -21.96875 C -5.523438 -22.570312 -5.15625 -22.988281 -4.59375 -23.21875 C -3.945312 -23.476562 -3.347656 -23.515625 -2.796875 -23.328125 C -2.253906 -23.148438 -1.84375 -22.710938 -1.5625 -22.015625 C -1.507812 -21.867188 -1.453125 -21.71875 -1.390625 -21.5625 C -1.335938 -21.414062 -1.300781 -21.273438 -1.28125 -21.140625 C -1.164062 -21.640625 -0.992188 -22.171875 -0.765625 -22.734375 C -0.535156 -23.304688 -0.257812 -23.851562 0.0625 -24.375 C 0.382812 -24.894531 0.757812 -25.363281 1.1875 -25.78125 C 1.625 -26.207031 2.097656 -26.523438 2.609375 -26.734375 C 3.109375 -26.929688 3.609375 -26.972656 4.109375 -26.859375 C 4.617188 -26.742188 5.101562 -26.539062 5.5625 -26.25 C 6.03125 -25.96875 6.457031 -25.628906 6.84375 -25.234375 C 7.238281 -24.847656 7.554688 -24.460938 7.796875 -24.078125 C 7.867188 -24.617188 7.988281 -25.1875 8.15625 -25.78125 C 8.320312 -26.382812 8.550781 -26.941406 8.84375 -27.453125 C 9.132812 -27.972656 9.484375 -28.445312 9.890625 -28.875 C 10.296875 -29.300781 10.773438 -29.628906 11.328125 -29.859375 C 11.847656 -30.066406 12.367188 -30.054688 12.890625 -29.828125 C 13.410156 -29.609375 13.921875 -29.265625 14.421875 -28.796875 C 14.929688 -28.328125 15.40625 -27.753906 15.84375 -27.078125 C 16.289062 -26.410156 16.707031 -25.742188 17.09375 -25.078125 C 17.476562 -24.421875 17.800781 -23.796875 18.0625 -23.203125 C 18.332031 -22.609375 18.539062 -22.140625 18.6875 -21.796875 Z M 18.6875 -21.796875 "/></g></g></g><g fill="#545454" fill-opacity="1"><g transform="translate(444.024092, 379.098948)"><g><path d="M 14.765625 -12.046875 C 14.941406 -11.597656 15.15625 -11.003906 15.40625 -10.265625 C 15.664062 -9.535156 15.84375 -8.796875 15.9375 -8.046875 C 16.039062 -7.304688 16.007812 -6.613281 15.84375 -5.96875 C 15.675781 -5.320312 15.257812 -4.863281 14.59375 -4.59375 C 13.675781 -4.226562 12.847656 -4.238281 12.109375 -4.625 C 11.367188 -5.019531 10.832031 -5.664062 10.5 -6.5625 C 9.988281 -5.5625 9.3125 -4.660156 8.46875 -3.859375 C 7.632812 -3.054688 6.695312 -2.445312 5.65625 -2.03125 C 4.9375 -1.738281 4.1875 -1.632812 3.40625 -1.71875 C 2.625 -1.800781 1.875 -2.015625 1.15625 -2.359375 C 0.445312 -2.710938 -0.191406 -3.164062 -0.765625 -3.71875 C -1.335938 -4.28125 -1.757812 -4.894531 -2.03125 -5.5625 C -2.507812 -6.75 -2.5625 -7.929688 -2.1875 -9.109375 C -1.820312 -10.296875 -1.234375 -11.421875 -0.421875 -12.484375 C 0.378906 -13.554688 1.300781 -14.519531 2.34375 -15.375 C 3.394531 -16.226562 4.375 -16.898438 5.28125 -17.390625 C 5.226562 -17.515625 5.1875 -17.628906 5.15625 -17.734375 C 5.125 -17.847656 5.082031 -17.96875 5.03125 -18.09375 C 4.726562 -18.851562 4.269531 -19.378906 3.65625 -19.671875 C 3.039062 -19.972656 2.351562 -19.972656 1.59375 -19.671875 C 0.96875 -19.421875 0.472656 -19.097656 0.109375 -18.703125 C -0.242188 -18.316406 -0.5625 -17.914062 -0.84375 -17.5 C -1.132812 -17.082031 -1.4375 -16.6875 -1.75 -16.3125 C -2.0625 -15.9375 -2.460938 -15.648438 -2.953125 -15.453125 C -3.503906 -15.234375 -4.039062 -15.21875 -4.5625 -15.40625 C -5.082031 -15.601562 -5.453125 -15.972656 -5.671875 -16.515625 C -6.003906 -17.335938 -6.0625 -18.179688 -5.84375 -19.046875 C -5.632812 -19.910156 -5.257812 -20.71875 -4.71875 -21.46875 C -4.175781 -22.21875 -3.523438 -22.894531 -2.765625 -23.5 C -2.015625 -24.101562 -1.285156 -24.550781 -0.578125 -24.84375 C 0.0859375 -25.113281 0.785156 -25.300781 1.515625 -25.40625 C 2.253906 -25.507812 2.984375 -25.515625 3.703125 -25.421875 C 4.429688 -25.328125 5.132812 -25.132812 5.8125 -24.84375 C 6.5 -24.5625 7.125 -24.160156 7.6875 -23.640625 C 8.488281 -22.898438 9.234375 -22.070312 9.921875 -21.15625 C 10.609375 -20.25 11.242188 -19.285156 11.828125 -18.265625 C 12.410156 -17.242188 12.941406 -16.203125 13.421875 -15.140625 C 13.910156 -14.085938 14.359375 -13.054688 14.765625 -12.046875 Z M 8.34375 -10.84375 L 7.234375 -13.3125 C 7.179688 -13.289062 7.125 -13.273438 7.0625 -13.265625 C 7.007812 -13.265625 6.957031 -13.253906 6.90625 -13.234375 C 6.59375 -13.109375 6.226562 -12.863281 5.8125 -12.5 C 5.394531 -12.132812 5.019531 -11.722656 4.6875 -11.265625 C 4.351562 -10.804688 4.097656 -10.34375 3.921875 -9.875 C 3.753906 -9.40625 3.75 -8.984375 3.90625 -8.609375 C 4.039062 -8.265625 4.253906 -8.078125 4.546875 -8.046875 C 4.847656 -8.023438 5.160156 -8.078125 5.484375 -8.203125 C 6.035156 -8.429688 6.5625 -8.8125 7.0625 -9.34375 C 7.570312 -9.882812 8 -10.382812 8.34375 -10.84375 Z M 8.34375 -10.84375 "/></g></g></g><g fill="#545454" fill-opacity="1"><g transform="translate(462.017579, 371.834049)"><g><path d="M 12.8125 -19.875 C 13.320312 -18.625 13.8125 -17.359375 14.28125 -16.078125 C 14.757812 -14.796875 15.203125 -13.503906 15.609375 -12.203125 C 15.972656 -11.085938 16.34375 -9.882812 16.71875 -8.59375 C 17.101562 -7.3125 17.398438 -6.003906 17.609375 -4.671875 C 17.828125 -3.347656 17.941406 -2.03125 17.953125 -0.71875 C 17.972656 0.582031 17.789062 1.8125 17.40625 2.96875 C 17.03125 4.132812 16.425781 5.1875 15.59375 6.125 C 14.757812 7.0625 13.625 7.820312 12.1875 8.40625 C 11.519531 8.664062 10.726562 8.859375 9.8125 8.984375 C 8.90625 9.117188 8.003906 9.132812 7.109375 9.03125 C 6.222656 8.9375 5.410156 8.695312 4.671875 8.3125 C 3.929688 7.925781 3.40625 7.351562 3.09375 6.59375 C 2.863281 6.019531 2.851562 5.410156 3.0625 4.765625 C 3.28125 4.128906 3.710938 3.679688 4.359375 3.421875 C 4.753906 3.253906 5.15625 3.164062 5.5625 3.15625 C 5.976562 3.15625 6.398438 3.164062 6.828125 3.1875 C 7.253906 3.21875 7.660156 3.234375 8.046875 3.234375 C 8.429688 3.234375 8.800781 3.164062 9.15625 3.03125 C 10.070312 2.65625 10.75 2.113281 11.1875 1.40625 C 11.625 0.707031 11.882812 -0.0664062 11.96875 -0.921875 C 12.0625 -1.785156 12.03125 -2.664062 11.875 -3.5625 C 11.71875 -4.46875 11.53125 -5.304688 11.3125 -6.078125 C 11.039062 -5.316406 10.617188 -4.695312 10.046875 -4.21875 C 9.484375 -3.738281 8.847656 -3.351562 8.140625 -3.0625 C 6.816406 -2.53125 5.601562 -2.304688 4.5 -2.390625 C 3.394531 -2.484375 2.398438 -2.816406 1.515625 -3.390625 C 0.628906 -3.960938 -0.164062 -4.726562 -0.875 -5.6875 C -1.582031 -6.644531 -2.1875 -7.742188 -2.6875 -8.984375 C -2.988281 -9.742188 -3.253906 -10.640625 -3.484375 -11.671875 C -3.710938 -12.703125 -3.863281 -13.773438 -3.9375 -14.890625 C -4.019531 -16.003906 -4.007812 -17.128906 -3.90625 -18.265625 C -3.800781 -19.398438 -3.570312 -20.457031 -3.21875 -21.4375 C -2.863281 -22.414062 -2.375 -23.289062 -1.75 -24.0625 C -1.125 -24.832031 -0.332031 -25.414062 0.625 -25.8125 C 1.5625 -26.1875 2.503906 -26.242188 3.453125 -25.984375 C 4.410156 -25.734375 5.148438 -25.140625 5.671875 -24.203125 C 5.734375 -24.835938 5.882812 -25.5 6.125 -26.1875 C 6.363281 -26.875 6.804688 -27.347656 7.453125 -27.609375 C 7.785156 -27.742188 8.140625 -27.6875 8.515625 -27.4375 C 8.898438 -27.1875 9.269531 -26.804688 9.625 -26.296875 C 9.988281 -25.796875 10.335938 -25.234375 10.671875 -24.609375 C 11.015625 -23.984375 11.328125 -23.359375 11.609375 -22.734375 C 11.890625 -22.117188 12.132812 -21.550781 12.34375 -21.03125 C 12.550781 -20.519531 12.707031 -20.132812 12.8125 -19.875 Z M 8.140625 -15.203125 C 7.992188 -15.566406 7.742188 -16.019531 7.390625 -16.5625 C 7.035156 -17.113281 6.644531 -17.617188 6.21875 -18.078125 C 5.789062 -18.546875 5.332031 -18.910156 4.84375 -19.171875 C 4.363281 -19.441406 3.898438 -19.488281 3.453125 -19.3125 C 2.890625 -19.082031 2.472656 -18.679688 2.203125 -18.109375 C 1.929688 -17.546875 1.757812 -16.921875 1.6875 -16.234375 C 1.613281 -15.546875 1.625 -14.859375 1.71875 -14.171875 C 1.8125 -13.484375 1.945312 -12.914062 2.125 -12.46875 C 2.25 -12.144531 2.445312 -11.722656 2.71875 -11.203125 C 2.988281 -10.679688 3.3125 -10.191406 3.6875 -9.734375 C 4.0625 -9.273438 4.457031 -8.914062 4.875 -8.65625 C 5.300781 -8.394531 5.734375 -8.351562 6.171875 -8.53125 C 6.835938 -8.800781 7.351562 -9.195312 7.71875 -9.71875 C 8.09375 -10.238281 8.347656 -10.8125 8.484375 -11.4375 C 8.617188 -12.070312 8.648438 -12.71875 8.578125 -13.375 C 8.515625 -14.039062 8.367188 -14.648438 8.140625 -15.203125 Z M 8.140625 -15.203125 "/></g></g></g><g fill="#545454" fill-opacity="1"><g transform="translate(481.457966, 363.984962)"><g><path d="M 13.984375 -13.34375 C 14.328125 -12.5 14.394531 -11.5625 14.1875 -10.53125 C 13.976562 -9.507812 13.597656 -8.523438 13.046875 -7.578125 C 12.492188 -6.628906 11.835938 -5.773438 11.078125 -5.015625 C 10.328125 -4.265625 9.566406 -3.734375 8.796875 -3.421875 C 7.492188 -2.898438 6.191406 -2.757812 4.890625 -3 C 3.597656 -3.238281 2.398438 -3.722656 1.296875 -4.453125 C 0.203125 -5.179688 -0.769531 -6.082031 -1.625 -7.15625 C -2.476562 -8.238281 -3.144531 -9.363281 -3.625 -10.53125 C -4.113281 -11.769531 -4.46875 -13.164062 -4.6875 -14.71875 C -4.914062 -16.269531 -4.914062 -17.78125 -4.6875 -19.25 C -4.46875 -20.726562 -3.976562 -22.078125 -3.21875 -23.296875 C -2.457031 -24.515625 -1.335938 -25.425781 0.140625 -26.03125 C 0.992188 -26.375 1.859375 -26.554688 2.734375 -26.578125 C 3.609375 -26.609375 4.4375 -26.476562 5.21875 -26.1875 C 6 -25.894531 6.707031 -25.460938 7.34375 -24.890625 C 7.976562 -24.316406 8.472656 -23.582031 8.828125 -22.6875 C 9.296875 -21.519531 9.488281 -20.328125 9.40625 -19.109375 C 9.320312 -17.898438 9.019531 -16.757812 8.5 -15.6875 C 7.988281 -14.613281 7.289062 -13.632812 6.40625 -12.75 C 5.53125 -11.875 4.546875 -11.1875 3.453125 -10.6875 C 3.847656 -9.988281 4.347656 -9.578125 4.953125 -9.453125 C 5.566406 -9.335938 6.207031 -9.414062 6.875 -9.6875 C 7.375 -9.882812 7.804688 -10.195312 8.171875 -10.625 C 8.546875 -11.0625 8.890625 -11.523438 9.203125 -12.015625 C 9.523438 -12.515625 9.847656 -12.972656 10.171875 -13.390625 C 10.503906 -13.804688 10.898438 -14.109375 11.359375 -14.296875 C 11.847656 -14.492188 12.351562 -14.515625 12.875 -14.359375 C 13.40625 -14.203125 13.773438 -13.863281 13.984375 -13.34375 Z M 4.328125 -19.984375 C 4.191406 -20.304688 3.960938 -20.609375 3.640625 -20.890625 C 3.328125 -21.171875 2.988281 -21.234375 2.625 -21.078125 C 2.070312 -20.859375 1.664062 -20.53125 1.40625 -20.09375 C 1.15625 -19.65625 0.992188 -19.171875 0.921875 -18.640625 C 0.847656 -18.109375 0.84375 -17.566406 0.90625 -17.015625 C 0.96875 -16.472656 1.078125 -15.988281 1.234375 -15.5625 C 1.546875 -15.757812 1.914062 -16.019531 2.34375 -16.34375 C 2.78125 -16.675781 3.171875 -17.03125 3.515625 -17.40625 C 3.867188 -17.78125 4.132812 -18.191406 4.3125 -18.640625 C 4.5 -19.097656 4.503906 -19.546875 4.328125 -19.984375 Z M 4.328125 -19.984375 "/></g></g></g><g fill="#545454" fill-opacity="1"><g transform="translate(498.486854, 357.109521)"><g><path d="M 12.078125 -3.65625 C 11.648438 -3.488281 11.234375 -3.546875 10.828125 -3.828125 C 10.421875 -4.109375 10.054688 -4.472656 9.734375 -4.921875 C 9.421875 -5.367188 9.144531 -5.835938 8.90625 -6.328125 C 8.664062 -6.816406 8.488281 -7.195312 8.375 -7.46875 C 8.070312 -8.21875 7.816406 -8.984375 7.609375 -9.765625 C 7.398438 -10.546875 7.195312 -11.320312 7 -12.09375 C 6.8125 -12.875 6.613281 -13.65625 6.40625 -14.4375 C 6.195312 -15.21875 5.941406 -15.984375 5.640625 -16.734375 C 5.515625 -17.023438 5.367188 -17.335938 5.203125 -17.671875 C 5.046875 -18.003906 4.859375 -18.3125 4.640625 -18.59375 C 4.429688 -18.875 4.1875 -19.070312 3.90625 -19.1875 C 3.625 -19.300781 3.328125 -19.296875 3.015625 -19.171875 C 2.785156 -19.078125 2.601562 -18.796875 2.46875 -18.328125 C 2.34375 -17.859375 2.257812 -17.347656 2.21875 -16.796875 C 2.175781 -16.242188 2.160156 -15.703125 2.171875 -15.171875 C 2.191406 -14.648438 2.25 -14.273438 2.34375 -14.046875 C 2.5625 -13.503906 2.789062 -12.957031 3.03125 -12.40625 C 3.269531 -11.863281 3.503906 -11.304688 3.734375 -10.734375 L 4.609375 -8.578125 C 4.753906 -8.117188 4.894531 -7.644531 5.03125 -7.15625 C 5.175781 -6.664062 5.289062 -6.1875 5.375 -5.71875 C 5.476562 -5.238281 5.535156 -4.757812 5.546875 -4.28125 C 5.566406 -3.8125 5.519531 -3.375 5.40625 -2.96875 C 5.300781 -2.570312 5.128906 -2.207031 4.890625 -1.875 C 4.648438 -1.550781 4.304688 -1.300781 3.859375 -1.125 C 3.367188 -0.925781 2.894531 -0.921875 2.4375 -1.109375 C 1.988281 -1.304688 1.5625 -1.613281 1.15625 -2.03125 C 0.75 -2.457031 0.375 -2.972656 0.03125 -3.578125 C -0.3125 -4.179688 -0.617188 -4.773438 -0.890625 -5.359375 C -1.160156 -5.953125 -1.394531 -6.503906 -1.59375 -7.015625 C -1.789062 -7.523438 -1.945312 -7.929688 -2.0625 -8.234375 L -2.765625 -9.96875 C -3.148438 -10.90625 -3.546875 -11.820312 -3.953125 -12.71875 C -4.359375 -13.625 -4.742188 -14.535156 -5.109375 -15.453125 C -5.304688 -15.953125 -5.554688 -16.585938 -5.859375 -17.359375 C -6.160156 -18.128906 -6.367188 -18.910156 -6.484375 -19.703125 C -6.609375 -20.503906 -6.578125 -21.242188 -6.390625 -21.921875 C -6.210938 -22.597656 -5.738281 -23.09375 -4.96875 -23.40625 C -4.625 -23.539062 -4.269531 -23.550781 -3.90625 -23.4375 C -3.539062 -23.332031 -3.1875 -23.160156 -2.84375 -22.921875 C -2.5 -22.679688 -2.1875 -22.40625 -1.90625 -22.09375 C -1.625 -21.78125 -1.390625 -21.503906 -1.203125 -21.265625 C -1.097656 -21.703125 -0.941406 -22.148438 -0.734375 -22.609375 C -0.535156 -23.078125 -0.273438 -23.515625 0.046875 -23.921875 C 0.367188 -24.335938 0.757812 -24.722656 1.21875 -25.078125 C 1.675781 -25.441406 2.238281 -25.757812 2.90625 -26.03125 C 4.175781 -26.539062 5.285156 -26.632812 6.234375 -26.3125 C 7.179688 -25.988281 8.003906 -25.441406 8.703125 -24.671875 C 9.398438 -23.898438 9.992188 -23.007812 10.484375 -22 C 10.972656 -20.988281 11.390625 -20.0625 11.734375 -19.21875 C 11.898438 -18.8125 12.113281 -18.175781 12.375 -17.3125 C 12.644531 -16.457031 12.898438 -15.492188 13.140625 -14.421875 C 13.378906 -13.359375 13.570312 -12.242188 13.71875 -11.078125 C 13.875 -9.921875 13.941406 -8.832031 13.921875 -7.8125 C 13.910156 -6.800781 13.757812 -5.921875 13.46875 -5.171875 C 13.1875 -4.421875 12.722656 -3.914062 12.078125 -3.65625 Z M 12.078125 -3.65625 "/></g></g></g></svg>