<svg xmlns="http://www.w3.org/2000/svg" xmlns:xlink="http://www.w3.org/1999/xlink" width="1080" zoomAndPan="magnify" viewBox="0 0 810 809.999993" height="1080" preserveAspectRatio="xMidYMid meet" version="1.0"><defs><clipPath id="7e3a9cf096"><path d="M 38 52.003906 L 771 52.003906 L 771 757.753906 L 38 757.753906 Z M 38 52.003906 " clip-rule="nonzero"/></clipPath><clipPath id="2f56fe1af3"><path d="M 419 243 L 556 243 L 556 297 L 419 297 Z M 419 243 " clip-rule="nonzero"/></clipPath><clipPath id="b6f6fad576"><path d="M 251.078125 354.21875 L 553.222656 237.242188 L 558.910156 251.929688 L 256.761719 368.90625 Z M 251.078125 354.21875 " clip-rule="nonzero"/></clipPath><clipPath id="e7444833f1"><path d="M 251.078125 354.21875 L 553.222656 237.242188 L 558.910156 251.929688 L 256.761719 368.90625 Z M 251.078125 354.21875 " clip-rule="nonzero"/></clipPath><clipPath id="aeefe327a0"><path d="M 254 306 L 392 306 L 392 361 L 254 361 Z M 254 306 " clip-rule="nonzero"/></clipPath><clipPath id="7e236cac90"><path d="M 251.078125 354.21875 L 553.222656 237.242188 L 558.910156 251.929688 L 256.761719 368.90625 Z M 251.078125 354.21875 " clip-rule="nonzero"/></clipPath><clipPath id="2dfe3bf13b"><path d="M 251.078125 354.21875 L 553.222656 237.242188 L 558.910156 251.929688 L 256.761719 368.90625 Z M 251.078125 354.21875 " clip-rule="nonzero"/></clipPath><clipPath id="301c28a17d"><path d="M 420 246 L 556 246 L 556 300 L 420 300 Z M 420 246 " clip-rule="nonzero"/></clipPath><clipPath id="5686a9c1e2"><path d="M 251.078125 354.21875 L 553.222656 237.242188 L 558.910156 251.929688 L 256.761719 368.90625 Z M 251.078125 354.21875 " clip-rule="nonzero"/></clipPath><clipPath id="28eddba07d"><path d="M 251.078125 354.21875 L 553.222656 237.242188 L 558.910156 251.929688 L 256.761719 368.90625 Z M 251.078125 354.21875 " clip-rule="nonzero"/></clipPath><clipPath id="2a48f0a421"><path d="M 255 309 L 393 309 L 393 364 L 255 364 Z M 255 309 " clip-rule="nonzero"/></clipPath><clipPath id="cdc81d6e18"><path d="M 251.078125 354.21875 L 553.222656 237.242188 L 558.910156 251.929688 L 256.761719 368.90625 Z M 251.078125 354.21875 " clip-rule="nonzero"/></clipPath><clipPath id="69dc9602e7"><path d="M 251.078125 354.21875 L 553.222656 237.242188 L 558.910156 251.929688 L 256.761719 368.90625 Z M 251.078125 354.21875 " clip-rule="nonzero"/></clipPath><clipPath id="854c94e7cb"><path d="M 394 303 L 398 303 L 398 310 L 394 310 Z M 394 303 " clip-rule="nonzero"/></clipPath><clipPath id="8baa999a83"><path d="M 251.078125 354.21875 L 553.222656 237.242188 L 558.910156 251.929688 L 256.761719 368.90625 Z M 251.078125 354.21875 " clip-rule="nonzero"/></clipPath><clipPath id="5e325ca2b0"><path d="M 251.078125 354.21875 L 553.222656 237.242188 L 558.910156 251.929688 L 256.761719 368.90625 Z M 251.078125 354.21875 " clip-rule="nonzero"/></clipPath><clipPath id="f161f359fb"><path d="M 413 296 L 417 296 L 417 303 L 413 303 Z M 413 296 " clip-rule="nonzero"/></clipPath><clipPath id="0ecede0db0"><path d="M 251.078125 354.21875 L 553.222656 237.242188 L 558.910156 251.929688 L 256.761719 368.90625 Z M 251.078125 354.21875 " clip-rule="nonzero"/></clipPath><clipPath id="8d279075a3"><path d="M 251.078125 354.21875 L 553.222656 237.242188 L 558.910156 251.929688 L 256.761719 368.90625 Z M 251.078125 354.21875 " clip-rule="nonzero"/></clipPath><clipPath id="ffb76063bd"><path d="M 400 295 L 411 295 L 411 311 L 400 311 Z M 400 295 " clip-rule="nonzero"/></clipPath><clipPath id="9ab4b8d2d7"><path d="M 251.078125 354.21875 L 553.222656 237.242188 L 558.910156 251.929688 L 256.761719 368.90625 Z M 251.078125 354.21875 " clip-rule="nonzero"/></clipPath><clipPath id="3b9a34df89"><path d="M 251.078125 354.21875 L 553.222656 237.242188 L 558.910156 251.929688 L 256.761719 368.90625 Z M 251.078125 354.21875 " clip-rule="nonzero"/></clipPath></defs><path fill="#ffffff" d="M 749.445312 577.738281 C 644.996094 623.269531 526.558594 672.667969 418.984375 715.667969 C 403.511719 721.769531 388.484375 728.910156 372.414062 733.375 C 368.25 734.5625 363.636719 735.457031 359.917969 733.375 C 356.792969 731.589844 355.007812 728.316406 353.667969 725.042969 C 336.257812 686.058594 338.640625 638.742188 359.765625 601.695312 L 366.015625 599.3125 C 489.957031 552.742188 583.101562 514.058594 718.648438 459.75 C 693.203125 533.101562 718.5 544.707031 749.445312 577.738281 Z M 749.445312 577.738281 " fill-opacity="1" fill-rule="nonzero"/><g clip-path="url(#7e3a9cf096)"><path fill="#1693a5" d="M 692.3125 559.734375 C 609.734375 595.742188 526.410156 629.667969 442.792969 662.550781 C 442.046875 655.257812 441.453125 648.117188 440.859375 641.273438 C 471.507812 629.222656 502.160156 617.019531 532.808594 604.820312 C 557.953125 594.851562 582.804688 584.285156 607.800781 573.871094 C 632.199219 563.753906 658.683594 555.570312 681.597656 542.476562 C 685.019531 540.542969 682.789062 535.1875 678.921875 536.226562 C 653.179688 543.070312 628.183594 556.164062 603.632812 566.28125 C 578.933594 576.550781 554.085938 586.519531 529.386719 596.933594 C 499.628906 609.582031 470.019531 622.375 440.261719 635.171875 C 439.667969 627.734375 439.222656 620.890625 439.074219 614.9375 C 471.359375 602.140625 503.347656 588.601562 535.339844 575.359375 C 559.144531 565.539062 582.804688 555.273438 606.460938 545.007812 C 631.308594 534.144531 656.898438 524.472656 681.300781 512.421875 C 683.085938 511.527344 681.898438 508.554688 679.960938 509.148438 C 654.667969 517.035156 629.820312 527.152344 605.269531 537.121094 C 577 548.726562 551.855469 559.4375 526.710938 570.003906 C 477.757812 590.535156 430.890625 607.347656 383.425781 630.859375 C 380.894531 632.046875 382.679688 636.511719 385.359375 635.46875 C 389.375 633.980469 393.394531 632.496094 397.410156 631.007812 C 398.007812 638.296875 398.601562 645.585938 399.34375 652.878906 C 392.5 655.855469 385.65625 658.828125 378.8125 661.804688 C 376.878906 662.550781 378.21875 665.824219 380.152344 665.078125 C 386.699219 662.550781 393.246094 659.871094 399.792969 657.34375 C 400.535156 664.335938 401.28125 671.328125 402.171875 678.46875 C 397.113281 680.40625 392.054688 682.488281 386.996094 684.421875 C 383.722656 685.613281 385.0625 690.820312 388.484375 689.628906 C 393.394531 687.84375 398.15625 686.207031 403.066406 684.421875 C 403.214844 685.613281 403.363281 686.800781 403.511719 688.140625 C 404.105469 686.652344 404.851562 685.164062 405.445312 683.527344 C 416.902344 679.363281 428.210938 675.195312 439.519531 671.03125 C 441.007812 672.667969 442.496094 674.304688 444.132812 676.089844 C 443.980469 673.859375 443.683594 671.625 443.535156 669.542969 C 528.792969 637.703125 613.007812 602.886719 696.179688 565.835938 C 700.199219 564.199219 696.476562 557.949219 692.3125 559.734375 Z M 408.867188 675.792969 C 413.480469 666.269531 418.242188 657.492188 420.621094 652.878906 C 424.191406 656.152344 428.359375 659.722656 434.3125 665.824219 C 425.828125 669.246094 417.347656 672.519531 408.867188 675.792969 Z M 761.050781 563.902344 C 755.25 562.859375 749.59375 563.902344 744.089844 565.6875 C 739.777344 563.007812 735.609375 560.035156 731.742188 556.015625 C 723.707031 547.386719 717.160156 536.675781 714.183594 525.21875 C 709.125 506.023438 712.695312 485.9375 720.285156 467.785156 C 721.472656 467.1875 722.664062 466.742188 723.855469 466.296875 C 735.164062 461.386719 755.992188 455.136719 746.769531 439.066406 C 738.289062 424.339844 727.277344 410.5 717.457031 396.515625 C 675.945312 337.59375 633.835938 279.269531 591.582031 220.941406 C 553.492188 168.570312 516.589844 115.003906 475.675781 64.863281 C 473.144531 61.738281 470.316406 58.167969 467.640625 54.894531 C 466.003906 52.8125 462.433594 52.214844 459.902344 52.8125 C 379.109375 76.46875 298.914062 102.507812 219.90625 131.519531 C 188.660156 142.976562 157.265625 154.730469 126.910156 168.421875 C 117.835938 172.4375 108.757812 176.753906 100.128906 181.960938 C 92.542969 186.421875 83.761719 187.613281 76.175781 191.929688 C 67.246094 196.988281 61.890625 206.511719 57.425781 215.4375 C 37.789062 255.164062 35.851562 299.058594 40.167969 342.355469 C 40.316406 343.398438 40.761719 344.289062 41.507812 344.734375 C 41.65625 345.035156 41.65625 345.183594 41.804688 345.480469 C 64.867188 391.007812 96.113281 432.371094 126.019531 473.4375 C 176.160156 542.328125 227.640625 610.175781 278.527344 678.617188 C 290.878906 695.285156 303.226562 711.800781 316.171875 728.015625 C 320.636719 733.671875 324.652344 739.773438 329.265625 745.277344 C 331.644531 748.105469 334.027344 750.78125 336.855469 753.164062 C 339.234375 755.246094 342.0625 757.625 345.1875 757.625 C 349.203125 757.773438 353.070312 755.988281 356.792969 754.800781 C 377.175781 747.953125 397.410156 740.070312 417.496094 732.480469 C 427.914062 728.464844 438.328125 724.445312 448.742188 720.429688 C 469.425781 712.394531 490.105469 704.210938 510.640625 695.878906 C 531.171875 687.546875 551.707031 679.066406 572.238281 670.585938 C 592.773438 661.953125 613.15625 653.324219 633.539062 644.546875 C 653.773438 635.769531 674.011719 626.988281 694.246094 618.0625 C 705.703125 613.003906 717.160156 607.945312 728.46875 602.585938 C 734.714844 599.613281 740.816406 596.785156 746.917969 593.660156 C 753.167969 590.386719 761.945312 587.261719 767.152344 582.351562 C 774.144531 575.359375 769.832031 565.539062 761.050781 563.902344 Z M 727.425781 572.980469 C 669.84375 598.71875 611.519531 623.269531 553.640625 648.265625 C 493.230469 674.453125 432.824219 700.492188 372.265625 726.527344 C 369.585938 724.890625 369.585938 724.890625 369.585938 724.890625 C 361.851562 719.089844 358.28125 710.90625 355.15625 703.46875 C 350.097656 691.117188 347.417969 677.429688 347.417969 664.039062 C 347.417969 648.859375 352.179688 634.578125 357.832031 620.589844 C 362.296875 609.730469 374.496094 607.050781 384.617188 603.035156 C 424.191406 587.113281 463.921875 571.492188 503.5 555.71875 C 572.984375 528.191406 642.914062 501.410156 711.355469 471.652344 C 704.363281 489.65625 702.875 509.296875 707.339844 528.640625 C 710.167969 540.988281 715.226562 552.742188 722.960938 562.710938 C 725.046875 565.539062 727.722656 568.515625 730.550781 571.492188 C 729.507812 571.9375 728.46875 572.382812 727.425781 572.980469 Z M 727.425781 572.980469 " fill-opacity="1" fill-rule="nonzero"/></g><path fill="#ffae62" d="M 693.949219 420.320312 C 695.4375 421.066406 696.925781 421.660156 698.414062 422.253906 C 703.023438 424.039062 705.109375 416.601562 700.496094 414.816406 C 698.261719 413.921875 696.03125 412.882812 693.949219 411.691406 C 692.757812 404.847656 690.527344 397.851562 687.105469 391.902344 C 684.277344 387.140625 680.109375 380.890625 674.308594 379.550781 C 667.015625 377.914062 664.785156 385.652344 666.570312 391.457031 C 668.652344 398.152344 673.414062 403.953125 678.175781 409.011719 C 681.300781 412.285156 684.871094 415.261719 688.890625 417.492188 C 688.742188 418.535156 688.441406 419.429688 687.996094 420.320312 C 687.402344 421.363281 686.507812 421.957031 685.46875 422.253906 C 681.449219 416.15625 676.6875 410.5 671.183594 405.738281 C 665.976562 401.277344 660.320312 397.554688 653.925781 394.878906 C 648.714844 392.792969 640.53125 390.859375 635.773438 395.175781 C 630.117188 400.234375 634.878906 407.671875 638.597656 412.285156 C 642.46875 416.898438 647.527344 420.320312 653.03125 422.703125 C 658.535156 425.082031 664.339844 426.71875 670.289062 427.761719 C 673.5625 428.355469 677.285156 429.097656 680.855469 429.097656 C 681.003906 429.546875 681.300781 429.992188 681.449219 430.289062 C 682.640625 432.820312 682.9375 434.753906 680.707031 436.539062 C 679.8125 437.132812 679.070312 437.730469 678.027344 438.324219 C 676.09375 436.6875 673.863281 435.050781 671.628906 433.5625 C 666.71875 430.4375 661.066406 427.015625 655.261719 426.273438 C 650.5 425.675781 645.742188 427.761719 644.847656 432.820312 C 643.65625 439.21875 648.566406 444.574219 654.074219 446.953125 C 662.109375 450.523438 671.777344 449.78125 679.664062 445.914062 C 681.003906 447.25 682.34375 448.589844 683.683594 449.929688 C 685.167969 451.417969 687.847656 449.484375 686.507812 447.699219 C 685.46875 446.359375 684.425781 445.019531 683.382812 443.679688 C 684.128906 443.234375 684.871094 442.640625 685.46875 442.191406 C 690.527344 438.027344 690.378906 432.820312 688.292969 427.761719 C 691.417969 426.273438 693.203125 423.445312 693.949219 420.320312 Z M 676.988281 396.8125 C 675.5 395.027344 674.308594 393.09375 673.265625 391.007812 C 672.523438 389.519531 671.035156 386.546875 671.628906 384.761719 C 673.117188 380.890625 679.8125 389.820312 680.707031 391.15625 C 683.53125 395.324219 685.617188 399.9375 686.804688 404.847656 C 686.957031 405.589844 687.253906 406.335938 687.402344 407.226562 C 683.53125 404.25 679.960938 400.679688 676.988281 396.8125 Z M 663 419.429688 C 654.667969 417.195312 646.335938 413.328125 641.128906 406.1875 C 640.085938 404.699219 637.109375 400.976562 639.195312 399.488281 C 640.980469 398.152344 644.699219 399.191406 646.632812 399.640625 C 651.542969 400.976562 655.710938 403.953125 659.875 406.929688 C 665.828125 411.097656 671.628906 416.15625 676.09375 422.105469 C 671.628906 421.363281 667.316406 420.617188 663 419.429688 Z M 663.894531 443.085938 C 659.132812 443.382812 654.964844 442.042969 651.988281 438.175781 C 650.800781 436.6875 648.863281 433.5625 650.800781 431.925781 C 651.988281 430.882812 654.074219 431.183594 655.410156 431.480469 C 660.472656 432.371094 665.679688 435.347656 669.84375 438.175781 C 671.035156 438.917969 672.226562 439.8125 673.265625 440.703125 C 670.289062 441.894531 667.167969 442.9375 663.894531 443.085938 Z M 396.371094 560.332031 C 397.113281 560.183594 397.707031 560.035156 398.453125 559.886719 C 398.453125 561.371094 398.453125 562.710938 398.601562 564.199219 C 398.898438 568.070312 404.703125 568.21875 404.703125 564.199219 C 404.703125 561.820312 405 559.585938 405.148438 557.207031 C 409.015625 555.125 412.585938 552.148438 415.710938 549.023438 C 420.621094 543.964844 424.9375 538.460938 427.316406 531.914062 C 429.253906 526.703125 429.550781 518.222656 422.109375 518.074219 C 416.011719 517.925781 410.207031 523.878906 407.082031 528.492188 C 402.46875 535.039062 400.238281 543.519531 399.046875 551.253906 C 399.046875 551.402344 399.046875 551.402344 399.046875 551.554688 C 395.179688 552.890625 391.011719 553.488281 388.039062 550.066406 C 387.441406 549.46875 386.996094 548.875 386.699219 548.128906 C 396.519531 536.972656 401.578125 522.835938 401.875 507.808594 C 402.023438 501.410156 400.535156 491.886719 392.648438 490.847656 C 384.914062 489.804688 379.554688 497.988281 377.027344 504.238281 C 371.671875 517.628906 372.265625 534.738281 377.769531 548.128906 C 376.433594 549.320312 375.09375 550.511719 373.753906 551.253906 C 368.84375 554.082031 363.785156 550.511719 360.214844 546.941406 C 364.082031 539.796875 365.421875 531.316406 365.570312 523.132812 C 365.570312 516.734375 364.976562 508.703125 359.917969 504.089844 C 355.304688 499.921875 347.417969 498.882812 343.402344 504.238281 C 339.679688 509.296875 340.277344 517.183594 341.167969 522.984375 C 342.359375 530.128906 345.1875 536.972656 349.203125 542.921875 C 350.542969 544.859375 352.03125 546.792969 353.667969 548.726562 C 352.179688 551.105469 350.394531 553.488281 348.3125 555.570312 C 347.121094 556.761719 348.757812 559.140625 350.246094 558.101562 C 352.773438 556.3125 355.007812 554.230469 356.941406 552 C 359.617188 554.378906 362.445312 556.464844 365.71875 557.652344 C 371.671875 559.886719 376.730469 557.503906 381.042969 553.785156 C 384.464844 558.84375 389.972656 561.222656 396.371094 560.332031 Z M 407.527344 544.707031 C 409.164062 539.054688 411.25 533.25 415.414062 528.9375 C 416.605469 527.746094 423.597656 521.796875 423.894531 525.960938 C 424.042969 528.339844 422.109375 531.613281 420.917969 533.550781 C 419.582031 535.929688 417.796875 538.3125 416.011719 540.394531 C 413.332031 543.371094 410.207031 545.898438 406.636719 547.980469 C 406.933594 546.941406 407.230469 545.75 407.527344 544.707031 Z M 382.679688 515.546875 C 383.574219 511.082031 384.765625 506.171875 387.589844 502.601562 C 388.484375 501.558594 390.566406 499.03125 391.757812 499.773438 C 393.394531 500.667969 393.542969 504.386719 393.542969 505.875 C 394.285156 517.628906 391.460938 529.085938 385.0625 538.90625 C 384.617188 539.648438 384.167969 540.394531 383.574219 541.136719 C 383.128906 539.054688 382.679688 536.972656 382.382812 535.1875 C 381.34375 528.640625 381.492188 521.945312 382.679688 515.546875 Z M 356.195312 542.921875 C 349.796875 535.1875 345.78125 525.367188 345.632812 515.25 C 345.632812 512.71875 345.484375 509.59375 346.972656 507.363281 C 348.90625 504.386719 352.773438 505.128906 355.15625 507.066406 C 359.46875 510.636719 359.023438 518.074219 359.171875 523.132812 C 359.46875 530.128906 358.578125 536.824219 356.195312 542.921875 Z M 473.890625 81.230469 C 473.292969 80.1875 474.78125 79.296875 475.527344 80.335938 C 495.316406 110.691406 517.335938 139.851562 538.613281 169.3125 C 559.589844 198.179688 580.273438 227.191406 601.550781 255.910156 C 623.273438 285.367188 645.292969 314.53125 667.316406 343.84375 C 689.78125 373.601562 713.140625 402.613281 735.164062 432.519531 C 736.800781 434.753906 730.996094 436.6875 729.359375 434.605469 C 705.40625 404.550781 684.722656 374.046875 661.066406 343.695312 C 639.640625 316.019531 613.898438 280.609375 592.621094 252.785156 C 570.898438 224.515625 554.53125 202.195312 534.296875 172.734375 C 513.019531 142.234375 492.933594 112.773438 473.890625 81.230469 Z M 714.035156 456.179688 C 688.292969 467.339844 665.230469 475.820312 639.34375 486.234375 C 624.015625 492.335938 608.691406 498.582031 593.367188 504.832031 C 576.554688 511.675781 559.589844 518.523438 542.777344 525.367188 C 525.964844 532.210938 509.003906 539.054688 492.042969 545.75 C 476.566406 551.851562 461.242188 557.949219 445.769531 564.050781 C 433.269531 568.8125 420.769531 573.574219 408.273438 578.039062 C 400.238281 580.863281 392.203125 583.839844 384.019531 585.773438 C 383.425781 585.921875 375.6875 587.859375 377.621094 585.179688 C 376.132812 585.773438 375.390625 583.246094 376.878906 582.648438 C 383.277344 580.121094 389.824219 577.441406 396.222656 574.914062 C 417.199219 566.582031 438.179688 558.25 459.308594 550.066406 C 481.921875 541.136719 504.539062 532.359375 527.007812 523.433594 C 549.324219 514.652344 571.792969 505.875 594.109375 496.945312 C 614.496094 488.914062 636.960938 480.878906 657.199219 472.695312 C 669.695312 467.636719 680.707031 463.320312 693.054688 458.113281 C 705.703125 452.757812 718.351562 447.101562 730.847656 441.300781 C 734.714844 439.515625 737.542969 446.210938 733.675781 448.144531 C 728.617188 450.824219 719.539062 453.796875 714.035156 456.179688 Z M 750.191406 581.609375 C 736.054688 589.941406 720.433594 595.742188 705.257812 602.289062 C 690.078125 608.835938 674.902344 615.234375 659.726562 621.78125 C 630.265625 634.28125 600.65625 646.777344 571.046875 658.980469 C 510.042969 684.125 448.742188 708.527344 386.996094 731.738281 C 385.0625 732.480469 384.316406 729.503906 386.101562 728.761719 C 446.957031 703.316406 507.960938 678.171875 568.667969 652.433594 C 598.871094 639.636719 629.226562 626.988281 659.429688 614.042969 C 688.59375 601.546875 717.753906 586.070312 748.109375 576.847656 C 751.082031 575.953125 752.71875 580.121094 750.191406 581.609375 Z M 78.40625 214.542969 C 52.21875 251.742188 50.582031 295.785156 52.515625 339.675781 C 52.667969 342.058594 49.09375 342.058594 48.796875 339.675781 C 44.78125 296.378906 46.863281 248.023438 74.390625 212.164062 C 76.175781 209.785156 80.042969 212.015625 78.40625 214.542969 Z M 449.339844 91.199219 C 448.148438 90.453125 446.957031 89.710938 445.769531 89.265625 C 443.832031 88.371094 441.75 87.925781 439.667969 87.777344 C 440.113281 86.289062 440.410156 84.800781 440.859375 83.3125 C 441.304688 81.230469 438.179688 80.335938 437.734375 82.421875 C 437.285156 84.207031 436.691406 85.992188 436.246094 87.628906 C 433.121094 87.925781 429.996094 88.816406 427.316406 90.453125 C 418.242188 96.109375 408.71875 102.804688 403.511719 112.476562 C 401.578125 116.046875 398.007812 122.59375 401.429688 126.164062 C 406.191406 131.222656 412.886719 127.355469 417.199219 123.632812 C 426.871094 115.300781 434.3125 105.332031 438.328125 93.132812 C 438.476562 92.6875 438.625 92.390625 438.625 91.941406 C 441.007812 92.238281 443.238281 93.132812 445.320312 95.066406 C 444.578125 95.960938 443.980469 96.703125 443.238281 97.597656 C 441.15625 100.273438 438.921875 102.953125 437.136719 105.78125 C 433.566406 111.582031 431.335938 118.277344 430.441406 124.972656 C 429.550781 131.371094 429.996094 138.511719 435.351562 142.976562 C 439.964844 146.847656 446.808594 145.210938 450.527344 140.894531 C 454.84375 135.984375 456.332031 129.585938 456.777344 123.1875 C 457.222656 116.195312 456.777344 108.90625 455.4375 102.058594 C 454.992188 99.976562 454.695312 97.449219 453.652344 95.511719 C 454.101562 95.214844 454.695312 94.917969 455.289062 94.917969 C 457.671875 94.324219 459.605469 95.214844 461.539062 96.851562 C 459.308594 109.054688 458.117188 121.996094 462.285156 134.050781 C 463.472656 137.324219 465.855469 142.828125 469.277344 145.058594 C 473.441406 147.738281 478.800781 145.65625 481.476562 141.785156 C 483.113281 139.40625 483.859375 136.429688 484.15625 133.453125 C 484.601562 129.140625 484.007812 124.675781 482.816406 120.511719 C 482.222656 118.277344 481.328125 116.195312 480.285156 114.113281 C 478.351562 110.09375 475.972656 106.226562 473.292969 102.65625 C 472.402344 101.316406 469.574219 98.9375 469.277344 97.449219 C 468.980469 95.960938 471.210938 92.6875 471.804688 91.199219 C 472.699219 89.265625 472.402344 87.03125 470.46875 85.84375 C 468.832031 84.800781 466.003906 85.246094 465.109375 87.179688 C 464.515625 88.667969 463.921875 90.15625 463.324219 91.644531 C 459.605469 89.265625 455.4375 88.222656 450.828125 90.601562 C 450.230469 90.601562 449.785156 90.902344 449.339844 91.199219 Z M 425.382812 109.648438 C 422.257812 113.664062 418.6875 117.535156 414.671875 120.808594 C 412.738281 122.445312 410.058594 124.082031 407.675781 124.378906 C 405.148438 124.675781 404.105469 122.890625 404.554688 120.808594 C 406.191406 112.773438 411.84375 106.820312 417.945312 101.761719 C 422.40625 98.042969 428.507812 93.28125 434.609375 92.089844 C 432.375 98.339844 429.550781 104.292969 425.382812 109.648438 Z M 448.890625 123.1875 C 448.445312 127.355469 447.703125 132.265625 445.320312 135.835938 C 444.429688 137.175781 443.683594 137.917969 442.195312 138.363281 C 439.519531 138.960938 437.882812 137.769531 436.839844 135.238281 C 434.90625 130.628906 436.246094 124.972656 437.585938 120.359375 C 438.921875 115.300781 441.007812 110.988281 443.980469 106.820312 C 445.46875 104.886719 446.808594 102.804688 448.296875 100.871094 C 448.445312 102.953125 448.445312 105.183594 448.59375 107.117188 C 449.191406 112.476562 449.488281 117.832031 448.890625 123.1875 Z M 465.707031 110.390625 C 466.003906 108.457031 466.449219 106.523438 467.042969 104.589844 C 468.382812 106.96875 477.011719 120.957031 477.460938 127.652344 C 477.609375 130.777344 478.054688 136.578125 474.929688 137.769531 C 473.292969 138.363281 471.804688 137.917969 470.617188 136.875 C 470.019531 135.984375 469.425781 135.089844 468.980469 134.050781 C 468.234375 132.5625 467.640625 131.074219 467.191406 129.585938 C 466.300781 125.570312 465.109375 117.386719 465.707031 110.390625 Z M 128.546875 210.378906 C 129.144531 210.824219 129.738281 211.273438 130.335938 211.570312 C 125.574219 223.175781 135.691406 237.90625 144.46875 244.75 C 152.207031 250.699219 179.433594 260.96875 176.160156 241.03125 C 175.269531 235.226562 170.359375 230.316406 165.300781 226 C 171.398438 227.789062 177.796875 228.976562 184.195312 228.828125 C 190.148438 228.828125 200.117188 228.53125 204.429688 223.472656 C 214.847656 211.273438 187.617188 204.128906 180.921875 202.492188 C 170.953125 200.113281 153.695312 197.136719 141.640625 201.300781 C 141.640625 200.855469 141.640625 200.410156 141.789062 199.964844 C 142.238281 197.433594 143.875 195.351562 145.957031 193.566406 C 158.753906 197.878906 173.929688 199.367188 185.980469 194.308594 C 195.355469 190.292969 191.039062 178.390625 181.964844 177.050781 C 171.25 175.5625 153.84375 179.878906 144.023438 188.359375 C 142.238281 187.761719 140.601562 187.167969 138.816406 186.421875 C 136.582031 185.382812 134.5 188.65625 136.730469 189.847656 C 137.921875 190.441406 139.261719 191.035156 140.601562 191.632812 C 139.558594 192.820312 138.816406 194.160156 138.070312 195.5 C 136.582031 198.625 135.988281 201.453125 136.285156 203.980469 C 135.839844 204.277344 135.542969 204.574219 135.246094 204.726562 C 134.054688 204.128906 132.714844 203.535156 131.375 202.9375 C 127.0625 201.453125 125.273438 208 128.546875 210.378906 Z M 159.941406 186.871094 C 165.449219 185.085938 174.820312 181.8125 180.476562 183.597656 C 190.890625 186.871094 181.667969 189.847656 177.648438 190.589844 C 169.019531 192.375 159.941406 192.226562 151.3125 190.441406 C 154.289062 188.804688 157.414062 187.761719 159.941406 186.871094 Z M 159.941406 206.363281 C 165.300781 206.363281 203.390625 209.335938 199.222656 220.050781 C 198.035156 223.175781 184.195312 222.28125 181.070312 221.984375 C 174.523438 221.539062 167.976562 220.199219 161.878906 217.816406 C 157.117188 216.03125 148.039062 213.058594 143.875 207.699219 C 148.933594 206.210938 155.332031 206.363281 159.941406 206.363281 Z M 136.285156 215.734375 C 144.171875 220.941406 152.058594 225.851562 159.347656 232.25 C 161.132812 233.886719 164.109375 235.671875 165.300781 237.757812 C 167.828125 242.367188 164.554688 245.195312 160.390625 244.75 C 154.585938 244.152344 147.890625 238.796875 144.023438 234.632812 C 140.003906 230.316406 134.945312 222.28125 136.285156 215.734375 Z M 343.699219 614.042969 C 329.414062 653.027344 327.628906 696.324219 342.65625 735.308594 C 343.101562 736.5 341.019531 737.390625 340.425781 736.199219 C 323.015625 696.621094 320.488281 652.285156 337.300781 612.257812 C 338.9375 608.539062 345.1875 610.027344 343.699219 614.042969 Z M 361.851562 587.113281 C 363.636719 589.496094 359.617188 591.726562 357.980469 589.34375 C 334.769531 557.652344 310.371094 526.703125 287.160156 495.011719 C 264.246094 463.765625 241.628906 432.519531 219.160156 401.125 C 173.929688 337.890625 130.035156 273.464844 87.78125 208.148438 C 84.953125 203.832031 91.796875 199.964844 94.625 204.128906 C 140.003906 267.515625 184.792969 331.195312 228.980469 395.324219 C 250.855469 427.015625 272.875 458.707031 294.894531 490.402344 C 317.363281 522.6875 338.9375 555.421875 361.851562 587.113281 Z M 194.910156 151.90625 C 236.867188 135.984375 278.675781 119.765625 321.230469 105.480469 C 342.804688 98.339844 364.378906 91.199219 385.953125 84.355469 C 406.636719 77.808594 428.0625 69.027344 449.488281 65.90625 C 451.570312 65.605469 453.355469 68.582031 451.125 69.625 C 431.335938 79.148438 408.71875 84.054688 387.738281 90.753906 C 366.761719 97.449219 345.78125 104.441406 324.800781 111.433594 C 281.800781 125.867188 238.503906 139.554688 195.652344 154.730469 C 193.867188 155.476562 193.125 152.648438 194.910156 151.90625 Z M 194.910156 151.90625 " fill-opacity="1" fill-rule="nonzero"/><g clip-path="url(#2f56fe1af3)"><g clip-path="url(#b6f6fad576)"><g clip-path="url(#e7444833f1)"><path fill="#106875" d="M 554.652344 244.679688 L 419.910156 296.847656 C 419.617188 296.960938 419.285156 296.816406 419.171875 296.519531 C 419.058594 296.226562 419.203125 295.898438 419.5 295.785156 L 554.242188 243.617188 C 554.535156 243.503906 554.867188 243.648438 554.980469 243.945312 C 555.09375 244.238281 554.949219 244.566406 554.652344 244.679688 Z M 554.652344 244.679688 " fill-opacity="1" fill-rule="nonzero"/></g></g></g><g clip-path="url(#aeefe327a0)"><g clip-path="url(#7e236cac90)"><g clip-path="url(#2dfe3bf13b)"><path fill="#106875" d="M 391.214844 307.992188 C 391.152344 308.015625 391.089844 308.03125 391.019531 308.03125 L 255.03125 360.679688 C 254.738281 360.792969 254.40625 360.648438 254.292969 360.355469 C 254.179688 360.0625 254.324219 359.730469 254.617188 359.617188 L 390.703125 306.929688 C 390.769531 306.90625 390.835938 306.890625 390.90625 306.894531 L 391.003906 306.890625 C 391.316406 306.890625 391.574219 307.140625 391.578125 307.457031 C 391.578125 307.699219 391.429688 307.910156 391.214844 307.992188 Z M 391.214844 307.992188 " fill-opacity="1" fill-rule="nonzero"/></g></g></g><g clip-path="url(#301c28a17d)"><g clip-path="url(#5686a9c1e2)"><g clip-path="url(#28eddba07d)"><path fill="#106875" d="M 555.566406 247.035156 L 420.820312 299.199219 C 420.644531 299.269531 420.445312 299.179688 420.378906 299.003906 C 420.308594 298.828125 420.398438 298.628906 420.574219 298.5625 L 555.316406 246.394531 C 555.496094 246.328125 555.691406 246.414062 555.761719 246.589844 C 555.828125 246.769531 555.742188 246.964844 555.566406 247.035156 Z M 555.566406 247.035156 " fill-opacity="1" fill-rule="nonzero"/></g></g></g><g clip-path="url(#2a48f0a421)"><g clip-path="url(#cdc81d6e18)"><g clip-path="url(#69dc9602e7)"><path fill="#106875" d="M 392.125 310.347656 C 392.085938 310.363281 392.046875 310.367188 392.003906 310.367188 L 391.96875 310.371094 L 255.941406 363.03125 C 255.765625 363.101562 255.566406 363.015625 255.5 362.835938 C 255.429688 362.660156 255.519531 362.464844 255.695312 362.394531 L 391.78125 309.710938 C 391.816406 309.695312 391.859375 309.6875 391.902344 309.6875 L 392 309.6875 C 392.1875 309.683594 392.34375 309.835938 392.34375 310.023438 C 392.34375 310.171875 392.253906 310.296875 392.125 310.347656 Z M 392.125 310.347656 " fill-opacity="1" fill-rule="nonzero"/></g></g></g><g clip-path="url(#854c94e7cb)"><g clip-path="url(#8baa999a83)"><g clip-path="url(#5e325ca2b0)"><path fill="#106875" d="M 397.148438 306.136719 L 396.898438 309.582031 L 394.390625 307.203125 L 394.644531 303.761719 Z M 397.148438 306.136719 " fill-opacity="1" fill-rule="nonzero"/></g></g></g><g clip-path="url(#f161f359fb)"><g clip-path="url(#0ecede0db0)"><g clip-path="url(#8d279075a3)"><path fill="#106875" d="M 416.269531 298.734375 L 416.015625 302.179688 L 413.507812 299.800781 L 413.761719 296.359375 Z M 416.269531 298.734375 " fill-opacity="1" fill-rule="nonzero"/></g></g></g><g clip-path="url(#ffb76063bd)"><g clip-path="url(#9ab4b8d2d7)"><g clip-path="url(#3b9a34df89)"><path fill="#106875" d="M 410.453125 300.984375 L 408.179688 310.332031 L 400.203125 304.953125 L 402.476562 295.605469 Z M 410.453125 300.984375 " fill-opacity="1" fill-rule="nonzero"/></g></g></g></svg>