<svg xmlns="http://www.w3.org/2000/svg" xmlns:xlink="http://www.w3.org/1999/xlink" width="800" zoomAndPan="magnify" viewBox="0 0 600 262.499992" height="350" preserveAspectRatio="xMidYMid meet" version="1.0"><defs><g/><clipPath id="fb4089cd76"><path d="M 166.699219 104 L 300 104 L 300 181 L 166.699219 181 Z M 166.699219 104 " clip-rule="nonzero"/></clipPath><clipPath id="898601328a"><path d="M 289.335938 104.109375 L 433.191406 104.109375 L 433.191406 184.066406 L 289.335938 184.066406 Z M 289.335938 104.109375 " clip-rule="nonzero"/></clipPath><clipPath id="224fe6b5da"><path d="M 344 18.800781 L 384 18.800781 L 384 57 L 344 57 Z M 344 18.800781 " clip-rule="nonzero"/></clipPath></defs><g clip-path="url(#fb4089cd76)"><path fill="#10778a" d="M 300 180.238281 L 166.707031 180.238281 L 203.972656 104.136719 L 300 104.136719 L 300 180.238281 " fill-opacity="1" fill-rule="evenodd"/></g><g clip-path="url(#898601328a)"><path fill="#10778a" d="M 308.105469 180.238281 L 433.292969 180.238281 L 396.03125 104.136719 L 300 104.136719 L 300 163.125 C 294.144531 163.125 289.53125 167.859375 289.53125 173.597656 C 289.53125 179.453125 294.144531 184.066406 300 184.066406 C 303.261719 184.066406 306.191406 182.601562 308.105469 180.238281 " fill-opacity="1" fill-rule="evenodd"/></g><path fill="#d1aa72" d="M 300 180.238281 C 262.738281 171.910156 222.433594 170.445312 184.609375 174.949219 C 193.949219 152.09375 203.296875 129.238281 212.640625 106.390625 C 220.632812 106.953125 234.480469 106.050781 242.46875 106.613281 C 258.007812 115.957031 270.390625 127.664062 285.929688 137.125 C 290.542969 151.53125 295.273438 165.824219 300 180.238281 " fill-opacity="1" fill-rule="evenodd"/><path fill="#d1aa72" d="M 300 180.238281 C 337.261719 171.910156 377.5625 170.445312 415.277344 174.949219 C 405.933594 152.09375 396.59375 129.238281 387.25 106.390625 C 379.363281 106.953125 365.40625 106.050781 357.414062 106.613281 C 341.988281 115.957031 329.609375 127.664062 314.070312 137.125 C 309.339844 151.53125 304.726562 165.824219 300 180.238281 " fill-opacity="1" fill-rule="evenodd"/><path fill="#ffbc66" d="M 300 180.238281 C 271.402344 155.019531 225.25 151.304688 192.039062 169.316406 C 202.734375 144.101562 213.425781 118.996094 224.121094 93.890625 C 251.136719 88.824219 276.46875 91.75 300 104.136719 L 300 180.238281 " fill-opacity="1" fill-rule="evenodd"/><path fill="#ffbc66" d="M 300 180.238281 C 328.59375 155.019531 374.636719 151.304688 407.960938 169.316406 C 397.265625 144.101562 386.574219 118.996094 375.875 93.890625 C 348.863281 88.824219 323.417969 91.75 300 104.136719 L 300 180.238281 " fill-opacity="1" fill-rule="evenodd"/><path fill="#fbeab4" d="M 300 180.238281 C 279.84375 150.742188 247.308594 137.90625 211.847656 150.96875 C 220.40625 127.101562 229.074219 103.230469 237.628906 79.480469 C 261.609375 75.65625 288.632812 79.480469 300 104.136719 C 311.367188 79.480469 338.386719 75.65625 362.367188 79.480469 C 370.921875 103.230469 379.476562 127.101562 388.039062 150.96875 C 352.574219 137.90625 320.152344 150.742188 300 180.238281 " fill-opacity="1" fill-rule="evenodd"/><path fill="#d1aa72" d="M 300 180.238281 C 299.4375 179.453125 298.761719 178.550781 298.199219 177.652344 L 298.199219 100.648438 C 298.761719 101.769531 299.4375 102.898438 300 104.136719 C 300.5625 102.898438 301.125 101.769531 301.800781 100.648438 L 301.800781 177.652344 C 301.238281 178.550781 300.5625 179.453125 300 180.238281 " fill-opacity="1" fill-rule="evenodd"/><path fill="#d17609" d="M 220.070312 19.027344 L 230.425781 25.21875 L 241.007812 19.589844 L 238.304688 31.296875 L 246.972656 39.628906 L 235.042969 40.640625 L 229.75 51.449219 L 225.136719 40.417969 L 213.203125 38.726562 L 222.207031 30.847656 Z M 172.449219 68.898438 L 185.734375 69.011719 L 192.597656 57.640625 L 196.539062 70.25 L 209.488281 73.289062 L 198.679688 81.058594 L 199.804688 94.226562 L 189.109375 86.347656 L 176.953125 91.527344 L 181.117188 78.917969 Z M 219.734375 84.996094 L 227.613281 86.796875 L 233.242188 80.832031 L 234.027344 88.9375 L 241.457031 92.425781 L 233.914062 95.691406 L 232.902344 103.800781 L 227.5 97.605469 L 219.503906 99.179688 L 223.671875 92.089844 Z M 270.726562 75.089844 L 275.117188 79.371094 L 281.082031 77.90625 L 278.269531 83.421875 L 281.648438 88.597656 L 275.457031 87.585938 L 271.628906 92.425781 L 270.617188 86.347656 L 264.875 84.097656 L 270.277344 81.28125 Z M 280.863281 100.988281 L 283.222656 104.582031 L 287.617188 104.363281 L 284.917969 107.738281 L 286.378906 111.792969 L 282.320312 110.214844 L 278.945312 112.917969 L 279.171875 108.640625 L 275.570312 106.277344 L 279.734375 105.152344 Z M 250.914062 107.628906 L 256.996094 110.328125 L 262.511719 106.5 L 261.722656 113.144531 L 267.125 117.195312 L 260.597656 118.546875 L 258.460938 124.847656 L 255.082031 118.996094 L 248.324219 118.996094 L 252.832031 113.929688 Z M 274.554688 132.394531 L 278.832031 134.980469 L 283.222656 132.617188 L 282.101562 137.566406 L 285.703125 140.949219 L 280.746094 141.402344 L 278.609375 145.902344 L 276.695312 141.289062 L 271.742188 140.613281 L 275.457031 137.347656 Z M 251.367188 49.199219 L 258.683594 53.699219 L 266.226562 49.648438 L 264.3125 57.980469 L 270.503906 63.835938 L 261.949219 64.621094 L 258.234375 72.277344 L 254.964844 64.398438 L 246.523438 63.269531 L 252.945312 57.640625 L 251.367188 49.199219 " fill-opacity="1" fill-rule="evenodd"/><g clip-path="url(#224fe6b5da)"><path fill="#d17609" d="M 375.875 18.800781 L 364.058594 25.894531 L 351.78125 19.363281 L 354.933594 32.875 L 344.917969 42.441406 L 358.765625 43.570312 L 364.730469 56.066406 L 370.136719 43.34375 L 383.867188 41.429688 L 373.398438 32.421875 L 375.875 18.800781 " fill-opacity="1" fill-rule="evenodd"/></g><path fill="#d17609" d="M 423.5 68.898438 L 410.210938 69.011719 L 403.34375 57.640625 L 399.40625 70.25 L 386.460938 73.289062 L 397.265625 81.058594 L 396.140625 94.226562 L 406.835938 86.347656 L 418.992188 91.527344 L 414.832031 78.917969 L 423.5 68.898438 " fill-opacity="1" fill-rule="evenodd"/><path fill="#d17609" d="M 382.855469 79.257812 L 372.160156 81.734375 L 364.730469 73.738281 L 363.71875 84.546875 L 353.8125 89.273438 L 363.832031 93.550781 L 365.183594 104.476562 L 372.386719 96.253906 L 383.199219 98.28125 L 377.5625 88.9375 L 382.855469 79.257812 " fill-opacity="1" fill-rule="evenodd"/><path fill="#d17609" d="M 325.21875 75.089844 L 320.828125 79.371094 L 314.863281 77.90625 L 317.675781 83.421875 L 314.292969 88.597656 L 320.492188 87.585938 L 324.316406 92.425781 L 325.332031 86.347656 L 331.070312 84.097656 L 325.667969 81.28125 L 325.21875 75.089844 " fill-opacity="1" fill-rule="evenodd"/><path fill="#d17609" d="M 315.082031 100.988281 L 312.71875 104.582031 L 308.328125 104.363281 L 311.03125 107.738281 L 309.566406 111.792969 L 313.617188 110.214844 L 317 112.917969 L 316.777344 108.640625 L 320.371094 106.277344 L 316.207031 105.152344 L 315.082031 100.988281 " fill-opacity="1" fill-rule="evenodd"/><path fill="#d17609" d="M 345.035156 107.628906 L 338.949219 110.328125 L 333.433594 106.503906 L 334.222656 113.144531 L 328.820312 117.195312 L 335.347656 118.546875 L 337.601562 124.847656 L 340.863281 118.996094 L 347.625 118.996094 L 343.113281 113.929688 L 345.035156 107.628906 " fill-opacity="1" fill-rule="evenodd"/><path fill="#d17609" d="M 321.390625 132.394531 L 317.113281 134.980469 L 312.71875 132.617188 L 313.851562 137.566406 L 310.242188 140.949219 L 315.195312 141.402344 L 317.339844 145.902344 L 319.253906 141.289062 L 324.207031 140.613281 L 320.492188 137.347656 L 321.390625 132.394531 " fill-opacity="1" fill-rule="evenodd"/><path fill="#d17609" d="M 344.578125 49.199219 L 337.261719 53.699219 L 329.722656 49.648438 L 331.632812 57.980469 L 325.445312 63.835938 L 333.996094 64.621094 L 337.710938 72.277344 L 340.976562 64.394531 L 349.53125 63.269531 L 343.003906 57.640625 L 344.578125 49.199219 " fill-opacity="1" fill-rule="evenodd"/><g fill="#071c29" fill-opacity="1"><g transform="translate(128.731392, 238.393604)"><g><path d="M 12.84375 1.015625 C 8.1875 1.015625 5.226562 0.117188 3.96875 -1.671875 C 2.707031 -3.460938 2.046875 -4.390625 1.984375 -4.453125 C 1.859375 -4.617188 1.796875 -4.78125 1.796875 -4.9375 C 1.796875 -5.039062 1.925781 -5.253906 2.1875 -5.578125 C 2.601562 -6.148438 3.210938 -6.84375 4.015625 -7.65625 C 4.148438 -7.78125 4.28125 -7.84375 4.40625 -7.84375 C 4.570312 -7.84375 4.75 -7.722656 4.9375 -7.484375 C 5.132812 -7.242188 5.296875 -7.054688 5.421875 -6.921875 C 7.328125 -5.015625 9.492188 -4.0625 11.921875 -4.0625 C 13.140625 -4.0625 14.203125 -4.296875 15.109375 -4.765625 C 16.015625 -5.234375 16.46875 -6.113281 16.46875 -7.40625 C 16.46875 -9.632812 14.707031 -12.007812 11.1875 -14.53125 C 10.601562 -14.914062 10.054688 -15.238281 9.546875 -15.5 C 8.191406 -16.238281 7.03125 -16.960938 6.0625 -17.671875 C 5.09375 -18.390625 4.234375 -19.328125 3.484375 -20.484375 C 2.742188 -21.648438 2.375 -23.007812 2.375 -24.5625 C 2.375 -26.5 2.976562 -28.238281 4.1875 -29.78125 C 5.394531 -31.332031 6.847656 -32.546875 8.546875 -33.421875 C 10.242188 -34.296875 11.722656 -34.734375 12.984375 -34.734375 C 16.046875 -34.734375 18.570312 -34.125 20.5625 -32.90625 C 22.550781 -31.695312 24.09375 -30.546875 25.1875 -29.453125 C 25.3125 -29.316406 25.375 -29.171875 25.375 -29.015625 C 25.375 -28.921875 25.332031 -28.800781 25.25 -28.65625 C 25.175781 -28.507812 25.125 -28.40625 25.09375 -28.34375 C 24.925781 -28.113281 24.65625 -27.710938 24.28125 -27.140625 C 23.914062 -26.578125 23.617188 -26.171875 23.390625 -25.921875 C 23.296875 -25.785156 23.191406 -25.644531 23.078125 -25.5 C 22.960938 -25.351562 22.863281 -25.25 22.78125 -25.1875 C 22.707031 -25.125 22.585938 -25.09375 22.421875 -25.09375 C 22.359375 -25.09375 22.207031 -25.195312 21.96875 -25.40625 C 21.726562 -25.613281 21.492188 -25.800781 21.265625 -25.96875 C 19.972656 -27.09375 18.710938 -28.054688 17.484375 -28.859375 C 16.253906 -29.671875 15.078125 -30.078125 13.953125 -30.078125 C 13.046875 -30.078125 12.300781 -29.875 11.71875 -29.46875 C 11.132812 -29.070312 10.84375 -28.160156 10.84375 -26.734375 C 10.84375 -25.347656 11.359375 -24.265625 12.390625 -23.484375 C 13.429688 -22.710938 14.804688 -21.972656 16.515625 -21.265625 C 16.679688 -21.203125 17.625 -20.796875 19.34375 -20.046875 C 21.070312 -19.304688 22.609375 -17.882812 23.953125 -15.78125 C 25.296875 -13.6875 25.96875 -11.1875 25.96875 -8.28125 C 25.96875 -5.1875 24.800781 -2.863281 22.46875 -1.3125 C 20.144531 0.238281 16.9375 1.015625 12.84375 1.015625 Z M 12.84375 1.015625 "/></g></g></g><g fill="#071c29" fill-opacity="1"><g transform="translate(160.68709, 238.393604)"><g><path d="M 7.5625 0.1875 C 6.269531 0.1875 5.300781 -0.00390625 4.65625 -0.390625 C 4.007812 -0.773438 3.585938 -1.3125 3.390625 -2 C 3.191406 -2.695312 3.09375 -3.644531 3.09375 -4.84375 L 3.15625 -7.84375 L 3.390625 -13.5625 L 3.53125 -17.828125 L 3.53125 -24.890625 C 1.988281 -24.890625 1.101562 -25.148438 0.875 -25.671875 C 0.78125 -25.929688 0.734375 -26.207031 0.734375 -26.5 C 0.734375 -26.820312 0.753906 -27.128906 0.796875 -27.421875 C 0.847656 -27.710938 0.875 -27.984375 0.875 -28.234375 C 1.457031 -28.203125 2.34375 -28.1875 3.53125 -28.1875 L 3.578125 -28.390625 L 3.640625 -30.21875 L 3.640625 -32.3125 C 3.597656 -33.082031 3.648438 -33.601562 3.796875 -33.875 C 3.941406 -34.15625 4.160156 -34.296875 4.453125 -34.296875 C 4.617188 -34.296875 4.75 -34.28125 4.84375 -34.25 L 4.9375 -34.25 C 5 -34.25 5.109375 -34.253906 5.265625 -34.265625 C 5.429688 -34.285156 5.582031 -34.265625 5.71875 -34.203125 C 6.363281 -34.097656 6.6875 -33.820312 6.6875 -33.375 C 6.6875 -33.28125 6.65625 -32.910156 6.59375 -32.265625 C 6.425781 -31.128906 6.3125 -29.769531 6.25 -28.1875 L 10.90625 -28.1875 C 11.15625 -28.1875 11.359375 -27.96875 11.515625 -27.53125 C 11.679688 -27.101562 11.765625 -26.644531 11.765625 -26.15625 C 11.765625 -25.507812 11.617188 -25.140625 11.328125 -25.046875 C 10.722656 -24.847656 9.984375 -24.75 9.109375 -24.75 C 8.328125 -24.75 7.359375 -24.816406 6.203125 -24.953125 L 6.203125 -13.46875 L 6.15625 -11.53125 C 6.050781 -10.269531 6 -8.960938 6 -7.609375 L 6 -6.640625 C 6 -5.609375 6.222656 -4.835938 6.671875 -4.328125 C 7.128906 -3.828125 7.734375 -3.578125 8.484375 -3.578125 C 9.191406 -3.578125 9.800781 -3.601562 10.3125 -3.65625 C 10.832031 -3.707031 11.207031 -3.734375 11.4375 -3.734375 C 11.789062 -3.734375 11.96875 -3.101562 11.96875 -1.84375 L 12.15625 -1.0625 C 12.25 -0.84375 12.234375 -0.710938 12.109375 -0.671875 C 11.078125 -0.285156 10.3125 -0.046875 9.8125 0.046875 C 9.3125 0.140625 8.5625 0.1875 7.5625 0.1875 Z M 7.5625 0.1875 "/></g></g></g><g fill="#071c29" fill-opacity="1"><g transform="translate(177.924673, 238.393604)"><g><path d="M 12.59375 1.0625 C 8.332031 1.0625 5.488281 -0.570312 4.0625 -3.84375 C 2.644531 -7.125 1.9375 -10.640625 1.9375 -14.390625 C 1.9375 -18.003906 2.484375 -20.898438 3.578125 -23.078125 C 4.679688 -25.253906 6.015625 -26.78125 7.578125 -27.65625 C 9.148438 -28.53125 10.722656 -28.96875 12.296875 -28.96875 C 15.273438 -28.96875 17.519531 -28.179688 19.03125 -26.609375 C 20.550781 -25.046875 21.519531 -23.191406 21.9375 -21.046875 C 22.363281 -18.898438 22.578125 -16.488281 22.578125 -13.8125 C 22.578125 -11.644531 22.210938 -9.40625 21.484375 -7.09375 C 20.753906 -4.789062 19.640625 -2.851562 18.140625 -1.28125 C 16.640625 0.28125 14.789062 1.0625 12.59375 1.0625 Z M 12.25 -8.328125 C 13.320312 -8.328125 14.109375 -8.828125 14.609375 -9.828125 C 15.109375 -10.828125 15.359375 -12.039062 15.359375 -13.46875 C 15.359375 -15.3125 15.125 -16.609375 14.65625 -17.359375 C 14.1875 -18.117188 13.484375 -18.5 12.546875 -18.5 C 10.546875 -18.5 9.546875 -16.691406 9.546875 -13.078125 C 9.546875 -11.722656 9.722656 -10.59375 10.078125 -9.6875 C 10.429688 -8.78125 11.15625 -8.328125 12.25 -8.328125 Z M 12.25 -8.328125 "/></g></g></g><g fill="#071c29" fill-opacity="1"><g transform="translate(206.491332, 238.393604)"><g><path d="M 9.9375 0.140625 C 9.894531 0.140625 9.640625 0.109375 9.171875 0.046875 C 8.710938 -0.015625 8.09375 -0.046875 7.3125 -0.046875 L 3.578125 0 C 3.097656 0 2.859375 -0.191406 2.859375 -0.578125 C 2.859375 -0.710938 2.863281 -1.148438 2.875 -1.890625 C 2.894531 -2.628906 2.90625 -3.90625 2.90625 -5.71875 C 2.90625 -7.5625 2.960938 -9.335938 3.078125 -11.046875 C 3.191406 -12.753906 3.25 -13.707031 3.25 -13.90625 L 3.53125 -22.671875 L 3.578125 -27.65625 C 3.578125 -28.007812 3.660156 -28.203125 3.828125 -28.234375 C 3.984375 -28.234375 4.335938 -28.21875 4.890625 -28.1875 C 5.441406 -28.15625 6.132812 -28.140625 6.96875 -28.140625 C 7.613281 -28.140625 8.25 -28.15625 8.875 -28.1875 C 9.507812 -28.21875 9.894531 -28.234375 10.03125 -28.234375 C 10.125 -28.234375 10.210938 -28.175781 10.296875 -28.0625 C 10.378906 -27.957031 10.421875 -27.867188 10.421875 -27.796875 L 10.515625 -26.453125 C 11.609375 -27.160156 12.890625 -27.765625 14.359375 -28.265625 C 15.828125 -28.765625 16.953125 -29.015625 17.734375 -29.015625 C 17.921875 -29.015625 18.046875 -29 18.109375 -28.96875 C 18.179688 -28.9375 18.253906 -28.796875 18.328125 -28.546875 C 18.410156 -28.304688 18.484375 -28.109375 18.546875 -27.953125 C 18.867188 -27.140625 19.082031 -26.171875 19.1875 -25.046875 C 19.21875 -24.523438 19.296875 -23.925781 19.421875 -23.25 C 19.484375 -22.957031 19.515625 -22.601562 19.515625 -22.1875 C 19.515625 -21.925781 19.5 -21.78125 19.46875 -21.75 C 19.207031 -21.363281 18.816406 -21.097656 18.296875 -20.953125 C 17.785156 -20.804688 17.03125 -20.664062 16.03125 -20.53125 C 14.769531 -20.40625 13.6875 -20.210938 12.78125 -19.953125 L 10.65625 -19.46875 L 10.703125 -17.53125 C 10.703125 -16.46875 10.71875 -15.921875 10.75 -15.890625 L 10.796875 -11.765625 C 10.867188 -9.640625 10.90625 -6.734375 10.90625 -3.046875 C 10.90625 -1.628906 10.835938 -0.675781 10.703125 -0.1875 C 10.703125 0.03125 10.445312 0.140625 9.9375 0.140625 Z M 9.9375 0.140625 "/></g></g></g><g fill="#071c29" fill-opacity="1"><g transform="translate(230.652242, 238.393604)"><g><path d="M 12.546875 7.796875 C 12.054688 7.828125 11.378906 7.796875 10.515625 7.703125 C 9.867188 7.640625 9.238281 7.609375 8.625 7.609375 C 8.488281 7.609375 8.085938 7.628906 7.421875 7.671875 C 6.765625 7.722656 6.226562 7.75 5.8125 7.75 C 5.457031 7.75 5.265625 7.734375 5.234375 7.703125 C 5.171875 7.671875 5.140625 7.570312 5.140625 7.40625 C 5.140625 7.21875 5.175781 7.023438 5.25 6.828125 C 5.332031 6.640625 5.375 6.523438 5.375 6.484375 L 6.0625 4.609375 C 6.125 4.472656 6.1875 4.289062 6.25 4.0625 C 6.3125 3.84375 6.410156 3.570312 6.546875 3.25 L 7.84375 -1.5 L 4.0625 -14.09375 C 3.550781 -16.03125 2.945312 -18.394531 2.25 -21.1875 C 1.5625 -23.976562 1.035156 -26.117188 0.671875 -27.609375 C 0.609375 -27.804688 0.578125 -27.921875 0.578125 -27.953125 C 0.578125 -28.140625 0.738281 -28.234375 1.0625 -28.234375 C 1.257812 -28.234375 1.476562 -28.21875 1.71875 -28.1875 C 1.957031 -28.15625 2.207031 -28.140625 2.46875 -28.140625 L 4.5 -28.1875 L 7.078125 -28.28125 C 7.585938 -28.320312 7.921875 -28.257812 8.078125 -28.09375 C 8.242188 -27.9375 8.394531 -27.628906 8.53125 -27.171875 C 8.53125 -27.367188 8.945312 -25.5 9.78125 -21.5625 L 10.953125 -14.828125 L 11.578125 -11.140625 L 11.875 -11.140625 L 12.40625 -14.234375 C 12.46875 -14.816406 12.648438 -15.65625 12.953125 -16.75 C 13.265625 -17.851562 13.453125 -18.535156 13.515625 -18.796875 C 13.710938 -19.628906 13.988281 -20.613281 14.34375 -21.75 C 14.4375 -22.132812 14.648438 -22.957031 14.984375 -24.21875 C 15.328125 -25.476562 15.53125 -26.414062 15.59375 -27.03125 C 15.65625 -27.644531 15.773438 -28.023438 15.953125 -28.171875 C 16.140625 -28.316406 16.359375 -28.378906 16.609375 -28.359375 C 16.867188 -28.347656 17.046875 -28.34375 17.140625 -28.34375 C 19.953125 -28.34375 21.726562 -28.304688 22.46875 -28.234375 C 22.988281 -28.171875 23.25 -28.023438 23.25 -27.796875 C 23.25 -27.734375 23.21875 -27.539062 23.15625 -27.21875 C 23.0625 -27.03125 22.921875 -26.707031 22.734375 -26.25 C 22.554688 -25.800781 22.421875 -25.429688 22.328125 -25.140625 C 22.003906 -24.171875 21.84375 -23.6875 21.84375 -23.6875 C 20.71875 -19.394531 19.765625 -16.242188 18.984375 -14.234375 C 18.660156 -13.367188 18.304688 -12.117188 17.921875 -10.484375 C 17.535156 -8.859375 17.296875 -7.816406 17.203125 -7.359375 C 17.003906 -6.390625 16.773438 -5.453125 16.515625 -4.546875 C 16.222656 -3.328125 15.851562 -1.894531 15.40625 -0.25 L 14.34375 3.828125 C 14.238281 4.347656 14.050781 5.039062 13.78125 5.90625 C 13.507812 6.78125 13.359375 7.265625 13.328125 7.359375 C 13.285156 7.648438 13.023438 7.796875 12.546875 7.796875 Z M 12.546875 7.796875 "/></g></g></g><g fill="#071c29" fill-opacity="1"><g transform="translate(258.34744, 238.393604)"><g/></g></g><g fill="#071c29" fill-opacity="1"><g transform="translate(275.004057, 238.393604)"><g><path d="M 14.1875 0.578125 C 12.09375 0.578125 10.082031 -0.203125 8.15625 -1.765625 C 6.238281 -3.335938 4.695312 -5.476562 3.53125 -8.1875 C 2.375 -10.894531 1.796875 -13.878906 1.796875 -17.140625 C 1.796875 -20.367188 2.351562 -23.273438 3.46875 -25.859375 C 4.582031 -28.441406 6.007812 -30.457031 7.75 -31.90625 C 9.488281 -33.363281 11.28125 -34.09375 13.125 -34.09375 C 15.414062 -34.09375 17.265625 -33.617188 18.671875 -32.671875 C 20.078125 -31.722656 21.085938 -30.8125 21.703125 -29.9375 C 21.828125 -29.738281 21.945312 -29.554688 22.0625 -29.390625 C 22.175781 -29.234375 22.234375 -29.078125 22.234375 -28.921875 C 22.234375 -28.722656 22.054688 -28.460938 21.703125 -28.140625 C 20.210938 -26.984375 19.144531 -25.96875 18.5 -25.09375 C 18.175781 -24.675781 17.898438 -24.359375 17.671875 -24.140625 C 17.453125 -23.929688 17.226562 -23.828125 17 -23.828125 C 16.769531 -23.828125 16.515625 -23.988281 16.234375 -24.3125 C 15.546875 -25.0625 15.015625 -25.585938 14.640625 -25.890625 C 14.273438 -26.191406 13.835938 -26.34375 13.328125 -26.34375 C 12.515625 -26.34375 11.710938 -26.003906 10.921875 -25.328125 C 10.128906 -24.648438 9.457031 -23.53125 8.90625 -21.96875 C 8.363281 -20.40625 8.09375 -18.394531 8.09375 -15.9375 C 8.09375 -13.550781 8.4375 -11.65625 9.125 -10.25 C 9.820312 -8.84375 10.613281 -7.863281 11.5 -7.3125 C 12.394531 -6.757812 13.164062 -6.484375 13.8125 -6.484375 C 14.382812 -6.484375 14.976562 -6.6875 15.59375 -7.09375 C 16.207031 -7.5 16.742188 -7.925781 17.203125 -8.375 C 17.265625 -8.445312 17.367188 -8.5625 17.515625 -8.71875 C 17.660156 -8.882812 17.796875 -8.96875 17.921875 -8.96875 C 18.085938 -8.96875 18.28125 -8.898438 18.5 -8.765625 L 22.625 -6.484375 C 22.75 -6.421875 22.945312 -6.332031 23.21875 -6.21875 C 23.5 -6.113281 23.695312 -6.007812 23.8125 -5.90625 C 23.925781 -5.8125 23.984375 -5.679688 23.984375 -5.515625 C 23.984375 -5.359375 23.929688 -5.179688 23.828125 -4.984375 C 23.117188 -3.796875 22.003906 -2.570312 20.484375 -1.3125 C 18.972656 -0.0507812 16.875 0.578125 14.1875 0.578125 Z M 14.1875 0.578125 "/></g></g></g><g fill="#071c29" fill-opacity="1"><g transform="translate(304.00645, 238.393604)"><g><path d="M 9.9375 0.140625 C 9.894531 0.140625 9.640625 0.109375 9.171875 0.046875 C 8.710938 -0.015625 8.09375 -0.046875 7.3125 -0.046875 L 3.578125 0 C 3.097656 0 2.859375 -0.191406 2.859375 -0.578125 C 2.859375 -0.710938 2.863281 -1.148438 2.875 -1.890625 C 2.894531 -2.628906 2.90625 -3.90625 2.90625 -5.71875 C 2.90625 -7.5625 2.960938 -9.335938 3.078125 -11.046875 C 3.191406 -12.753906 3.25 -13.707031 3.25 -13.90625 L 3.53125 -22.671875 L 3.578125 -27.65625 C 3.578125 -28.007812 3.660156 -28.203125 3.828125 -28.234375 C 3.984375 -28.234375 4.335938 -28.21875 4.890625 -28.1875 C 5.441406 -28.15625 6.132812 -28.140625 6.96875 -28.140625 C 7.613281 -28.140625 8.25 -28.15625 8.875 -28.1875 C 9.507812 -28.21875 9.894531 -28.234375 10.03125 -28.234375 C 10.125 -28.234375 10.210938 -28.175781 10.296875 -28.0625 C 10.378906 -27.957031 10.421875 -27.867188 10.421875 -27.796875 L 10.515625 -26.453125 C 11.609375 -27.160156 12.890625 -27.765625 14.359375 -28.265625 C 15.828125 -28.765625 16.953125 -29.015625 17.734375 -29.015625 C 17.921875 -29.015625 18.046875 -29 18.109375 -28.96875 C 18.179688 -28.9375 18.253906 -28.796875 18.328125 -28.546875 C 18.410156 -28.304688 18.484375 -28.109375 18.546875 -27.953125 C 18.867188 -27.140625 19.082031 -26.171875 19.1875 -25.046875 C 19.21875 -24.523438 19.296875 -23.925781 19.421875 -23.25 C 19.484375 -22.957031 19.515625 -22.601562 19.515625 -22.1875 C 19.515625 -21.925781 19.5 -21.78125 19.46875 -21.75 C 19.207031 -21.363281 18.816406 -21.097656 18.296875 -20.953125 C 17.785156 -20.804688 17.03125 -20.664062 16.03125 -20.53125 C 14.769531 -20.40625 13.6875 -20.210938 12.78125 -19.953125 L 10.65625 -19.46875 L 10.703125 -17.53125 C 10.703125 -16.46875 10.71875 -15.921875 10.75 -15.890625 L 10.796875 -11.765625 C 10.867188 -9.640625 10.90625 -6.734375 10.90625 -3.046875 C 10.90625 -1.628906 10.835938 -0.675781 10.703125 -0.1875 C 10.703125 0.03125 10.445312 0.140625 9.9375 0.140625 Z M 9.9375 0.140625 "/></g></g></g><g fill="#071c29" fill-opacity="1"><g transform="translate(328.16737, 238.393604)"><g><path d="M 9.25 0.53125 C 6.894531 0.53125 5.003906 0.0625 3.578125 -0.875 C 2.160156 -1.8125 1.453125 -3.472656 1.453125 -5.859375 C 1.617188 -7.410156 2.765625 -8.554688 4.890625 -9.296875 C 7.023438 -10.046875 9.414062 -10.421875 12.0625 -10.421875 C 12.90625 -10.421875 13.90625 -10.484375 15.0625 -10.609375 C 16.226562 -10.734375 17.296875 -10.796875 18.265625 -10.796875 C 18.128906 -14.285156 17.90625 -17.019531 17.59375 -19 C 17.289062 -20.988281 16.773438 -22.484375 16.046875 -23.484375 C 15.328125 -24.492188 14.304688 -25 12.984375 -25 C 12.015625 -25 11.09375 -24.769531 10.21875 -24.3125 C 9.34375 -23.863281 8.257812 -23.15625 6.96875 -22.1875 C 5.90625 -21.40625 5.375 -21.015625 5.375 -21.015625 C 5.34375 -21.015625 5.238281 -20.957031 5.0625 -20.84375 C 4.882812 -20.738281 4.710938 -20.703125 4.546875 -20.734375 C 4.265625 -20.796875 4.125 -20.941406 4.125 -21.171875 C 3.988281 -21.359375 3.832031 -21.789062 3.65625 -22.46875 C 3.476562 -23.15625 3.390625 -23.640625 3.390625 -23.921875 C 3.390625 -24.117188 3.582031 -24.347656 3.96875 -24.609375 C 5.613281 -25.835938 7.007812 -26.75 8.15625 -27.34375 C 9.300781 -27.9375 10.285156 -28.3125 11.109375 -28.46875 C 11.941406 -28.632812 12.90625 -28.71875 14 -28.71875 C 17.226562 -28.71875 19.398438 -27.675781 20.515625 -25.59375 C 21.628906 -23.507812 22.1875 -20.742188 22.1875 -17.296875 C 22.1875 -16.390625 22.15625 -15.160156 22.09375 -13.609375 C 22.09375 -12.671875 22.023438 -11.300781 21.890625 -9.5 L 21.84375 -8.328125 L 21.890625 -5.46875 C 21.953125 -4.175781 21.984375 -3.191406 21.984375 -2.515625 L 21.9375 -1.0625 C 21.875 -0.320312 21.585938 0.046875 21.078125 0.046875 L 20.6875 0 L 18.703125 0 C 18.566406 0 18.441406 -0.0546875 18.328125 -0.171875 C 18.222656 -0.285156 18.171875 -0.421875 18.171875 -0.578125 L 18.171875 -0.96875 C 16.234375 -0.414062 14.679688 -0.03125 13.515625 0.1875 C 12.347656 0.414062 10.925781 0.53125 9.25 0.53125 Z M 9.296875 -2.234375 C 12.753906 -2.234375 15.710938 -2.8125 18.171875 -3.96875 L 18.3125 -8.484375 C 16.789062 -8.609375 15.484375 -8.671875 14.390625 -8.671875 L 11.53125 -8.625 C 9.976562 -8.625 8.585938 -8.320312 7.359375 -7.71875 C 6.128906 -7.125 5.46875 -6.296875 5.375 -5.234375 C 5.375 -4.066406 5.648438 -3.273438 6.203125 -2.859375 C 6.753906 -2.441406 7.785156 -2.234375 9.296875 -2.234375 Z M 9.296875 -2.234375 "/></g></g></g><g fill="#071c29" fill-opacity="1"><g transform="translate(357.896003, 238.393604)"><g><path d="M 4.703125 0.140625 C 4.117188 0.140625 3.859375 -0.519531 3.921875 -1.84375 L 3.921875 -5.859375 L 3.96875 -8.484375 C 3.96875 -9.453125 3.9375 -10.90625 3.875 -12.84375 L 3.828125 -15.9375 L 3.828125 -17.390625 L 2.859375 -17.390625 C 2.410156 -17.390625 2.113281 -17.4375 1.96875 -17.53125 C 1.820312 -17.632812 1.75 -17.8125 1.75 -18.0625 L 1.703125 -18.703125 C 1.703125 -19.023438 1.789062 -19.238281 1.96875 -19.34375 C 2.144531 -19.457031 2.488281 -19.515625 3 -19.515625 L 3.96875 -19.515625 C 4 -20.097656 4.003906 -20.628906 3.984375 -21.109375 C 3.972656 -21.597656 3.96875 -22.019531 3.96875 -22.375 L 3.96875 -24.125 C 3.96875 -24.832031 3.953125 -25.378906 3.921875 -25.765625 L 3.875 -27.796875 C 3.875 -29.835938 4.066406 -31.359375 4.453125 -32.359375 C 4.910156 -33.617188 5.710938 -34.535156 6.859375 -35.109375 C 8.003906 -35.691406 9.238281 -35.984375 10.5625 -35.984375 C 11.882812 -35.984375 12.941406 -35.898438 13.734375 -35.734375 C 14.523438 -35.578125 15.304688 -35.242188 16.078125 -34.734375 C 16.304688 -34.597656 16.359375 -34.40625 16.234375 -34.15625 C 16.035156 -33.832031 15.875 -33.425781 15.75 -32.9375 L 15.3125 -31.53125 C 15.28125 -31.46875 15.222656 -31.265625 15.140625 -30.921875 C 15.054688 -30.585938 14.953125 -30.421875 14.828125 -30.421875 C 14.597656 -30.421875 14.25 -30.441406 13.78125 -30.484375 C 13.3125 -30.535156 12.785156 -30.5625 12.203125 -30.5625 C 11.691406 -30.5625 11.320312 -30.441406 11.09375 -30.203125 C 10.863281 -29.960938 10.734375 -29.550781 10.703125 -28.96875 L 10.703125 -19.421875 L 12.40625 -19.46875 C 12.757812 -19.5 13.257812 -19.515625 13.90625 -19.515625 C 14.414062 -19.515625 14.757812 -19.453125 14.9375 -19.328125 C 15.113281 -19.203125 15.203125 -18.992188 15.203125 -18.703125 L 15.15625 -18.0625 C 15.15625 -17.8125 15.082031 -17.632812 14.9375 -17.53125 C 14.789062 -17.4375 14.492188 -17.390625 14.046875 -17.390625 C 13.460938 -17.390625 12.992188 -17.40625 12.640625 -17.4375 L 10.703125 -17.484375 C 10.671875 -16.972656 10.65625 -16.410156 10.65625 -15.796875 C 10.625 -15.566406 10.609375 -15.191406 10.609375 -14.671875 C 10.609375 -13.960938 10.59375 -13.445312 10.5625 -13.125 C 10.5625 -12.863281 10.550781 -12.539062 10.53125 -12.15625 C 10.519531 -11.769531 10.53125 -11.316406 10.5625 -10.796875 C 10.53125 -10.117188 10.515625 -9.164062 10.515625 -7.9375 C 10.515625 -5.8125 10.609375 -3.828125 10.796875 -1.984375 C 10.828125 -1.660156 10.84375 -1.289062 10.84375 -0.875 C 10.84375 -0.613281 10.769531 -0.414062 10.625 -0.28125 C 10.488281 -0.15625 10.238281 -0.078125 9.875 -0.046875 C 9.332031 0.015625 8.347656 0.046875 6.921875 0.046875 C 6.566406 0.078125 6.164062 0.09375 5.71875 0.09375 C 5.625 0.125 5.285156 0.140625 4.703125 0.140625 Z M 4.703125 0.140625 "/></g></g></g><g fill="#071c29" fill-opacity="1"><g transform="translate(378.764705, 238.393604)"><g><path d="M 7.5625 0.1875 C 6.269531 0.1875 5.300781 -0.00390625 4.65625 -0.390625 C 4.007812 -0.773438 3.585938 -1.3125 3.390625 -2 C 3.191406 -2.695312 3.09375 -3.644531 3.09375 -4.84375 L 3.15625 -7.84375 L 3.390625 -13.5625 L 3.53125 -17.828125 L 3.53125 -24.890625 C 1.988281 -24.890625 1.101562 -25.148438 0.875 -25.671875 C 0.78125 -25.929688 0.734375 -26.207031 0.734375 -26.5 C 0.734375 -26.820312 0.753906 -27.128906 0.796875 -27.421875 C 0.847656 -27.710938 0.875 -27.984375 0.875 -28.234375 C 1.457031 -28.203125 2.34375 -28.1875 3.53125 -28.1875 L 3.578125 -28.390625 L 3.640625 -30.21875 L 3.640625 -32.3125 C 3.597656 -33.082031 3.648438 -33.601562 3.796875 -33.875 C 3.941406 -34.15625 4.160156 -34.296875 4.453125 -34.296875 C 4.617188 -34.296875 4.75 -34.28125 4.84375 -34.25 L 4.9375 -34.25 C 5 -34.25 5.109375 -34.253906 5.265625 -34.265625 C 5.429688 -34.285156 5.582031 -34.265625 5.71875 -34.203125 C 6.363281 -34.097656 6.6875 -33.820312 6.6875 -33.375 C 6.6875 -33.28125 6.65625 -32.910156 6.59375 -32.265625 C 6.425781 -31.128906 6.3125 -29.769531 6.25 -28.1875 L 10.90625 -28.1875 C 11.15625 -28.1875 11.359375 -27.96875 11.515625 -27.53125 C 11.679688 -27.101562 11.765625 -26.644531 11.765625 -26.15625 C 11.765625 -25.507812 11.617188 -25.140625 11.328125 -25.046875 C 10.722656 -24.847656 9.984375 -24.75 9.109375 -24.75 C 8.328125 -24.75 7.359375 -24.816406 6.203125 -24.953125 L 6.203125 -13.46875 L 6.15625 -11.53125 C 6.050781 -10.269531 6 -8.960938 6 -7.609375 L 6 -6.640625 C 6 -5.609375 6.222656 -4.835938 6.671875 -4.328125 C 7.128906 -3.828125 7.734375 -3.578125 8.484375 -3.578125 C 9.191406 -3.578125 9.800781 -3.601562 10.3125 -3.65625 C 10.832031 -3.707031 11.207031 -3.734375 11.4375 -3.734375 C 11.789062 -3.734375 11.96875 -3.101562 11.96875 -1.84375 L 12.15625 -1.0625 C 12.25 -0.84375 12.234375 -0.710938 12.109375 -0.671875 C 11.078125 -0.285156 10.3125 -0.046875 9.8125 0.046875 C 9.3125 0.140625 8.5625 0.1875 7.5625 0.1875 Z M 7.5625 0.1875 "/></g></g></g><g fill="#071c29" fill-opacity="1"><g transform="translate(396.002296, 238.393604)"><g><path d="M 13.328125 1.0625 C 8.484375 1.0625 5.253906 -0.570312 3.640625 -3.84375 C 2.023438 -7.125 1.21875 -10.640625 1.21875 -14.390625 C 1.21875 -18.003906 1.765625 -20.898438 2.859375 -23.078125 C 3.953125 -25.253906 5.28125 -26.78125 6.84375 -27.65625 C 8.414062 -28.53125 9.992188 -28.96875 11.578125 -28.96875 C 14.546875 -28.96875 16.78125 -28.109375 18.28125 -26.390625 C 19.78125 -24.679688 20.75 -22.6875 21.1875 -20.40625 C 21.625 -18.132812 21.84375 -15.675781 21.84375 -13.03125 C 21.84375 -12.800781 21.679688 -12.65625 21.359375 -12.59375 C 20.296875 -12.59375 17.84375 -12.414062 14 -12.0625 C 13.382812 -12 12.640625 -11.925781 11.765625 -11.84375 C 10.898438 -11.757812 9.929688 -11.6875 8.859375 -11.625 C 9.148438 -8.488281 10.847656 -6.921875 13.953125 -6.921875 C 14.984375 -6.921875 15.78125 -7.019531 16.34375 -7.21875 C 16.914062 -7.414062 17.828125 -7.816406 19.078125 -8.421875 C 19.304688 -8.421875 19.507812 -8.289062 19.6875 -8.03125 C 19.863281 -7.78125 20.113281 -7.25 20.4375 -6.4375 C 20.539062 -6.28125 20.660156 -5.972656 20.796875 -5.515625 C 20.941406 -5.066406 21.082031 -4.726562 21.21875 -4.5 C 21.832031 -2.957031 22.125 -2.148438 22.09375 -2.078125 C 22.019531 -1.953125 21.84375 -1.773438 21.5625 -1.546875 C 20.875 -0.867188 19.78125 -0.265625 18.28125 0.265625 C 16.78125 0.796875 15.128906 1.0625 13.328125 1.0625 Z M 14.484375 -14.921875 C 14.222656 -18.597656 13.332031 -20.4375 11.8125 -20.4375 C 10.914062 -20.4375 10.222656 -19.910156 9.734375 -18.859375 C 9.253906 -17.816406 8.960938 -16.34375 8.859375 -14.4375 Z M 14.484375 -14.921875 "/></g></g></g><g fill="#071c29" fill-opacity="1"><g transform="translate(423.407012, 238.393604)"><g><path d="M 9.9375 0.140625 C 9.894531 0.140625 9.640625 0.109375 9.171875 0.046875 C 8.710938 -0.015625 8.09375 -0.046875 7.3125 -0.046875 L 3.578125 0 C 3.097656 0 2.859375 -0.191406 2.859375 -0.578125 C 2.859375 -0.710938 2.863281 -1.148438 2.875 -1.890625 C 2.894531 -2.628906 2.90625 -3.90625 2.90625 -5.71875 C 2.90625 -7.5625 2.960938 -9.335938 3.078125 -11.046875 C 3.191406 -12.753906 3.25 -13.707031 3.25 -13.90625 L 3.53125 -22.671875 L 3.578125 -27.65625 C 3.578125 -28.007812 3.660156 -28.203125 3.828125 -28.234375 C 3.984375 -28.234375 4.335938 -28.21875 4.890625 -28.1875 C 5.441406 -28.15625 6.132812 -28.140625 6.96875 -28.140625 C 7.613281 -28.140625 8.25 -28.15625 8.875 -28.1875 C 9.507812 -28.21875 9.894531 -28.234375 10.03125 -28.234375 C 10.125 -28.234375 10.210938 -28.175781 10.296875 -28.0625 C 10.378906 -27.957031 10.421875 -27.867188 10.421875 -27.796875 L 10.515625 -26.453125 C 11.609375 -27.160156 12.890625 -27.765625 14.359375 -28.265625 C 15.828125 -28.765625 16.953125 -29.015625 17.734375 -29.015625 C 17.921875 -29.015625 18.046875 -29 18.109375 -28.96875 C 18.179688 -28.9375 18.253906 -28.796875 18.328125 -28.546875 C 18.410156 -28.304688 18.484375 -28.109375 18.546875 -27.953125 C 18.867188 -27.140625 19.082031 -26.171875 19.1875 -25.046875 C 19.21875 -24.523438 19.296875 -23.925781 19.421875 -23.25 C 19.484375 -22.957031 19.515625 -22.601562 19.515625 -22.1875 C 19.515625 -21.925781 19.5 -21.78125 19.46875 -21.75 C 19.207031 -21.363281 18.816406 -21.097656 18.296875 -20.953125 C 17.785156 -20.804688 17.03125 -20.664062 16.03125 -20.53125 C 14.769531 -20.40625 13.6875 -20.210938 12.78125 -19.953125 L 10.65625 -19.46875 L 10.703125 -17.53125 C 10.703125 -16.46875 10.71875 -15.921875 10.75 -15.890625 L 10.796875 -11.765625 C 10.867188 -9.640625 10.90625 -6.734375 10.90625 -3.046875 C 10.90625 -1.628906 10.835938 -0.675781 10.703125 -0.1875 C 10.703125 0.03125 10.445312 0.140625 9.9375 0.140625 Z M 9.9375 0.140625 "/></g></g></g><g fill="#071c29" fill-opacity="1"><g transform="translate(447.567932, 238.393604)"><g><path d="M 11 0.828125 C 9.03125 0.828125 7.398438 0.582031 6.109375 0.09375 C 4.816406 -0.382812 4.03125 -0.742188 3.75 -0.984375 C 3.476562 -1.234375 2.875 -1.828125 1.9375 -2.765625 C 1.738281 -2.953125 1.691406 -3.082031 1.796875 -3.15625 C 1.859375 -3.3125 1.96875 -3.488281 2.125 -3.6875 L 2.765625 -4.453125 C 2.921875 -4.679688 3.210938 -5.054688 3.640625 -5.578125 C 3.734375 -5.671875 3.84375 -5.71875 3.96875 -5.71875 C 4.101562 -5.71875 4.28125 -5.644531 4.5 -5.5 C 4.726562 -5.351562 4.925781 -5.195312 5.09375 -5.03125 C 5.125 -5 5.304688 -4.847656 5.640625 -4.578125 C 5.984375 -4.304688 6.476562 -4.0625 7.125 -3.84375 C 7.769531 -3.632812 8.476562 -3.53125 9.25 -3.53125 C 10.28125 -3.53125 11.164062 -3.734375 11.90625 -4.140625 C 12.65625 -4.546875 13.03125 -5.394531 13.03125 -6.6875 C 13.03125 -7.71875 12.8125 -8.585938 12.375 -9.296875 C 11.9375 -10.003906 11.394531 -10.59375 10.75 -11.0625 C 10.101562 -11.53125 9.21875 -12.070312 8.09375 -12.6875 C 6.832031 -13.394531 5.8125 -14.03125 5.03125 -14.59375 C 4.257812 -15.164062 3.609375 -15.9375 3.078125 -16.90625 C 2.546875 -17.875 2.28125 -19.066406 2.28125 -20.484375 C 2.28125 -22.171875 2.726562 -23.660156 3.625 -24.953125 C 4.53125 -26.242188 5.765625 -27.234375 7.328125 -27.921875 C 8.898438 -28.617188 10.640625 -28.96875 12.546875 -28.96875 C 15.578125 -28.96875 17.875 -28.328125 19.4375 -27.046875 C 21.007812 -25.773438 21.828125 -25.125 21.890625 -25.09375 C 22.023438 -25 22.09375 -24.882812 22.09375 -24.75 C 22.09375 -24.65625 22.054688 -24.554688 21.984375 -24.453125 C 21.921875 -24.359375 21.875 -24.265625 21.84375 -24.171875 C 21.71875 -23.972656 21.5 -23.628906 21.1875 -23.140625 C 20.882812 -22.660156 20.632812 -22.328125 20.4375 -22.140625 C 20.375 -22.035156 20.289062 -21.910156 20.1875 -21.765625 C 20.09375 -21.628906 20.003906 -21.539062 19.921875 -21.5 C 19.847656 -21.46875 19.75 -21.453125 19.625 -21.453125 C 19.488281 -21.523438 19.03125 -21.875 18.25 -22.5 C 17.476562 -23.125 16.613281 -23.710938 15.65625 -24.265625 C 14.707031 -24.816406 13.894531 -25.09375 13.21875 -25.09375 C 12.507812 -25.09375 12.007812 -24.859375 11.71875 -24.390625 C 11.425781 -23.921875 11.28125 -23.140625 11.28125 -22.046875 C 11.28125 -21.234375 11.472656 -20.550781 11.859375 -20 C 12.253906 -19.457031 12.628906 -19.070312 12.984375 -18.84375 C 13.335938 -18.613281 14.015625 -18.242188 15.015625 -17.734375 C 16.210938 -17.242188 17.253906 -16.738281 18.140625 -16.21875 C 19.023438 -15.707031 19.878906 -14.804688 20.703125 -13.515625 C 21.523438 -12.222656 21.9375 -10.507812 21.9375 -8.375 C 21.9375 -2.238281 18.289062 0.828125 11 0.828125 Z M 11 0.828125 "/></g></g></g></svg>