<svg xmlns="http://www.w3.org/2000/svg" xmlns:xlink="http://www.w3.org/1999/xlink" width="500" zoomAndPan="magnify" viewBox="0 0 375 374.999991" height="500" preserveAspectRatio="xMidYMid meet" version="1.0"><defs><g/><clipPath id="8fe3a45963"><path d="M 112.5 180 L 188 180 L 188 224 L 112.5 224 Z M 112.5 180 " clip-rule="nonzero"/></clipPath><clipPath id="c4bdd7f223"><path d="M 181.5 180.949219 L 262.5 180.949219 L 262.5 225.9375 L 181.5 225.9375 Z M 181.5 180.949219 " clip-rule="nonzero"/></clipPath><clipPath id="af9fb49aaf"><path d="M 212 132.949219 L 235 132.949219 L 235 154 L 212 154 Z M 212 132.949219 " clip-rule="nonzero"/></clipPath></defs><g clip-path="url(#8fe3a45963)"><path fill="#10778a" d="M 187.5 223.785156 L 112.5 223.785156 L 133.46875 180.964844 L 187.5 180.964844 L 187.5 223.785156 " fill-opacity="1" fill-rule="evenodd"/></g><g clip-path="url(#c4bdd7f223)"><path fill="#10778a" d="M 192.058594 223.785156 L 262.5 223.785156 L 241.535156 180.964844 L 187.5 180.964844 L 187.5 214.15625 C 184.207031 214.15625 181.609375 216.820312 181.609375 220.050781 C 181.609375 223.34375 184.207031 225.9375 187.5 225.9375 C 189.335938 225.9375 190.984375 225.117188 192.058594 223.785156 " fill-opacity="1" fill-rule="evenodd"/></g><path fill="#d1aa72" d="M 187.5 223.785156 C 166.535156 219.097656 143.855469 218.277344 122.574219 220.808594 C 127.828125 207.949219 133.085938 195.089844 138.34375 182.230469 C 142.84375 182.550781 150.632812 182.042969 155.128906 182.359375 C 163.875 187.617188 170.839844 194.203125 179.582031 199.527344 C 182.179688 207.632812 184.839844 215.675781 187.5 223.785156 " fill-opacity="1" fill-rule="evenodd"/><path fill="#d1aa72" d="M 187.5 223.785156 C 208.464844 219.097656 231.144531 218.277344 252.363281 220.808594 C 247.105469 207.949219 241.851562 195.089844 236.59375 182.230469 C 232.15625 182.550781 224.304688 182.042969 219.808594 182.359375 C 211.125 187.617188 204.160156 194.203125 195.417969 199.527344 C 192.757812 207.632812 190.160156 215.675781 187.5 223.785156 " fill-opacity="1" fill-rule="evenodd"/><path fill="#ffbc66" d="M 187.5 223.785156 C 171.410156 209.597656 145.441406 207.503906 126.753906 217.640625 C 132.769531 203.453125 138.789062 189.324219 144.804688 175.199219 C 160.007812 172.347656 174.261719 173.996094 187.5 180.964844 L 187.5 223.785156 " fill-opacity="1" fill-rule="evenodd"/><path fill="#ffbc66" d="M 187.5 223.785156 C 203.589844 209.597656 229.496094 207.503906 248.246094 217.640625 C 242.230469 203.453125 236.214844 189.324219 230.191406 175.199219 C 214.992188 172.347656 200.675781 173.996094 187.5 180.964844 L 187.5 223.785156 " fill-opacity="1" fill-rule="evenodd"/><path fill="#fbeab4" d="M 187.5 223.785156 C 176.160156 207.1875 157.851562 199.964844 137.898438 207.316406 C 142.714844 193.886719 147.59375 180.457031 152.40625 167.09375 C 165.898438 164.9375 181.101562 167.09375 187.5 180.964844 C 193.898438 167.09375 209.101562 164.9375 222.59375 167.09375 C 227.40625 180.457031 232.21875 193.886719 237.035156 207.316406 C 217.082031 199.964844 198.839844 207.1875 187.5 223.785156 " fill-opacity="1" fill-rule="evenodd"/><path fill="#d1aa72" d="M 187.5 223.785156 C 187.183594 223.34375 186.804688 222.835938 186.488281 222.328125 L 186.488281 179.003906 C 186.804688 179.632812 187.183594 180.269531 187.5 180.964844 C 187.816406 180.269531 188.132812 179.632812 188.511719 179.003906 L 188.511719 222.328125 C 188.195312 222.835938 187.816406 223.34375 187.5 223.785156 " fill-opacity="1" fill-rule="evenodd"/><path fill="#d17609" d="M 142.527344 133.074219 L 148.351562 136.558594 L 154.308594 133.390625 L 152.785156 139.980469 L 157.664062 144.667969 L 150.949219 145.238281 L 147.972656 151.320312 L 145.375 145.113281 L 138.660156 144.160156 L 143.730469 139.726562 Z M 115.730469 161.136719 L 123.207031 161.203125 L 127.070312 154.804688 L 129.285156 161.898438 L 136.570312 163.609375 L 130.488281 167.980469 L 131.125 175.390625 L 125.105469 170.957031 L 118.265625 173.867188 L 120.609375 166.777344 Z M 142.335938 170.195312 L 146.769531 171.210938 L 149.9375 167.851562 L 150.378906 172.414062 L 154.558594 174.375 L 150.316406 176.210938 L 149.746094 180.777344 L 146.707031 177.289062 L 142.207031 178.175781 L 144.550781 174.1875 Z M 171.03125 164.621094 L 173.5 167.027344 L 176.855469 166.207031 L 175.273438 169.308594 L 177.171875 172.222656 L 173.691406 171.652344 L 171.535156 174.375 L 170.964844 170.957031 L 167.738281 169.6875 L 170.777344 168.105469 Z M 176.734375 179.191406 L 178.058594 181.214844 L 180.535156 181.09375 L 179.011719 182.992188 L 179.835938 185.273438 L 177.554688 184.386719 L 175.652344 185.90625 L 175.78125 183.5 L 173.753906 182.167969 L 176.097656 181.535156 Z M 159.878906 182.929688 L 163.304688 184.449219 L 166.40625 182.296875 L 165.964844 186.03125 L 169.003906 188.3125 L 165.328125 189.074219 L 164.125 192.617188 L 162.226562 189.324219 L 158.421875 189.324219 L 160.960938 186.476562 Z M 173.183594 196.867188 L 175.589844 198.320312 L 178.058594 196.988281 L 177.429688 199.777344 L 179.457031 201.679688 L 176.667969 201.933594 L 175.464844 204.464844 L 174.386719 201.867188 L 171.601562 201.488281 L 173.691406 199.652344 Z M 160.136719 150.050781 L 164.253906 152.585938 L 168.496094 150.304688 L 167.421875 154.992188 L 170.902344 158.289062 L 166.089844 158.730469 L 164 163.039062 L 162.160156 158.605469 L 157.410156 157.96875 L 161.023438 154.804688 L 160.136719 150.050781 " fill-opacity="1" fill-rule="evenodd"/><g clip-path="url(#af9fb49aaf)"><path fill="#d17609" d="M 230.191406 132.949219 L 223.542969 136.941406 L 216.636719 133.265625 L 218.410156 140.867188 L 212.773438 146.25 L 220.566406 146.886719 L 223.921875 153.917969 L 226.964844 146.757812 L 234.691406 145.679688 L 228.800781 140.613281 L 230.191406 132.949219 " fill-opacity="1" fill-rule="evenodd"/></g><path fill="#d17609" d="M 256.988281 161.136719 L 249.511719 161.203125 L 245.648438 154.804688 L 243.433594 161.898438 L 236.148438 163.609375 L 242.230469 167.980469 L 241.597656 175.390625 L 247.613281 170.957031 L 254.453125 173.867188 L 252.113281 166.777344 L 256.988281 161.136719 " fill-opacity="1" fill-rule="evenodd"/><path fill="#d17609" d="M 234.121094 166.964844 L 228.101562 168.359375 L 223.921875 163.859375 L 223.351562 169.941406 L 217.78125 172.601562 L 223.417969 175.007812 L 224.175781 181.15625 L 228.230469 176.527344 L 234.3125 177.667969 L 231.144531 172.414062 L 234.121094 166.964844 " fill-opacity="1" fill-rule="evenodd"/><path fill="#d17609" d="M 201.691406 164.621094 L 199.21875 167.027344 L 195.863281 166.207031 L 197.445312 169.308594 L 195.542969 172.222656 L 199.03125 171.652344 L 201.183594 174.375 L 201.753906 170.957031 L 204.984375 169.6875 L 201.941406 168.105469 L 201.691406 164.621094 " fill-opacity="1" fill-rule="evenodd"/><path fill="#d17609" d="M 195.988281 179.191406 L 194.65625 181.214844 L 192.1875 181.09375 L 193.707031 182.992188 L 192.882812 185.273438 L 195.164062 184.386719 L 197.066406 185.90625 L 196.941406 183.5 L 198.964844 182.167969 L 196.621094 181.535156 L 195.988281 179.191406 " fill-opacity="1" fill-rule="evenodd"/><path fill="#d17609" d="M 212.839844 182.929688 L 209.417969 184.449219 L 206.3125 182.296875 L 206.757812 186.03125 L 203.714844 188.3125 L 207.390625 189.074219 L 208.65625 192.617188 L 210.492188 189.324219 L 214.296875 189.324219 L 211.761719 186.476562 L 212.839844 182.929688 " fill-opacity="1" fill-rule="evenodd"/><path fill="#d17609" d="M 199.535156 196.867188 L 197.128906 198.320312 L 194.65625 196.988281 L 195.292969 199.777344 L 193.261719 201.679688 L 196.050781 201.933594 L 197.257812 204.464844 L 198.332031 201.867188 L 201.121094 201.488281 L 199.03125 199.652344 L 199.535156 196.867188 " fill-opacity="1" fill-rule="evenodd"/><path fill="#d17609" d="M 212.582031 150.050781 L 208.464844 152.585938 L 204.222656 150.304688 L 205.300781 154.992188 L 201.816406 158.289062 L 206.628906 158.730469 L 208.71875 163.039062 L 210.558594 158.605469 L 215.371094 157.96875 L 211.695312 154.804688 L 212.582031 150.050781 " fill-opacity="1" fill-rule="evenodd"/><g fill="#071c29" fill-opacity="1"><g transform="translate(93.106469, 250.279481)"><g><path d="M 7.078125 0.5625 C 4.515625 0.5625 2.882812 0.0664062 2.1875 -0.921875 C 1.488281 -1.910156 1.125 -2.421875 1.09375 -2.453125 C 1.019531 -2.546875 0.984375 -2.632812 0.984375 -2.71875 C 0.984375 -2.769531 1.054688 -2.882812 1.203125 -3.0625 C 1.429688 -3.382812 1.769531 -3.769531 2.21875 -4.21875 C 2.289062 -4.289062 2.359375 -4.328125 2.421875 -4.328125 C 2.515625 -4.328125 2.613281 -4.257812 2.71875 -4.125 C 2.820312 -3.988281 2.910156 -3.882812 2.984375 -3.8125 C 4.035156 -2.757812 5.226562 -2.234375 6.5625 -2.234375 C 7.238281 -2.234375 7.828125 -2.363281 8.328125 -2.625 C 8.828125 -2.882812 9.078125 -3.367188 9.078125 -4.078125 C 9.078125 -5.304688 8.109375 -6.613281 6.171875 -8 C 5.847656 -8.21875 5.539062 -8.398438 5.25 -8.546875 C 4.507812 -8.953125 3.867188 -9.347656 3.328125 -9.734375 C 2.796875 -10.128906 2.328125 -10.644531 1.921875 -11.28125 C 1.515625 -11.925781 1.3125 -12.675781 1.3125 -13.53125 C 1.3125 -14.59375 1.644531 -15.550781 2.3125 -16.40625 C 2.976562 -17.257812 3.773438 -17.925781 4.703125 -18.40625 C 5.640625 -18.894531 6.457031 -19.140625 7.15625 -19.140625 C 8.84375 -19.140625 10.234375 -18.804688 11.328125 -18.140625 C 12.421875 -17.472656 13.269531 -16.832031 13.875 -16.21875 C 13.945312 -16.15625 13.984375 -16.078125 13.984375 -15.984375 C 13.984375 -15.929688 13.957031 -15.863281 13.90625 -15.78125 C 13.863281 -15.707031 13.835938 -15.648438 13.828125 -15.609375 C 13.734375 -15.484375 13.582031 -15.265625 13.375 -14.953125 C 13.175781 -14.640625 13.015625 -14.414062 12.890625 -14.28125 C 12.835938 -14.207031 12.78125 -14.128906 12.71875 -14.046875 C 12.65625 -13.972656 12.597656 -13.914062 12.546875 -13.875 C 12.503906 -13.84375 12.441406 -13.828125 12.359375 -13.828125 C 12.316406 -13.828125 12.226562 -13.882812 12.09375 -14 C 11.96875 -14.113281 11.84375 -14.210938 11.71875 -14.296875 C 11 -14.921875 10.300781 -15.457031 9.625 -15.90625 C 8.957031 -16.351562 8.3125 -16.578125 7.6875 -16.578125 C 7.1875 -16.578125 6.773438 -16.460938 6.453125 -16.234375 C 6.140625 -16.015625 5.984375 -15.515625 5.984375 -14.734375 C 5.984375 -13.960938 6.265625 -13.363281 6.828125 -12.9375 C 7.398438 -12.507812 8.15625 -12.101562 9.09375 -11.71875 C 9.1875 -11.675781 9.707031 -11.453125 10.65625 -11.046875 C 11.613281 -10.640625 12.457031 -9.859375 13.1875 -8.703125 C 13.925781 -7.546875 14.296875 -6.164062 14.296875 -4.5625 C 14.296875 -2.851562 13.65625 -1.570312 12.375 -0.71875 C 11.101562 0.132812 9.335938 0.5625 7.078125 0.5625 Z M 7.078125 0.5625 "/></g></g></g><g fill="#071c29" fill-opacity="1"><g transform="translate(110.718634, 250.279481)"><g><path d="M 4.15625 0.109375 C 3.445312 0.109375 2.914062 0.00390625 2.5625 -0.203125 C 2.207031 -0.421875 1.972656 -0.722656 1.859375 -1.109375 C 1.753906 -1.492188 1.703125 -2.015625 1.703125 -2.671875 L 1.734375 -4.328125 L 1.875 -7.46875 L 1.953125 -9.828125 L 1.953125 -13.71875 C 1.097656 -13.71875 0.609375 -13.859375 0.484375 -14.140625 C 0.429688 -14.285156 0.40625 -14.4375 0.40625 -14.59375 C 0.40625 -14.769531 0.414062 -14.9375 0.4375 -15.09375 C 0.46875 -15.257812 0.484375 -15.414062 0.484375 -15.5625 C 0.796875 -15.539062 1.285156 -15.53125 1.953125 -15.53125 L 1.96875 -15.640625 L 2 -16.65625 L 2 -17.796875 C 1.976562 -18.222656 2.007812 -18.507812 2.09375 -18.65625 C 2.175781 -18.8125 2.296875 -18.890625 2.453125 -18.890625 C 2.546875 -18.890625 2.617188 -18.882812 2.671875 -18.875 L 2.71875 -18.875 C 2.757812 -18.875 2.820312 -18.875 2.90625 -18.875 C 3 -18.882812 3.082031 -18.875 3.15625 -18.84375 C 3.507812 -18.789062 3.6875 -18.640625 3.6875 -18.390625 C 3.6875 -18.335938 3.664062 -18.132812 3.625 -17.78125 C 3.539062 -17.15625 3.476562 -16.40625 3.4375 -15.53125 L 6 -15.53125 C 6.144531 -15.53125 6.257812 -15.410156 6.34375 -15.171875 C 6.4375 -14.929688 6.484375 -14.675781 6.484375 -14.40625 C 6.484375 -14.050781 6.40625 -13.847656 6.25 -13.796875 C 5.90625 -13.691406 5.492188 -13.640625 5.015625 -13.640625 C 4.585938 -13.640625 4.054688 -13.675781 3.421875 -13.75 L 3.421875 -7.421875 L 3.390625 -6.359375 C 3.335938 -5.660156 3.3125 -4.9375 3.3125 -4.1875 L 3.3125 -3.65625 C 3.3125 -3.082031 3.4375 -2.65625 3.6875 -2.375 C 3.9375 -2.101562 4.265625 -1.96875 4.671875 -1.96875 C 5.054688 -1.96875 5.390625 -1.984375 5.671875 -2.015625 C 5.960938 -2.046875 6.171875 -2.0625 6.296875 -2.0625 C 6.492188 -2.0625 6.59375 -1.710938 6.59375 -1.015625 L 6.703125 -0.59375 C 6.753906 -0.46875 6.742188 -0.394531 6.671875 -0.375 C 6.097656 -0.15625 5.671875 -0.0195312 5.390625 0.03125 C 5.117188 0.0820312 4.707031 0.109375 4.15625 0.109375 Z M 4.15625 0.109375 "/></g></g></g><g fill="#071c29" fill-opacity="1"><g transform="translate(120.219011, 250.279481)"><g><path d="M 6.9375 0.59375 C 4.59375 0.59375 3.023438 -0.304688 2.234375 -2.109375 C 1.453125 -3.921875 1.0625 -5.859375 1.0625 -7.921875 C 1.0625 -9.921875 1.363281 -11.519531 1.96875 -12.71875 C 2.570312 -13.914062 3.304688 -14.753906 4.171875 -15.234375 C 5.035156 -15.710938 5.90625 -15.953125 6.78125 -15.953125 C 8.414062 -15.953125 9.648438 -15.519531 10.484375 -14.65625 C 11.328125 -13.800781 11.863281 -12.78125 12.09375 -11.59375 C 12.320312 -10.414062 12.4375 -9.085938 12.4375 -7.609375 C 12.4375 -6.410156 12.234375 -5.175781 11.828125 -3.90625 C 11.429688 -2.632812 10.816406 -1.566406 9.984375 -0.703125 C 9.160156 0.160156 8.144531 0.59375 6.9375 0.59375 Z M 6.75 -4.59375 C 7.332031 -4.59375 7.757812 -4.867188 8.03125 -5.421875 C 8.3125 -5.972656 8.453125 -6.640625 8.453125 -7.421875 C 8.453125 -8.429688 8.320312 -9.144531 8.0625 -9.5625 C 7.8125 -9.976562 7.425781 -10.1875 6.90625 -10.1875 C 5.800781 -10.1875 5.25 -9.191406 5.25 -7.203125 C 5.25 -6.453125 5.347656 -5.828125 5.546875 -5.328125 C 5.742188 -4.835938 6.144531 -4.59375 6.75 -4.59375 Z M 6.75 -4.59375 "/></g></g></g><g fill="#071c29" fill-opacity="1"><g transform="translate(135.963331, 250.279481)"><g><path d="M 5.46875 0.078125 C 5.445312 0.078125 5.304688 0.0546875 5.046875 0.015625 C 4.796875 -0.015625 4.457031 -0.03125 4.03125 -0.03125 L 1.96875 0 C 1.707031 0 1.578125 -0.101562 1.578125 -0.3125 C 1.578125 -0.382812 1.578125 -0.625 1.578125 -1.03125 C 1.585938 -1.445312 1.59375 -2.15625 1.59375 -3.15625 C 1.59375 -4.164062 1.625 -5.140625 1.6875 -6.078125 C 1.75 -7.023438 1.78125 -7.550781 1.78125 -7.65625 L 1.953125 -12.484375 L 1.96875 -15.234375 C 1.96875 -15.429688 2.015625 -15.539062 2.109375 -15.5625 C 2.191406 -15.5625 2.382812 -15.550781 2.6875 -15.53125 C 3 -15.507812 3.382812 -15.5 3.84375 -15.5 C 4.195312 -15.5 4.546875 -15.507812 4.890625 -15.53125 C 5.242188 -15.550781 5.457031 -15.5625 5.53125 -15.5625 C 5.582031 -15.5625 5.628906 -15.53125 5.671875 -15.46875 C 5.710938 -15.40625 5.734375 -15.351562 5.734375 -15.3125 L 5.796875 -14.578125 C 6.398438 -14.960938 7.101562 -15.289062 7.90625 -15.5625 C 8.71875 -15.84375 9.335938 -15.984375 9.765625 -15.984375 C 9.867188 -15.984375 9.941406 -15.972656 9.984375 -15.953125 C 10.015625 -15.941406 10.050781 -15.867188 10.09375 -15.734375 C 10.144531 -15.597656 10.1875 -15.488281 10.21875 -15.40625 C 10.394531 -14.957031 10.507812 -14.421875 10.5625 -13.796875 C 10.582031 -13.515625 10.628906 -13.1875 10.703125 -12.8125 C 10.734375 -12.644531 10.75 -12.445312 10.75 -12.21875 C 10.75 -12.082031 10.742188 -12.003906 10.734375 -11.984375 C 10.585938 -11.765625 10.367188 -11.613281 10.078125 -11.53125 C 9.796875 -11.457031 9.378906 -11.382812 8.828125 -11.3125 C 8.140625 -11.238281 7.546875 -11.132812 7.046875 -11 L 5.875 -10.734375 L 5.890625 -9.65625 C 5.890625 -9.070312 5.898438 -8.769531 5.921875 -8.75 L 5.953125 -6.484375 C 5.984375 -5.304688 6 -3.707031 6 -1.6875 C 6 -0.894531 5.960938 -0.367188 5.890625 -0.109375 C 5.890625 0.015625 5.75 0.078125 5.46875 0.078125 Z M 5.46875 0.078125 "/></g></g></g><g fill="#071c29" fill-opacity="1"><g transform="translate(149.279452, 250.279481)"><g><path d="M 6.90625 4.296875 C 6.644531 4.316406 6.273438 4.300781 5.796875 4.25 C 5.429688 4.207031 5.082031 4.1875 4.75 4.1875 C 4.675781 4.1875 4.457031 4.195312 4.09375 4.21875 C 3.726562 4.25 3.429688 4.265625 3.203125 4.265625 C 3.003906 4.265625 2.894531 4.257812 2.875 4.25 C 2.84375 4.226562 2.828125 4.171875 2.828125 4.078125 C 2.828125 3.972656 2.847656 3.867188 2.890625 3.765625 C 2.941406 3.660156 2.96875 3.597656 2.96875 3.578125 L 3.328125 2.53125 C 3.367188 2.457031 3.40625 2.359375 3.4375 2.234375 C 3.476562 2.117188 3.535156 1.96875 3.609375 1.78125 L 4.328125 -0.828125 L 2.234375 -7.765625 C 1.953125 -8.835938 1.617188 -10.140625 1.234375 -11.671875 C 0.859375 -13.210938 0.570312 -14.394531 0.375 -15.21875 C 0.332031 -15.320312 0.3125 -15.382812 0.3125 -15.40625 C 0.3125 -15.507812 0.40625 -15.5625 0.59375 -15.5625 C 0.695312 -15.5625 0.8125 -15.550781 0.9375 -15.53125 C 1.070312 -15.507812 1.210938 -15.5 1.359375 -15.5 L 2.484375 -15.53125 L 3.890625 -15.578125 C 4.179688 -15.597656 4.367188 -15.5625 4.453125 -15.46875 C 4.546875 -15.382812 4.628906 -15.21875 4.703125 -14.96875 C 4.703125 -15.070312 4.929688 -14.039062 5.390625 -11.875 L 6.03125 -8.171875 L 6.375 -6.140625 L 6.53125 -6.140625 L 6.828125 -7.84375 C 6.867188 -8.164062 6.972656 -8.628906 7.140625 -9.234375 C 7.304688 -9.835938 7.410156 -10.210938 7.453125 -10.359375 C 7.554688 -10.816406 7.707031 -11.359375 7.90625 -11.984375 C 7.957031 -12.191406 8.078125 -12.644531 8.265625 -13.34375 C 8.453125 -14.039062 8.5625 -14.554688 8.59375 -14.890625 C 8.625 -15.234375 8.6875 -15.441406 8.78125 -15.515625 C 8.882812 -15.597656 9.007812 -15.632812 9.15625 -15.625 C 9.300781 -15.613281 9.398438 -15.609375 9.453125 -15.609375 C 10.992188 -15.609375 11.972656 -15.59375 12.390625 -15.5625 C 12.671875 -15.519531 12.8125 -15.4375 12.8125 -15.3125 C 12.8125 -15.28125 12.789062 -15.175781 12.75 -15 C 12.695312 -14.894531 12.625 -14.71875 12.53125 -14.46875 C 12.4375 -14.21875 12.359375 -14.007812 12.296875 -13.84375 C 12.117188 -13.3125 12.03125 -13.046875 12.03125 -13.046875 C 11.414062 -10.679688 10.894531 -8.945312 10.46875 -7.84375 C 10.28125 -7.363281 10.078125 -6.675781 9.859375 -5.78125 C 9.648438 -4.882812 9.519531 -4.3125 9.46875 -4.0625 C 9.363281 -3.519531 9.238281 -3.003906 9.09375 -2.515625 C 8.9375 -1.835938 8.734375 -1.046875 8.484375 -0.140625 L 7.90625 2.109375 C 7.84375 2.390625 7.734375 2.769531 7.578125 3.25 C 7.429688 3.726562 7.351562 4 7.34375 4.0625 C 7.320312 4.21875 7.175781 4.296875 6.90625 4.296875 Z M 6.90625 4.296875 "/></g></g></g><g fill="#071c29" fill-opacity="1"><g transform="translate(164.543472, 250.279481)"><g/></g></g><g fill="#071c29" fill-opacity="1"><g transform="translate(173.723653, 250.279481)"><g><path d="M 7.8125 0.3125 C 6.65625 0.3125 5.546875 -0.113281 4.484375 -0.96875 C 3.429688 -1.832031 2.582031 -3.007812 1.9375 -4.5 C 1.300781 -6 0.984375 -7.648438 0.984375 -9.453125 C 0.984375 -11.222656 1.289062 -12.820312 1.90625 -14.25 C 2.519531 -15.675781 3.304688 -16.785156 4.265625 -17.578125 C 5.234375 -18.378906 6.222656 -18.78125 7.234375 -18.78125 C 8.492188 -18.78125 9.507812 -18.519531 10.28125 -18 C 11.0625 -17.476562 11.617188 -16.976562 11.953125 -16.5 C 12.023438 -16.382812 12.09375 -16.28125 12.15625 -16.1875 C 12.21875 -16.101562 12.25 -16.019531 12.25 -15.9375 C 12.25 -15.820312 12.148438 -15.675781 11.953125 -15.5 C 11.140625 -14.863281 10.550781 -14.304688 10.1875 -13.828125 C 10.007812 -13.597656 9.859375 -13.421875 9.734375 -13.296875 C 9.609375 -13.179688 9.488281 -13.125 9.375 -13.125 C 9.25 -13.125 9.101562 -13.210938 8.9375 -13.390625 C 8.5625 -13.804688 8.269531 -14.097656 8.0625 -14.265625 C 7.863281 -14.429688 7.625 -14.515625 7.34375 -14.515625 C 6.894531 -14.515625 6.453125 -14.328125 6.015625 -13.953125 C 5.578125 -13.578125 5.207031 -12.957031 4.90625 -12.09375 C 4.601562 -11.238281 4.453125 -10.132812 4.453125 -8.78125 C 4.453125 -7.46875 4.644531 -6.421875 5.03125 -5.640625 C 5.414062 -4.867188 5.851562 -4.332031 6.34375 -4.03125 C 6.832031 -3.726562 7.253906 -3.578125 7.609375 -3.578125 C 7.929688 -3.578125 8.257812 -3.6875 8.59375 -3.90625 C 8.925781 -4.132812 9.21875 -4.367188 9.46875 -4.609375 C 9.507812 -4.648438 9.566406 -4.710938 9.640625 -4.796875 C 9.722656 -4.890625 9.800781 -4.9375 9.875 -4.9375 C 9.957031 -4.9375 10.0625 -4.898438 10.1875 -4.828125 L 12.46875 -3.578125 C 12.53125 -3.535156 12.640625 -3.484375 12.796875 -3.421875 C 12.953125 -3.359375 13.054688 -3.300781 13.109375 -3.25 C 13.171875 -3.195312 13.203125 -3.128906 13.203125 -3.046875 C 13.203125 -2.953125 13.175781 -2.851562 13.125 -2.75 C 12.738281 -2.09375 12.125 -1.414062 11.28125 -0.71875 C 10.445312 -0.03125 9.289062 0.3125 7.8125 0.3125 Z M 7.8125 0.3125 "/></g></g></g><g fill="#071c29" fill-opacity="1"><g transform="translate(189.708124, 250.279481)"><g><path d="M 5.46875 0.078125 C 5.445312 0.078125 5.304688 0.0546875 5.046875 0.015625 C 4.796875 -0.015625 4.457031 -0.03125 4.03125 -0.03125 L 1.96875 0 C 1.707031 0 1.578125 -0.101562 1.578125 -0.3125 C 1.578125 -0.382812 1.578125 -0.625 1.578125 -1.03125 C 1.585938 -1.445312 1.59375 -2.15625 1.59375 -3.15625 C 1.59375 -4.164062 1.625 -5.140625 1.6875 -6.078125 C 1.75 -7.023438 1.78125 -7.550781 1.78125 -7.65625 L 1.953125 -12.484375 L 1.96875 -15.234375 C 1.96875 -15.429688 2.015625 -15.539062 2.109375 -15.5625 C 2.191406 -15.5625 2.382812 -15.550781 2.6875 -15.53125 C 3 -15.507812 3.382812 -15.5 3.84375 -15.5 C 4.195312 -15.5 4.546875 -15.507812 4.890625 -15.53125 C 5.242188 -15.550781 5.457031 -15.5625 5.53125 -15.5625 C 5.582031 -15.5625 5.628906 -15.53125 5.671875 -15.46875 C 5.710938 -15.40625 5.734375 -15.351562 5.734375 -15.3125 L 5.796875 -14.578125 C 6.398438 -14.960938 7.101562 -15.289062 7.90625 -15.5625 C 8.71875 -15.84375 9.335938 -15.984375 9.765625 -15.984375 C 9.867188 -15.984375 9.941406 -15.972656 9.984375 -15.953125 C 10.015625 -15.941406 10.050781 -15.867188 10.09375 -15.734375 C 10.144531 -15.597656 10.1875 -15.488281 10.21875 -15.40625 C 10.394531 -14.957031 10.507812 -14.421875 10.5625 -13.796875 C 10.582031 -13.515625 10.628906 -13.1875 10.703125 -12.8125 C 10.734375 -12.644531 10.75 -12.445312 10.75 -12.21875 C 10.75 -12.082031 10.742188 -12.003906 10.734375 -11.984375 C 10.585938 -11.765625 10.367188 -11.613281 10.078125 -11.53125 C 9.796875 -11.457031 9.378906 -11.382812 8.828125 -11.3125 C 8.140625 -11.238281 7.546875 -11.132812 7.046875 -11 L 5.875 -10.734375 L 5.890625 -9.65625 C 5.890625 -9.070312 5.898438 -8.769531 5.921875 -8.75 L 5.953125 -6.484375 C 5.984375 -5.304688 6 -3.707031 6 -1.6875 C 6 -0.894531 5.960938 -0.367188 5.890625 -0.109375 C 5.890625 0.015625 5.75 0.078125 5.46875 0.078125 Z M 5.46875 0.078125 "/></g></g></g><g fill="#071c29" fill-opacity="1"><g transform="translate(203.024251, 250.279481)"><g><path d="M 5.09375 0.296875 C 3.800781 0.296875 2.757812 0.0390625 1.96875 -0.46875 C 1.1875 -0.988281 0.796875 -1.910156 0.796875 -3.234375 C 0.890625 -4.085938 1.519531 -4.71875 2.6875 -5.125 C 3.863281 -5.53125 5.179688 -5.734375 6.640625 -5.734375 C 7.109375 -5.734375 7.660156 -5.769531 8.296875 -5.84375 C 8.941406 -5.914062 9.53125 -5.953125 10.0625 -5.953125 C 9.988281 -7.867188 9.867188 -9.375 9.703125 -10.46875 C 9.535156 -11.5625 9.25 -12.382812 8.84375 -12.9375 C 8.445312 -13.488281 7.882812 -13.765625 7.15625 -13.765625 C 6.625 -13.765625 6.113281 -13.640625 5.625 -13.390625 C 5.144531 -13.148438 4.550781 -12.757812 3.84375 -12.21875 C 3.257812 -11.789062 2.96875 -11.578125 2.96875 -11.578125 C 2.945312 -11.578125 2.882812 -11.546875 2.78125 -11.484375 C 2.6875 -11.421875 2.597656 -11.398438 2.515625 -11.421875 C 2.347656 -11.453125 2.265625 -11.53125 2.265625 -11.65625 C 2.191406 -11.769531 2.109375 -12.007812 2.015625 -12.375 C 1.921875 -12.75 1.875 -13.019531 1.875 -13.1875 C 1.875 -13.289062 1.976562 -13.414062 2.1875 -13.5625 C 3.09375 -14.238281 3.859375 -14.738281 4.484375 -15.0625 C 5.117188 -15.394531 5.664062 -15.601562 6.125 -15.6875 C 6.582031 -15.78125 7.113281 -15.828125 7.71875 -15.828125 C 9.488281 -15.828125 10.679688 -15.253906 11.296875 -14.109375 C 11.910156 -12.960938 12.21875 -11.4375 12.21875 -9.53125 C 12.21875 -9.03125 12.203125 -8.351562 12.171875 -7.5 C 12.171875 -6.976562 12.132812 -6.222656 12.0625 -5.234375 L 12.03125 -4.59375 L 12.0625 -3.015625 C 12.09375 -2.304688 12.109375 -1.765625 12.109375 -1.390625 L 12.09375 -0.59375 C 12.050781 -0.175781 11.890625 0.03125 11.609375 0.03125 L 11.390625 0 L 10.296875 0 C 10.222656 0 10.15625 -0.03125 10.09375 -0.09375 C 10.03125 -0.15625 10 -0.226562 10 -0.3125 L 10 -0.53125 C 8.9375 -0.226562 8.082031 -0.015625 7.4375 0.109375 C 6.800781 0.234375 6.019531 0.296875 5.09375 0.296875 Z M 5.125 -1.234375 C 7.03125 -1.234375 8.65625 -1.550781 10 -2.1875 L 10.09375 -4.671875 C 9.25 -4.742188 8.523438 -4.78125 7.921875 -4.78125 L 6.359375 -4.75 C 5.503906 -4.75 4.738281 -4.582031 4.0625 -4.25 C 3.382812 -3.925781 3.019531 -3.46875 2.96875 -2.875 C 2.96875 -2.238281 3.117188 -1.804688 3.421875 -1.578125 C 3.722656 -1.347656 4.289062 -1.234375 5.125 -1.234375 Z M 5.125 -1.234375 "/></g></g></g><g fill="#071c29" fill-opacity="1"><g transform="translate(219.408985, 250.279481)"><g><path d="M 2.59375 0.078125 C 2.269531 0.078125 2.125 -0.285156 2.15625 -1.015625 L 2.15625 -3.234375 L 2.1875 -4.671875 C 2.1875 -5.203125 2.171875 -6.003906 2.140625 -7.078125 L 2.109375 -8.78125 L 2.109375 -9.578125 L 1.578125 -9.578125 C 1.328125 -9.578125 1.160156 -9.601562 1.078125 -9.65625 C 0.992188 -9.707031 0.953125 -9.804688 0.953125 -9.953125 L 0.9375 -10.296875 C 0.9375 -10.472656 0.984375 -10.59375 1.078125 -10.65625 C 1.179688 -10.71875 1.375 -10.75 1.65625 -10.75 L 2.1875 -10.75 C 2.207031 -11.070312 2.210938 -11.363281 2.203125 -11.625 C 2.191406 -11.894531 2.1875 -12.128906 2.1875 -12.328125 L 2.1875 -13.296875 C 2.1875 -13.679688 2.175781 -13.984375 2.15625 -14.203125 L 2.140625 -15.3125 C 2.140625 -16.4375 2.242188 -17.273438 2.453125 -17.828125 C 2.703125 -18.523438 3.140625 -19.03125 3.765625 -19.34375 C 4.398438 -19.664062 5.082031 -19.828125 5.8125 -19.828125 C 6.539062 -19.828125 7.125 -19.78125 7.5625 -19.6875 C 8 -19.601562 8.429688 -19.421875 8.859375 -19.140625 C 8.984375 -19.066406 9.007812 -18.957031 8.9375 -18.8125 C 8.832031 -18.632812 8.742188 -18.410156 8.671875 -18.140625 L 8.4375 -17.375 C 8.414062 -17.332031 8.378906 -17.21875 8.328125 -17.03125 C 8.285156 -16.851562 8.234375 -16.765625 8.171875 -16.765625 C 8.046875 -16.765625 7.851562 -16.773438 7.59375 -16.796875 C 7.332031 -16.828125 7.039062 -16.84375 6.71875 -16.84375 C 6.4375 -16.84375 6.234375 -16.773438 6.109375 -16.640625 C 5.984375 -16.503906 5.910156 -16.273438 5.890625 -15.953125 L 5.890625 -10.703125 L 6.828125 -10.734375 C 7.023438 -10.742188 7.300781 -10.75 7.65625 -10.75 C 7.945312 -10.75 8.140625 -10.710938 8.234375 -10.640625 C 8.328125 -10.578125 8.375 -10.460938 8.375 -10.296875 L 8.359375 -9.953125 C 8.359375 -9.804688 8.316406 -9.707031 8.234375 -9.65625 C 8.148438 -9.601562 7.984375 -9.578125 7.734375 -9.578125 C 7.421875 -9.578125 7.164062 -9.585938 6.96875 -9.609375 L 5.890625 -9.640625 C 5.878906 -9.347656 5.875 -9.035156 5.875 -8.703125 C 5.851562 -8.578125 5.84375 -8.375 5.84375 -8.09375 C 5.84375 -7.695312 5.832031 -7.410156 5.8125 -7.234375 C 5.8125 -7.085938 5.804688 -6.90625 5.796875 -6.6875 C 5.796875 -6.476562 5.800781 -6.234375 5.8125 -5.953125 C 5.800781 -5.578125 5.796875 -5.050781 5.796875 -4.375 C 5.796875 -3.195312 5.847656 -2.101562 5.953125 -1.09375 C 5.972656 -0.914062 5.984375 -0.710938 5.984375 -0.484375 C 5.984375 -0.335938 5.941406 -0.226562 5.859375 -0.15625 C 5.773438 -0.0820312 5.632812 -0.0390625 5.4375 -0.03125 C 5.132812 0.0078125 4.59375 0.03125 3.8125 0.03125 C 3.613281 0.0390625 3.394531 0.046875 3.15625 0.046875 C 3.09375 0.0664062 2.90625 0.078125 2.59375 0.078125 Z M 2.59375 0.078125 "/></g></g></g><g fill="#071c29" fill-opacity="1"><g transform="translate(230.910628, 250.279481)"><g><path d="M 4.15625 0.109375 C 3.445312 0.109375 2.914062 0.00390625 2.5625 -0.203125 C 2.207031 -0.421875 1.972656 -0.722656 1.859375 -1.109375 C 1.753906 -1.492188 1.703125 -2.015625 1.703125 -2.671875 L 1.734375 -4.328125 L 1.875 -7.46875 L 1.953125 -9.828125 L 1.953125 -13.71875 C 1.097656 -13.71875 0.609375 -13.859375 0.484375 -14.140625 C 0.429688 -14.285156 0.40625 -14.4375 0.40625 -14.59375 C 0.40625 -14.769531 0.414062 -14.9375 0.4375 -15.09375 C 0.46875 -15.257812 0.484375 -15.414062 0.484375 -15.5625 C 0.796875 -15.539062 1.285156 -15.53125 1.953125 -15.53125 L 1.96875 -15.640625 L 2 -16.65625 L 2 -17.796875 C 1.976562 -18.222656 2.007812 -18.507812 2.09375 -18.65625 C 2.175781 -18.8125 2.296875 -18.890625 2.453125 -18.890625 C 2.546875 -18.890625 2.617188 -18.882812 2.671875 -18.875 L 2.71875 -18.875 C 2.757812 -18.875 2.820312 -18.875 2.90625 -18.875 C 3 -18.882812 3.082031 -18.875 3.15625 -18.84375 C 3.507812 -18.789062 3.6875 -18.640625 3.6875 -18.390625 C 3.6875 -18.335938 3.664062 -18.132812 3.625 -17.78125 C 3.539062 -17.15625 3.476562 -16.40625 3.4375 -15.53125 L 6 -15.53125 C 6.144531 -15.53125 6.257812 -15.410156 6.34375 -15.171875 C 6.4375 -14.929688 6.484375 -14.675781 6.484375 -14.40625 C 6.484375 -14.050781 6.40625 -13.847656 6.25 -13.796875 C 5.90625 -13.691406 5.492188 -13.640625 5.015625 -13.640625 C 4.585938 -13.640625 4.054688 -13.675781 3.421875 -13.75 L 3.421875 -7.421875 L 3.390625 -6.359375 C 3.335938 -5.660156 3.3125 -4.9375 3.3125 -4.1875 L 3.3125 -3.65625 C 3.3125 -3.082031 3.4375 -2.65625 3.6875 -2.375 C 3.9375 -2.101562 4.265625 -1.96875 4.671875 -1.96875 C 5.054688 -1.96875 5.390625 -1.984375 5.671875 -2.015625 C 5.960938 -2.046875 6.171875 -2.0625 6.296875 -2.0625 C 6.492188 -2.0625 6.59375 -1.710938 6.59375 -1.015625 L 6.703125 -0.59375 C 6.753906 -0.46875 6.742188 -0.394531 6.671875 -0.375 C 6.097656 -0.15625 5.671875 -0.0195312 5.390625 0.03125 C 5.117188 0.0820312 4.707031 0.109375 4.15625 0.109375 Z M 4.15625 0.109375 "/></g></g></g><g fill="#071c29" fill-opacity="1"><g transform="translate(240.411009, 250.279481)"><g><path d="M 7.34375 0.59375 C 4.664062 0.59375 2.882812 -0.304688 2 -2.109375 C 1.113281 -3.921875 0.671875 -5.859375 0.671875 -7.921875 C 0.671875 -9.921875 0.972656 -11.519531 1.578125 -12.71875 C 2.179688 -13.914062 2.914062 -14.753906 3.78125 -15.234375 C 4.644531 -15.710938 5.507812 -15.953125 6.375 -15.953125 C 8.007812 -15.953125 9.238281 -15.476562 10.0625 -14.53125 C 10.894531 -13.59375 11.429688 -12.5 11.671875 -11.25 C 11.910156 -10 12.03125 -8.640625 12.03125 -7.171875 C 12.03125 -7.046875 11.941406 -6.96875 11.765625 -6.9375 C 11.179688 -6.9375 9.832031 -6.835938 7.71875 -6.640625 C 7.375 -6.609375 6.960938 -6.566406 6.484375 -6.515625 C 6.003906 -6.472656 5.472656 -6.4375 4.890625 -6.40625 C 5.046875 -4.675781 5.976562 -3.8125 7.6875 -3.8125 C 8.257812 -3.8125 8.695312 -3.863281 9 -3.96875 C 9.3125 -4.082031 9.816406 -4.304688 10.515625 -4.640625 C 10.640625 -4.640625 10.75 -4.566406 10.84375 -4.421875 C 10.945312 -4.285156 11.085938 -3.992188 11.265625 -3.546875 C 11.316406 -3.460938 11.378906 -3.296875 11.453125 -3.046875 C 11.535156 -2.796875 11.613281 -2.609375 11.6875 -2.484375 C 12.03125 -1.628906 12.191406 -1.179688 12.171875 -1.140625 C 12.128906 -1.078125 12.03125 -0.984375 11.875 -0.859375 C 11.5 -0.484375 10.894531 -0.148438 10.0625 0.140625 C 9.238281 0.441406 8.332031 0.59375 7.34375 0.59375 Z M 7.984375 -8.21875 C 7.835938 -10.25 7.347656 -11.265625 6.515625 -11.265625 C 6.015625 -11.265625 5.628906 -10.972656 5.359375 -10.390625 C 5.097656 -9.816406 4.941406 -9.003906 4.890625 -7.953125 Z M 7.984375 -8.21875 "/></g></g></g><g fill="#071c29" fill-opacity="1"><g transform="translate(255.514932, 250.279481)"><g><path d="M 5.46875 0.078125 C 5.445312 0.078125 5.304688 0.0546875 5.046875 0.015625 C 4.796875 -0.015625 4.457031 -0.03125 4.03125 -0.03125 L 1.96875 0 C 1.707031 0 1.578125 -0.101562 1.578125 -0.3125 C 1.578125 -0.382812 1.578125 -0.625 1.578125 -1.03125 C 1.585938 -1.445312 1.59375 -2.15625 1.59375 -3.15625 C 1.59375 -4.164062 1.625 -5.140625 1.6875 -6.078125 C 1.75 -7.023438 1.78125 -7.550781 1.78125 -7.65625 L 1.953125 -12.484375 L 1.96875 -15.234375 C 1.96875 -15.429688 2.015625 -15.539062 2.109375 -15.5625 C 2.191406 -15.5625 2.382812 -15.550781 2.6875 -15.53125 C 3 -15.507812 3.382812 -15.5 3.84375 -15.5 C 4.195312 -15.5 4.546875 -15.507812 4.890625 -15.53125 C 5.242188 -15.550781 5.457031 -15.5625 5.53125 -15.5625 C 5.582031 -15.5625 5.628906 -15.53125 5.671875 -15.46875 C 5.710938 -15.40625 5.734375 -15.351562 5.734375 -15.3125 L 5.796875 -14.578125 C 6.398438 -14.960938 7.101562 -15.289062 7.90625 -15.5625 C 8.71875 -15.84375 9.335938 -15.984375 9.765625 -15.984375 C 9.867188 -15.984375 9.941406 -15.972656 9.984375 -15.953125 C 10.015625 -15.941406 10.050781 -15.867188 10.09375 -15.734375 C 10.144531 -15.597656 10.1875 -15.488281 10.21875 -15.40625 C 10.394531 -14.957031 10.507812 -14.421875 10.5625 -13.796875 C 10.582031 -13.515625 10.628906 -13.1875 10.703125 -12.8125 C 10.734375 -12.644531 10.75 -12.445312 10.75 -12.21875 C 10.75 -12.082031 10.742188 -12.003906 10.734375 -11.984375 C 10.585938 -11.765625 10.367188 -11.613281 10.078125 -11.53125 C 9.796875 -11.457031 9.378906 -11.382812 8.828125 -11.3125 C 8.140625 -11.238281 7.546875 -11.132812 7.046875 -11 L 5.875 -10.734375 L 5.890625 -9.65625 C 5.890625 -9.070312 5.898438 -8.769531 5.921875 -8.75 L 5.953125 -6.484375 C 5.984375 -5.304688 6 -3.707031 6 -1.6875 C 6 -0.894531 5.960938 -0.367188 5.890625 -0.109375 C 5.890625 0.015625 5.75 0.078125 5.46875 0.078125 Z M 5.46875 0.078125 "/></g></g></g><g fill="#071c29" fill-opacity="1"><g transform="translate(268.831058, 250.279481)"><g><path d="M 6.0625 0.453125 C 4.976562 0.453125 4.078125 0.316406 3.359375 0.046875 C 2.648438 -0.210938 2.21875 -0.410156 2.0625 -0.546875 C 1.914062 -0.679688 1.582031 -1.003906 1.0625 -1.515625 C 0.957031 -1.628906 0.929688 -1.703125 0.984375 -1.734375 C 1.023438 -1.828125 1.085938 -1.925781 1.171875 -2.03125 L 1.515625 -2.453125 C 1.609375 -2.578125 1.769531 -2.78125 2 -3.0625 C 2.050781 -3.125 2.113281 -3.15625 2.1875 -3.15625 C 2.257812 -3.15625 2.359375 -3.113281 2.484375 -3.03125 C 2.609375 -2.945312 2.710938 -2.863281 2.796875 -2.78125 C 2.816406 -2.757812 2.921875 -2.671875 3.109375 -2.515625 C 3.296875 -2.367188 3.566406 -2.238281 3.921875 -2.125 C 4.273438 -2.007812 4.664062 -1.953125 5.09375 -1.953125 C 5.664062 -1.953125 6.15625 -2.0625 6.5625 -2.28125 C 6.96875 -2.5 7.171875 -2.96875 7.171875 -3.6875 C 7.171875 -4.25 7.050781 -4.726562 6.8125 -5.125 C 6.570312 -5.519531 6.273438 -5.84375 5.921875 -6.09375 C 5.566406 -6.351562 5.078125 -6.648438 4.453125 -6.984375 C 3.765625 -7.378906 3.207031 -7.734375 2.78125 -8.046875 C 2.351562 -8.359375 1.988281 -8.78125 1.6875 -9.3125 C 1.394531 -9.84375 1.25 -10.5 1.25 -11.28125 C 1.25 -12.207031 1.5 -13.023438 2 -13.734375 C 2.5 -14.453125 3.179688 -15 4.046875 -15.375 C 4.910156 -15.757812 5.863281 -15.953125 6.90625 -15.953125 C 8.582031 -15.953125 9.851562 -15.597656 10.71875 -14.890625 C 11.582031 -14.191406 12.03125 -13.835938 12.0625 -13.828125 C 12.132812 -13.773438 12.171875 -13.710938 12.171875 -13.640625 C 12.171875 -13.585938 12.148438 -13.53125 12.109375 -13.46875 C 12.078125 -13.414062 12.050781 -13.363281 12.03125 -13.3125 C 11.957031 -13.207031 11.835938 -13.019531 11.671875 -12.75 C 11.503906 -12.488281 11.367188 -12.304688 11.265625 -12.203125 C 11.222656 -12.140625 11.175781 -12.066406 11.125 -11.984375 C 11.070312 -11.910156 11.023438 -11.863281 10.984375 -11.84375 C 10.941406 -11.832031 10.882812 -11.828125 10.8125 -11.828125 C 10.738281 -11.859375 10.488281 -12.046875 10.0625 -12.390625 C 9.632812 -12.742188 9.15625 -13.070312 8.625 -13.375 C 8.101562 -13.675781 7.65625 -13.828125 7.28125 -13.828125 C 6.894531 -13.828125 6.617188 -13.695312 6.453125 -13.4375 C 6.296875 -13.175781 6.21875 -12.742188 6.21875 -12.140625 C 6.21875 -11.691406 6.320312 -11.316406 6.53125 -11.015625 C 6.75 -10.710938 6.957031 -10.5 7.15625 -10.375 C 7.351562 -10.25 7.722656 -10.046875 8.265625 -9.765625 C 8.929688 -9.503906 9.507812 -9.226562 10 -8.9375 C 10.488281 -8.65625 10.957031 -8.15625 11.40625 -7.4375 C 11.863281 -6.726562 12.09375 -5.785156 12.09375 -4.609375 C 12.09375 -1.234375 10.082031 0.453125 6.0625 0.453125 Z M 6.0625 0.453125 "/></g></g></g></svg>