<svg xmlns="http://www.w3.org/2000/svg" xmlns:xlink="http://www.w3.org/1999/xlink" width="300" zoomAndPan="magnify" viewBox="0 0 224.87999 225" height="300" preserveAspectRatio="xMidYMid meet" version="1.0"><defs><clipPath id="60997d7c80"><path d="M 35.910156 58.820312 L 41.53125 58.820312 L 41.53125 64.441406 L 35.910156 64.441406 Z M 35.910156 58.820312 " clip-rule="nonzero"/></clipPath><clipPath id="a797844a55"><path d="M 38.71875 58.820312 C 37.167969 58.820312 35.910156 60.078125 35.910156 61.628906 C 35.910156 63.183594 37.167969 64.441406 38.71875 64.441406 C 40.273438 64.441406 41.53125 63.183594 41.53125 61.628906 C 41.53125 60.078125 40.273438 58.820312 38.71875 58.820312 Z M 38.71875 58.820312 " clip-rule="nonzero"/></clipPath><clipPath id="908a5fd2b0"><path d="M 45.726562 58.820312 L 51.347656 58.820312 L 51.347656 64.441406 L 45.726562 64.441406 Z M 45.726562 58.820312 " clip-rule="nonzero"/></clipPath><clipPath id="b74a344115"><path d="M 48.535156 58.820312 C 46.984375 58.820312 45.726562 60.078125 45.726562 61.628906 C 45.726562 63.183594 46.984375 64.441406 48.535156 64.441406 C 50.089844 64.441406 51.347656 63.183594 51.347656 61.628906 C 51.347656 60.078125 50.089844 58.820312 48.535156 58.820312 Z M 48.535156 58.820312 " clip-rule="nonzero"/></clipPath><clipPath id="bb59fec96a"><path d="M 55.84375 58.820312 L 61.46875 58.820312 L 61.46875 64.441406 L 55.84375 64.441406 Z M 55.84375 58.820312 " clip-rule="nonzero"/></clipPath><clipPath id="9ec84b62f1"><path d="M 58.65625 58.820312 C 57.105469 58.820312 55.84375 60.078125 55.84375 61.628906 C 55.84375 63.183594 57.105469 64.441406 58.65625 64.441406 C 60.207031 64.441406 61.46875 63.183594 61.46875 61.628906 C 61.46875 60.078125 60.207031 58.820312 58.65625 58.820312 Z M 58.65625 58.820312 " clip-rule="nonzero"/></clipPath><clipPath id="1bf037c231"><path d="M 86.324219 151.855469 L 138.554688 151.855469 L 138.554688 154.753906 L 86.324219 154.753906 Z M 86.324219 151.855469 " clip-rule="nonzero"/></clipPath><clipPath id="c23ba95148"><path d="M 125.496094 151.855469 C 132.710938 151.855469 138.554688 152.503906 138.554688 153.304688 C 138.554688 154.105469 132.710938 154.753906 125.496094 154.753906 L 99.382812 154.753906 C 92.171875 154.753906 86.324219 154.105469 86.324219 153.304688 C 86.324219 152.503906 92.171875 151.855469 99.382812 151.855469 Z M 125.496094 151.855469 " clip-rule="nonzero"/></clipPath><clipPath id="2d4bfae7d5"><path d="M 29.5625 150.945312 L 194.59375 150.945312 L 194.59375 157.113281 L 29.5625 157.113281 Z M 29.5625 150.945312 " clip-rule="nonzero"/></clipPath><clipPath id="fbd4b7b017"><path d="M 26.113281 49.882812 L 198.523438 49.882812 L 198.523438 160.074219 L 26.113281 160.074219 Z M 26.113281 49.882812 " clip-rule="nonzero"/></clipPath><clipPath id="d950725eaa"><path d="M 36.609375 49.882812 L 188.261719 49.882812 C 194.058594 49.882812 198.757812 54.582031 198.757812 60.378906 L 198.757812 149.882812 C 198.757812 155.675781 194.058594 160.375 188.261719 160.375 L 36.609375 160.375 C 30.8125 160.375 26.113281 155.675781 26.113281 149.882812 L 26.113281 60.378906 C 26.113281 54.582031 30.8125 49.882812 36.609375 49.882812 Z M 36.609375 49.882812 " clip-rule="nonzero"/></clipPath><clipPath id="d821bc237f"><path d="M 41.53125 17.203125 L 61.46875 17.203125 L 61.46875 37.136719 L 41.53125 37.136719 Z M 41.53125 17.203125 " clip-rule="nonzero"/></clipPath><clipPath id="61bc2dc24d"><path d="M 51.5 17.203125 C 45.992188 17.203125 41.53125 21.664062 41.53125 27.171875 C 41.53125 32.675781 45.992188 37.136719 51.5 37.136719 C 57.003906 37.136719 61.46875 32.675781 61.46875 27.171875 C 61.46875 21.664062 57.003906 17.203125 51.5 17.203125 Z M 51.5 17.203125 " clip-rule="nonzero"/></clipPath><clipPath id="2679875d41"><path d="M 112.441406 32.878906 L 122.046875 32.878906 L 122.046875 42.484375 L 112.441406 42.484375 Z M 112.441406 32.878906 " clip-rule="nonzero"/></clipPath><clipPath id="508c2b69ed"><path d="M 117.242188 32.878906 C 114.589844 32.878906 112.441406 35.03125 112.441406 37.683594 C 112.441406 40.335938 114.589844 42.484375 117.242188 42.484375 C 119.894531 42.484375 122.046875 40.335938 122.046875 37.683594 C 122.046875 35.03125 119.894531 32.878906 117.242188 32.878906 Z M 117.242188 32.878906 " clip-rule="nonzero"/></clipPath><clipPath id="6682a4c209"><path d="M 197.890625 192.078125 L 212.359375 192.078125 L 212.359375 206.546875 L 197.890625 206.546875 Z M 197.890625 192.078125 " clip-rule="nonzero"/></clipPath><clipPath id="6c9eb3dfb1"><path d="M 205.125 192.078125 C 201.128906 192.078125 197.890625 195.316406 197.890625 199.3125 C 197.890625 203.308594 201.128906 206.546875 205.125 206.546875 C 209.121094 206.546875 212.359375 203.308594 212.359375 199.3125 C 212.359375 195.316406 209.121094 192.078125 205.125 192.078125 Z M 205.125 192.078125 " clip-rule="nonzero"/></clipPath><clipPath id="914f88b21d"><path d="M 122.046875 188.351562 L 129.5 188.351562 L 129.5 195.804688 L 122.046875 195.804688 Z M 122.046875 188.351562 " clip-rule="nonzero"/></clipPath><clipPath id="4f5c5751fe"><path d="M 125.773438 188.351562 C 123.714844 188.351562 122.046875 190.019531 122.046875 192.078125 C 122.046875 194.136719 123.714844 195.804688 125.773438 195.804688 C 127.832031 195.804688 129.5 194.136719 129.5 192.078125 C 129.5 190.019531 127.832031 188.351562 125.773438 188.351562 Z M 125.773438 188.351562 " clip-rule="nonzero"/></clipPath><clipPath id="bac0fd0711"><path d="M 22.488281 186.609375 L 45.726562 186.609375 L 45.726562 209.847656 L 22.488281 209.847656 Z M 22.488281 186.609375 " clip-rule="nonzero"/></clipPath><clipPath id="821e37d8b8"><path d="M 34.105469 186.609375 C 27.691406 186.609375 22.488281 191.8125 22.488281 198.230469 C 22.488281 204.648438 27.691406 209.847656 34.105469 209.847656 C 40.523438 209.847656 45.726562 204.648438 45.726562 198.230469 C 45.726562 191.8125 40.523438 186.609375 34.105469 186.609375 Z M 34.105469 186.609375 " clip-rule="nonzero"/></clipPath><clipPath id="7748f3744e"><path d="M 149.386719 22.546875 L 159.355469 22.546875 L 159.355469 32.515625 L 149.386719 32.515625 Z M 149.386719 22.546875 " clip-rule="nonzero"/></clipPath><clipPath id="8dd8b4f316"><path d="M 154.371094 22.546875 C 151.621094 22.546875 149.386719 24.78125 149.386719 27.53125 C 149.386719 30.285156 151.621094 32.515625 154.371094 32.515625 C 157.125 32.515625 159.355469 30.285156 159.355469 27.53125 C 159.355469 24.78125 157.125 22.546875 154.371094 22.546875 Z M 154.371094 22.546875 " clip-rule="nonzero"/></clipPath><clipPath id="0d2675b997"><path d="M 92.992188 198.074219 L 103.203125 198.074219 L 103.203125 208.289062 L 92.992188 208.289062 Z M 92.992188 198.074219 " clip-rule="nonzero"/></clipPath><clipPath id="2932f6fe9e"><path d="M 98.097656 198.074219 C 95.277344 198.074219 92.992188 200.363281 92.992188 203.183594 C 92.992188 206 95.277344 208.289062 98.097656 208.289062 C 100.917969 208.289062 103.203125 206 103.203125 203.183594 C 103.203125 200.363281 100.917969 198.074219 98.097656 198.074219 Z M 98.097656 198.074219 " clip-rule="nonzero"/></clipPath><clipPath id="805b823c4a"><path d="M 78.90625 58.746094 L 145.621094 58.746094 L 145.621094 148.699219 L 78.90625 148.699219 Z M 78.90625 58.746094 " clip-rule="nonzero"/></clipPath><clipPath id="63af70a09a"><path d="M 131.585938 110.214844 L 167.566406 110.214844 L 167.566406 146 L 131.585938 146 Z M 131.585938 110.214844 " clip-rule="nonzero"/></clipPath></defs><path stroke-linecap="butt" transform="matrix(0.7496, -0.000000000000000093, 0.000000000000000093, 0.7496, 13.526409, 173.338503)" fill="none" stroke-linejoin="miter" d="M 0.00124671 3.998713 L 263.912856 3.998713 " stroke="#000000" stroke-width="8" stroke-opacity="1" stroke-miterlimit="4"/><g clip-path="url(#60997d7c80)"><g clip-path="url(#a797844a55)"><path fill="#071c29" d="M 35.910156 58.820312 L 41.53125 58.820312 L 41.53125 64.441406 L 35.910156 64.441406 Z M 35.910156 58.820312 " fill-opacity="1" fill-rule="nonzero"/></g></g><g clip-path="url(#908a5fd2b0)"><g clip-path="url(#b74a344115)"><path fill="#071c29" d="M 45.726562 58.820312 L 51.347656 58.820312 L 51.347656 64.441406 L 45.726562 64.441406 Z M 45.726562 58.820312 " fill-opacity="1" fill-rule="nonzero"/></g></g><g clip-path="url(#bb59fec96a)"><g clip-path="url(#9ec84b62f1)"><path fill="#071c29" d="M 55.84375 58.820312 L 61.46875 58.820312 L 61.46875 64.441406 L 55.84375 64.441406 Z M 55.84375 58.820312 " fill-opacity="1" fill-rule="nonzero"/></g></g><g clip-path="url(#1bf037c231)"><g clip-path="url(#c23ba95148)"><path fill="#222222" d="M 86.324219 151.855469 L 138.554688 151.855469 L 138.554688 154.753906 L 86.324219 154.753906 Z M 86.324219 151.855469 " fill-opacity="1" fill-rule="nonzero"/></g></g><g clip-path="url(#2d4bfae7d5)"><path fill="#d2e4e6" d="M 29.5625 150.945312 L 194.597656 150.945312 L 194.597656 157.113281 L 29.5625 157.113281 Z M 29.5625 150.945312 " fill-opacity="1" fill-rule="nonzero"/></g><g clip-path="url(#fbd4b7b017)"><g clip-path="url(#d950725eaa)"><path stroke-linecap="butt" transform="matrix(0.7496, 0, 0, 0.7496, 26.115096, 49.884155)" fill="none" stroke-linejoin="miter" d="M 13.999839 -0.00179075 L 216.310868 -0.00179075 C 224.044159 -0.00179075 230.313128 6.267178 230.313128 14.000469 L 230.313128 133.402695 C 230.313128 141.130775 224.044159 147.399743 216.310868 147.399743 L 13.999839 147.399743 C 6.266548 147.399743 -0.00242035 141.130775 -0.00242035 133.402695 L -0.00242035 14.000469 C -0.00242035 6.267178 6.266548 -0.00179075 13.999839 -0.00179075 Z M 13.999839 -0.00179075 " stroke="#071c29" stroke-width="8" stroke-opacity="1" stroke-miterlimit="4"/></g></g><g clip-path="url(#d821bc237f)"><g clip-path="url(#61bc2dc24d)"><path fill="#1b7895" d="M 41.53125 17.203125 L 61.46875 17.203125 L 61.46875 37.136719 L 41.53125 37.136719 Z M 41.53125 17.203125 " fill-opacity="1" fill-rule="nonzero"/></g></g><g clip-path="url(#2679875d41)"><g clip-path="url(#508c2b69ed)"><path fill="#ffae62" d="M 112.441406 32.878906 L 122.046875 32.878906 L 122.046875 42.484375 L 112.441406 42.484375 Z M 112.441406 32.878906 " fill-opacity="1" fill-rule="nonzero"/></g></g><g clip-path="url(#6682a4c209)"><g clip-path="url(#6c9eb3dfb1)"><path fill="#d2e4e6" d="M 197.890625 192.078125 L 212.359375 192.078125 L 212.359375 206.546875 L 197.890625 206.546875 Z M 197.890625 192.078125 " fill-opacity="1" fill-rule="nonzero"/></g></g><g clip-path="url(#914f88b21d)"><g clip-path="url(#4f5c5751fe)"><path fill="#ffae62" d="M 122.046875 188.351562 L 129.5 188.351562 L 129.5 195.804688 L 122.046875 195.804688 Z M 122.046875 188.351562 " fill-opacity="1" fill-rule="nonzero"/></g></g><g clip-path="url(#bac0fd0711)"><g clip-path="url(#821e37d8b8)"><path fill="#ffae62" d="M 22.488281 186.609375 L 45.726562 186.609375 L 45.726562 209.847656 L 22.488281 209.847656 Z M 22.488281 186.609375 " fill-opacity="1" fill-rule="nonzero"/></g></g><g clip-path="url(#7748f3744e)"><g clip-path="url(#8dd8b4f316)"><path fill="#004369" d="M 149.386719 22.546875 L 159.355469 22.546875 L 159.355469 32.515625 L 149.386719 32.515625 Z M 149.386719 22.546875 " fill-opacity="1" fill-rule="nonzero"/></g></g><g clip-path="url(#0d2675b997)"><g clip-path="url(#2932f6fe9e)"><path fill="#1b7895" d="M 92.992188 198.074219 L 103.203125 198.074219 L 103.203125 208.289062 L 92.992188 208.289062 Z M 92.992188 198.074219 " fill-opacity="1" fill-rule="nonzero"/></g></g><g clip-path="url(#805b823c4a)"><path fill="#231f20" d="M 86.988281 61.757812 C 84.175781 61.757812 81.890625 64.035156 81.890625 66.828125 L 81.890625 140.613281 C 81.890625 143.40625 84.175781 145.679688 86.988281 145.679688 L 137.539062 145.679688 C 140.347656 145.679688 142.636719 143.40625 142.636719 140.613281 L 142.636719 78.519531 L 125.78125 61.757812 Z M 137.539062 148.652344 L 86.988281 148.652344 C 82.53125 148.652344 78.902344 145.046875 78.902344 140.613281 L 78.902344 66.828125 C 78.902344 62.394531 82.53125 58.789062 86.988281 58.789062 L 127.015625 58.789062 L 145.621094 77.289062 L 145.621094 140.613281 C 145.621094 145.046875 141.996094 148.652344 137.539062 148.652344 " fill-opacity="1" fill-rule="nonzero"/></g><path fill="#231f20" d="M 144.128906 79.390625 L 131.488281 79.390625 C 127.859375 79.390625 124.902344 76.453125 124.902344 72.84375 L 124.902344 60.273438 L 127.890625 60.273438 L 127.890625 72.84375 C 127.890625 74.816406 129.503906 76.421875 131.488281 76.421875 L 144.128906 76.421875 L 144.128906 79.390625 " fill-opacity="1" fill-rule="nonzero"/><path fill="#231f20" d="M 135.882812 87.679688 L 88.644531 87.679688 C 88.203125 87.679688 87.847656 87.324219 87.847656 86.886719 C 87.847656 86.449219 88.203125 86.09375 88.644531 86.09375 L 135.882812 86.09375 C 136.320312 86.09375 136.679688 86.449219 136.679688 86.886719 C 136.679688 87.324219 136.320312 87.679688 135.882812 87.679688 " fill-opacity="1" fill-rule="nonzero"/><path fill="#231f20" d="M 106.089844 80.898438 L 88.644531 80.898438 C 88.203125 80.898438 87.847656 80.542969 87.847656 80.105469 C 87.847656 79.667969 88.203125 79.3125 88.644531 79.3125 L 106.089844 79.3125 C 106.53125 79.3125 106.886719 79.667969 106.886719 80.105469 C 106.886719 80.542969 106.53125 80.898438 106.089844 80.898438 " fill-opacity="1" fill-rule="nonzero"/><path fill="#231f20" d="M 106.089844 74.117188 L 88.644531 74.117188 C 88.203125 74.117188 87.847656 73.761719 87.847656 73.324219 C 87.847656 72.886719 88.203125 72.53125 88.644531 72.53125 L 106.089844 72.53125 C 106.53125 72.53125 106.886719 72.886719 106.886719 73.324219 C 106.886719 73.761719 106.53125 74.117188 106.089844 74.117188 " fill-opacity="1" fill-rule="nonzero"/><path fill="#231f20" d="M 135.882812 93.953125 L 88.644531 93.953125 C 88.203125 93.953125 87.847656 93.597656 87.847656 93.160156 C 87.847656 92.722656 88.203125 92.371094 88.644531 92.371094 L 135.882812 92.371094 C 136.320312 92.371094 136.679688 92.722656 136.679688 93.160156 C 136.679688 93.597656 136.320312 93.953125 135.882812 93.953125 " fill-opacity="1" fill-rule="nonzero"/><path fill="#231f20" d="M 135.882812 100.230469 L 88.644531 100.230469 C 88.203125 100.230469 87.847656 99.875 87.847656 99.4375 C 87.847656 99 88.203125 98.644531 88.644531 98.644531 L 135.882812 98.644531 C 136.320312 98.644531 136.679688 99 136.679688 99.4375 C 136.679688 99.875 136.320312 100.230469 135.882812 100.230469 " fill-opacity="1" fill-rule="nonzero"/><path fill="#231f20" d="M 135.882812 106.503906 L 88.644531 106.503906 C 88.203125 106.503906 87.847656 106.148438 87.847656 105.710938 C 87.847656 105.273438 88.203125 104.917969 88.644531 104.917969 L 135.882812 104.917969 C 136.320312 104.917969 136.679688 105.273438 136.679688 105.710938 C 136.679688 106.148438 136.320312 106.503906 135.882812 106.503906 " fill-opacity="1" fill-rule="nonzero"/><path fill="#231f20" d="M 135.882812 112.777344 L 88.644531 112.777344 C 88.203125 112.777344 87.847656 112.425781 87.847656 111.988281 C 87.847656 111.550781 88.203125 111.195312 88.644531 111.195312 L 135.882812 111.195312 C 136.320312 111.195312 136.679688 111.550781 136.679688 111.988281 C 136.679688 112.425781 136.320312 112.777344 135.882812 112.777344 " fill-opacity="1" fill-rule="nonzero"/><path fill="#231f20" d="M 135.882812 119.054688 L 88.644531 119.054688 C 88.203125 119.054688 87.847656 118.699219 87.847656 118.261719 C 87.847656 117.824219 88.203125 117.46875 88.644531 117.46875 L 135.882812 117.46875 C 136.320312 117.46875 136.679688 117.824219 136.679688 118.261719 C 136.679688 118.699219 136.320312 119.054688 135.882812 119.054688 " fill-opacity="1" fill-rule="nonzero"/><path fill="#231f20" d="M 135.882812 125.328125 L 88.644531 125.328125 C 88.203125 125.328125 87.847656 124.972656 87.847656 124.535156 C 87.847656 124.097656 88.203125 123.746094 88.644531 123.746094 L 135.882812 123.746094 C 136.320312 123.746094 136.679688 124.097656 136.679688 124.535156 C 136.679688 124.972656 136.320312 125.328125 135.882812 125.328125 " fill-opacity="1" fill-rule="nonzero"/><path fill="#231f20" d="M 135.882812 131.605469 L 119.03125 131.605469 C 118.589844 131.605469 118.234375 131.25 118.234375 130.8125 C 118.234375 130.375 118.589844 130.019531 119.03125 130.019531 L 135.882812 130.019531 C 136.320312 130.019531 136.679688 130.375 136.679688 130.8125 C 136.679688 131.25 136.320312 131.605469 135.882812 131.605469 " fill-opacity="1" fill-rule="nonzero"/><g clip-path="url(#63af70a09a)"><path fill="#ffae62" d="M 149.386719 110.214844 C 139.558594 110.214844 131.585938 118.1875 131.585938 128.019531 C 131.585938 137.847656 139.558594 145.820312 149.386719 145.820312 C 159.21875 145.820312 167.191406 137.847656 167.191406 128.019531 C 167.191406 118.1875 159.21875 110.214844 149.386719 110.214844 Z M 160.457031 116.949219 C 161.894531 118.386719 163.023438 120.0625 163.8125 121.925781 C 163.984375 122.328125 164.132812 122.742188 164.269531 123.15625 L 153.988281 121.667969 L 149.390625 112.363281 C 151.503906 112.363281 153.554688 112.777344 155.480469 113.59375 C 157.34375 114.382812 159.015625 115.511719 160.457031 116.949219 Z M 138.320312 116.949219 C 139.753906 115.511719 141.433594 114.382812 143.292969 113.59375 C 145.214844 112.78125 147.261719 112.371094 149.371094 112.363281 L 144.785156 121.675781 L 134.5 123.175781 C 134.636719 122.753906 134.792969 122.335938 134.964844 121.929688 C 135.75 120.0625 136.882812 118.390625 138.320312 116.949219 Z M 160.457031 139.085938 C 159.019531 140.523438 157.34375 141.652344 155.480469 142.441406 C 153.554688 143.257812 151.503906 143.671875 149.386719 143.671875 C 147.273438 143.671875 145.226562 143.257812 143.292969 142.441406 C 141.433594 141.652344 139.753906 140.523438 138.320312 139.085938 C 136.882812 137.652344 135.75 135.972656 134.964844 134.113281 C 134.148438 132.179688 133.734375 130.132812 133.734375 128.019531 C 133.734375 126.355469 133.992188 124.734375 134.496094 123.179688 L 141.945312 130.429688 L 140.195312 140.683594 L 149.394531 135.835938 L 158.601562 140.667969 L 156.839844 130.421875 L 164.273438 123.167969 C 164.78125 124.722656 165.039062 126.347656 165.039062 128.019531 C 165.039062 130.132812 164.628906 132.179688 163.8125 134.113281 C 163.023438 135.972656 161.894531 137.644531 160.457031 139.085938 Z M 160.457031 139.085938 " fill-opacity="1" fill-rule="nonzero"/></g></svg>