<svg xmlns="http://www.w3.org/2000/svg" xmlns:xlink="http://www.w3.org/1999/xlink" width="800" zoomAndPan="magnify" viewBox="0 0 600 262.499992" height="350" preserveAspectRatio="xMidYMid meet" version="1.0"><defs><g/><clipPath id="949bd6cc98"><path d="M 6.984375 105 L 73 105 L 73 143 L 6.984375 143 Z M 6.984375 105 " clip-rule="nonzero"/></clipPath><clipPath id="01701ad373"><path d="M 67.261719 105.34375 L 137.984375 105.34375 L 137.984375 144.648438 L 67.261719 144.648438 Z M 67.261719 105.34375 " clip-rule="nonzero"/></clipPath><clipPath id="34ba44944a"><path d="M 9 63.414062 L 67 63.414062 L 67 126 L 9 126 Z M 9 63.414062 " clip-rule="nonzero"/></clipPath><clipPath id="ef170faaad"><path d="M 94 63.414062 L 114 63.414062 L 114 82 L 94 82 Z M 94 63.414062 " clip-rule="nonzero"/></clipPath></defs><g clip-path="url(#949bd6cc98)"><path fill="#10778a" d="M 72.503906 142.765625 L 6.984375 142.765625 L 25.300781 105.359375 L 72.503906 105.359375 L 72.503906 142.765625 " fill-opacity="1" fill-rule="evenodd"/></g><g clip-path="url(#01701ad373)"><path fill="#10778a" d="M 76.488281 142.765625 L 138.019531 142.765625 L 119.707031 105.359375 L 72.503906 105.359375 L 72.503906 134.351562 C 69.625 134.351562 67.359375 136.679688 67.359375 139.5 C 67.359375 142.378906 69.625 144.648438 72.503906 144.648438 C 74.109375 144.648438 75.546875 143.929688 76.488281 142.765625 " fill-opacity="1" fill-rule="evenodd"/></g><path fill="#d1aa72" d="M 72.503906 142.765625 C 54.1875 138.671875 34.378906 137.953125 15.785156 140.164062 C 20.375 128.929688 24.96875 117.699219 29.5625 106.464844 C 33.492188 106.742188 40.296875 106.300781 44.226562 106.578125 C 51.863281 111.167969 57.949219 116.921875 65.585938 121.574219 C 67.855469 128.65625 70.179688 135.679688 72.503906 142.765625 " fill-opacity="1" fill-rule="evenodd"/><path fill="#d1aa72" d="M 72.503906 142.765625 C 90.820312 138.671875 110.628906 137.953125 129.164062 140.164062 C 124.574219 128.929688 119.980469 117.699219 115.390625 106.464844 C 111.515625 106.742188 104.652344 106.300781 100.726562 106.578125 C 93.144531 111.167969 87.058594 116.921875 79.417969 121.574219 C 77.09375 128.65625 74.828125 135.679688 72.503906 142.765625 " fill-opacity="1" fill-rule="evenodd"/><path fill="#ffbc66" d="M 72.503906 142.765625 C 58.449219 130.371094 35.761719 128.542969 19.4375 137.394531 C 24.691406 125.003906 29.949219 112.664062 35.207031 100.320312 C 48.484375 97.832031 60.9375 99.269531 72.503906 105.359375 L 72.503906 142.765625 " fill-opacity="1" fill-rule="evenodd"/><path fill="#ffbc66" d="M 72.503906 142.765625 C 86.558594 130.371094 109.191406 128.542969 125.570312 137.394531 C 120.3125 125.003906 115.058594 112.664062 109.800781 100.320312 C 96.519531 97.832031 84.015625 99.269531 72.503906 105.359375 L 72.503906 142.765625 " fill-opacity="1" fill-rule="evenodd"/><path fill="#fbeab4" d="M 72.503906 142.765625 C 62.597656 128.265625 46.605469 121.957031 29.175781 128.378906 C 33.382812 116.644531 37.640625 104.914062 41.847656 93.242188 C 53.632812 91.359375 66.914062 93.242188 72.503906 105.359375 C 78.089844 93.242188 91.371094 91.359375 103.160156 93.242188 C 107.363281 104.914062 111.570312 116.644531 115.777344 128.378906 C 98.347656 121.957031 82.410156 128.265625 72.503906 142.765625 " fill-opacity="1" fill-rule="evenodd"/><path fill="#d1aa72" d="M 72.503906 142.765625 C 72.226562 142.378906 71.894531 141.9375 71.617188 141.492188 L 71.617188 103.644531 C 71.894531 104.195312 72.226562 104.75 72.503906 105.359375 C 72.78125 104.75 73.054688 104.195312 73.386719 103.644531 L 73.386719 141.492188 C 73.113281 141.9375 72.78125 142.378906 72.503906 142.765625 " fill-opacity="1" fill-rule="evenodd"/><g clip-path="url(#34ba44944a)"><path fill="#d17609" d="M 33.214844 63.523438 L 38.304688 66.566406 L 43.507812 63.800781 L 42.179688 69.554688 L 46.4375 73.652344 L 40.574219 74.148438 L 37.972656 79.460938 L 35.707031 74.039062 L 29.839844 73.207031 L 34.265625 69.335938 Z M 9.808594 88.039062 L 16.335938 88.09375 L 19.710938 82.503906 L 21.648438 88.703125 L 28.015625 90.195312 L 22.699219 94.015625 L 23.253906 100.488281 L 17.996094 96.613281 L 12.019531 99.160156 L 14.070312 92.964844 Z M 33.050781 95.953125 L 36.921875 96.835938 L 39.6875 93.902344 L 40.078125 97.886719 L 43.726562 99.601562 L 40.019531 101.207031 L 39.523438 105.195312 L 36.867188 102.148438 L 32.9375 102.921875 L 34.984375 99.4375 Z M 58.117188 91.082031 L 60.273438 93.183594 L 63.207031 92.464844 L 61.824219 95.175781 L 63.480469 97.722656 L 60.4375 97.222656 L 58.558594 99.601562 L 58.058594 96.613281 L 55.238281 95.507812 L 57.894531 94.125 Z M 63.097656 103.808594 L 64.257812 105.578125 L 66.417969 105.46875 L 65.089844 107.128906 L 65.808594 109.121094 L 63.8125 108.347656 L 62.15625 109.675781 L 62.265625 107.574219 L 60.496094 106.410156 L 62.542969 105.859375 Z M 48.375 107.074219 L 51.367188 108.402344 L 54.078125 106.519531 L 53.6875 109.785156 L 56.34375 111.777344 L 53.136719 112.441406 L 52.085938 115.539062 L 50.425781 112.664062 L 47.101562 112.664062 L 49.320312 110.171875 Z M 59.996094 119.25 L 62.097656 120.519531 L 64.257812 119.355469 L 63.707031 121.792969 L 65.476562 123.453125 L 63.039062 123.675781 L 61.988281 125.886719 L 61.046875 123.621094 L 58.613281 123.289062 L 60.4375 121.683594 Z M 48.597656 78.355469 L 52.195312 80.566406 L 55.902344 78.578125 L 54.960938 82.671875 L 58.003906 85.550781 L 53.800781 85.9375 L 51.972656 89.699219 L 50.367188 85.824219 L 46.21875 85.269531 L 49.375 82.503906 L 48.597656 78.355469 " fill-opacity="1" fill-rule="evenodd"/></g><g clip-path="url(#ef170faaad)"><path fill="#d17609" d="M 109.800781 63.414062 L 103.988281 66.898438 L 97.957031 63.691406 L 99.503906 70.332031 L 94.582031 75.035156 L 101.390625 75.589844 L 104.320312 81.730469 L 106.976562 75.476562 L 113.726562 74.535156 L 108.582031 70.109375 L 109.800781 63.414062 " fill-opacity="1" fill-rule="evenodd"/></g><path fill="#d17609" d="M 133.207031 88.039062 L 126.675781 88.09375 L 123.300781 82.503906 L 121.363281 88.703125 L 115.003906 90.195312 L 120.3125 94.015625 L 119.761719 100.488281 L 125.015625 96.613281 L 130.992188 99.160156 L 128.949219 92.964844 L 133.207031 88.039062 " fill-opacity="1" fill-rule="evenodd"/><path fill="#d17609" d="M 113.230469 93.128906 L 107.972656 94.347656 L 104.320312 90.417969 L 103.824219 95.730469 L 98.953125 98.054688 L 103.878906 100.15625 L 104.542969 105.527344 L 108.082031 101.484375 L 113.398438 102.480469 L 110.628906 97.886719 L 113.230469 93.128906 " fill-opacity="1" fill-rule="evenodd"/><path fill="#d17609" d="M 84.898438 91.082031 L 82.742188 93.183594 L 79.808594 92.464844 L 81.191406 95.175781 L 79.53125 97.722656 L 82.574219 97.222656 L 84.457031 99.601562 L 84.953125 96.613281 L 87.777344 95.507812 L 85.121094 94.125 L 84.898438 91.082031 " fill-opacity="1" fill-rule="evenodd"/><path fill="#d17609" d="M 79.917969 103.808594 L 78.753906 105.578125 L 76.597656 105.46875 L 77.925781 107.128906 L 77.207031 109.121094 L 79.199219 108.347656 L 80.859375 109.675781 L 80.75 107.574219 L 82.515625 106.410156 L 80.46875 105.859375 L 79.917969 103.808594 " fill-opacity="1" fill-rule="evenodd"/><path fill="#d17609" d="M 94.640625 107.074219 L 91.648438 108.402344 L 88.9375 106.519531 L 89.324219 109.785156 L 86.667969 111.777344 L 89.878906 112.441406 L 90.984375 115.539062 L 92.589844 112.664062 L 95.910156 112.664062 L 93.695312 110.171875 L 94.640625 107.074219 " fill-opacity="1" fill-rule="evenodd"/><path fill="#d17609" d="M 83.019531 119.25 L 80.914062 120.519531 L 78.753906 119.355469 L 79.3125 121.792969 L 77.539062 123.453125 L 79.972656 123.675781 L 81.027344 125.886719 L 81.96875 123.621094 L 84.402344 123.289062 L 82.574219 121.683594 L 83.019531 119.25 " fill-opacity="1" fill-rule="evenodd"/><path fill="#d17609" d="M 94.414062 78.355469 L 90.820312 80.566406 L 87.113281 78.574219 L 88.054688 82.671875 L 85.011719 85.546875 L 89.214844 85.933594 L 91.039062 89.699219 L 92.644531 85.824219 L 96.851562 85.269531 L 93.640625 82.503906 L 94.414062 78.355469 " fill-opacity="1" fill-rule="evenodd"/><g fill="#071c29" fill-opacity="1"><g transform="translate(136.817062, 139.063289)"><g><path d="M 17.09375 1.359375 C 10.90625 1.359375 6.972656 0.164062 5.296875 -2.21875 C 3.617188 -4.613281 2.734375 -5.851562 2.640625 -5.9375 C 2.472656 -6.15625 2.390625 -6.367188 2.390625 -6.578125 C 2.390625 -6.710938 2.5625 -6.992188 2.90625 -7.421875 C 3.457031 -8.191406 4.273438 -9.113281 5.359375 -10.1875 C 5.523438 -10.363281 5.695312 -10.453125 5.875 -10.453125 C 6.082031 -10.453125 6.316406 -10.289062 6.578125 -9.96875 C 6.835938 -9.644531 7.050781 -9.394531 7.21875 -9.21875 C 9.757812 -6.6875 12.644531 -5.421875 15.875 -5.421875 C 17.507812 -5.421875 18.925781 -5.734375 20.125 -6.359375 C 21.332031 -6.984375 21.9375 -8.15625 21.9375 -9.875 C 21.9375 -12.84375 19.59375 -16.003906 14.90625 -19.359375 C 14.125 -19.867188 13.390625 -20.296875 12.703125 -20.640625 C 10.898438 -21.628906 9.351562 -22.597656 8.0625 -23.546875 C 6.769531 -24.492188 5.628906 -25.738281 4.640625 -27.28125 C 3.648438 -28.832031 3.15625 -30.640625 3.15625 -32.703125 C 3.15625 -35.285156 3.960938 -37.609375 5.578125 -39.671875 C 7.191406 -41.742188 9.128906 -43.359375 11.390625 -44.515625 C 13.648438 -45.671875 15.617188 -46.25 17.296875 -46.25 C 21.378906 -46.25 24.742188 -45.441406 27.390625 -43.828125 C 30.035156 -42.222656 32.085938 -40.6875 33.546875 -39.21875 C 33.722656 -39.050781 33.8125 -38.859375 33.8125 -38.640625 C 33.8125 -38.515625 33.753906 -38.351562 33.640625 -38.15625 C 33.535156 -37.96875 33.460938 -37.828125 33.421875 -37.734375 C 33.203125 -37.441406 32.84375 -36.914062 32.34375 -36.15625 C 31.851562 -35.40625 31.457031 -34.859375 31.15625 -34.515625 C 31.03125 -34.335938 30.890625 -34.148438 30.734375 -33.953125 C 30.585938 -33.765625 30.457031 -33.628906 30.34375 -33.546875 C 30.238281 -33.460938 30.082031 -33.421875 29.875 -33.421875 C 29.78125 -33.421875 29.570312 -33.554688 29.25 -33.828125 C 28.9375 -34.109375 28.628906 -34.359375 28.328125 -34.578125 C 26.597656 -36.085938 24.914062 -37.378906 23.28125 -38.453125 C 21.65625 -39.523438 20.085938 -40.0625 18.578125 -40.0625 C 17.378906 -40.0625 16.390625 -39.789062 15.609375 -39.25 C 14.835938 -38.71875 14.453125 -37.503906 14.453125 -35.609375 C 14.453125 -33.765625 15.140625 -32.320312 16.515625 -31.28125 C 17.890625 -30.25 19.71875 -29.265625 22 -28.328125 C 22.21875 -28.234375 23.472656 -27.691406 25.765625 -26.703125 C 28.066406 -25.710938 30.109375 -23.820312 31.890625 -21.03125 C 33.679688 -18.238281 34.578125 -14.90625 34.578125 -11.03125 C 34.578125 -6.90625 33.03125 -3.804688 29.9375 -1.734375 C 26.84375 0.328125 22.5625 1.359375 17.09375 1.359375 Z M 17.09375 1.359375 "/></g></g></g><g fill="#071c29" fill-opacity="1"><g transform="translate(179.382394, 139.063289)"><g><path d="M 10.0625 0.265625 C 8.34375 0.265625 7.050781 0.00390625 6.1875 -0.515625 C 5.332031 -1.035156 4.773438 -1.753906 4.515625 -2.671875 C 4.253906 -3.597656 4.125 -4.859375 4.125 -6.453125 L 4.1875 -10.453125 L 4.515625 -18.0625 L 4.703125 -23.734375 L 4.703125 -33.15625 C 2.640625 -33.15625 1.457031 -33.5 1.15625 -34.1875 C 1.03125 -34.53125 0.96875 -34.898438 0.96875 -35.296875 C 0.96875 -35.722656 1 -36.128906 1.0625 -36.515625 C 1.125 -36.898438 1.15625 -37.265625 1.15625 -37.609375 C 1.9375 -37.566406 3.117188 -37.546875 4.703125 -37.546875 L 4.78125 -37.8125 L 4.84375 -40.25 L 4.84375 -43.03125 C 4.800781 -44.0625 4.875 -44.757812 5.0625 -45.125 C 5.257812 -45.488281 5.550781 -45.671875 5.9375 -45.671875 C 6.15625 -45.671875 6.328125 -45.648438 6.453125 -45.609375 L 6.578125 -45.609375 C 6.660156 -45.609375 6.8125 -45.617188 7.03125 -45.640625 C 7.25 -45.660156 7.441406 -45.628906 7.609375 -45.546875 C 8.472656 -45.421875 8.90625 -45.054688 8.90625 -44.453125 C 8.90625 -44.316406 8.863281 -43.820312 8.78125 -42.96875 C 8.5625 -41.457031 8.410156 -39.648438 8.328125 -37.546875 L 14.515625 -37.546875 C 14.859375 -37.546875 15.132812 -37.253906 15.34375 -36.671875 C 15.5625 -36.097656 15.671875 -35.488281 15.671875 -34.84375 C 15.671875 -33.976562 15.476562 -33.484375 15.09375 -33.359375 C 14.28125 -33.097656 13.289062 -32.96875 12.125 -32.96875 C 11.09375 -32.96875 9.804688 -33.050781 8.265625 -33.21875 L 8.265625 -17.9375 L 8.1875 -15.359375 C 8.0625 -13.679688 8 -11.9375 8 -10.125 L 8 -8.84375 C 8 -7.46875 8.300781 -6.445312 8.90625 -5.78125 C 9.507812 -5.113281 10.304688 -4.78125 11.296875 -4.78125 C 12.234375 -4.78125 13.046875 -4.8125 13.734375 -4.875 C 14.429688 -4.9375 14.925781 -4.96875 15.21875 -4.96875 C 15.695312 -4.96875 15.9375 -4.128906 15.9375 -2.453125 L 16.1875 -1.421875 C 16.320312 -1.117188 16.300781 -0.945312 16.125 -0.90625 C 14.75 -0.382812 13.726562 -0.0625 13.0625 0.0625 C 12.394531 0.195312 11.394531 0.265625 10.0625 0.265625 Z M 10.0625 0.265625 "/></g></g></g><g fill="#071c29" fill-opacity="1"><g transform="translate(202.343039, 139.063289)"><g><path d="M 16.78125 1.421875 C 11.101562 1.421875 7.316406 -0.757812 5.421875 -5.125 C 3.523438 -9.488281 2.578125 -14.164062 2.578125 -19.15625 C 2.578125 -23.976562 3.304688 -27.835938 4.765625 -30.734375 C 6.234375 -33.640625 8.007812 -35.671875 10.09375 -36.828125 C 12.175781 -37.992188 14.273438 -38.578125 16.390625 -38.578125 C 20.347656 -38.578125 23.335938 -37.535156 25.359375 -35.453125 C 27.378906 -33.367188 28.664062 -30.894531 29.21875 -28.03125 C 29.78125 -25.164062 30.0625 -21.953125 30.0625 -18.390625 C 30.0625 -15.503906 29.578125 -12.523438 28.609375 -9.453125 C 27.640625 -6.378906 26.15625 -3.796875 24.15625 -1.703125 C 22.15625 0.378906 19.695312 1.421875 16.78125 1.421875 Z M 16.328125 -11.09375 C 17.742188 -11.09375 18.785156 -11.757812 19.453125 -13.09375 C 20.117188 -14.425781 20.453125 -16.039062 20.453125 -17.9375 C 20.453125 -20.382812 20.140625 -22.113281 19.515625 -23.125 C 18.890625 -24.132812 17.953125 -24.640625 16.703125 -24.640625 C 14.035156 -24.640625 12.703125 -22.234375 12.703125 -17.421875 C 12.703125 -15.609375 12.9375 -14.097656 13.40625 -12.890625 C 13.882812 -11.691406 14.859375 -11.09375 16.328125 -11.09375 Z M 16.328125 -11.09375 "/></g></g></g><g fill="#071c29" fill-opacity="1"><g transform="translate(240.394136, 139.063289)"><g><path d="M 13.21875 0.1875 C 13.175781 0.1875 12.84375 0.144531 12.21875 0.0625 C 11.601562 -0.0195312 10.773438 -0.0625 9.734375 -0.0625 L 4.78125 0 C 4.132812 0 3.8125 -0.257812 3.8125 -0.78125 C 3.8125 -0.945312 3.820312 -1.523438 3.84375 -2.515625 C 3.863281 -3.503906 3.875 -5.203125 3.875 -7.609375 C 3.875 -10.066406 3.945312 -12.429688 4.09375 -14.703125 C 4.25 -16.984375 4.328125 -18.253906 4.328125 -18.515625 L 4.703125 -30.1875 L 4.78125 -36.84375 C 4.78125 -37.3125 4.882812 -37.566406 5.09375 -37.609375 C 5.3125 -37.609375 5.785156 -37.585938 6.515625 -37.546875 C 7.242188 -37.503906 8.171875 -37.484375 9.296875 -37.484375 C 10.148438 -37.484375 10.992188 -37.503906 11.828125 -37.546875 C 12.671875 -37.585938 13.179688 -37.609375 13.359375 -37.609375 C 13.484375 -37.609375 13.597656 -37.53125 13.703125 -37.375 C 13.816406 -37.226562 13.875 -37.113281 13.875 -37.03125 L 14 -35.21875 C 15.457031 -36.164062 17.164062 -36.972656 19.125 -37.640625 C 21.082031 -38.304688 22.578125 -38.640625 23.609375 -38.640625 C 23.867188 -38.640625 24.039062 -38.617188 24.125 -38.578125 C 24.21875 -38.535156 24.316406 -38.351562 24.421875 -38.03125 C 24.523438 -37.707031 24.617188 -37.4375 24.703125 -37.21875 C 25.140625 -36.144531 25.421875 -34.859375 25.546875 -33.359375 C 25.585938 -32.671875 25.695312 -31.875 25.875 -30.96875 C 25.957031 -30.582031 26 -30.109375 26 -29.546875 C 26 -29.203125 25.976562 -29.007812 25.9375 -28.96875 C 25.59375 -28.445312 25.078125 -28.085938 24.390625 -27.890625 C 23.703125 -27.703125 22.691406 -27.523438 21.359375 -27.359375 C 19.679688 -27.179688 18.238281 -26.921875 17.03125 -26.578125 L 14.1875 -25.9375 L 14.265625 -23.359375 C 14.265625 -21.929688 14.285156 -21.195312 14.328125 -21.15625 L 14.390625 -15.671875 C 14.472656 -12.835938 14.515625 -8.96875 14.515625 -4.0625 C 14.515625 -2.164062 14.429688 -0.898438 14.265625 -0.265625 C 14.265625 0.0351562 13.914062 0.1875 13.21875 0.1875 Z M 13.21875 0.1875 "/></g></g></g><g fill="#071c29" fill-opacity="1"><g transform="translate(272.576726, 139.063289)"><g><path d="M 16.703125 10.390625 C 16.054688 10.429688 15.15625 10.390625 14 10.265625 C 13.132812 10.171875 12.296875 10.125 11.484375 10.125 C 11.304688 10.125 10.773438 10.15625 9.890625 10.21875 C 9.015625 10.289062 8.296875 10.328125 7.734375 10.328125 C 7.265625 10.328125 7.007812 10.304688 6.96875 10.265625 C 6.882812 10.210938 6.84375 10.082031 6.84375 9.875 C 6.84375 9.613281 6.894531 9.351562 7 9.09375 C 7.101562 8.832031 7.15625 8.679688 7.15625 8.640625 L 8.0625 6.125 C 8.144531 5.957031 8.226562 5.722656 8.3125 5.421875 C 8.40625 5.117188 8.535156 4.753906 8.703125 4.328125 L 10.453125 -2 L 5.421875 -18.78125 C 4.734375 -21.351562 3.925781 -24.5 3 -28.21875 C 2.070312 -31.945312 1.375 -34.800781 0.90625 -36.78125 C 0.820312 -37.03125 0.78125 -37.175781 0.78125 -37.21875 C 0.78125 -37.476562 0.992188 -37.609375 1.421875 -37.609375 C 1.679688 -37.609375 1.972656 -37.585938 2.296875 -37.546875 C 2.617188 -37.503906 2.953125 -37.484375 3.296875 -37.484375 L 6 -37.546875 L 9.421875 -37.671875 C 10.109375 -37.710938 10.554688 -37.625 10.765625 -37.40625 C 10.984375 -37.195312 11.179688 -36.789062 11.359375 -36.1875 C 11.359375 -36.445312 11.914062 -33.953125 13.03125 -28.703125 L 14.578125 -19.734375 L 15.421875 -14.84375 L 15.8125 -14.84375 L 16.515625 -18.96875 C 16.597656 -19.738281 16.84375 -20.851562 17.25 -22.3125 C 17.664062 -23.78125 17.914062 -24.6875 18 -25.03125 C 18.257812 -26.144531 18.625 -27.457031 19.09375 -28.96875 C 19.226562 -29.476562 19.519531 -30.570312 19.96875 -32.25 C 20.414062 -33.9375 20.6875 -35.1875 20.78125 -36 C 20.863281 -36.8125 21.019531 -37.316406 21.25 -37.515625 C 21.488281 -37.710938 21.78125 -37.796875 22.125 -37.765625 C 22.46875 -37.742188 22.707031 -37.734375 22.84375 -37.734375 C 26.582031 -37.734375 28.945312 -37.691406 29.9375 -37.609375 C 30.625 -37.523438 30.96875 -37.332031 30.96875 -37.03125 C 30.96875 -36.945312 30.925781 -36.6875 30.84375 -36.25 C 30.707031 -36 30.519531 -35.570312 30.28125 -34.96875 C 30.050781 -34.363281 29.867188 -33.867188 29.734375 -33.484375 C 29.304688 -32.191406 29.09375 -31.546875 29.09375 -31.546875 C 27.59375 -25.828125 26.328125 -21.632812 25.296875 -18.96875 C 24.859375 -17.800781 24.378906 -16.128906 23.859375 -13.953125 C 23.347656 -11.785156 23.03125 -10.40625 22.90625 -9.8125 C 22.644531 -8.519531 22.34375 -7.269531 22 -6.0625 C 21.613281 -4.425781 21.117188 -2.515625 20.515625 -0.328125 L 19.09375 5.09375 C 18.96875 5.78125 18.722656 6.703125 18.359375 7.859375 C 17.992188 9.023438 17.785156 9.675781 17.734375 9.8125 C 17.691406 10.195312 17.347656 10.390625 16.703125 10.390625 Z M 16.703125 10.390625 "/></g></g></g><g fill="#071c29" fill-opacity="1"><g transform="translate(309.467027, 139.063289)"><g/></g></g><g fill="#071c29" fill-opacity="1"><g transform="translate(331.653819, 139.063289)"><g><path d="M 18.90625 0.78125 C 16.101562 0.78125 13.421875 -0.257812 10.859375 -2.34375 C 8.304688 -4.4375 6.253906 -7.289062 4.703125 -10.90625 C 3.160156 -14.519531 2.390625 -18.5 2.390625 -22.84375 C 2.390625 -27.144531 3.128906 -31.015625 4.609375 -34.453125 C 6.097656 -37.890625 8.003906 -40.578125 10.328125 -42.515625 C 12.648438 -44.453125 15.035156 -45.421875 17.484375 -45.421875 C 20.535156 -45.421875 22.992188 -44.785156 24.859375 -43.515625 C 26.734375 -42.242188 28.082031 -41.03125 28.90625 -39.875 C 29.070312 -39.613281 29.226562 -39.375 29.375 -39.15625 C 29.53125 -38.945312 29.609375 -38.734375 29.609375 -38.515625 C 29.609375 -38.253906 29.375 -37.910156 28.90625 -37.484375 C 26.925781 -35.929688 25.503906 -34.578125 24.640625 -33.421875 C 24.210938 -32.859375 23.847656 -32.4375 23.546875 -32.15625 C 23.242188 -31.875 22.941406 -31.734375 22.640625 -31.734375 C 22.335938 -31.734375 21.992188 -31.953125 21.609375 -32.390625 C 20.710938 -33.378906 20.015625 -34.078125 19.515625 -34.484375 C 19.023438 -34.890625 18.429688 -35.09375 17.734375 -35.09375 C 16.660156 -35.09375 15.597656 -34.640625 14.546875 -33.734375 C 13.492188 -32.835938 12.601562 -31.34375 11.875 -29.25 C 11.144531 -27.164062 10.78125 -24.488281 10.78125 -21.21875 C 10.78125 -18.039062 11.238281 -15.515625 12.15625 -13.640625 C 13.082031 -11.773438 14.132812 -10.472656 15.3125 -9.734375 C 16.5 -9.003906 17.523438 -8.640625 18.390625 -8.640625 C 19.160156 -8.640625 19.953125 -8.910156 20.765625 -9.453125 C 21.585938 -9.992188 22.300781 -10.5625 22.90625 -11.15625 C 22.988281 -11.25 23.125 -11.398438 23.3125 -11.609375 C 23.507812 -11.828125 23.695312 -11.9375 23.875 -11.9375 C 24.082031 -11.9375 24.335938 -11.847656 24.640625 -11.671875 L 30.125 -8.640625 C 30.300781 -8.554688 30.570312 -8.4375 30.9375 -8.28125 C 31.300781 -8.132812 31.554688 -7.992188 31.703125 -7.859375 C 31.859375 -7.734375 31.9375 -7.566406 31.9375 -7.359375 C 31.9375 -7.140625 31.867188 -6.898438 31.734375 -6.640625 C 30.796875 -5.054688 29.316406 -3.421875 27.296875 -1.734375 C 25.273438 -0.0546875 22.476562 0.78125 18.90625 0.78125 Z M 18.90625 0.78125 "/></g></g></g><g fill="#071c29" fill-opacity="1"><g transform="translate(370.285317, 139.063289)"><g><path d="M 13.21875 0.1875 C 13.175781 0.1875 12.84375 0.144531 12.21875 0.0625 C 11.601562 -0.0195312 10.773438 -0.0625 9.734375 -0.0625 L 4.78125 0 C 4.132812 0 3.8125 -0.257812 3.8125 -0.78125 C 3.8125 -0.945312 3.820312 -1.523438 3.84375 -2.515625 C 3.863281 -3.503906 3.875 -5.203125 3.875 -7.609375 C 3.875 -10.066406 3.945312 -12.429688 4.09375 -14.703125 C 4.25 -16.984375 4.328125 -18.253906 4.328125 -18.515625 L 4.703125 -30.1875 L 4.78125 -36.84375 C 4.78125 -37.3125 4.882812 -37.566406 5.09375 -37.609375 C 5.3125 -37.609375 5.785156 -37.585938 6.515625 -37.546875 C 7.242188 -37.503906 8.171875 -37.484375 9.296875 -37.484375 C 10.148438 -37.484375 10.992188 -37.503906 11.828125 -37.546875 C 12.671875 -37.585938 13.179688 -37.609375 13.359375 -37.609375 C 13.484375 -37.609375 13.597656 -37.53125 13.703125 -37.375 C 13.816406 -37.226562 13.875 -37.113281 13.875 -37.03125 L 14 -35.21875 C 15.457031 -36.164062 17.164062 -36.972656 19.125 -37.640625 C 21.082031 -38.304688 22.578125 -38.640625 23.609375 -38.640625 C 23.867188 -38.640625 24.039062 -38.617188 24.125 -38.578125 C 24.21875 -38.535156 24.316406 -38.351562 24.421875 -38.03125 C 24.523438 -37.707031 24.617188 -37.4375 24.703125 -37.21875 C 25.140625 -36.144531 25.421875 -34.859375 25.546875 -33.359375 C 25.585938 -32.671875 25.695312 -31.875 25.875 -30.96875 C 25.957031 -30.582031 26 -30.109375 26 -29.546875 C 26 -29.203125 25.976562 -29.007812 25.9375 -28.96875 C 25.59375 -28.445312 25.078125 -28.085938 24.390625 -27.890625 C 23.703125 -27.703125 22.691406 -27.523438 21.359375 -27.359375 C 19.679688 -27.179688 18.238281 -26.921875 17.03125 -26.578125 L 14.1875 -25.9375 L 14.265625 -23.359375 C 14.265625 -21.929688 14.285156 -21.195312 14.328125 -21.15625 L 14.390625 -15.671875 C 14.472656 -12.835938 14.515625 -8.96875 14.515625 -4.0625 C 14.515625 -2.164062 14.429688 -0.898438 14.265625 -0.265625 C 14.265625 0.0351562 13.914062 0.1875 13.21875 0.1875 Z M 13.21875 0.1875 "/></g></g></g><g fill="#071c29" fill-opacity="1"><g transform="translate(402.467922, 139.063289)"><g><path d="M 12.328125 0.703125 C 9.179688 0.703125 6.660156 0.0820312 4.765625 -1.15625 C 2.878906 -2.40625 1.9375 -4.625 1.9375 -7.8125 C 2.15625 -9.875 3.679688 -11.398438 6.515625 -12.390625 C 9.359375 -13.378906 12.539062 -13.875 16.0625 -13.875 C 17.175781 -13.875 18.507812 -13.957031 20.0625 -14.125 C 21.613281 -14.300781 23.035156 -14.390625 24.328125 -14.390625 C 24.148438 -19.035156 23.859375 -22.679688 23.453125 -25.328125 C 23.046875 -27.972656 22.359375 -29.960938 21.390625 -31.296875 C 20.421875 -32.628906 19.054688 -33.296875 17.296875 -33.296875 C 16.003906 -33.296875 14.773438 -32.992188 13.609375 -32.390625 C 12.453125 -31.785156 11.015625 -30.835938 9.296875 -29.546875 C 7.867188 -28.515625 7.15625 -28 7.15625 -28 C 7.113281 -28 6.972656 -27.921875 6.734375 -27.765625 C 6.503906 -27.617188 6.28125 -27.566406 6.0625 -27.609375 C 5.675781 -27.691406 5.484375 -27.882812 5.484375 -28.1875 C 5.304688 -28.445312 5.097656 -29.03125 4.859375 -29.9375 C 4.628906 -30.84375 4.515625 -31.488281 4.515625 -31.875 C 4.515625 -32.125 4.773438 -32.425781 5.296875 -32.78125 C 7.484375 -34.40625 9.335938 -35.613281 10.859375 -36.40625 C 12.390625 -37.207031 13.703125 -37.710938 14.796875 -37.921875 C 15.898438 -38.140625 17.179688 -38.25 18.640625 -38.25 C 22.941406 -38.25 25.832031 -36.863281 27.3125 -34.09375 C 28.800781 -31.320312 29.546875 -27.632812 29.546875 -23.03125 C 29.546875 -21.820312 29.503906 -20.1875 29.421875 -18.125 C 29.421875 -16.882812 29.332031 -15.054688 29.15625 -12.640625 L 29.09375 -11.09375 L 29.15625 -7.296875 C 29.25 -5.566406 29.296875 -4.253906 29.296875 -3.359375 L 29.21875 -1.421875 C 29.132812 -0.429688 28.75 0.0625 28.0625 0.0625 L 27.546875 0 L 24.90625 0 C 24.726562 0 24.5625 -0.0703125 24.40625 -0.21875 C 24.257812 -0.375 24.1875 -0.5625 24.1875 -0.78125 L 24.1875 -1.296875 C 21.613281 -0.554688 19.550781 -0.0390625 18 0.25 C 16.445312 0.550781 14.554688 0.703125 12.328125 0.703125 Z M 12.390625 -2.96875 C 16.992188 -2.96875 20.925781 -3.742188 24.1875 -5.296875 L 24.390625 -11.296875 C 22.367188 -11.460938 20.625 -11.546875 19.15625 -11.546875 L 15.359375 -11.484375 C 13.296875 -11.484375 11.445312 -11.082031 9.8125 -10.28125 C 8.175781 -9.488281 7.289062 -8.382812 7.15625 -6.96875 C 7.15625 -5.414062 7.519531 -4.359375 8.25 -3.796875 C 8.988281 -3.242188 10.367188 -2.96875 12.390625 -2.96875 Z M 12.390625 -2.96875 "/></g></g></g><g fill="#071c29" fill-opacity="1"><g transform="translate(442.066779, 139.063289)"><g><path d="M 6.265625 0.1875 C 5.484375 0.1875 5.132812 -0.691406 5.21875 -2.453125 L 5.21875 -7.8125 L 5.296875 -11.296875 C 5.296875 -12.578125 5.25 -14.507812 5.15625 -17.09375 L 5.09375 -21.21875 L 5.09375 -23.15625 L 3.8125 -23.15625 C 3.207031 -23.15625 2.804688 -23.21875 2.609375 -23.34375 C 2.421875 -23.476562 2.328125 -23.71875 2.328125 -24.0625 L 2.265625 -24.90625 C 2.265625 -25.332031 2.378906 -25.617188 2.609375 -25.765625 C 2.847656 -25.921875 3.3125 -26 4 -26 L 5.296875 -26 C 5.335938 -26.769531 5.347656 -27.476562 5.328125 -28.125 C 5.304688 -28.769531 5.296875 -29.332031 5.296875 -29.8125 L 5.296875 -32.125 C 5.296875 -33.070312 5.269531 -33.804688 5.21875 -34.328125 L 5.15625 -37.03125 C 5.15625 -39.738281 5.414062 -41.757812 5.9375 -43.09375 C 6.539062 -44.769531 7.601562 -45.992188 9.125 -46.765625 C 10.65625 -47.546875 12.300781 -47.9375 14.0625 -47.9375 C 15.820312 -47.9375 17.226562 -47.828125 18.28125 -47.609375 C 19.34375 -47.398438 20.390625 -46.945312 21.421875 -46.25 C 21.722656 -46.082031 21.785156 -45.828125 21.609375 -45.484375 C 21.347656 -45.054688 21.132812 -44.519531 20.96875 -43.875 L 20.390625 -42 C 20.347656 -41.914062 20.269531 -41.644531 20.15625 -41.1875 C 20.050781 -40.738281 19.910156 -40.515625 19.734375 -40.515625 C 19.441406 -40.515625 18.984375 -40.546875 18.359375 -40.609375 C 17.734375 -40.671875 17.035156 -40.703125 16.265625 -40.703125 C 15.566406 -40.703125 15.066406 -40.539062 14.765625 -40.21875 C 14.472656 -39.894531 14.304688 -39.347656 14.265625 -38.578125 L 14.265625 -25.875 L 16.515625 -25.9375 C 16.984375 -25.976562 17.648438 -26 18.515625 -26 C 19.203125 -26 19.664062 -25.910156 19.90625 -25.734375 C 20.144531 -25.566406 20.265625 -25.289062 20.265625 -24.90625 L 20.1875 -24.0625 C 20.1875 -23.71875 20.085938 -23.476562 19.890625 -23.34375 C 19.703125 -23.21875 19.304688 -23.15625 18.703125 -23.15625 C 17.929688 -23.15625 17.3125 -23.175781 16.84375 -23.21875 L 14.265625 -23.296875 C 14.210938 -22.609375 14.1875 -21.851562 14.1875 -21.03125 C 14.144531 -20.726562 14.125 -20.234375 14.125 -19.546875 C 14.125 -18.597656 14.101562 -17.910156 14.0625 -17.484375 C 14.0625 -17.140625 14.050781 -16.707031 14.03125 -16.1875 C 14.007812 -15.675781 14.019531 -15.078125 14.0625 -14.390625 C 14.019531 -13.484375 14 -12.210938 14 -10.578125 C 14 -7.742188 14.128906 -5.097656 14.390625 -2.640625 C 14.429688 -2.210938 14.453125 -1.71875 14.453125 -1.15625 C 14.453125 -0.8125 14.351562 -0.550781 14.15625 -0.375 C 13.96875 -0.207031 13.632812 -0.101562 13.15625 -0.0625 C 12.425781 0.0195312 11.113281 0.0625 9.21875 0.0625 C 8.75 0.101562 8.210938 0.125 7.609375 0.125 C 7.484375 0.164062 7.035156 0.1875 6.265625 0.1875 Z M 6.265625 0.1875 "/></g></g></g><g fill="#071c29" fill-opacity="1"><g transform="translate(469.864115, 139.063289)"><g><path d="M 10.0625 0.265625 C 8.34375 0.265625 7.050781 0.00390625 6.1875 -0.515625 C 5.332031 -1.035156 4.773438 -1.753906 4.515625 -2.671875 C 4.253906 -3.597656 4.125 -4.859375 4.125 -6.453125 L 4.1875 -10.453125 L 4.515625 -18.0625 L 4.703125 -23.734375 L 4.703125 -33.15625 C 2.640625 -33.15625 1.457031 -33.5 1.15625 -34.1875 C 1.03125 -34.53125 0.96875 -34.898438 0.96875 -35.296875 C 0.96875 -35.722656 1 -36.128906 1.0625 -36.515625 C 1.125 -36.898438 1.15625 -37.265625 1.15625 -37.609375 C 1.9375 -37.566406 3.117188 -37.546875 4.703125 -37.546875 L 4.78125 -37.8125 L 4.84375 -40.25 L 4.84375 -43.03125 C 4.800781 -44.0625 4.875 -44.757812 5.0625 -45.125 C 5.257812 -45.488281 5.550781 -45.671875 5.9375 -45.671875 C 6.15625 -45.671875 6.328125 -45.648438 6.453125 -45.609375 L 6.578125 -45.609375 C 6.660156 -45.609375 6.8125 -45.617188 7.03125 -45.640625 C 7.25 -45.660156 7.441406 -45.628906 7.609375 -45.546875 C 8.472656 -45.421875 8.90625 -45.054688 8.90625 -44.453125 C 8.90625 -44.316406 8.863281 -43.820312 8.78125 -42.96875 C 8.5625 -41.457031 8.410156 -39.648438 8.328125 -37.546875 L 14.515625 -37.546875 C 14.859375 -37.546875 15.132812 -37.253906 15.34375 -36.671875 C 15.5625 -36.097656 15.671875 -35.488281 15.671875 -34.84375 C 15.671875 -33.976562 15.476562 -33.484375 15.09375 -33.359375 C 14.28125 -33.097656 13.289062 -32.96875 12.125 -32.96875 C 11.09375 -32.96875 9.804688 -33.050781 8.265625 -33.21875 L 8.265625 -17.9375 L 8.1875 -15.359375 C 8.0625 -13.679688 8 -11.9375 8 -10.125 L 8 -8.84375 C 8 -7.46875 8.300781 -6.445312 8.90625 -5.78125 C 9.507812 -5.113281 10.304688 -4.78125 11.296875 -4.78125 C 12.234375 -4.78125 13.046875 -4.8125 13.734375 -4.875 C 14.429688 -4.9375 14.925781 -4.96875 15.21875 -4.96875 C 15.695312 -4.96875 15.9375 -4.128906 15.9375 -2.453125 L 16.1875 -1.421875 C 16.320312 -1.117188 16.300781 -0.945312 16.125 -0.90625 C 14.75 -0.382812 13.726562 -0.0625 13.0625 0.0625 C 12.394531 0.195312 11.394531 0.265625 10.0625 0.265625 Z M 10.0625 0.265625 "/></g></g></g><g fill="#071c29" fill-opacity="1"><g transform="translate(492.82477, 139.063289)"><g><path d="M 17.734375 1.421875 C 11.285156 1.421875 6.984375 -0.757812 4.828125 -5.125 C 2.679688 -9.488281 1.609375 -14.164062 1.609375 -19.15625 C 1.609375 -23.976562 2.335938 -27.835938 3.796875 -30.734375 C 5.265625 -33.640625 7.039062 -35.671875 9.125 -36.828125 C 11.21875 -37.992188 13.316406 -38.578125 15.421875 -38.578125 C 19.378906 -38.578125 22.359375 -37.4375 24.359375 -35.15625 C 26.359375 -32.875 27.644531 -30.21875 28.21875 -27.1875 C 28.800781 -24.15625 29.09375 -20.878906 29.09375 -17.359375 C 29.09375 -17.054688 28.878906 -16.863281 28.453125 -16.78125 C 27.035156 -16.78125 23.765625 -16.539062 18.640625 -16.0625 C 17.828125 -15.976562 16.835938 -15.878906 15.671875 -15.765625 C 14.515625 -15.660156 13.226562 -15.566406 11.8125 -15.484375 C 12.195312 -11.304688 14.453125 -9.21875 18.578125 -9.21875 C 19.953125 -9.21875 21.015625 -9.347656 21.765625 -9.609375 C 22.523438 -9.867188 23.742188 -10.40625 25.421875 -11.21875 C 25.722656 -11.21875 25.988281 -11.046875 26.21875 -10.703125 C 26.457031 -10.359375 26.789062 -9.648438 27.21875 -8.578125 C 27.351562 -8.367188 27.515625 -7.960938 27.703125 -7.359375 C 27.898438 -6.753906 28.085938 -6.300781 28.265625 -6 C 29.078125 -3.9375 29.460938 -2.863281 29.421875 -2.78125 C 29.335938 -2.601562 29.097656 -2.363281 28.703125 -2.0625 C 27.804688 -1.15625 26.359375 -0.347656 24.359375 0.359375 C 22.359375 1.066406 20.148438 1.421875 17.734375 1.421875 Z M 19.296875 -19.875 C 18.953125 -24.769531 17.765625 -27.21875 15.734375 -27.21875 C 14.535156 -27.21875 13.613281 -26.519531 12.96875 -25.125 C 12.320312 -23.726562 11.9375 -21.757812 11.8125 -19.21875 Z M 19.296875 -19.875 "/></g></g></g><g fill="#071c29" fill-opacity="1"><g transform="translate(529.328146, 139.063289)"><g><path d="M 13.21875 0.1875 C 13.175781 0.1875 12.84375 0.144531 12.21875 0.0625 C 11.601562 -0.0195312 10.773438 -0.0625 9.734375 -0.0625 L 4.78125 0 C 4.132812 0 3.8125 -0.257812 3.8125 -0.78125 C 3.8125 -0.945312 3.820312 -1.523438 3.84375 -2.515625 C 3.863281 -3.503906 3.875 -5.203125 3.875 -7.609375 C 3.875 -10.066406 3.945312 -12.429688 4.09375 -14.703125 C 4.25 -16.984375 4.328125 -18.253906 4.328125 -18.515625 L 4.703125 -30.1875 L 4.78125 -36.84375 C 4.78125 -37.3125 4.882812 -37.566406 5.09375 -37.609375 C 5.3125 -37.609375 5.785156 -37.585938 6.515625 -37.546875 C 7.242188 -37.503906 8.171875 -37.484375 9.296875 -37.484375 C 10.148438 -37.484375 10.992188 -37.503906 11.828125 -37.546875 C 12.671875 -37.585938 13.179688 -37.609375 13.359375 -37.609375 C 13.484375 -37.609375 13.597656 -37.53125 13.703125 -37.375 C 13.816406 -37.226562 13.875 -37.113281 13.875 -37.03125 L 14 -35.21875 C 15.457031 -36.164062 17.164062 -36.972656 19.125 -37.640625 C 21.082031 -38.304688 22.578125 -38.640625 23.609375 -38.640625 C 23.867188 -38.640625 24.039062 -38.617188 24.125 -38.578125 C 24.21875 -38.535156 24.316406 -38.351562 24.421875 -38.03125 C 24.523438 -37.707031 24.617188 -37.4375 24.703125 -37.21875 C 25.140625 -36.144531 25.421875 -34.859375 25.546875 -33.359375 C 25.585938 -32.671875 25.695312 -31.875 25.875 -30.96875 C 25.957031 -30.582031 26 -30.109375 26 -29.546875 C 26 -29.203125 25.976562 -29.007812 25.9375 -28.96875 C 25.59375 -28.445312 25.078125 -28.085938 24.390625 -27.890625 C 23.703125 -27.703125 22.691406 -27.523438 21.359375 -27.359375 C 19.679688 -27.179688 18.238281 -26.921875 17.03125 -26.578125 L 14.1875 -25.9375 L 14.265625 -23.359375 C 14.265625 -21.929688 14.285156 -21.195312 14.328125 -21.15625 L 14.390625 -15.671875 C 14.472656 -12.835938 14.515625 -8.96875 14.515625 -4.0625 C 14.515625 -2.164062 14.429688 -0.898438 14.265625 -0.265625 C 14.265625 0.0351562 13.914062 0.1875 13.21875 0.1875 Z M 13.21875 0.1875 "/></g></g></g><g fill="#071c29" fill-opacity="1"><g transform="translate(561.510751, 139.063289)"><g><path d="M 14.640625 1.09375 C 12.015625 1.09375 9.84375 0.769531 8.125 0.125 C 6.40625 -0.519531 5.363281 -1.003906 5 -1.328125 C 4.632812 -1.648438 3.828125 -2.429688 2.578125 -3.671875 C 2.316406 -3.929688 2.253906 -4.101562 2.390625 -4.1875 C 2.472656 -4.40625 2.625 -4.644531 2.84375 -4.90625 L 3.671875 -5.9375 C 3.890625 -6.238281 4.28125 -6.734375 4.84375 -7.421875 C 4.96875 -7.546875 5.117188 -7.609375 5.296875 -7.609375 C 5.460938 -7.609375 5.695312 -7.507812 6 -7.3125 C 6.300781 -7.125 6.5625 -6.921875 6.78125 -6.703125 C 6.820312 -6.660156 7.066406 -6.457031 7.515625 -6.09375 C 7.960938 -5.726562 8.617188 -5.40625 9.484375 -5.125 C 10.347656 -4.84375 11.296875 -4.703125 12.328125 -4.703125 C 13.703125 -4.703125 14.882812 -4.972656 15.875 -5.515625 C 16.863281 -6.054688 17.359375 -7.1875 17.359375 -8.90625 C 17.359375 -10.28125 17.066406 -11.441406 16.484375 -12.390625 C 15.898438 -13.335938 15.175781 -14.117188 14.3125 -14.734375 C 13.457031 -15.359375 12.28125 -16.082031 10.78125 -16.90625 C 9.101562 -17.851562 7.742188 -18.703125 6.703125 -19.453125 C 5.671875 -20.203125 4.800781 -21.222656 4.09375 -22.515625 C 3.382812 -23.804688 3.03125 -25.398438 3.03125 -27.296875 C 3.03125 -29.523438 3.628906 -31.5 4.828125 -33.21875 C 6.035156 -34.945312 7.679688 -36.269531 9.765625 -37.1875 C 11.859375 -38.113281 14.171875 -38.578125 16.703125 -38.578125 C 20.753906 -38.578125 23.820312 -37.726562 25.90625 -36.03125 C 27.988281 -34.332031 29.070312 -33.460938 29.15625 -33.421875 C 29.332031 -33.285156 29.421875 -33.132812 29.421875 -32.96875 C 29.421875 -32.84375 29.375 -32.710938 29.28125 -32.578125 C 29.195312 -32.453125 29.132812 -32.320312 29.09375 -32.1875 C 28.925781 -31.9375 28.632812 -31.488281 28.21875 -30.84375 C 27.8125 -30.195312 27.476562 -29.742188 27.21875 -29.484375 C 27.132812 -29.359375 27.023438 -29.195312 26.890625 -29 C 26.765625 -28.800781 26.648438 -28.679688 26.546875 -28.640625 C 26.441406 -28.597656 26.300781 -28.578125 26.125 -28.578125 C 25.957031 -28.660156 25.359375 -29.117188 24.328125 -29.953125 C 23.296875 -30.796875 22.144531 -31.582031 20.875 -32.3125 C 19.601562 -33.050781 18.515625 -33.421875 17.609375 -33.421875 C 16.660156 -33.421875 15.992188 -33.109375 15.609375 -32.484375 C 15.222656 -31.859375 15.03125 -30.816406 15.03125 -29.359375 C 15.03125 -28.273438 15.285156 -27.367188 15.796875 -26.640625 C 16.316406 -25.910156 16.8125 -25.394531 17.28125 -25.09375 C 17.757812 -24.789062 18.664062 -24.296875 20 -23.609375 C 21.59375 -22.960938 22.976562 -22.296875 24.15625 -21.609375 C 25.34375 -20.921875 26.484375 -19.71875 27.578125 -18 C 28.671875 -16.28125 29.21875 -14 29.21875 -11.15625 C 29.21875 -2.988281 24.359375 1.09375 14.640625 1.09375 Z M 14.640625 1.09375 "/></g></g></g></svg>